<svg xmlns="http://www.w3.org/2000/svg" version="1.1" width="600px" height="600px" viewBox="0 0 200 200" style="overflow:hidden!important;"><defs id="SvgjsDefs10316"></defs><g id="svga-group-wrapper"><g id="svga-group-backs-single"><path id="SvgjsPath11027" d="M0 0h200v200H0V0z" fill="#14305c" stroke-width="none" opacity="1"></path><path id="SvgjsPath11028" d="M0 0h28.6v28.6H0V0zm57.1 0h28.6v28.6H57.1V0zm57.2 0h28.6v28.6h-28.6V0zm57.1 0H200v28.6h-28.6V0zM28.6 28.6h28.6v28.6H28.6V28.6zm57.1 0h28.6v28.6H85.7V28.6zm57.2 0h28.6v28.6h-28.6V28.6zM0 57.1h28.6v28.6H0V57.1zm57.1 0h28.6v28.6H57.1V57.1zm57.2 0h28.6v28.6h-28.6V57.1zm57.1 0H200v28.6h-28.6V57.1zM28.6 85.7h28.6v28.6H28.6V85.7zm57.1 0h28.6v28.6H85.7V85.7zm57.2 0h28.6v28.6h-28.6V85.7zM0 114.3h28.6v28.6H0v-28.6zm57.1 0h28.6v28.6H57.1v-28.6zm57.2 0h28.6v28.6h-28.6v-28.6zm57.1 0H200v28.6h-28.6v-28.6zM28.6 142.9h28.6v28.6H28.6v-28.6zm57.1 0h28.6v28.6H85.7v-28.6zm57.2 0h28.6v28.6h-28.6v-28.6zM0 171.4h28.6V200H0v-28.6zm57.1 0h28.6V200H57.1v-28.6zm57.2 0h28.6V200h-28.6v-28.6zm57.1 0H200V200h-28.6v-28.6z" fill="#09234d" stroke-width="none" opacity="1"></path></g><g id="svga-group-humanwrap-move" transform="matrix(1,0,0,1,0,0)"><g id="svga-group-humanwrap" transform="matrix(1,0,0,1,0,0)"><g id="svga-group-hair-back-move" transform="matrix(1,0,0,1,0,0)"><g id="svga-group-hair-back" transform="matrix(1,0,0,1,0,0)"><path id="SvgjsPath11088" d="M161 137.8c-.7-.5-1.4-1.1-2-1.6-2.1-4.4-4.2-8.8-6.1-13.2-1.7-5.2-2.4-10.4-2.7-15.6.2-2.2.3-4.3.5-6.5v.2c-.2 11.1 2.8 22 9.3 31.1.2.3.7 0 .5-.3-6.9-11.5-9.4-23.3-8.5-36.6.3-4.3.4-8.6.3-12.8.3-4 .2-8-1-11.6-.4-2.5-.9-5-1.6-7.6V63c-.7-4.5-1.4-8.8-5-11.9-.2-.2-.5.1-.3.3 4.1 3.9 4.4 10.2 5.1 15.5v.2c-.1.1-.1.1-.1.2l.3 3.3c-.1-.3-.6-.1-.5.2.1.3.2.6.3.8.1 1.4.1 2.9 0 4.3-.3 0-.5-.1-.8-.1.1-2.4.1-4.8.1-7.1 0-.6-.9-.6-.9 0 0 .9-.1 1.8-.1 2.7-.2 0-.3.2-.3.4.1 1.1.1 2.1.1 3.2 0 .3 0 .6-.1.9-.8.1-1.5.2-2.1.2-4.6.2-9.2.3-13.9.4a1109.663 1109.663 0 0 1-51.6 0c-8.7-.2-17.6-1-26.2-.5v-.1c-.2-.4-.7-.4-.9 0-.2-.1-.4-.1-.6 0-.2-.4-.9-.4-1 .1-.5 2.6-.9 6.1-.6 9.1-.1 7.4.5 14.7 0 21.9-.2 1.3-.4 2.7-.6 4 .9-9.7.9-19.6 0-29.1.4-13.9 1.3-30.4 15.9-36.8.2-.1.1-.4-.1-.3-11.6 4-15.4 16.8-16.2 27.8-.1 1.1-.2 2.3-.2 3.4v-.2c0-.2-.4-.2-.4.1.1 2.1.1 4.2.2 6.3-.2 5.1-.3 10.1-.9 15.1-1.1 9.1-3.5 17.8-5.8 26.6-.1.3.4.4.5.1 3.5-8.9 5.4-18.5 6.4-28.1-.1 8.5-.5 16.9-1.3 25.5 0 .1-.1.3-.1.4 0 .1-.1.3-.1.4v.3c-.6 2.8-1.3 5.7-1.8 8.6-.1.5.2.8.5.9-.6 2-1.2 4.1-1.8 6.1-.1.3.4.4.5.1.2-.6.4-1.1.6-1.7-.3 1-.5 2-.8 3-.1.3.3.4.4.1 1.7-4.7 3.2-9.5 4.3-14.3.8-2.7 1.5-5.4 2.1-8.3.4-1.2.7-2.3 1-3.5-.1 1.2-.2 2.5-.3 3.7-.3 1.7-.7 3.3-1 4.9-.1-.1-.3 0-.3.1-2.5 8.1-4.9 16.4-6.9 24.6-.1.4.4.5.5.1.6-2 1.2-3.9 1.8-5.9.2.4.8.5 1 .1.5-.9.9-1.9 1.3-2.9-1.2 3.7-2.4 7.4-3.7 11.1-.1.2.3.4.4.2 2.4-5.6 4.2-11.4 5.7-17.3-.4 2-.9 4-1.4 5.9-.1.4.2.6.5.7-1 3.4-1.9 6.7-2.8 10.1 0 .2 0 .3.1.5-.1.2-.2.4-.2.6-.1.3.4.5.5.2.1-.1.2-.3.2-.5.3.1.5 0 .7-.3 2.3-4.7 4-9.8 5.2-15 .8-2.1 1.5-4.3 2-6.6v.7c-.8 4.1-1.7 8.1-2.7 12.2-1.3 4.1-2.8 8.2-4.1 12.3-.1.3.4.5.5.2.5-1.1 1-2.2 1.4-3.4-.1.4-.2.9-.3 1.4-.1.6.3 1 .8 1 0 .2-.1.4-.1.6 0 .2.3.5.5.2.2-.6.5-1.2.7-1.8.9-1.8 1.8-3.7 2.5-5.6-.1.4-.2.9-.3 1.3s.2.8.6.8c-.5 2.1-1 4.3-1.4 6.5 0 .3.3.4.4.1 1-2.8 1.7-5.6 2.2-8.4.7-1.6 1.4-3.4 2-5.1-1 4.9-2.3 9.6-3.3 14.5-.1.4.4.5.5.1 1.4-4.1 2.2-8.4 3-12.7-.1 1.4-.2 2.7-.3 4-.8 4-1.7 7.9-2.1 11.9 0 .3.4.3.5.1.4-1.5.8-3 1.1-4.5.4.2.9.1 1.2-.4 0-.1 0-.1.1-.1s.1-.1.2-.1l-.3 2.1c0 .5.4.8.8.8 0 .3-.1.6-.1.8 0 .3.4.4.5.1.2-.6.4-1.2.6-1.9.4-.8.8-1.6 1.1-2.4-.3 1.6-.7 3.1-.9 4.7-.1.4.4.5.5.1.8-2.2 1.3-4.6 1.7-6.9v.7c0 .1.1.3.1.4-.5 2.1-1.1 4.1-1.6 6.2-.1.3.4.6.6.2.8-1.9 1.4-4 1.8-6.1.2-.1.5-.2.6-.5 0-.1.1-.1.1-.2v.8c0 .3.2.5.4.6-.3 1.6-.6 3.3-.6 4.9 0 .4.5.4.7.1.6-1.8.8-3.6 1.1-5.5.2-.3.3-.6.5-1-.1 1.8-.1 3.6 0 5.3 0 .6.6.9 1.1.9 0 .6-.1 1.3-.1 1.9 0 .4.6.5.7.1.3-1.4.5-2.8.7-4.3.1-.2.1-.4.2-.5.1 2.3.1 4.6.2 7 0 .2.4.3.4.1.3-1.7.4-3.4.4-5.2h.1c0 1.3.1 2.5.2 3.8 0 .4.6.4.6 0 .2-1.5.3-3 .3-4.5l.3-1.5c.1 1.8.3 3.6.6 5.3.1.4.7.3.7-.1v-1.8c.2.2.5.2.7-.1.5-1.2.9-2.5 1.3-3.8.2 0-.1 5.2.7 4.8.8-.4 1.8-5.8 2.3-6.7 6.2-5.1 15.9-7.3 23.2-7.4 9.2-.1 22.3 19.6 26.3 17.6 1.6.5-1.9-6.4-.5-6.6.5 2.3 1.4 4.5 2.6 6.5.1.1.4.1.3-.1-.5-1.3-1-2.6-1.4-3.8 0 0 0 .1.1.1.5.7 1.4.3 1.3-.6-.3-1.7-.8-3.4-1.3-5 1 2.3 2.4 4.4 4.4 5.9.6.4 1.6.1 1.3-.8-.6-1.4-1.2-2.8-1.9-4.2.6.8 1.3 1.4 2.1 2.1.3.2.6.3.9.2.3.4.6.9.9 1.3.2.3.7-.1.5-.4-.3-.5-.5-.9-.8-1.4.1-.2.1-.5 0-.9-.6-1-1.1-2-1.7-3 .5.5 1 1 1.5 1.4.3.2.6.3.9.2.9 1.1 2 2 3.2 2.7.2.1.5-.2.3-.4-.9-1-1.8-2-2.6-3 .1-.2.1-.5-.1-.8l-.6-.9c.8.8 1.7 1.5 2.6 2.1.1 0 .1.1.2.1s.1.1.2.1c.8.5 1.7 1 2.6 1.4.4.2.8-.4.4-.6-1.1-.8-2.1-1.6-3.1-2.5 1.5.9 3.1 1.5 4.9 1.5.3 0 .4-.5.1-.6-2.7-.7-4.9-1.9-6.9-3.8 1 .6 2.1 1.1 3.3 1.5 1.6 1.1 3.3 1.9 5.1 2.4.4.1.6-.4.3-.6-1.4-.8-2.8-1.6-4-2.5v-.4c.4.2.7 0 .8-.4.8.7 1.6 1.3 2.6 1.7h.2c.7.3 1.5.4 2.3.5.3 0 .4-.4.3-.6.6.2 1.3.3 1.9.3.4 0 .4-.5.1-.6-.4-.1-.8-.3-1.2-.4.3-.1.5-.4.6-.7.7.2 1.4.2 2.2.2.4 0 .4-.5.1-.6-.6-.2-1.2-.5-1.8-.7.7.1 1.4.1 2.1 0 .3-.1.3-.5 0-.6-1.2-.2-2.5-.7-3.9-1.4.1-.1.2-.2.2-.4 1.9.7 3.8 1.1 5.2 1.2.3 0 .4-.4.1-.6-1.1-.4-2.9-.9-4.6-1.6.3 0 .5-.2.6-.5.8.5 1.4-.5.9-1.2-.1-.2-.3-.3-.4-.5.3.2.6.5 1 .7.3.2.6.1.8-.1.7.6 1.4 1.1 2.1 1.6.6.4 1.1-.4.7-.9-.2-.2-.3-.4-.5-.5.8.4 1.7.7 2.6.9.3.1.5-.4.2-.5-2.1-1.3-4.1-2.6-5.9-4.2.3.1.6.1.8 0 1.1 1 2.3 2 3.5 2.9.5.4 1.1-.4.7-.9-1-1.2-2.1-2.3-3.1-3.4.1-.1.2-.3.1-.6 1.3 1.6 2.7 3 4.2 4.3.4.3 1.2-.1.8-.6-.7-1-1.4-1.9-2.2-2.9 1 .9 2.1 1.7 3.3 2.3.3.2.7-.2.4-.5-.9-.9-1.7-1.7-2.5-2.6.2 0 .4-.2.4-.4 0 0 .1 0 .1.1.1.1.1.1.2.1.7.4 1.4.7 2.2 1-.7.4-.4 0-.6-.2zm-9.9-53c0-.8-.1-1.6-.2-2.3.1.1.2.2.4.1-.1.7-.1 1.5-.2 2.2zm.3-4.6c0 .5 0 1-.1 1.6 0-.6-.1-1.2-.1-1.8l.2-.2v.4zm-.8-9.1c.3 1.9.5 3.9.6 5.9-.1-.1-.1-.2-.2-.2-.2-2.1-.3-4.1-.6-6.2.1.2.1.3.2.5zm-97.6 41v-.9c.3-1.7.6-3.5.8-5.3v.5c-.2 1.8-.5 3.8-.8 5.7zm4.3 24.7.6-4.2c.1 0 .2.1.4.1-.3 1.3-.7 2.7-1 4.1zm76.6 2.5c-.1-.2-.1-.4-.2-.6 1.1 2.1 2.5 4.2 4.1 6-1.6-1.5-2.9-3.3-3.9-5.4zm14.2 4.5c-.1-.1-.1-.2-.2-.3.4.2.7.5 1.1.7-.3-.1-.6-.2-.9-.4z" fill="#56342e" stroke-width="none" opacity="1" stroke="none"></path><path id="SvgjsPath11089" d="M50.1 130.6c2-9 2.8-18.4 2.9-27.6 0-.4-.5-.4-.6 0-.3 3.9-.7 7.7-1.1 11.6 0-3.8-.5-7.7-1.1-11.5-.1-.5-.8-.3-.7.2.8 5.4.8 10.7 1 16.1 0 .2.1.2.2.2-.4 3.6-.9 7.3-1.3 10.9.1.3.6.4.7.1zm105.7 6.3c-3.7-7-6.6-13.8-8.2-21.3-.8-7.7-1.1-15.3-1.4-23.2 0-.7-1-.7-1.1 0-.6 5.5-.6 11.1 0 16.6-.1-.2-.4-.1-.4.1.1 4.9 1 9.9 2.5 14.7-.5-1.2-.9-2.3-1.2-3.5-.7-2.4-1.2-5-1.5-7.6 0-.1-.1-.2-.2-.2-.1-.8-.2-1.7-.3-2.6 0-.1-.1-.2-.2-.2-.3-2.8-.5-5.6-.6-8.5 0-.7-1-.7-1 0-.6 5.1-.2 10.3 1 15.3.2 2.4.7 4.7 1.4 7-1.3-3-2.1-6.2-2.3-9.9 0-.3-.5-.3-.5 0v1.9c-.1.1-.1.1-.1.2.1.3.1.7.2 1.1.1 1.7.5 3.3.9 4.9-1.9-5-3.1-10.3-3.6-16-.1-.6-.9-.6-1 0-.5 10.2 3.6 20 10 27.7v.1c-3.5-3.9-6.4-8.2-8.6-13.3-.1-.3-.6-.1-.5.2.6 1.7 1.3 3.4 2.2 5.1-3.5-5.6-6-11.7-6.8-18.7-.1-.6-1-.6-.9 0 0 .6.1 1.2.1 1.7-.2-.1-.4-.1-.5.2-.1.8-.1 1.5-.1 2.2-.2-2.1-.3-4.3-.2-6.4 0-.3-.4-.3-.4 0-.7 7.6.2 15.1 2.6 22-1.9-4.1-3.5-8.4-4.5-13-.1-.5-.8-.3-.7.2 1 7.1 3.2 14 6.9 20.1-.1.1-.1.2 0 .3.4.6.9 1.2 1.4 1.7 1.3 1.9 2.8 3.6 4.4 5.2-1.6-1.5-3.1-3.1-4.5-4.9-3.9-5.9-7.1-12-8.6-19.1-.1-1.8-.2-3.5-.3-5.3 0-.6-.9-.6-1 0-.1 1.8-.2 3.5-.2 5.3-.1-.4-.1-.7-.2-1.1 0-.3-.6-.4-.6 0 .1 1.8.2 3.5.4 5.3.1 1.3.3 2.5.5 3.7.1 2.7.5 5.3 1 7.9-1.3-4.8-2.3-9.6-2.7-14.8 0-.6-.9-.6-.9 0 .2 4.9.7 10 1.8 14.8-1.1-4.1-2-8.2-2.3-12.5 0-.2-.1-.3-.2-.3v-.4c0-.3-.5-.4-.5-.1-1.3 7-1.4 14.6 0 21.8-2.2-10.4-2.7-20.8-1.2-31.6 0-.3-.5-.4-.6-.1-3 13.2-2 27.6 3.2 40.2-4.4-8.8-4.5-18.1-5.3-27.9-.1-.6-.9-.6-.9 0-.7 10.4.2 21.7 6.8 30.2.2.2.5.2.6 0 .2.1.4-.1.3-.3-.7-2.3-1.3-4.5-1.9-6.8.7 2.4 1.5 4.8 2.5 7 .2.4.7.2.8-.1.4 1.6 1.1 3 2.6 3.7.4.1.6-.4.4-.6-1.5-1.5-2.1-4.2-2.6-6.4.8 2.5 2 4.9 3.8 6.7.2.2.6 0 .5-.3-1.1-2.9-2.5-5.6-3.4-8.7.8 2.4 1.8 4.6 3.1 6.8.2.4.9.1.7-.3l-.9-2.4c.4.8.9 1.5 1.5 2.2.2.2.6 0 .5-.3-.6-1.9-1.3-3.8-1.9-5.7.3.6.6 1.1.9 1.6.2.4.9.1.7-.3l-.3-.9c1.2 2.4 2.6 4.8 4.2 7 .3.4.9 0 .6-.4-1.7-2.9-3.1-5.9-4.4-8.9.7 1.1 1.5 2.2 2.4 3.3 1.1 1.8 2.3 3.5 3.6 5.2.4.5 1.2 0 .9-.5-2-2.8-3.7-5.7-5.1-8.7 1.7 2 3.6 3.9 5.6 5.6.3.3.7-.1.4-.4-1.3-1.5-2.6-2.9-3.8-4.3.1-.1.1-.2 0-.3-.4-.6-.9-1.2-1.3-1.8 2.1 2.8 4.7 5.2 7.6 7.1.3.2.6-.2.4-.5-3.3-3-6.2-6.1-8.6-9.6l.1-.1c2.4 3.2 5.3 6.1 8.6 8.4.4.2.8-.3.5-.6-1.2-1.1-2.4-2.2-3.5-3.4 1.3 1.3 2.7 2.4 4.2 3.5.3.2.7-.3.4-.5-2.9-2.7-5.6-5.5-8-8.4.2.2.4.1.6 0 2.1 2.6 4.5 4.9 7.2 6.6.5.6 1 1.1 1.6 1.7.4.4.9-.2.6-.6-.1-.1-.1-.1-.1-.2.2-.1.3-.4 0-.6-.6-.4-1.1-.9-1.6-1.3-.2-.2-.3-.4-.5-.6 1 .8 2 1.5 3.1 2.2.3.2.6-.2.4-.4-.6-.6-1.2-1.1-1.8-1.6.3 0 .5-.4.2-.7-9-9.2-13.5-20.5-14.4-33.1.8 6 2.8 11.9 6 17 2.6 5.6 6.8 10.5 12.4 13.2.3.1.5-.2.2-.4-2.7-1.9-5.2-4-7.3-6.4 1.1 1 2.2 1.9 3.5 2.7.2.1.4.1.5-.1 1.6 1.5 3.3 2.9 5.2 4.1.3.2.6-.2.4-.5-.2-.1-.3-.3-.5-.4-.7-1-1.4-1.9-2.1-2.9.1 0 .1-.1.1-.1.2.3.4.5.6.8.3.3.8-.1.6-.4-.4-.6-.7-1.1-1-1.7h.1c.6.8 1.1 1.6 1.7 2.4.2.3.7-.1.5-.4-.6-1-1.1-2-1.6-3 .6 1 1.2 2 1.9 3-.1.6.5.3.3-.1zm-29.2 4.5c0 1.4.2 2.8.3 4.2-.7-3.4-1.3-6.8-1.7-10.2.4 1.9.8 4 1.4 6zm5.2-11-.9-2.1c-.1-.7-.2-1.3-.3-2 .1.3.2.5.3.8-.1.1-.1.1-.1.2 1.6 4.1 3.7 8 6.3 11.5-2-2.6-3.8-5.4-5.3-8.4zm10.7 10.7c.1.1.1.1.2.1l.3.3c-.1-.1-.3-.3-.5-.4zm3 .8c-.8-.7-1.6-1.4-2.3-2.1-.6-1-1.3-1.9-1.9-2.9 1.3 1.8 2.7 3.5 4.2 5zm9.1-11.3c-2.3-4.7-4-9.2-5.1-14 .2 0 .4-.1.3-.3-.9-4.7-1.6-9.3-1.4-14.1 0-.3-.5-.3-.5 0 0 .6-.1 1.2-.1 1.8-.1 0-.2.1-.2.2-.7 9.2 1.2 18.9 6.5 26.6.2.3.6.1.5-.2zm-5.4-40.3c.5-1.9.8-3.9.8-5.9 0 1.9.1 3.7-.2 5.6 0 .3.4.4.4.1.5-2.1.8-4.5.3-6.7-.1-.3-.6-.2-.6.1 0-.9-.1-1.9-.2-2.8-.1-.4-.6-.4-.6 0-.1 3.2-.4 6.3-.6 9.5.2.4.6.4.7.1zm-96-1.7c-.1-.7-.1-1.4-.2-2.1.1.6.2 1.3.2 1.9 0 .3.6.4.6 0-.2-2.8-.2-5.7-.7-8.5 0-.1-.1-.2-.2-.2v-1.4c0-.3-.5-.4-.5-.1-.6 3.5-.4 6.9.2 10.4.1.4.7.4.6 0zm-2.1.2c-.2-4.4-.2-8.7-.2-13.1 0-.3-.5-.4-.5-.1-.8 4.3-.6 8.9.4 13.2 0 .2.3.2.3 0zM78 120.2c-.1 11 .6 21.7-3.2 32.2.2-1 .4-2.1.5-3.1 2-10 2.5-20.3 1.5-30.5 0-.1 0-.1-.1-.1v-.4c-.1-.4-.7-.5-.7 0 0 2.9 0 5.7-.1 8.6-.1-1.5-.2-3-.4-4.6-.1-.5-.8-.5-.8 0 0 7.4.3 14.8-.1 22.1-.2 1.5-.4 3-.7 4.4.8-7.7 1-15.5.5-23.3-.2-5.3-.9-10.6-2.1-15.7-.1-.6-1.1-.4-1 .1.1 1.4.2 2.9.3 4.3-.1-.3-.1-.6-.2-.9-.1-.5-.8-.5-1-.1-.2-1.6-.4-3.2-.7-4.8-.1-.6-1.1-.4-1 .1 0 1.2.1 2.4.2 3.7-.4-2.7-.9-5.3-1.6-7.9-.1-.6-1.1-.5-1 .1.1.9.2 1.9.3 2.8-.2 0-.4.2-.4.5-.1.9-.1 1.8-.2 2.7-.1-.9-.2-1.7-.3-2.6-.1-.4-.7-.3-.7.1 0 .7 0 1.4.1 2.1-.4-3.3-1-6.5-2-9.7-.1-.4-.7-.2-.7.2v.2c-.2-.2-.6-.1-.8.1 0-.9-.1-1.8-.1-2.7 0-.5-.8-.6-.8 0-.1 1.7-.2 3.4-.2 5.1-.1-.5-.2-1-.3-1.6-.1-.4-.8-.3-.8.1.1 2.5.2 5 .2 7.5-.3 0-.5.2-.5.6l-.3 3.6c-.2 0-.3.1-.3.3 0 1.7-.1 3.3-.2 4.9 0 .3-.1.6-.1.9 0-1.3-.1-2.6-.2-3.9.5-6.5.5-13-.2-19.5-.1-.7-1.1-.7-1.1 0 0 1.7-.1 3.4-.1 5.2-.2-2.5-.5-4.9-1-7.3-.1-.5-.9-.4-.9.1.3 5.1.4 10 .3 14.9-.2-.1-.5-.1-.5.2-.5 8.7-1.6 17-3.4 25.6-.1.5.6.7.8.2.1-.3.2-.6.2-.8 0 .3.3.5.6.4-.9 3.7-1.8 7.3-2.8 11.1-.1.4.5.7.7.3 1.4-3.3 2.5-6.7 3.5-10.2-.5 3.2-1 6.3-1.6 9.6 0 .1-.1.2-.1.3-.1.4.5.6.6.3 1.3-3.1 2.5-6.5 3.3-9.9-.4 2.4-.9 4.9-1.5 7.4-.1.5.6.7.8.2.3-1 .6-1.9.9-2.9-.1.5-.2 1.1-.4 1.6-.1.4.5.6.6.2.8-2.1 1.4-4.2 1.9-6.4 0 .3-.1.6-.1.9 0 .4.5.6.8.3-.4 1.9-.9 3.9-1.4 5.9-.1.3.4.4.5.1 2.5-6.2 3.5-13.1 3.5-19.8 0-.2-.3-.2-.3 0-.4 4.2-1.1 8.3-2 12.4 1.3-7.1 2.1-14.5 1.9-21.8 0-.8.1-1.6.1-2.3.6 7.9.7 15.7-.1 23.6-.5 3.3-1.2 6.5-1.8 9.8-.1.3.3.4.4.1 1.5-4 2.3-8.3 2.6-12.6.4-3.2.7-6.4.7-9.6.2 2.2.3 4.4.4 6.6-.8 5.5-1.8 11-3.1 16.5-.1.3.4.4.5.1 1-3 1.8-6.1 2.3-9.2-.5 5.7-1.4 11.2-2.8 16.9-.1.3.4.5.5.1 1.6-4.4 2.7-9.2 3.1-14-.3 4.3-1 8.6-1.7 13.1-.1.4.4.5.6.2.1-.2.1-.4.2-.5.1.1.2.1.3-.1.5-1.2.9-2.5 1.3-3.7.2.2.6.2.7-.2.4-2.4.8-4.9 1-7.4.2-1.8.4-3.7.5-5.6 0-.1 0-.1-.1-.1.1-1.9.1-3.8.2-5.6 0-.2-.1-.3-.2-.3 0-1.4-.1-2.9-.1-4.3.2 2.3.5 4.6.7 6.9-.3 5.2-.6 10.3-.9 15.5-.2 1-.4 2.1-.6 3.1-.1.3.3.4.4.1.1-.5.3-.9.4-1.4.1 0 .2-.1.2-.2.1-.4.2-.9.3-1.4.1 0 .1.1.2.1-.3 2.4-.5 4.7-.6 7.1 0 .4.6.5.7.1.6-2.9 1.1-5.9 1.5-8.9-.1 1.6-.2 3.1-.4 4.7 0 .3.4.3.5.1.8-3.9 1.2-7.8 1.3-11.8 0 2.9.1 5.9.1 8.8-.1 1.9-.1 3.9-.1 5.8 0 .2 0 .5-.1.7 0 .1 0 .1.1.2v.4c0 .6.8.5.8 0 .2 0 .3-.1.3-.3 1-6 1.2-12.6.8-19 .1-.7.1-1.4.1-2.1.1 2.9.2 5.9.2 8.9 0 .1.1.2.1.3-.2 3.7-.4 7.4-.7 11.1 0 .5.7.6.8.1.3-1.8.5-3.6.7-5.4 0 .1.1.3.2.3-.2 1.5-.4 3-.7 4.5-.1.7.9 1 1.1.3l.3-1.5c.1.2.5.4.6.1 4.5-10.2 4.6-21.7 3.4-32.7 0-.5-.7-.5-.7 0zm-21.9-6.4v-.7c0-.2.1-.5.1-.7-.1.4-.1.9-.1 1.4zm5.6-7c0-.1-.1-.1-.1-.2v-2.9c.1 1.3.2 2.6.3 3.8-.1-.2-.2-.5-.2-.7zm3.5 22.2c-.1-.4-.1-.9-.2-1.3.1-.7.1-1.3.2-2v3.3zm-1-2.7s-.1 0 0 0c-.1-2.2-.1-4.4-.1-6.7.1 2.2.1 4.4.1 6.7zm-.1.7v-.1.1zm.3 9.7c0-1.3 0-2.6-.1-3.9 0-.2 0-.3.1-.5.1 1.5.1 3 0 4.4zm6-4.5v-.4c0-.1 0-.1-.1-.2v-1c0-1.5 0-3.1.1-4.6v6.2z" fill="#47251f" stroke-width="none" opacity="1" stroke="none"></path></g></g><g id="svga-group-humanbody-back"><path id="SvgjsPath10717" d="M166.5 181.1c-10.9-6.6-27.6-8.4-35-12.1-4.9-2.5-9.1-4.7-8.9-17.8s1.9-42.4 1.9-42.4H75.4s1.6 29.4 1.9 42.4-4.2 15.6-8.9 17.8c-7.4 3.5-24.1 5.4-35 12.1-10.8 6.6-10 18.9-10 18.9v19.7h153.3V200c-.1 0 .7-12.3-10.2-18.9z" fill="#582812" stroke-width="none" opacity="1" stroke="none"></path></g><g id="svga-group-chinshadow-single"><path id="SvgjsPath10969" d="M77.3 153c2.7 4.4 5.1 8.5 5.8 9.8 1.5 2.6 9.5 5.9 16.8 5.9 7.5 0 15.4-3.3 16.9-5.9.7-1.3 3.1-5.4 5.8-9.9v-1.7c.2-13.1 1.9-42.4 1.9-42.4H75.4s1.6 29.4 1.9 42.4v1.8z" fill="#391200" stroke-width="none" opacity="0.65" stroke="none"></path></g><g id="svga-group-humanbody-front"><path id="SvgjsPath10718" d="M78.7 156.8c.5 4.8 1.7 9.4 3.1 13.9.8 2.3 1.6 4.6 2.6 6.9.8 2 1.7 4.2 3.1 5.9.3.4 1 0 .9-.5-.5-2.2-1.6-4.3-2.4-6.4-.9-2.2-1.7-4.4-2.5-6.6-1.5-4.4-2.8-8.9-4.1-13.3-.2-.4-.8-.3-.7.1zm41.3-1c-1.3 8.2-3.9 16.1-5.4 24.2-.1.4.4.5.6.2 3.1-7.7 4.1-16.1 5.1-24.3-.1-.2-.3-.2-.3-.1zm-25.8 11.9c-.9 3.6 1.9 8.6 6.2 7.6.5-.1.4-.8 0-1-1.4-.5-2.9-.9-3.9-2.1-1.1-1.2-1.5-2.9-1.4-4.5 0-.4-.8-.5-.9 0z" fill="#391200" stroke-width="none" opacity="1" stroke="none"></path><path id="SvgjsPath10719" d="M177.3 219.7c-.1-6.6-.3-13.1-.3-19.7l-.3-.3c.1 0 .1 0 .2.1s.1.2.1.1v-1.4c0-.5-.1-.9-.1-1.4-.1-.9-.3-1.9-.5-2.8-.5-1.8-1.1-3.6-2-5.3-1.7-3.4-4.4-6.2-7.7-8.1-3.6-2.2-7.6-3.8-11.6-5.1-4-1.3-8.1-2.4-12.1-3.5-4-1.2-8.1-2.2-11.8-4.2-1.9-1-3.6-2.1-4.8-3.6-1.2-1.6-1.9-3.5-2.3-5.5-.8-4-.4-8.2-.3-12.4l.7-12.6 1.5-25.2.1-1.4h-1.4c-8.2 0-16.4 0-24.6.1l-24.6.3h-.9l.1.9c.8 11.9 1.6 23.8 2.1 35.7.1 3 .3 6 .2 8.9-.1 2.9-.4 5.9-1.6 8.6-.6 1.3-1.4 2.5-2.4 3.5s-2.3 1.8-3.6 2.4c-2.6 1.3-5.4 2.2-8.3 3-5.8 1.5-11.6 2.8-17.3 4.7-2.8.9-5.7 2-8.4 3.4-1.3.7-2.7 1.4-4 2.4-1.3.9-2.4 1.9-3.5 3.1-2.1 2.3-3.6 5.2-4.5 8.1-.5 1.5-.8 3-1 4.6-.1.8-.1 1.6-.1 2.4v2.3l-.2 17.9v1.3h1.4l38.3.2c12.8.1 25.5.1 38.3 0 12.8-.1 25.6-.1 38.3-.3 12.8-.2 25.6-.5 38.3-.7h.6v-.5zm-77.2-1.6H61.8l-37 .2-.1-16.6v-2.2c0-.7 0-1.4.1-2.1.1-1.4.4-2.8.8-4.2.8-2.7 2.1-5.3 3.9-7.5.9-1.1 2-2.1 3.1-2.9 1.1-.9 2.4-1.6 3.7-2.3 2.6-1.4 5.3-2.5 8.1-3.5 5.6-2 11.4-3.4 17.1-5.1 2.9-.8 5.8-1.7 8.5-3.1 1.3-.7 2.7-1.5 3.8-2.6 1.1-1.1 2-2.4 2.6-3.9 1.2-2.9 1.5-5.9 1.6-8.9 0-3-.1-6-.2-9l-1.3-34.8 23.5.4c7.7.1 15.4.1 23.1.1-.4 7.9-.8 15.9-1.1 23.8-.2 4.2-.2 8.4-.3 12.6 0 4.2-.2 8.5.8 12.8.5 2.1 1.3 4.2 2.8 6 1.4 1.7 3.4 2.9 5.3 3.8 3.9 1.9 8 2.8 12.1 3.8s8.2 2 12.2 3.3c4 1.3 7.9 2.8 11.5 5 3.2 1.9 5.8 4.7 7.5 8 .9 1.6 1.5 3.4 1.9 5.2.2.9.4 1.8.4 2.7.1.5.1.9.1 1.4V200l-.3 19c-12.6-.2-25.1-.5-37.7-.7-12.7-.1-25.5-.1-38.2-.2z" fill="#2a0d00" stroke-width="none" opacity="1" stroke="none"></path></g><g id="svga-group-clothes-single"><path id="SvgjsPath10845" d="M129.8 165.2c-1.6-4-5.9-16.6-5.9-16.6-1.3 3.6-4.1 12-9 16-4.3 3.6-13 11.4-14.8 13-1.8-1.6-10.5-9.4-14.8-13-4.9-4-7.6-12.2-8.9-15.8 0 0-4.4 12.4-6 16.5 0 0 6.3 26.5 8.6 31.5 0 0 .1-.1.2-.4.3 2.6.7 5.1 1.3 7.3 2.9 10.7 8.6 17.9 8.6 17.9h21.7s10.3-13.7 11.6-23.8c.2-1.9.4-3.9.4-5.8 2.8-9.3 7-26.8 7-26.8z" fill="#ffffff" stroke-width="none" opacity="1"></path><path id="SvgjsPath10846" d="M96 196.2s-5.3-10.6-5.9-13.8c0 0 11.2-12.1 20.3 1.1l-5.2 12.7s3.3 17.4 3.3 23.9H92.1s1.3-16.5 3.9-23.9z" fill="#222222" stroke-width="none" opacity="1"></path><path id="SvgjsPath10847" d="M110.8 183.2c-2.7-3.9-5.9-6.1-9.5-6.4-6.3-.5-11.4 5-11.6 5.2-.1.1-.2.3-.1.4.5 3 5.1 12.2 5.8 13.7-2.6 7.5-3.8 23.2-3.9 23.8 0 .1 0 1.3.1 1.4s.2.2.4.2h16.4c.3 0 .5-1.2.5-1.5 0-6.3-2.9-22-3.3-23.9l5.2-12.5c.1 0 .1-.2 0-.4zm-6.1 12.8c0 .1-.1.2 0 .3 0 .2 3.1 16.5 3.3 23.3H92.6c.2-2.9 1.6-16.7 3.9-23.2.1-.1 0-.3 0-.4-.1-.1-5.1-10-5.8-13.4.9-.9 5.5-5.1 10.6-4.7 3.2.2 6.1 2.1 8.6 5.7l-5.2 12.4z" fill="#2c100c" stroke-width="none" opacity="1"></path><path id="SvgjsPath10848" d="M97.1 188.9c-.9 2.4 1.6 7 1.6 7 .5-4.1-.7-9.4-1.6-7zm6.4-1.6c-1.7.7-1.8 7.9-1.8 7.9 1.8-2.8 3.5-8.6 1.8-7.9zm-.8 14.9c0 1.1.2 5.5 1.4 4.1 1.2-1.4-1.2-7.8-1.2-7.8s-.2 2.6-.2 3.7zm-3.7 2.9c-.5 3.9 1.4 5.2 1.7 2.4.3-2.8-.3-9.2-.3-9.2s-.9 2.9-1.4 6.8zm-2.2-1.4c.7 1.4 1.4-3.3 1.2-5 0-.1-1.9 3.6-1.2 5z" fill="#000000" stroke-width="none" opacity="1"></path><path id="SvgjsPath10849" d="M71.3 157.1s-10.6 8-16.5 10.6l2.3 2.6s-22.3 5.2-26.9 6.7-6.7 3.6-6.7 3.6-1.7-1.3-4.2.2-3.6 39.4-3.6 39.4h72.6s-10.9-23.9-17.6-58.4c.1-.1.6-2.6.6-4.7zm112.9 63s-1.1-37.9-3.6-39.4-4.2-.2-4.2-.2-2.1-2.1-6.7-3.6-26.9-6.7-26.9-6.7l2.3-2.6c-5.9-2.5-16.5-10.6-16.5-10.6 0 2.1.6 4.6.6 4.6-6.7 34.5-17.6 58.4-17.6 58.4l72.6.1z" fill="#4b2824" stroke-width="none" opacity="1"></path><path id="SvgjsPath10850" d="M184.1 198c-.3-3.7-.6-7.4-1.1-11-.3-1.9-.5-3.7-1.1-5.6-.1-.2-.2-.5-.4-.8-.1-.1-.2-.3-.4-.4l-.4-.2c-.4-.2-.9-.4-1.5-.5-.9-.2-1.8-.1-2.7.3-2.4-1.9-5.1-2.9-7.8-3.6-2.9-.8-5.8-1.4-8.6-2.1l-16.7-4 2-2.1.1-.1c.1-.2 0-.4-.2-.5-1.5-.6-2.9-1.5-4.2-2.3-1.4-.9-2.7-1.8-4.1-2.7-2.7-1.9-5.3-3.8-7.9-5.8-.1-.1-.3-.2-.4-.2l-1.2.3s-3-7.8-3.7-8.7c-.6 1.3-1.4 4.2-4 9.4-1.1 1.9-3 4.5-5.5 6.5-2.7 2.1-5.2 4.3-7.7 6.5-2.2 1.9-4.3 3.9-6.4 5.8-2.1-1.9-4.2-3.9-6.4-5.8-2.5-2.2-5.1-4.4-7.7-6.4-7.4-6.9-7.1-10-9.2-15-.3-.5-.5-.5-.5-.5l-3.8 7.9c-.2-.1-1.4 0-1.6.1-2.6 2-5.2 3.9-7.8 5.8-1.3.9-2.7 1.8-4.1 2.7-1.4.9-2.8 1.7-4.2 2.3 0 0-.1 0-.1.1-.2.1-.2.4 0 .5l2 2.1-16.7 4c-2.9.7-5.7 1.4-8.6 2.1-2.8.7-5.5 1.8-7.8 3.6-.9-.4-1.8-.5-2.7-.3-.5.1-1 .3-1.5.5-.1.1-.2.1-.4.2l-.4.4c-.2.3-.3.5-.4.8-.6 1.9-.9 3.7-1.1 5.6-.5 3.7-.8 7.4-1.1 11-.5 7.4-.9 14.7-1.2 22.1 0 .6.5 1.1 1.1 1.1 12.2 0 24.9.5 37.1.3l36.2.1c-.1-.4-.8-2.1-.9-2.4l-.3-.9-.7-1.8c-.4-1.2-.9-2.4-1.3-3.6-.8-2.4-1.7-4.8-2.5-7.2-1.2-3.5-2.2-7-3.3-10.5.9-1.6 1.9-3.2 3-4.7.8-1 1.6-1.9 2.4-2.8.4-.4.9-.8 1.4-1.2l1.5-1.2c1-.8 1.9-1.7 2.8-2.7.4-.5.9-1 1.2-1.5.2-.2.4-.5.6-.6.1-.1.3-.3.6-.4.9-.5 2.1-.9 3.3-1.2.6-.1 5.7-.1 6.3 0 1.2.3 2.3.6 3.3 1.2.2.1.4.3.6.4l.6.6 1.2 1.5c.9 1 1.8 1.8 2.8 2.7l1.5 1.2c.5.4.9.8 1.4 1.2.9.8 1.7 1.8 2.4 2.8 1.1 1.5 2.1 3.1 3 4.7-1.1 3.5-2.1 7-3.3 10.5-.8 2.4-1.6 4.8-2.5 7.2-.4 1.2-.9 2.4-1.3 3.6l-.7 1.8-.3.9c-.1.3-1 1.9-1.1 2.4l36.7-.7c12.2.2 24.5.4 36.7.3.6 0 1-.5 1-1.1-.4-7.3-.8-14.6-1.3-22zM16.9 219c.2-7 .4-14 .8-20.9.2-3.7.5-7.3.9-10.9.2-1.8.4-3.7.9-5.3.1-.2.1-.4.2-.5 0-.1.1-.1 0-.1 0 0 .1-.1.2-.1.4-.2.7-.4 1.1-.4.7-.2 1.6-.1 2.1.2.2.1.5.1.6 0 1.8 2.7 3.1 5.6 4 8.6.5 1.6.8 3.2 1 4.9.2 1.7.5 3.3.6 5l1.1 10.1c.4 3.1.8 6.3 1.3 9.4H16.9zm34.8.4-19.6-.3c.2-3.2.2-6.4.1-9.6-.1-3.4-.3-6.8-.7-10.3-.2-1.7-.4-3.4-.8-5.1-.3-1.7-.8-3.4-1.4-5.1-1.2-3.1-3-5.9-5.4-8.1 1-.9 2.2-1.7 3.5-2.3 1.3-.6 2.6-1.1 4.1-1.6 2.8-.8 5.7-1.6 8.5-2.3 5.7-1.4 11.5-2.9 17.2-4.1.6.6 1.2 1.1 2 1.6-.2.2-.5.3-.7.5-1.2.8-2.5 1.6-3.7 2.3-.3.2-.5.6-.4 1 1.5 3.8 3.1 7.6 4.7 11.4 1.6 3.8 3.3 7.5 5 11.2 1.8 3.7 3.6 7.4 5.5 11 1 1.8 1.9 3.6 3 5.4 1 1.7 2 3.3 3.1 4.9l-24-.5zm33.5-6.2c.5 1.2 1 2.4 1.5 3.5.3.6.5 1.2.8 1.7l.4.9c.2.3.2.6.4.8l-12.4-.2c-1.8-3.6-3.4-7.2-5-10.8L66 197.7l-5-11.2-4.8-10.6c2.3-1.5 4.5-3.2 6.6-4.9 1.1-.9 2.3-1.9 3.4-2.9s2.2-1.9 3.3-3c-2.4 1.7-4.8 3.4-7.3 5-.9.6-1.7 1.2-2.6 1.8-.5-.8-1.1-1.5-1.7-2.2-.7-.6-1.3-1.2-2.2-1.7l-.3-.3c1.4-.6 2.7-1.3 4-2 1.4-.8 2.8-1.7 4.2-2.5 2.3-1.5 4.6-3 6.8-4.6-.1 1-.3 1.9-.5 2.9v.3c.9 5 2 10 3.3 15 1.2 5 2.6 9.9 4.1 14.7s3.2 9.7 5 14.5c.9 2.5 1.9 4.8 2.9 7.2zm11.2-36.1c-1.3.4-2.5.8-3.8 1.5-.3.2-.6.4-.9.7-.2.3-.4.5-.6.8-.4.5-.8 1-1.1 1.5-.8.9-1.6 1.8-2.5 2.6-.4.4-.9.9-1.4 1.3-.5.4-1 .9-1.4 1.4-.9 1-1.6 2-2.4 3.1-.9 1.4-1.8 2.9-2.5 4.3-.3-1-.6-2.1-.9-3.1-1.4-4.9-2.7-9.8-3.9-14.7-1.2-4.7-2.2-9.4-3.2-14.1.1-.3.1-.6.2-1 .2-1.4 1.8-4.9 2.8-7.6l1.5-4.7c0 .1.6 2.1 1.5 5.2 1.4 3.6 4.6 8.6 7.2 10.9 2.5 2.2 4.7 4.6 7.2 6.9l5.5 4.9c-.5-.1-.9 0-1.3.1zm21.3 12.8c-.7-1.1-1.5-2.1-2.4-3.1-.4-.5-.9-.9-1.4-1.4-.5-.4-.9-.8-1.4-1.3-.9-.9-1.8-1.7-2.5-2.6-.4-.5-.7-.9-1.1-1.5-.2-.3-.4-.5-.6-.8-.3-.3-.6-.5-.9-.7-1.2-.7-2.5-1.1-3.8-1.5-.4-.1-.8-.2-1.3-.3l5.5-4.9c2.5-2.2 4.6-4.4 7.1-6.6 5-4.9 6.6-9.1 7.5-11.9 1.1-3.5 1.3-4.1 1.3-4.2 0 0 1.1 3.2 2.1 6.1.7 2 2.3 6.7 2.3 7-1 4.7-2 9.4-3.2 14.1-1.2 4.9-2.5 9.8-3.9 14.7-.3 1.1-.6 2.1-.9 3.1-.7-1.3-1.5-2.8-2.4-4.2zm-6 30.2c.2-.1.3-.5.4-.8l.4-.9c.3-.6.5-1.2.8-1.7.5-1.2 1-2.3 1.5-3.5 1-2.4 2-4.7 2.8-7.1 1.8-4.8 3.5-9.6 5-14.5s2.9-9.8 4.1-14.7c1.3-4.9 2.3-9.9 3.3-15v-.3c-.2-.9-.4-1.9-.5-2.9 2.2 1.6 4.5 3.1 6.8 4.6 1.4.9 2.8 1.7 4.2 2.5 1.3.7 2.6 1.4 3.9 2l-.3.3c-.8.5-1.5 1.1-2.1 1.7-.6.6-1.2 1.4-1.7 2.2-.9-.6-1.8-1.1-2.6-1.8-2.4-1.6-4.8-3.4-7.3-5l3.3 3c1.1 1 2.2 1.9 3.4 2.9 2.1 1.7 4.2 3.4 6.6 4.9l-4.8 10.6-5 11.2L129 209c-1.6 3.6-3.2 7.3-5 10.8l-12.3.3zm36.6-.7-24.2.5c1.1-1.6 2.2-3.2 3.1-4.9 1.1-1.8 2-3.6 3-5.4 1.9-3.6 3.7-7.3 5.5-11 1.7-3.7 3.4-7.4 5.1-11.2 1.6-3.8 3.2-7.5 4.7-11.4.1-.4 0-.8-.4-1-1.2-.7-2.5-1.5-3.7-2.3-.2-.2-.5-.3-.7-.5.8-.4 1.4-1 2-1.6 5.8 1.3 11.5 2.7 17.2 4.1 2.9.7 5.7 1.5 8.5 2.3 1.4.4 2.8.9 4.1 1.6 1.3.6 2.5 1.4 3.5 2.3-2.4 2.2-4.1 5.1-5.4 8.1-.7 1.6-1.1 3.4-1.4 5.1-.3 1.7-.6 3.4-.8 5.1-.4 3.4-.6 6.8-.7 10.3-.1 3.2-.1 6.4.1 9.6-6.4 0-12.9.1-19.5.3zm19.7-.3c.5-3.1.9-6.3 1.3-9.4l1.1-10.1c.2-1.7.4-3.4.6-5 .2-1.7.6-3.3 1.1-4.9.9-3 2.2-5.9 4-8.6.2.1.4.1.6 0 .5-.3 1.4-.4 2.1-.2.4.1.8.2 1.1.4.1 0 .2.1.2.1v.1c.1.1.1.3.2.5.5 1.6.7 3.5.9 5.3.4 3.6.6 7.3.9 10.9.4 7 .7 13.9.8 20.9-4.8-.1-9.8-.1-14.9 0z" fill="#2c100c" stroke-width="none" opacity="1"></path></g><g id="svga-group-head" transform="matrix(1,0,0,1,0,0)"><g id="svga-group-ears-left-move" transform="matrix(1,0,0,1,0,0)"><g id="svga-group-ears-left" transform="matrix(1,0,0,1,0,0)"><path id="SvgjsPath10875" d="M62.9 100.1s-1.8-5-3.3-7.9-3.6-6.4-6.7-7.2c-3.1-.8-4.1 3.9-2.9 8.3 1.2 4.4 4.3 13.9 5 17.7.7 3.7 1.8 8.2 3.6 7.5 1.7-.7 7.2-7.7 4.3-18.4z" fill="#582812" stroke-width="none" opacity="1" stroke="none"></path><path id="SvgjsPath10876" d="M63.8 105.1c.2 1.7.1 3.4-.1 5.1-.5 3.3-1.9 6.4-4 8.4l-.4.3c-.2.1-.3.2-.5.3-.4.2-.9 0-1.3-.3-.8-.6-1.2-1.5-1.5-2.3-.6-1.7-.9-3.3-1.3-5-.3-1.6-.7-3.2-1.1-4.8l-1.3-4.9c-.4-1.6-.9-3.2-1.3-4.8l-.7-2.4c-.2-.8-.5-1.6-.6-2.5-.2-.8-.3-1.7-.3-2.6s.1-1.7.3-2.6c.2-.8.6-1.6 1.2-2.1s1.4-.6 2.1-.5c1.4.3 2.7 1.2 3.7 2.4 1.1 1.2 1.9 2.6 2.6 4.1.8 1.4 1.4 3 2 4.5.6 1.6 1.2 3.1 1.7 4.7.3 1.6.7 3.3.8 5zm-5.1-13.7c-.9-1.4-1.7-2.6-2.7-3.7-1-1-2.1-1.8-3.2-2.2-.6-.2-1.1-.1-1.6.2-.5.3-.8.9-1.1 1.6-.5 1.4-.5 3.1-.2 4.7.1.8.3 1.6.6 2.4.2.8.5 1.6.7 2.4l1.5 4.8c.5 1.6 1.1 3.2 1.5 4.8.5 1.6 1 3.2 1.3 4.9.4 1.6.7 3.3 1.3 4.7.3.7.6 1.4 1 1.6.2.1.3.2.5.1.1 0 .2-.1.3-.2l.3-.3c.9-.8 1.7-2 2.4-3.2.7-1.3 1.2-2.7 1.6-4.2.8-3 .7-6.5-.2-9.7-1-3.1-2.3-6.1-4-8.7z" fill="#491c08" stroke-width="none" opacity="1" stroke="none"></path><path id="SvgjsPath10877" d="M50.9 88.1c1.9-.8 3.6 1.4 4.8 3.3 1.6 2.5 2.7 5.5 3 8.7v.2c0 .3 0 .5.1.8 0 .2-.2.2-.2 0-.1-.4-.2-.9-.3-1.4-.1-.1-.1-.2-.2-.4-1.2-.6-1.8-.3-1.8.8 0 .7.2 1.5.3 2.2.3 1.2.9 2.3 1.3 3.5.1.2-.2.4-.3.2-.9-1.6-2.6-5.3-1.5-7.2.5-.9 1.4-.8 1.9-.2-.5-2-1.2-4.3-2.2-6.2-2.1 4.5-1 9.2.1 14.2 0 .2-.2.3-.3.1-1.4-4.6-2.7-10.8 0-14.5-1-2.2-2.6-3.9-4.6-3.7-.1 0-.2-.3-.1-.4z" fill="#391200" stroke-width="none" opacity="1" stroke="none"></path><path id="SvgjsPath10878" d="M58.6 108.1c.2 1.1 0 2.4-.6 3.2-.1.1-.2 0-.1-.1.3-1 .6-1.9.6-3.1 0-.1.1-.1.1 0z" fill="#391200" stroke-width="none" opacity="1" stroke="none"></path></g></g><g id="svga-group-ears-right-move" transform="matrix(1,0,0,1,0,0)"><g id="svga-group-ears-right" transform="matrix(1,0,0,1,0,0)"><path id="SvgjsPath10879" d="M137.1 100.1s1.8-5 3.3-7.9 3.6-6.4 6.7-7.2c3.1-.8 4.1 3.9 2.9 8.3-1.2 4.4-4.3 13.9-5 17.7s-1.8 8.2-3.6 7.5c-1.7-.7-7.2-7.7-4.3-18.4z" fill="#582812" stroke-width="none" opacity="1" stroke="none"></path><path id="SvgjsPath10880" d="M137.1 100.1c.6-1.6 1.1-3.1 1.7-4.7.6-1.5 1.2-3.1 2-4.5.7-1.5 1.6-2.9 2.6-4.1s2.3-2.1 3.7-2.4c.7-.2 1.5 0 2.1.5s1 1.3 1.2 2.1c.2.8.3 1.7.3 2.6s-.1 1.7-.3 2.6c-.1.9-.4 1.7-.6 2.5l-.7 2.4c-.5 1.6-.9 3.2-1.3 4.8l-1.3 4.9c-.4 1.6-.8 3.2-1.1 4.8-.3 1.7-.7 3.3-1.3 5-.3.8-.7 1.7-1.5 2.3-.4.3-.9.4-1.3.3-.2-.1-.4-.2-.5-.3l-.4-.3c-2.1-2-3.5-5.1-4-8.4-.3-1.7-.3-3.4-.1-5.1 0-1.7.4-3.4.8-5zm.1 0c-.9 3.2-1 6.7-.2 9.7.4 1.5.9 2.9 1.6 4.2.7 1.3 1.5 2.4 2.4 3.2l.3.3c.1.1.2.1.3.2.2.1.3 0 .5-.1.4-.3.7-.9 1-1.6.6-1.4.9-3.1 1.3-4.7.3-1.7.8-3.3 1.3-4.9l1.5-4.8 1.5-4.8c.2-.8.5-1.6.7-2.4l.6-2.4c.3-1.6.2-3.3-.2-4.7-.2-.7-.6-1.3-1.1-1.6-.5-.3-1-.3-1.6-.2-1.2.3-2.3 1.1-3.2 2.2-1 1.1-1.8 2.3-2.7 3.6-1.6 2.7-2.9 5.7-4 8.8z" fill="#491c08" stroke-width="none" opacity="1" stroke="none"></path><path id="SvgjsPath10881" d="M149.1 88.1c-1.9-.8-3.6 1.4-4.8 3.3-1.6 2.5-2.7 5.5-3 8.7v.2c0 .3 0 .5-.1.8 0 .2.2.2.2 0 .1-.4.2-.9.3-1.4.1-.1.1-.2.2-.4 1.2-.6 1.8-.3 1.8.8 0 .7-.2 1.5-.3 2.2-.3 1.2-.9 2.3-1.3 3.5-.1.2.2.4.3.2.9-1.6 2.6-5.3 1.5-7.2-.5-.9-1.4-.8-1.9-.2.5-2 1.2-4.3 2.2-6.2 2.1 4.5 1 9.2-.1 14.2 0 .2.2.3.3.1 1.4-4.6 2.7-10.8 0-14.5 1.2-2.2 2.8-3.9 4.7-3.8 0 .1.1-.2 0-.3z" fill="#391200" stroke-width="none" opacity="1" stroke="none"></path><path id="SvgjsPath10882" d="M141.4 108.1c-.2 1.1 0 2.4.6 3.2.1.1.2 0 .1-.1-.3-1-.6-1.9-.6-3.1 0-.1-.1-.1-.1 0z" fill="#391200" stroke-width="none" opacity="1" stroke="none"></path></g></g><g id="svga-group-faceshape-wrap" transform="matrix(1,0,0,1,0,0)"><g id="svga-group-faceshape-single"><path id="SvgjsPath10957" d="M143.1 82v-.3c-1.3-29.9-20.7-46.4-43.2-46.4S58 51.7 56.7 81.7v.3c0 2.2-.4 18.8 1.4 25.3 2 7 7.7 14.1 11.2 19 3.5 4.9 12.1 18.7 13.6 21.3s9.5 5.9 16.8 5.9c7.4 0 15.3-3.3 16.8-5.9 1.5-2.6 10.1-16.4 13.6-21.3 3.5-4.9 9.2-12 11.2-19 2.2-6.5 1.9-23.2 1.8-25.3z" fill="#582812" stroke-width="none" opacity="1" stroke="none"></path><path id="SvgjsPath10958" d="M116.5 147.6c1.5-2.6 10.1-16.4 13.6-21.3 3.5-4.9 9.2-12 11.2-19 2.2-6.5 1.9-23.2 1.8-25.3v-.3c-1.3-29.9-20.7-46.4-43.2-46.4S58 51.7 56.7 81.7v.3c0 2.2-.4 18.8 1.4 25.3 2 7 7.7 14.1 11.2 19 3.5 4.9 12.1 18.7 13.6 21.3s9.5 5.9 16.8 5.9c7.4 0 15.3-3.3 16.8-5.9zm-29.7 0c-.6-.3-1.2-.8-1.5-1.1-.1 0-.6-1-1.1-1.7-1.7-2.9-3.5-4.8-5.3-7.7s-3.6-5.8-5.5-8.7c-.9-1.4-2-2.9-3-4.3l-3.1-4c-2-2.7-3.9-5.4-5.5-8.2-.8-1.4-1.5-2.9-2-4.4s-.8-3-1.1-4.7c-.5-3.3-.7-6.7-.9-10-.1-1.7-.2-3.4-.2-5.1l-.1-5.1c.1-6.7 1.2-13.4 3.7-19.6.2-.4.3-.8.4-1.2l.6-1.1 1.1-2.2c.3-.8.9-1.4 1.3-2.1.4-.7.9-1.4 1.3-2.1 2-2.6 4.1-5.2 6.7-7.3.6-.5 1.2-1.1 1.9-1.6l2-1.4 1-.7 1.1-.6 2.1-1.2c.7-.4 1.5-.6 2.2-1 .8-.3 1.5-.7 2.3-.9 1.5-.5 3.1-1 4.7-1.3.8-.2 1.6-.4 2.4-.5l2.4-.3 1.2-.1h1.2l2.4-.1c.8 0 1.6.1 2.4.1.8.1 1.6 0 2.4.2 1.6.3 3.2.3 4.8.8l2.4.5 2.3.7c1.6.4 3 1.2 4.5 1.8.8.3 1.4.8 2.1 1.1.7.4 1.5.7 2.1 1.2 1.3.9 2.8 1.7 4 2.8 5.1 4.1 9.3 9.5 12 15.6s4.1 12.9 4.4 19.6c.1 6.8-.1 13.6-1.2 20.2-.3 1.6-.6 3.3-1.2 4.8-.5 1.6-1.2 3-2 4.5-1.6 2.9-3.6 5.6-5.6 8.2l-3.2 4c-1.1 1.3-2.1 2.8-3.1 4.2s-1.9 2.8-2.9 4.3l-2.8 4.3c-1.8 2.9-3.6 4.8-5.3 7.7l-1.3 2.1c0 .1-.5.6-1.1.9-1.1.7-2.6 1.4-4 1.9-2.9 1-6.1 1.7-9.1 1.7s-6.2-.5-9.1-1.4c-1.6-.2-3-.8-4.2-1.5z" fill="#2a0d00" stroke-width="none" opacity="1" stroke="none"></path></g></g><g id="svga-group-mouth-single-move" transform="matrix(1,0,0,1,0,0)"><g id="svga-group-mouth-single" transform="matrix(1,0,0,1,0,0)"><path id="SvgjsPath11064" d="M85.34 126.92s2.37-.51 5.3-1.54c2.87-1.01 6.09-2.05 8.83-2.14 3.98-.13 6.69.33 9.92 1.61 4.77 1.89 7.89 2.17 7.89 2.17s-2.81 2.71-10.17 4.41c-7.36 1.7-14.09.36-17.26-1.47-3.17-1.83-4.51-3.04-4.51-3.04z" fill="#ff5027" stroke-width="none" opacity="1" transform="translate(0 2)" stroke="none"></path><path id="SvgjsPath11065" d="M118.94 126.28c-.72.2-2.15 1.09-8.57.73-2.91-.16-5.81-.6-8.73-.65-2.85-.05-5.66.33-8.49.57-6.77.58-8.72-.58-9.3-.72-.16-.04-.27.19-.11.27 5.39 2.95 12.12.73 17.9.89 5.62.16 12.32 2.08 17.53-.92.27-.16.09-.26-.23-.17z" fill="#f0380d" stroke-width="none" opacity="1" transform="translate(0 2)" stroke="none"></path></g></g><g id="svga-group-eyes-left-move" transform="matrix(1,0,0,1,0,0)"><g id="svga-group-eyes-left" transform="matrix(1,0,0,1,0,0)"><g id="svga-group-eyesback-left"><path id="SvgjsPath10911" d="M89.9 95.2s-.4-2-1.4-3.1c-1-1-5.3-3-8.5-3.7 0 0-3.8 1.6-6.6 5-2.8 3.5-3.2 5.3-3.2 5.3s4.8.7 7.1.7 7.7-1.1 9.8-2.4c2.2-1.3 2.8-1.8 2.8-1.8z" fill="#ffffff" stroke-width="none" opacity="1"></path></g><g id="svga-group-eyesiriswrapper-left" transform="matrix(1,0,0,1,0,0)"><g id="svga-group-eyesiriscontrol-left" transform="matrix(1,0,0,1,0,0)"><g id="svga-group-eyesiris-left" transform="matrix(1,0,0,1,0,0)"><path id="SvgjsPath10973" d="M80.1 87.8c3.2 0 5.7 2.6 5.7 5.7s-2.6 5.7-5.7 5.7-5.7-2.6-5.7-5.7 2.5-5.7 5.7-5.7z" fill="#fdd70e" stroke-width="none" opacity="1"></path><path id="SvgjsPath10974" d="M80.1 88.1c3 0 5.5 2.4 5.5 5.5 0 3-2.4 5.5-5.5 5.5-3 0-5.5-2.4-5.5-5.5s2.4-5.5 5.5-5.5m0-.6c-3.3 0-6 2.7-6 6s2.7 6 6 6 6-2.7 6-6-2.7-6-6-6z" fill="#debb00" stroke-width="none" opacity="1"></path><path id="SvgjsPath10975" d="M77 95.1c0 1.4.6 2.7 1.4 3.6.5.2 1.1.2 1.6.2 3 0 5.5-2.4 5.5-5.5 0-1.1-.3-2.2-.9-3-.7-.4-1.5-.6-2.4-.6-2.9.1-5.2 2.5-5.2 5.3z" fill="#ffdd28" stroke-width="none" opacity="1"></path><path id="SvgjsPath10976" d="M80.1 90.6c1.6 0 2.9 1.3 2.9 2.9s-1.3 2.9-2.9 2.9-2.9-1.3-2.9-2.9 1.2-2.9 2.9-2.9z" fill="#000000" stroke-width="none" opacity="1"></path><path id="SvgjsPath10977" d="M78.7 90.5c.6 0 1 .5 1 1s-.5 1-1 1-1-.5-1-1 .5-1 1-1zm3.4 4.7c.2 0 .4.2.4.4s-.2.4-.4.4-.4-.2-.4-.4.2-.4.4-.4z" fill="#ffffff" stroke-width="none" opacity="1"></path><path id="SvgjsPath10978" d="M80.1 99c.3 0 .6 0 .8-.1-.2 0-.4-.2-.4-.4-.1.3-.3.4-.4.5-.3 0-.5-.2-.6-.4-.1.2-.4.3-.6.3-.2-.1-.4-.3-.4-.5-.2.2-.4.2-.7.1s-.4-.3-.3-.6c-.2.2-.5.1-.7 0s-.2-.5-.1-.7c-.2.2-.5.2-.7 0-.2-.2-.2-.5 0-.7-.3 0-.5-.1-.7-.3.8 1.6 2.6 2.8 4.8 2.8zm-5-3.2zm9.5.7c-.1.1-.3.2-.5.2.1.4-.4.9-.8.8.1.2 0 .5-.2.6-.2.1-.5.1-.6 0 0 .2-.2.5-.4.5-.2.1-.5 0-.6-.2 0 .2-.1.4-.2.5 1.3-.3 2.5-1.2 3.3-2.4zm-2-7.6c.3-.1.6.2.6.5.4-.2.8.3.7.6.2-.1.4 0 .5.2.1.2.1.4-.1.5.2 0 .5.1.6.3s.1.5-.1.7c.2 0 .5.2.5.4s0 .5-.2.6c.2.1.4.3.4.5s-.1.4-.3.5c.2.1.3.3.3.6s-.2.4-.4.4c.3.2.1.8-.3.8.1.1.1.3.1.5.5-.8.8-1.8.8-2.8 0-2.2-1.3-4.1-3.1-4.9-.1.4 0 .5 0 .6zm-.6-.3c.1-.1.2-.1.4 0-.5-.2-1-.4-1.6-.5l-.1.1c.5-.1 1 .1 1.3.4z" fill="#cfae00" stroke-width="none" opacity="1"></path></g></g></g><g id="svga-group-eyesfront-left"><path id="SvgjsPath10919" d="M69.4 94.6c0 6.4 4.7 11.5 10.6 11.5s10.6-5.2 10.6-11.5S85.9 83.1 80 83.1s-10.6 5.1-10.6 11.5zm.9 4.1s.4-1.8 3.2-5.3c2.8-3.5 6.6-5 6.6-5 3.1.7 7.5 2.6 8.5 3.7s1.4 3.1 1.4 3.1-.7.5-2.8 1.8c-2.1 1.3-7.5 2.4-9.8 2.4-2.3.1-7.1-.7-7.1-.7z" fill="#582812" stroke-width="none" opacity="1" stroke="none"></path><path id="SvgjsPath10920" d="m89.6 95.6.9-.6v.1c.8 4.4-3.8 7.5-7.4 8.8-.2.1-.3-.2-.1-.3 2.9-2 7.2-4.2 6.6-8z" fill="#491c08" stroke-width="none" opacity="1" stroke="none"></path><path id="SvgjsPath10921" d="M69.1 100.9c.5-.6.9-1.2 1.3-1.9 6.3 1.8 14.9.8 20-3.9l.1-.1c.1-.1.1-.1.1-.2-.8-4.1-5.4-6.1-9.2-6.5 2.4-.8 5-.8 7.8-.5.6.1.8-.9.3-1.2-8.7-4.4-18.4 6.6-21 13.8-.3.7.4.9.6.5zm1.7-2.4c1.8-2.8 3.4-5.7 6.2-7.8 1.1-.8 2.2-1.4 3.3-1.8l.1.1c3.3 1.2 7.7 1.7 9 5.7.1.2.1.4.2.6-2.9 1.8-6.1 3.3-9.4 3.6-3.2.2-6.3-.5-9.4-.4z" fill="#1b2a40" stroke-width="none" opacity="1" stroke="none"></path></g></g></g><g id="svga-group-eyes-right-move" transform="matrix(1,0,0,1,0,0)"><g id="svga-group-eyes-right" transform="matrix(1,0,0,1,0,0)"><g id="svga-group-eyesback-right"><path id="SvgjsPath10912" d="M110.1 95.2s.4-2 1.4-3.1c1-1 5.3-3 8.5-3.7 0 0 3.8 1.6 6.6 5 2.8 3.5 3.2 5.3 3.2 5.3s-4.8.7-7.1.7-7.7-1.1-9.8-2.4c-2.2-1.3-2.8-1.8-2.8-1.8z" fill="#ffffff" stroke-width="none" opacity="1"></path></g><g id="svga-group-eyesiriswrapper-right" transform="matrix(1,0,0,1,0,0)"><g id="svga-group-eyesiriscontrol-right" transform="matrix(1,0,0,1,0,0)"><g id="svga-group-eyesiris-right" transform="matrix(1,0,0,1,0,0)"><path id="SvgjsPath10979" d="M119.9 87.8c3.2 0 5.7 2.6 5.7 5.7s-2.6 5.7-5.7 5.7-5.7-2.6-5.7-5.7 2.6-5.7 5.7-5.7z" fill="#fdd70e" stroke-width="none" opacity="1"></path><path id="SvgjsPath10980" d="M119.9 88.1c3 0 5.5 2.4 5.5 5.5 0 3-2.4 5.5-5.5 5.5-3 0-5.5-2.4-5.5-5.5.1-3.1 2.5-5.5 5.5-5.5m0-.6c-3.3 0-6 2.7-6 6s2.7 6 6 6 6-2.7 6-6-2.6-6-6-6z" fill="#debb00" stroke-width="none" opacity="1"></path><path id="SvgjsPath10981" d="M116.9 95.1c0 1.4.6 2.7 1.4 3.6.5.2 1.1.2 1.6.2 3 0 5.5-2.4 5.5-5.5 0-1.1-.3-2.2-.9-3-.7-.4-1.5-.6-2.4-.6-2.9.1-5.2 2.5-5.2 5.3z" fill="#ffdd28" stroke-width="none" opacity="1"></path><path id="SvgjsPath10982" d="M119.9 90.6c1.6 0 2.9 1.3 2.9 2.9s-1.3 2.9-2.9 2.9-2.9-1.3-2.9-2.9 1.3-2.9 2.9-2.9z" fill="#000000" stroke-width="none" opacity="1"></path><path id="SvgjsPath10983" d="M118.6 90.5c.6 0 1 .5 1 1s-.5 1-1 1-1-.5-1-1 .5-1 1-1zm3.4 4.7c.2 0 .4.2.4.4s-.2.4-.4.4-.4-.2-.4-.4.2-.4.4-.4z" fill="#ffffff" stroke-width="none" opacity="1"></path><path id="SvgjsPath10984" d="M119.9 99c.3 0 .6 0 .8-.1-.2 0-.4-.2-.4-.4 0 .3-.2.4-.4.5-.3 0-.5-.2-.6-.4-.1.2-.4.3-.6.3-.2-.1-.4-.3-.4-.5-.2.2-.4.2-.7.1s-.4-.3-.3-.6c-.2.2-.5.1-.7 0s-.2-.5-.1-.7c-.2.2-.5.2-.7 0-.2-.2-.2-.5 0-.7-.3 0-.5-.1-.7-.3.9 1.6 2.7 2.8 4.8 2.8zm-4.9-3.2zm9.5.7c-.1.1-.3.2-.5.2.1.4-.4.9-.8.8.1.2 0 .5-.2.6-.2.1-.5.1-.6 0 0 .2-.2.5-.4.5-.2.1-.5 0-.6-.2 0 .2-.1.4-.2.5 1.3-.3 2.5-1.2 3.3-2.4zm-2-7.6c.3-.1.6.2.6.5.4-.2.8.3.7.6.2-.1.4 0 .5.2.1.2.1.4-.1.5.2 0 .5.1.6.3.1.2.1.5-.1.7.2 0 .5.2.5.4s0 .5-.2.6c.2.1.4.3.4.5s-.1.4-.3.5c.2.1.3.3.3.6s-.2.4-.4.4c.3.2.1.8-.3.8.1.1.1.3.1.5.5-.8.8-1.8.8-2.8 0-2.2-1.3-4.1-3.1-4.9-.1.4 0 .5 0 .6zm-.6-.3c.1-.1.2-.1.4 0-.5-.2-1-.4-1.6-.5l-.1.1c.5-.1 1 .1 1.3.4z" fill="#cfae00" stroke-width="none" opacity="1"></path></g></g></g><g id="svga-group-eyesfront-right"><path id="SvgjsPath10922" d="M120 83.1c-5.9 0-10.6 5.2-10.6 11.5s4.7 11.5 10.6 11.5 10.6-5.2 10.6-11.5-4.8-11.5-10.6-11.5zm2.6 16.3c-2.3 0-7.7-1.1-9.8-2.4-2.1-1.3-2.8-1.8-2.8-1.8s.4-2 1.4-3.1 5.3-3 8.5-3.7c0 0 3.8 1.6 6.6 5 2.8 3.5 3.2 5.3 3.2 5.3s-4.8.8-7.1.7z" fill="#582812" stroke-width="none" opacity="1" stroke="none"></path><path id="SvgjsPath10925" d="m110.4 95.6-.9-.6v.1c-.8 4.4 3.8 7.5 7.4 8.8.2.1.3-.2.1-.3-2.9-2-7.2-4.2-6.6-8z" fill="#491c08" stroke-width="none" opacity="1" stroke="none"></path><path id="SvgjsPath10926" d="M131.6 100.6c-2.6-7.3-12.3-18.2-21-13.8-.5.3-.3 1.2.3 1.2 2.7-.3 5.3-.3 7.8.5-3.8.4-8.5 2.4-9.2 6.5 0 .1 0 .1.1.2l.1.1c5.1 4.7 13.7 5.7 20 3.9.4.6.8 1.3 1.3 1.9.1.2.8 0 .6-.5zm-11.7-1.8c-3.4-.3-6.6-1.9-9.4-3.6 0-.2.1-.4.2-.6 1.3-4 5.7-4.4 9-5.7l.1-.1c1.1.4 2.2 1 3.3 1.8 2.8 2.1 4.4 5 6.2 7.8-3.2 0-6.3.7-9.4.4z" fill="#1b2a40" stroke-width="none" opacity="1" stroke="none"></path></g></g></g><g id="svga-group-facehighlight-single"></g><g id="svga-group-eyebrows-left-move" transform="matrix(1,0,0,1,0,0)"><g id="svga-group-eyebrows-left-rotate" transform="matrix(1,0,0,1,0,0)"><g id="svga-group-eyebrows-left" transform="matrix(1,0,0,1,0,0)"><path id="SvgjsPath10835" d="M93.4 84.4c.1-.2.5-.1.5.1 0 1.2-.6 2.3-1.2 3.3-.2.3-.6 0-.5-.3.4-.9.7-2.1 1.2-3.1zm-1.9-3.2c.9 1.7.9 3.8.5 5.6-.1.3-.5.2-.5-.1.1-1.8-.3-3.6-.4-5.4 0-.2.3-.3.4-.1zm-4.1-.7c-.1-.3.2-.7.5-.5 1.6 1.2 2.6 3.4 3.2 5.2.1.3-.4.5-.6.2-.5-.9-1-1.7-1.5-2.5s-1.2-1.6-1.6-2.4zm-4.3-.9c-.3-.3 0-.7.3-.6 1.1.3 2.1 1.2 2.8 2 .9.9 1.5 1.9 2 3.1.2.4-.3.7-.5.3-.6-1-1.3-1.9-2.1-2.7-.8-.9-1.8-1.4-2.5-2.1zm-4.3.3c-.4-.2-.4-.8.1-.8 2.1-.2 4.4 1.2 5.8 2.8 0-.1-.1-.1-.1-.2-.1-.2.1-.3.3-.3.4.2.8.6 1.1 1 .3.4.6.8.8 1.2.1.2-.2.4-.3.2-.3-.4-.7-.8-1-1.1l-.6-.6.1.1c.2.3-.2.8-.5.5-.8-.6-1.6-1.3-2.6-1.7-.9-.5-2-.7-3.1-1.1zm-5.1.9c2-1 4.4-.4 6.3.8.3.2.1.6-.2.5-2-.8-3.9-.7-5.9-.7-.3-.1-.4-.5-.2-.6zm-3.2 1c2.1-.5 4.5.1 6.5.9.3.1.2.6-.1.5-2.1-.4-4.2-.4-6.3-.8-.5.1-.4-.5-.1-.6zm-3.8 3.6c-.2.1-.5-.2-.3-.4 1.3-1.8 4-2.1 6-1.6.4.1.3.7-.1.7-1-.1-2 0-3 .2-.9.3-1.7.8-2.6 1.1zm-1.6 1.9c.9-1.2 2.9-1.8 4.3-2 .4-.1.6.5.2.7-.8.2-1.6.6-2.3.9-.6.3-1.2.8-1.9 1-.3.1-.5-.4-.3-.6zM78.4 80c1.7.2 3.5 1.6 4.5 2.9.2.3-.2.5-.4.3-.7-.6-1.3-1.1-2.1-1.6-.7-.4-1.5-.7-2.1-1.1-.2-.1-.2-.6.1-.5zm-4.3 1.7c-.2 0-.2-.3 0-.3 1.4-.2 3.2.1 4.4.9.2.1.1.3-.1.3-.7-.1-1.4-.4-2.1-.5-.8-.2-1.5-.2-2.2-.4zm13.5.1c1.1.8 1.9 2.3 2 3.6 0 .2-.3.2-.4.1l-.9-1.8c-.3-.6-.7-1.1-1-1.7 0-.1.2-.3.3-.2zm5 3.2c0-1-.2-2.1-.2-3.1 0-.2.3-.2.3-.1.5 1 .6 2.2.3 3.2-.1.3-.4.3-.4 0z" fill="#56342e" stroke-width="none" opacity="1"></path></g></g></g><g id="svga-group-eyebrows-right-move" transform="matrix(1,0,0,1,0,0)"><g id="svga-group-eyebrows-right-rotate" transform="matrix(1,0,0,1,0,0)"><g id="svga-group-eyebrows-right" transform="matrix(1,0,0,1,0,0)"><path id="SvgjsPath10836" d="M106.6 84.4c-.1-.2-.5-.1-.5.1 0 1.2.6 2.3 1.2 3.3.2.3.6 0 .5-.3-.4-.9-.7-2.1-1.2-3.1zm1.9-3.2c-.9 1.7-.9 3.8-.5 5.6.1.3.5.2.5-.1-.1-1.8.3-3.6.4-5.4 0-.2-.3-.3-.4-.1zm4.1-.7c.1-.3-.2-.7-.5-.5-1.6 1.2-2.6 3.4-3.2 5.2-.1.3.4.5.6.2.5-.9 1-1.7 1.5-2.5s1.2-1.6 1.6-2.4zm4.3-.9c.3-.3 0-.7-.3-.6-1.1.3-2.1 1.2-2.8 2-.9.9-1.5 1.9-2 3.1-.2.4.3.7.5.3.6-1 1.3-1.9 2.1-2.7.8-.9 1.8-1.4 2.5-2.1zm4.3.3c.4-.2.4-.8-.1-.8-2.1-.2-4.4 1.2-5.8 2.8 0-.1.1-.1.1-.2.1-.2-.1-.3-.3-.3-.4.2-.8.6-1.1 1-.3.4-.6.8-.8 1.2-.1.2.2.4.3.2.3-.4.7-.8 1-1.1l.6-.6-.1.1c-.2.3.2.8.5.5.8-.6 1.6-1.3 2.6-1.7.9-.5 2-.7 3.1-1.1zm5.1.9c-2-1-4.4-.4-6.3.8-.3.2-.1.6.2.5 2-.8 3.9-.7 5.9-.7.3-.1.4-.5.2-.6zm3.2 1c-2.1-.5-4.5.1-6.5.9-.3.1-.2.6.1.5 2.1-.4 4.2-.4 6.3-.8.5.1.5-.5.1-.6zm3.8 3.6c.2.1.5-.2.3-.4-1.3-1.8-4-2.1-6-1.6-.4.1-.3.7.1.7 1-.1 2 0 3 .2.9.3 1.7.8 2.6 1.1zm1.6 1.9c-.9-1.2-2.9-1.8-4.3-2-.4-.1-.6.5-.2.7.8.2 1.6.6 2.3.9.6.3 1.2.8 1.9 1 .3.1.5-.4.3-.6zM121.6 80c-1.7.2-3.5 1.6-4.5 2.9-.2.3.2.5.4.3.7-.6 1.3-1.1 2.1-1.6.7-.4 1.5-.7 2.1-1.1.2-.1.2-.6-.1-.5zm4.3 1.7c.2 0 .2-.3 0-.3-1.4-.2-3.2.1-4.4.9-.2.1-.1.3.1.3.7-.1 1.4-.4 2.1-.5.8-.2 1.5-.2 2.2-.4zm-13.5.1c-1.1.8-1.9 2.3-2 3.6 0 .2.3.2.4.1l.9-1.8c.3-.6.7-1.1 1-1.7 0-.1-.2-.3-.3-.2zm-5 3.2c0-1 .2-2.1.2-3.1 0-.2-.3-.2-.3-.1-.5 1-.6 2.2-.3 3.2.1.3.4.3.4 0z" fill="#56342e" stroke-width="none" opacity="1"></path></g></g></g><g id="svga-group-beardwrap" transform="matrix(1,0,0,1,0,0)"><g id="svga-group-beard-single-move" transform="matrix(1,0,0,1,0,0)"><g id="svga-group-beard-single" transform="matrix(1,0,0,1,0,0)"></g></g></g><g id="svga-group-mustache-single-move" transform="matrix(1,0,0,1,0,0)"><g id="svga-group-mustache-single" transform="matrix(1,0,0,1,0,0)"></g></g><g id="svga-group-nose-single-move" transform="matrix(1,0,0,1,0,0)"><g id="svga-group-nose-single" transform="matrix(1,0,0,1,0,0)"><path id="SvgjsPath11037" d="M104.31 104.57c1.37.25 4.28.67 5.61 3.45 1.33 2.79-.41 3.93-1.08 4.28-.67.35-2.6.22-3.3-.32 0 0-.57 2.15-1.55 2.72-.98.57-3.61 1.68-6.15.86-2.53-.82-2.95-2.98-3.14-3.23s-.76-.76-2.09.03c-1.33.79-2.79-.51-3.2-2.06-.41-1.55.7-3.36 1.3-3.83.6-.48 2.22-1.77 3.87-2.28 1.66-.5 6.76-.16 9.73.38z" fill="#582812" stroke-width="none" opacity="1" transform="translate(0 1)" stroke="none"></path><path id="SvgjsPath11038" d="M94.78 104.05c-2.51.17-5.71 2.79-5.82 5.44-.08 1.96 2.12 4.81 4.09 3.01.28-.25-.08-.63-.38-.49-.64.3-1.77.08-2.24-.45-.46-.5-.62-1.07-.67-1.7-.08-1.15.38-2.24 1.16-3.08 1.12-1.21 2.73-1.55 3.91-2.61.05-.04.01-.13-.05-.12z" fill="#2a0d00" stroke-width="none" opacity="1" transform="translate(0 1)" stroke="none"></path><path id="SvgjsPath11039" d="M92.77 111.88c1.39-1.44 2.08 1.93 2.34 2.43.19.38.42.71.75.98 1.2.97 3.18.97 4.63.97 1.32 0 2.69-.22 3.74-1.09.48-.4.81-.85 1.06-1.43.14-.33.21-.68.32-1.02.26-.78.83-3.11 2.5-1.65.14.12.42.01.34-.2-.42-1.16-1.77-1.15-2.6-.35-.56.54-.74 1.29-.98 1.99-.72 2.02-1.91 2.88-4.06 2.94-1.55.05-3.59.08-4.62-1.19-.67-.83-.67-1.96-1.38-2.75-.71-.8-1.84-.91-2.45.05-.15.26.2.53.41.32z" fill="#2a0d00" stroke-width="none" opacity="1" transform="translate(0 1)" stroke="none"></path><path id="SvgjsPath11040" d="M106.27 112.52c2.42 1.76 5.03-1.25 4.39-3.68-.7-2.63-3.83-5.04-6.6-4.45-.2.04-.19.34 0 .39 1.93.47 3.59.85 4.93 2.48.89 1.09 1.45 2.47.71 3.78-.74 1.32-2 1.34-3.34 1.17-.2-.04-.21.22-.09.31z" fill="#2a0d00" stroke-width="none" opacity="1" transform="translate(0 1)" stroke="none"></path><path id="SvgjsPath11041" d="M96.12 103.88c1.81-.45 3.62-.63 5.47-.8.11-.01.15-.18.03-.21-1.89-.35-3.81-.04-5.6.64-.22.09-.14.43.1.37z" fill="#2a0d00" stroke-width="none" opacity="1" transform="translate(0 1)" stroke="none"></path><path id="SvgjsPath11042" d="M106.47 107.66c-.46-2.36-4.41-2.81-6.35-2.83-2.78-.04-4.85.85-6.69 2.88-.22.24-.01.64.32.55 1.95-.53 4.36-.78 6.37-.62 1.08.08 2.17.36 3.17.76.9.35 1.52.75 2.51.45.52-.16.77-.66.67-1.19z" fill="#602f18" stroke-width="none" opacity="1" transform="translate(0 1)" stroke="none"></path><path id="SvgjsPath11043" d="M103.53 113.42c-.85.24-1.6.62-2.49.68-.97.07-1.92-.12-2.79-.53-.33-.15-.62.32-.29.5 1.68.93 4.33 1.25 5.83-.21.19-.18 0-.51-.26-.44z" fill="#602f18" stroke-width="none" opacity="1" transform="translate(0 1)" stroke="none"></path></g></g><g id="svga-group-hair-front" transform="matrix(1,0,0,1,0,0)"><path id="SvgjsPath11085" d="M155.5 145.7c-1-.6-1.9-1.1-2.7-1.8 0-.1 0-.3-.1-.4-6.5-6.2-10.2-13.3-12.2-20.8 0-.6-.1-1.2-.1-1.8 0 .1.1.2.1.3.4 1.6.8 3.1 1.3 4.6.1.2.2.2.3.2.9 2.3 2.1 4.5 3.4 6.6.8 1.4 1.8 2.7 2.9 4 .1.1.2.1.3.1.6.7 1.2 1.3 1.8 2 .3.3.8-.2.5-.5-1-1.2-1.9-2.4-2.7-3.6-5.7-10-6.4-20.7-5.4-31.7 1.6-6.1 3.5-12.1 5-18.3 0-.2.1-.3.1-.5l.1-.1c1.1-3.2 1.7-6.4 1.9-9.7.2-1.3.3-2.6.3-4 .1-4.8-.1-11.5-3.1-15.8.1-.4 0-.8-.1-1.2-.5-1.1-1.1-2.2-1.7-3.1-1.8-5-4.9-9.6-8.3-13.6-1.4-1.7-2.9-3.2-4.4-4.5-5.4-5.8-12.9-9.8-21-11.2-13.7-2.3-35.4 2.3-35.2 19.7-7.2-2.2-15.4 1.3-20.2 6.8-2.8 3.2-4.5 6.9-5.4 10.9-2 4.6-2.7 9.6-2.2 14.7-.1 1.6.1 3.2.5 4.8.2 2.6.5 5.3.6 7.9 0 .2.3.3.4.1.4-.9.7-1.8.8-2.7.8 1.9 2 3.7 3.7 5.1l.1.1c.2.3.3.5.5.8.4.9.8 1.8 1.1 2.8l.3 1.2c-.1 0-.1.1-.1.2.2.5.3.9.5 1.4.7 3 1.4 5.9 2 8.9.9 7.2.2 14.2-.4 21.8 0 .3.2.5.5.5V126.5c-.1.5-.1 1-.2 1.4 0 .3.5.5.5.2.2-.8.4-1.6.5-2.3 5.4-11.5 2.4-24.1 1.3-36.3-1.4-15.5 2.5-31 19.4-33.9.3 0 .6.1 1 .2.6.1 1.1-.5.8-1-.1-.2-.3-.4-.4-.5.1 0 .2 0 .3-.1.1.2.1.3.2.5s.4.2.6 0c.2.2.3.4.6.6.5.5 1.5 0 1.4-.7h.5c.2.3.6.1.6-.2l.1-.1c.6.5 1.3.9 2.2 1 .4 0 .7-.5.6-.8.1 0 .1-.1.1-.1.7.8 1.5 1.4 2.4 2 .8.5 1.5-.5 1.1-1.2.5.4 1 .8 1.8 1 .5.2.9-.2 1-.6.1 0 .1.1.2.1.3.5.7 1.1 1.1 1.5.7.7 2 0 1.7-1 .5.6 1.6.6 1.8-.1.3.4.6.7 1 1 .6.4 1.7.2 1.6-.7 0-.3-.1-.6-.1-.9.2.5.5 1 .8 1.4.4.5 1.5.1 1.4-.6-.1-.7 0-1.4 0-2 .2-.1.4-.2.5-.3-.1.6-.1 1.3 0 1.9.2.9 1.7.9 1.8 0 .1-.7.3-1.4.7-2-.2.5-.3 1-.3 1.6 0 1 1.4 1.5 1.9.5.3-.5.6-1 1-1.5v.7c.1 1 1.2 1.3 1.8.5.5-.8 1.1-1.4 1.7-1.9-.3.4-.6.9-.7 1.4-.1.5.4 1 .9.7.2-.2.5-.3.8-.5.1.1.3.2.6.2 1-.2 2.1-.3 3.2-.3 4.1.3 7.4 2.1 10.3 4.8 2.6 4 4.4 8.8 5.4 12.8 1 4.2 1.1 8.4.6 12.5-4.3 14.1-9.2 32.2-2.8 46 1.1 4.7 3 9.2 6.1 13.2.2.2.5 0 .4-.2-1.9-3-3.3-6-4.3-9.1 1.4 2 3 3.9 5 5.7 1.6 1.5 3.4 2.8 5.5 3.9.8.4 1.6.1 2.1-.5 1.5 1 3.1 1.7 4.8 2.2.2.1.4-.1.4-.2.3.1.6.3.8.4.5.2.8-.2.7-.6.1 0 .1.1.2.1.2.1.3 0 .4-.1.3.1.6.3.9.4.1-.1.4-.7 0-.9zm-94.3-43.4c-.1-.6-.2-1.2-.4-1.8-.1-.9-.2-1.8-.3-2.6 0-.6-.1-1.2-.2-1.7-.2-1.2-.3-2.4-.4-3.5-.3-3.2-.2-6.4-.2-9.6v-.3c-.1 6.5.9 13 1.5 19.5zm8.5-60.8c-5.7 1.2-11.1 5.6-14.5 9.8 3.3-5.3 8.5-9 15.3-10-.3 0-.5.1-.8.2zm69.7 55.1c-.4 3.2-.7 6.4-.7 9.7-.1.7-.1 1.4-.2 2.1-.1-2.6-.1-5.1-.1-7.7.3-1.5.6-2.8 1-4.1zm1.9 4-.3 3c0 .1-.1.2-.1.3.1-2.1.3-4.2.5-6.2.2-.7.3-1.3.5-2-.2 1.7-.4 3.3-.6 4.9zM76.5 41.9c-.8-.5-1.8-.8-2.7-.8.9 0 1.8 0 2.7.1v.7zm5.8-9c-2.3 1.6-4.2 3.7-5.1 6C80 22.4 100.6 19 114.6 22.6c4.7 1.2 9.1 3.3 12.8 6-2.9-1.6-6.2-2.7-9.8-3.2-.6-.1-1.2-.2-1.8-.2-.4-.1-.8-.2-1.3-.3-9.6-2.2-25.8-.9-32.2 8zm11.9-4.3h-.3c-.9.1-1.8.2-2.8.4 7.5-3.2 17-3.2 24.7-2.3.4 0 .8.1 1.2.2.1 0 .2.1.4.1 7.3 2.3 14.2 6.5 19.2 12.1.1.1.1.2.2.4-.6-.6-1.2-1.1-1.8-1.6-5.2-6.1-13.4-9.9-21.1-10.9-6.4-1-13.3-.4-19.7 1.6zm42.2 94.5c.2.6.3 1.2.5 1.7.6 3.1 1.6 6.2 2.9 8.9-1.8-3.3-2.9-6.9-3.4-10.6zm3.6 5.8c-1.1-3.2-1.9-6.5-2.2-10 .4 2.1.9 4.2 1.5 6.2.4 1.8.9 3.7 1.6 5.5-.3-.5-.6-1.1-.9-1.7z" fill="#56342e" stroke-width="none" opacity="1" stroke="none"></path><path id="SvgjsPath11086" d="M154 138.8c-6.8-4.1-10.6-9.5-12.7-15.6-2.8-10.1-2.3-20.6-.6-31.2 1.7-11 4-22.9-.3-33.6-.2-3.2-.7-6.3-1.9-9.3-4-9.9-14.2-16.1-24.7-15.4-8.8.6-22 5.4-24.3 14.9-.3.9-.4 1.8-.4 2.8v.8c0 .1.1.2.2.3.2 1.3.7 2.9 1.9 3.4.2.1.6-.2.3-.4L91 55v-.2c-.2-.2-.3-.5-.4-.7-.2-.6-.4-1.3-.5-1.9v-.6c.1 1.2.5 2.5 1.2 3.7.2.3.8.1.6-.2-.4-.9-.6-1.8-.7-2.7.2 1.1.6 2.2 1.2 3.2.2.2.6.1.5-.2-.1-.4-.3-.8-.4-1.1.2.1.3.2.5.3 0 .2.1.4.1.6.1.3.7.3.6-.1v-.5c.1-.1.1-.2.1-.3.1 0 .3 0 .3-.2.1-2.1.6-4 1.4-5.7-.8 1.7-1.1 3.7-.8 5.9.1.4.6.3.6-.1-.1-7.2 4.9-11.3 11.3-12.9-4.9 3-8.1 8.7-5.8 15.2.1.3.7.3.7-.1-.5-5.4.3-11.2 5.6-14.2l1.2-.6c-4.1 3.4-4.6 9.5-3.4 14.5.1.4.7.3.7-.1-.4-5.1-.3-11.4 4.8-14.3 1-.6 2.1-.9 3.2-1.1 1.5 0 3 .2 4.5.4 1.8.4 3.4 1.2 4.8 2.1-.6-.1-1.2-.1-1.8-.1-7-.2-16.2 4.5-15 12.6.1.5.8.3.8-.1.9-10.6 12.3-12 20.5-8.7 1 1.1 1.9 2.4 2.5 3.6.1.2.3.2.5 0 .4 1 .8 1.9 1.1 2.9-1.1-.8-2.3-1.6-3.5-2.2-1.7-.9-3.8-1.4-5.8-1.3-3.8-.3-7.9.6-9.3 4.4-.3.4-.6.8-.9 1.3-.3.5.4.8.7.4 1.1-1.4 2.4-2.3 3.9-2.9-.7.5-1.2 1.1-1.7 1.9-.2.4.3.7.6.4l1.2-.9c0 .1.1.2.1.2-.1 0-.1.1-.2.1-.3.2-.1.7.2.6.4-.2.8-.3 1.2-.4.1.2.2.3.4.3 9.9-1.5 13.4 5.1 14.6 13.2v1.4c0 .1.1.2.2.2.7 6.3.2 13.4.3 18.2-3.2 19.1-4.4 47.9 17.8 55.8.4.1.6-.4.2-.6-6.7-3-11.2-7.9-14.1-13.8l.6.9c1.1 2.1 2.5 4 4.2 5.8.2.2.7-.1.5-.4-.1-.2-.2-.3-.3-.5.3.3.6.6 1 .9.2.2.5-.1.3-.3-1.3-1.3-2.4-2.6-3.4-4-6.9-12.1-6.6-25.6-3.1-39.3.4-1.4.8-2.9 1.2-4.3-.2 4.2-.6 8.4-.7 12.6-.3 9.4.7 20.5 5.7 28.8.6 1.1 1.2 2.3 1.9 3.4.1.2.4 0 .3-.2-.1-.1-.1-.2-.1-.3 2.2 2.8 5 5.1 8.6 6.7-.1.2.2-.3-.1-.6zM92.8 53c-1.7-2.5 3.2-9.2 4.2-10.3 1.2-1.2 2.5-2.2 4-3l1.2-.3c-5.4 2.8-9.6 7.8-9.4 13.6zm3.4-6.1c3.1-4.9 9.1-7.7 15.4-7.8h1.3c-6 .4-13.4 2.8-16.7 7.8zm33-1.6c-1.1-1-2.2-2-3.5-2.8-4.8-4.2-10.8-6.9-17.3-6.6 6-1.5 12.4-1.2 17.9 1.8 6.8 3.7 10 9.4 11.5 15.8-2.2-3.3-5.1-6.2-8.6-8.2zm6 27.8c-.1-3.1-.5-6.2-1.5-9v-2.2c.3.5.5 1 .8 1.5.2.5.4 1.1.6 1.6.2 2.7.2 5.4.1 8.1zm-1.4-19.7c-.1-.3-.3-.6-.5-1 1.1 1.9 2.1 4 2.9 6.1-.3-.4-.6-.8-.9-1.3-.4-1.2-.9-2.5-1.5-3.8zm-5.4 2.8c1.5.9 2.9 2.2 4 3.7.1.5.1.9.1 1.4-.9-2-2.4-3.7-4.1-5.1zm4.8 42.9c0-.3.1-.6.1-1 .6-4.9 1.6-9.8 2.4-14.7.1 0 .2-.1.2-.2 1-3.4 1.6-7.1 1.7-10.8.3 2.1.4 4.2.5 6.2-1.1 7-3.4 13.6-4.9 20.5zm5.7-28.9c-.4-2.3-1-4.5-1.8-6.6.1 0 .2-.1.2-.2 0-.7-.1-1.3-.2-1.9.1.2.2.4.4.6.7 2.7 1.2 5.4 1.4 8.1zm-2.1-13.4c-.6-1.5-1.3-2.9-2.1-4.2 1.8 2.2 3.1 4.7 4 7.3.1 1 .1 2.1.2 3.1-.5-2.1-1.2-4.2-2.1-6.2zm3 24c.4-2.1.6-4.3.7-6.5 0-1.4-.1-2.7-.2-4.1 0-.9.1-1.8.1-2.7v-1.6c.8 4.9.8 9.9.4 14.7-.4 4.8-1 9.6-1.5 14.4.2-4.8.5-9.6.5-14.2zM78.9 55.4c-13.4-6-22.8 11.8-21.8 22.7 0 .2.3.2.3 0 0-6 1-11.8 4.9-16.5 4-4.9 10.2-7.8 16.4-5.8.2.1.4-.3.2-.4zm62.6 52.8c-.3-8.6 2-16.2 4.7-24.2 4.4-13.2 5-29.4-3.6-41.2-7.5-10.2-22.5-13-34.4-11.3C97.1 33.1 86 41 86.6 53.2c0 .4.6.4.6 0 .1-17.1 18.4-22.4 32.5-20.9 7 .8 14.5 3 19.6 8 5.5 5.4 8.1 13.3 8.9 20.8.9 7.5-.3 14.7-2.6 21.8-1.9 5.7-3.9 11.2-4.7 17.1-1.4 11.5 1.1 23.1 7.1 33 .2.3.6 0 .5-.3-4.1-7.5-6.6-15.8-7-24.5zm-34.3-81.7c-12.8 1.8-26.5 11.9-24.1 26.4 0 .2.4.2.4-.1-.8-14.7 10.6-23 23.8-25.9.3-.1.2-.5-.1-.4zm-21.8 7.8C81.2 38.8 78.8 45 81 51c.1.2.4.1.3-.1-1.7-6.2.9-11.4 4.4-16.4.2-.2-.1-.4-.3-.2zm7.7-7.1c-7.9 2.5-15.4 8.5-15.2 17.5 0 .2.3.2.3 0 .5-9 7.6-13.9 15.1-17.1.2-.1 0-.5-.2-.4zM80.5 54.1c-4.7-4.3-10.8-2-15.7.8-6.6 3.7-11.3 8.5-12.3 16.3-1.1 8.7 2.3 17.5 4.7 25.7 3 10.5 5 21.6-.5 31.8-.2.4.4.8.6.4 7.3-12.2 2.5-26.2-1.1-38.7-2.4-8.3-5.1-18-.7-26.1 3.9-7 17.1-15.1 24.6-9.7.3 0 .6-.3.4-.5zm-3.4-4.5c-9.1-6.8-20.6 4.1-23.2 12.5-.1.2.3.3.4.1 3.3-8.3 13.1-17.5 22.6-12.2.2.2.5-.2.2-.4zm-.8-2.3C74.2 44 70 44.6 67 46.2c-.2.1-.1.4.1.3 3-1.1 6.7-2.1 9 .9 0 .1.3 0 .2-.1z" fill="#47251f" stroke-width="none" opacity="1" stroke="none"></path><path id="SvgjsPath11087" d="M138 41.5c-.2-.2-.4.1-.3.3 7.5 9.6 10.3 21 8.6 33-.1.4.5.5.6.2 3-12-.7-24.7-8.9-33.5zm7 19.1c0-.1-.3-.1-.2 0 1 10.8.1 21.2-2.1 31.8-.1.3.3.4.4.1 3-10.3 3.5-21.2 1.9-31.9zm-10.5-17.4c-6.2-7.3-17.7-10.8-26.9-9-7.9 1.5-20 7.6-19.5 17 0 .5.7.5.7 0 .3-11.9 18.7-17.6 28.2-15.9 5.1.9 10.4 3.3 14.4 6.7 5 4.1 6.9 10.7 8.1 16.8 2.3 12-.2 23-3.4 34.5-2.4 8.8-4.3 17.8-1.5 26.8.1.3.6.2.5-.1-3.8-15.2 4.1-28.9 6.1-43.7 1.3-10.2.4-24.9-6.7-33.1zM79 54.2c-11.2-2-18.8 8.6-20.2 18.5-2 14.5 5 28.3 2.3 42.7.6-7.4-.4-14.9-2.9-22 0-.1-.3-.1-.2.1 3.9 12.6 3.4 25.4-1.1 37.8-.1.2.2.3.3.1 1.7-4.1 2.9-8.4 3.5-12.7l.1-.1c4.4-11 .5-22.7-.9-34-1.6-12.9 2.2-31.1 19-29.7.4-.1.4-.6.1-.7zm-1.7-3.9C67 47.2 57.7 54.6 54.2 63.9c-.1.2.2.3.3.1 4.3-9.1 12.2-15.3 22.7-13.3.3.1.4-.4.1-.4zM76 45.8c-7.6-1.5-13.7-.7-18.6 5.7-4.1 5.3-5.8 11.9-4.8 18.4 0 .2.3.1.3 0-.4-5.6.6-11.4 3.7-16.2 4.7-7.3 10.9-8.6 19.2-7.4.4.1.5-.4.2-.5zm53.1-9C114 22.1 87 31 84.2 52c0 .3.4.4.4.1 5-20.5 27.6-28.5 44.2-15.1.2.2.4 0 .3-.2zm-46.1 6c-1.7 2.2-3.4 5-1.7 7.6.1.2.4 0 .3-.2-1.5-2.5.2-5.1 1.6-7.3 0-.1-.1-.2-.2-.1zm68 99.8c-8.2-9.9-13.3-21.4-13.5-34.3 0-.2-.2-.2-.2 0-.1 12.8 4.3 25.5 13.5 34.6.1 0 .3-.2.2-.3zm-3.6-1.5c-5.2-3.4-9.1-7.7-11.4-13.6-.1-.3-.5-.2-.4.1 1.9 5.9 6 11.1 11.6 13.8.2.2.4-.1.2-.3z" fill="#654640" stroke-width="none" opacity="1" stroke="none"></path></g><g id="svga-group-glasses-single-move" transform="matrix(1,0,0,1,0,0)"><g id="svga-group-glasses-single" transform="matrix(1,0,0,1,0,0)"></g></g></g></g></g><rect id="svga-credit-rect" width="200" height="15" x="0" y="185" fill="#ecf0f1" opacity="0.5" style="display: none;"></rect><text id="svga-credit-text" font-family="Avenir Next, Roboto, Helvetica, Arial, sans-serif" font-size="10px" text-anchor="start" font-weight="400" size="10px" anchor="start" weight="400" fill="#333333" x="33.40447998046875" y="182.60824704170227" style="display: none;"><tspan id="SvgjsTspan10369" dy="13" x="33.40447998046875">Created on AvatarMaker.com</tspan></text></g></svg>