<svg xmlns="http://www.w3.org/2000/svg" version="1.1" width="600px" height="600px" viewBox="0 0 200 200" style="overflow:hidden!important;"><defs id="SvgjsDefs11277"></defs><g id="svga-group-wrapper"><g id="svga-group-backs-single"><path id="SvgjsPath11751" d="M0 0h200v200H0V0z" fill="#547980" stroke-width="none" opacity="1"></path><path id="SvgjsPath11752" d="M0 0h18.2v200H0V0zm36.4 0h18.2v200H36.4V0zm36.3 0h18.2v200H72.7V0zm36.4 0h18.2v200h-18.2V0zm36.3 0h18.2v200h-18.2V0zm36.4 0H200v200h-18.2V0z" fill="#3f6971" stroke-width="none" opacity="1"></path></g><g id="svga-group-humanwrap-move" transform="matrix(1,0,0,1,0,0)"><g id="svga-group-humanwrap" transform="matrix(1,0,0,1,0,0)"><g id="svga-group-hair-back-move" transform="matrix(1,0,0,1,0,0)"><g id="svga-group-hair-back" transform="matrix(1,0,0,1,0,0)"><path id="SvgjsPath11975" d="M85.5 39.3s-26 4.5-33.6 29.6-.6 18.1-3.4 35.8.8 26.5 4.8 30.5c0 0-4.2 8.8 1.1 16.4 0 0-5.1 3.7-2.8 11.3 0 0-6.8 3.4-2.8 14.9 4 11.6 15.8 8.5 18.9 4.2 3.1-4.2 45.2-28.2 49.7-29.6s18.6-9.6 22.3-22.9c0 0 9-11.8 5.9-30.2 0 0 5.1-14.7.9-28.5s-13.3-22-21.2-22.3-34.4-6.2-34.4-6.2l-5.4-3z" fill="#543c32" stroke-width="none" opacity="1" stroke="none"></path><path id="SvgjsPath11976" d="M57.7 65.3s-6 10.5-6.2 18.1 0 14.7-1.7 22.9 2 15 8.8 19.8c6.8 4.8 9.7 11.5 11.7 15.2s20.9 10.4 16.7-12.8c-1.5-7.9-24.4-54-25.2-57.1s-4.1-6.1-4.1-6.1zm77.6 21.2s7.1 11 6.2 21-2 20.1-7.6 27.2c-5.7 7.1-16.7 10.8-16.7 10.8l8.5-28.9 9.6-30.1z" fill="#4c342a" stroke-width="none" opacity="1" stroke="none"></path></g></g><g id="svga-group-humanbody-back"><path id="SvgjsPath11581" d="m168.5 219.5-1.7-21.5s.7-9-8.8-15.3-23.4-10.1-29.5-14.2c-6.1-4.1-9.2-4.5-9-16.9s.9-40.3.9-40.3H79.6s.7 27.9.9 40.3c.2 12.4-2.9 12.8-9 16.9-6.1 4.1-20 7.9-29.5 14.2S33.2 198 33.2 198l-1.6 21.5h136.9z" fill="#8c5537" stroke-width="none" opacity="1" stroke="none"></path></g><g id="svga-group-chinshadow-single"><path id="SvgjsPath11819" d="M80.4 155.4c5.9 5.8 12.6 9.3 19.6 9.3s13.7-3.5 19.6-9.3c-.1-1.1-.1-2.4-.1-3.8.2-12.4.9-40.3.9-40.3H79.6s.7 27.9.9 40.3c0 1.4 0 2.7-.1 3.8z" fill="#6d3415" stroke-width="none" opacity="0.65" stroke="none"></path></g><g id="svga-group-humanbody-front"><path id="SvgjsPath11582" d="M73.8 175.9c5.1 2.9 11.8 5.2 17.6 5.7.4 0 .4-.6.1-.7-2.8-1.1-5.9-1.7-8.8-2.6-2.9-.9-5.8-2-8.8-2.7-.1-.1-.3.2-.1.3zm35.2 6.2c5.3-.6 11.3-3 15.9-5.8.3-.2.1-.6-.2-.5-2.6.9-5.2 2-7.8 2.9-2.6.9-5.4 1.5-8 2.5-.5.1-.5.9.1.9z" fill="#6d3415" stroke-width="none" opacity="1" stroke="none"></path><path id="SvgjsPath11583" d="m168.4 219.4-2.1-21.4c0-2.2-.5-4.5-1.5-6.6-.9-2.1-2.3-3.9-3.9-5.5s-3.5-2.8-5.5-4c-2-1.2-4.1-2.2-6.2-3.1-4.2-1.9-8.6-3.6-12.9-5.4-2.2-.9-4.3-1.9-6.4-3-1.1-.6-2.1-1.2-3-1.9-1-.6-2-1.2-3-1.9s-2-1.5-2.8-2.6c-.8-1-1.3-2.2-1.7-3.4-.7-2.4-.8-4.8-.8-7.2 0-4.7.2-9.4.3-14.1.2-9.4.6-18.7.9-28l.6.6-20.4-.2-20.4-.1.3-.3.7 28c.1 4.7.3 9.3.4 14 0 2.4-.1 4.7-.8 7.1-.3 1.2-.9 2.3-1.6 3.3-.8 1-1.7 1.8-2.7 2.5s-2 1.3-2.9 2c-.9.6-1.9 1.3-3 1.9-2.1 1.2-4.2 2.1-6.4 3.1-4.3 1.9-8.6 3.6-12.8 5.6-2.1 1-4.2 2.1-6.1 3.2-2 1.2-3.8 2.4-5.4 4-1.6 1.6-2.9 3.4-3.8 5.4-.4 1-.8 2.1-1 3.1-.2 1.1-.4 2.2-.3 3.2v.2l-1.5 21.5-1-1.1 34 .1c11.3 0 22.7.1 34.1.2l34.2.3 34.4.5zm.2.2-34 .4-34.2.3c-11.4.1-22.9.2-34.4.2l-34.4.1h-1.1l.1-1.1 1.7-21.5v.1c-.1-5.1 2.2-9.8 5.7-13.3 1.7-1.7 3.8-3.1 5.8-4.3 2-1.2 4.2-2.2 6.3-3.2 4.3-2 8.7-3.7 13-5.4 2.1-.9 4.3-1.8 6.3-2.9 1-.5 1.9-1.1 3-1.8 1-.6 2-1.2 2.9-1.9.9-.6 1.8-1.4 2.4-2.2.7-.9 1.2-1.9 1.5-2.9.6-2.1.8-4.5.8-6.8 0-4.6-.1-9.3-.2-14l-.6-28v-.3h.3l20.4-.1 20.4-.2h.6v.6c-.1 9.3-.2 18.7-.4 28-.1 4.7-.2 9.4-.2 14 .1 2.3.2 4.6.8 6.7.3 1.1.8 2 1.4 2.9.6.8 1.4 1.6 2.4 2.2.9.6 1.9 1.3 2.9 1.9 1 .7 1.9 1.3 2.9 1.8 2 1.1 4.1 2.1 6.3 3 4.3 1.8 8.6 3.6 12.9 5.6 2.1 1 4.2 2.1 6.2 3.3 2 1.2 4 2.6 5.7 4.3 3.4 3.4 5.6 8.1 5.4 13v-.1l1.4 21.6zm-112.8-.4 1.9-13.8.1 13.8h-2zm88.6 0-1.9-13.8-.1 13.8h2z" fill="#5e2709" stroke-width="none" opacity="1" stroke="none"></path></g><g id="svga-group-clothes-single"><path id="SvgjsPath11954" d="m143.2 220 .1-3.6 26.8-2.6s-1.2-16.5-1.9-20-2.3-8.6-12.1-14-27.7-12.4-27.7-12.4c-31.6 30.5-56-.1-56.7 0 0 0-17.9 7-27.7 12.4s-11.4 10.5-12.1 14-1.9 20-1.9 20l26.8 2.6v3.6h86.4z" fill="#39557e" stroke-width="none" opacity="1"></path><path id="SvgjsPath11955" d="M170.7 213.8c-.4-5.8-.7-11.6-1.3-17.4-.3-2.9-.9-6-2.6-8.6-1.6-2.6-3.9-4.6-6.4-6.3-2.4-1.7-5.1-3.1-7.7-4.4-2.6-1.3-5.3-2.5-7.9-3.7-5.3-2.4-10.7-4.5-16.2-6.6-.2-.1-.5 0-.7.1-3.8 3.8-8 7.1-12.7 9.6-4.7 2.5-9.9 4-15.2 4.1-2.7 0-5.3-.3-7.9-.9-2.6-.7-5.1-1.7-7.4-2.9s-4.6-2.7-6.7-4.3c-1.1-.8-2.1-1.7-3.1-2.6-.5-.4-1-.9-1.4-1.4l-.7-.7-.4-.4-.2-.2-.1-.1-.1-.1s-.2-.1-.3-.1h-.1c-5.4 2.1-10.8 4.2-16.2 6.5-2.7 1.1-5.3 2.3-8 3.6-2.6 1.3-5.2 2.6-7.7 4.3-2.4 1.7-4.8 3.7-6.4 6.3-1.7 2.6-2.4 5.7-2.7 8.6-.7 5.8-1.1 11.6-1.6 17.4 0 .5.4 1 .9 1.1l13.4 1.3 12.5 1.2v2.7c0 .6.5 1 1 1 7.3 0 14.5 0 21.8-.1l21.7-.2 43-.6.2-3.5 13.2-1 13.4-1.1c.4 0 .6-.3.6-.6zm-14.1.8-13.4 1.6c-.1 0-.2.1-.2.2l.1 3.6-43.4-.6-21.5-.2c-6.8-.1-13.6-.1-20.4-.1v-2.6c0-.5-.4-1-.9-1L43.5 214 31 212.9c.4-5.4.8-10.9 1.3-16.3.3-2.9.9-5.6 2.3-7.9 1.5-2.3 3.6-4.2 5.9-5.9 2.3-1.6 4.8-3 7.4-4.3s5.2-2.6 7.8-3.8c5.2-2.4 10.5-4.6 15.8-6.8l.2.1.4.3.7.7c.5.5 1 .9 1.5 1.4 1 .9 2.1 1.8 3.1 2.6 2.2 1.6 4.4 3.1 6.8 4.4 4.8 2.5 10.2 3.9 15.6 3.9s10.8-1.5 15.7-3.9c4.7-2.4 9-5.6 12.8-9.2 5.2 2.1 10.4 4.4 15.6 6.7 2.6 1.2 5.3 2.4 7.8 3.7 2.6 1.3 5.1 2.6 7.4 4.2 2.3 1.6 4.5 3.5 6 5.8s2.2 5 2.4 7.9c.3 2.9.6 5.8.9 8.6l.7 8.1-12.5 1.4zm-100.5-7.3-.3-1.1-.4-1c-.9-2.8-2.3-5.4-3.8-7.9-1.6-2.5-3.4-4.8-5.5-6.8s-4.4-3.9-7-5.1c1.2.8 2.3 1.7 3.4 2.6 1.1.9 2.1 1.9 3.1 3 1.9 2.1 3.7 4.4 5.2 6.8.4.6.7 1.2 1.1 1.8.4.6.7 1.2 1 1.9.3.6.7 1.3 1 1.9.3.7.6 1.3.9 2l.4 1 .4 1 .7 2c.5 1.4.8 2.8 1.3 4.1-.3-1.4-.5-2.9-.9-4.3l-.6-1.9zm92.9-9.9c-1.5 2.5-2.9 5.1-3.8 7.9l-.4 1-.3 1.1-.6 2.1c-.3 1.4-.6 2.8-.9 4.3.5-1.4.8-2.8 1.3-4.1l.7-2 .4-1 .4-1c.3-.6.6-1.3.9-2 .3-.6.6-1.3 1-1.9.3-.6.6-1.3 1-1.9.4-.6.7-1.2 1.1-1.8 1.5-2.4 3.3-4.7 5.2-6.8.9-1.1 2-2.1 3.1-3 1.1-1 2.2-1.9 3.4-2.6-2.6 1.3-4.9 3.1-7 5.1-2.1 1.8-3.9 4.2-5.5 6.6z" fill="#18355f" stroke-width="none" opacity="1"></path></g><g id="svga-group-head" transform="matrix(1,0,0,1,0,0)"><g id="svga-group-ears-left-move" transform="matrix(1,0,0,1,0,0)"><g id="svga-group-ears-left" transform="matrix(1,0,0,1,0,0)"><path id="SvgjsPath11773" d="M65.1 101.2s-1.7-4.8-3.2-7.5-3.4-6-6.3-6.8c-2.9-.8-3.8 3.7-2.7 7.8 1.1 4.1 4 13.1 4.7 16.6s1.7 7.7 3.4 7.1 6.8-7.1 4.1-17.2z" fill="#8c5537" stroke-width="none" opacity="1" stroke="none"></path><path id="SvgjsPath11774" d="M65.9 105.9c.1 1.6.1 3.2-.1 4.8-.5 3.1-1.8 6-3.8 7.9l-.4.3c-.2.1-.3.2-.5.3-.4.1-.9 0-1.3-.3-.7-.6-1.1-1.4-1.4-2.2-.6-1.6-.9-3.1-1.2-4.7-.3-1.5-.7-3-1.1-4.6l-1.2-4.6c-.4-1.5-.8-3-1.3-4.6l-.5-2.2c-.2-.8-.4-1.5-.6-2.3-.2-.8-.2-1.6-.2-2.4s.1-1.6.3-2.4.6-1.5 1.1-2c.6-.5 1.3-.6 2-.4 1.3.3 2.5 1.1 3.5 2.2s1.8 2.5 2.5 3.8c.7 1.4 1.3 2.8 1.9 4.3.6 1.5 1.1 2.9 1.6 4.4.3 1.6.6 3.1.7 4.7zM61.1 93c-.8-1.3-1.6-2.4-2.5-3.4s-2-1.7-3.1-2c-.5-.2-1-.1-1.5.2-.4.3-.8.8-1 1.5-.4 1.3-.5 2.9-.2 4.5.1.8.3 1.5.5 2.3s.4 1.5.7 2.3c.5 1.5 1 3 1.4 4.5.5 1.5 1 3 1.4 4.5.5 1.5.9 3 1.2 4.6.3 1.5.7 3.1 1.2 4.4.3.7.6 1.3.9 1.5.2.1.3.2.5.1.1 0 .2-.1.3-.2l.3-.3c.9-.8 1.6-1.9 2.3-3.1.6-1.2 1.1-2.5 1.5-3.9.7-2.8.6-6.1-.2-9.2-.9-3-2.1-5.8-3.7-8.3z" fill="#7d4425" stroke-width="none" opacity="1" stroke="none"></path><path id="SvgjsPath11775" d="M53.8 89.9c1.8-.8 3.4 1.3 4.6 3.1 1.5 2.3 2.5 5.2 2.8 8.2v.2c0 .2 0 .5.1.7 0 .2-.2.2-.2 0-.1-.4-.2-.8-.3-1.3 0-.1-.1-.2-.2-.3-1.2-.6-1.7-.3-1.7.8 0 .7.1 1.4.3 2.1.3 1.1.8 2.2 1.2 3.3.1.2-.2.4-.3.2-.9-1.5-2.4-5-1.4-6.8.5-.9 1.3-.8 1.8-.2-.5-1.9-1.1-4.1-2.1-5.9-2 4.2-.9 8.7.1 13.4 0 .2-.2.3-.2.1-1.3-4.4-2.6-10.1 0-13.7-1.1-2.1-2.6-3.7-4.5-3.6-.1.1-.2-.2 0-.3z" fill="#6d3415" stroke-width="none" opacity="1" stroke="none"></path><path id="SvgjsPath11776" d="M61.1 108.8c.1 1.1 0 2.2-.5 3-.1.1-.2 0-.1-.1.3-.9.6-1.8.5-2.9-.1-.1 0-.2.1 0z" fill="#6d3415" stroke-width="none" opacity="1" stroke="none"></path></g></g><g id="svga-group-ears-right-move" transform="matrix(1,0,0,1,0,0)"><g id="svga-group-ears-right" transform="matrix(1,0,0,1,0,0)"><path id="SvgjsPath11777" d="M134.9 101.2s1.7-4.8 3.2-7.5 3.4-6 6.3-6.8c2.9-.8 3.8 3.7 2.7 7.8-1.1 4.1-4 13.1-4.7 16.6s-1.7 7.7-3.4 7.1-6.8-7.1-4.1-17.2z" fill="#8c5537" stroke-width="none" opacity="1" stroke="none"></path><path id="SvgjsPath11778" d="M134.9 101.2c.5-1.5 1.1-2.9 1.6-4.4s1.2-2.9 1.9-4.3 1.5-2.7 2.5-3.8c1-1.1 2.2-2 3.5-2.2.7-.2 1.4 0 2 .4.6.5.9 1.2 1.1 2 .2.8.3 1.6.3 2.4s-.1 1.6-.2 2.4c-.1.8-.4 1.6-.6 2.3l-.6 2.3c-.4 1.5-.8 3-1.3 4.6l-1.2 4.6c-.4 1.5-.8 3-1.1 4.6s-.6 3.2-1.2 4.7c-.3.8-.6 1.6-1.4 2.2-.4.3-.9.4-1.3.3-.2-.1-.3-.2-.5-.3l-.4-.3c-2-1.9-3.3-4.8-3.8-7.9-.3-1.6-.3-3.2-.1-4.8.1-1.7.4-3.2.8-4.8zm.1.1c-.8 3-.9 6.3-.2 9.2.4 1.4.9 2.7 1.5 3.9.6 1.2 1.4 2.3 2.3 3.1l.3.3c.1 0 .2.1.3.2.2.1.3 0 .5-.1.3-.3.7-.9.9-1.5.5-1.3.9-2.9 1.2-4.4.3-1.6.8-3.1 1.2-4.6.5-1.5 1-3 1.4-4.5.5-1.5 1-3 1.4-4.5.2-.7.5-1.5.7-2.3s.4-1.5.5-2.3c.3-1.5.2-3.1-.2-4.5-.2-.6-.6-1.2-1-1.5s-1-.3-1.5-.2c-1.1.3-2.1 1.1-3.1 2-.9 1-1.7 2.2-2.5 3.4-1.4 2.5-2.6 5.3-3.7 8.3z" fill="#7d4425" stroke-width="none" opacity="1" stroke="none"></path><path id="SvgjsPath11779" d="M146.2 89.9c-1.8-.8-3.4 1.3-4.6 3.1-1.5 2.3-2.5 5.2-2.8 8.2v.2c0 .2 0 .5-.1.7 0 .2.2.2.2 0 .1-.4.2-.8.3-1.3 0-.1.1-.2.2-.3 1.2-.6 1.7-.3 1.7.8 0 .7-.1 1.4-.3 2.1-.3 1.1-.8 2.2-1.2 3.3-.1.2.2.4.3.2.9-1.5 2.4-5 1.4-6.8-.5-.9-1.3-.8-1.8-.2.5-1.9 1.1-4.1 2.1-5.9 2 4.2.9 8.7-.1 13.4 0 .2.2.3.2.1 1.3-4.4 2.6-10.1 0-13.7 1.1-2.1 2.6-3.7 4.5-3.6.1.1.2-.2 0-.3z" fill="#6d3415" stroke-width="none" opacity="1" stroke="none"></path><path id="SvgjsPath11780" d="M138.9 108.8c-.1 1.1 0 2.2.5 3 .1.1.2 0 .1-.1-.3-.9-.6-1.8-.5-2.9.1-.1 0-.2-.1 0z" fill="#6d3415" stroke-width="none" opacity="1" stroke="none"></path></g></g><g id="svga-group-faceshape-wrap" transform="matrix(1,0,0,1,0,0)"><g id="svga-group-faceshape-single"><path id="SvgjsPath11809" d="M141 88.4c0 30.3-18.9 65.2-41 65.2s-41-34.9-41-65.2 18.9-47 41-47 41 16.6 41 47z" fill="#8c5537" stroke-width="none" opacity="1" stroke="none"></path><path id="SvgjsPath11810" d="M100 41.3c-22.1 0-41.1 16.7-41.1 47s19 65.5 41.1 65.5 41.1-35.2 41.1-65.5-19-47-41.1-47zm28.2 13.6.8.8c.3.3.5.6.8.9.3.3.5.6.8.9l.7.9c.2.3.5.6.7.9l.7 1 .3.5.3.5c.4.7.9 1.3 1.2 2l.6 1c.2.3.4.7.5 1l.5 1.1.5 1.1c.2.4.3.7.5 1.1l.4 1.1c2.3 5.9 3.2 12.4 3.3 18.7 0 6.4-.9 12.8-2.6 18.9-.8 3.1-1.9 6.1-3.1 9-1.2 2.9-2.5 5.8-4 8.6s-3.1 5.5-4.8 8.1c-.9 1.3-1.8 2.6-2.7 3.8-.9 1.2-1.9 2.4-3 3.6-2 2.3-4.3 4.4-6.7 6.3-2.4 1.8-5 3.3-7.8 4.3-1.4.5-2.8.9-4.3 1-1.5.2-2.9.2-4.4.1-3-.2-5.9-1.2-8.6-2.6-2.7-1.4-5.3-3.3-7.6-5.4-2.3-2.1-4.4-4.5-6.3-7.1s-3.6-5.3-5-8.1c-1.5-2.8-2.8-5.7-3.9-8.7-.6-1.5-1.1-3-1.6-4.5s-.9-3-1.3-4.6c-.8-3.1-1.4-6.2-1.8-9.3-.4-3.1-.7-6.3-.8-9.4 0-1.6 0-3.1.1-4.7 0-.8.1-1.6.1-2.3l.2-2.3c.3-3.1.9-6.2 1.7-9.1.8-3 1.8-5.9 3.2-8.6.2-.4.3-.7.5-1l.5-1c.4-.7.8-1.3 1.2-2 .4-.6.8-1.3 1.3-1.9l.7-.9.3-.5.4-.4c1.9-2.4 4.1-4.5 6.5-6.3s5-3.3 7.8-4.5 5.7-2 8.6-2.5c.7-.2 1.5-.2 2.2-.3.4-.1.8-.1 1.1-.1l1.1-.1c.8 0 1.5-.1 2.3-.1H102.6l1.1.1c.4 0 .8.1 1.1.1.4 0 .8.1 1.1.1l1.1.2.6.1.6.1 1.1.2c.4.1.7.2 1.1.3s.7.2 1.1.3c1.4.4 2.9.9 4.3 1.5s2.8 1.2 4.1 2c2.7 1.5 5.2 3.3 7.4 5.4l.4.4.5.3z" fill="#5e2709" stroke-width="none" opacity="1" stroke="none"></path></g></g><g id="svga-group-mouth-single-move" transform="matrix(1,0,0,1,0,0)"><g id="svga-group-mouth-single" transform="matrix(1,0,0,1,0,0)"><path id="SvgjsPath11761" d="M90.5 128s.3-1 2.2-2.9c1.9-1.9 5.1-2.7 5.1-2.7s.4 1.5 2.2 1.5c1.8 0 2.5-.9 2.5-1.5 0 0 2.1.1 4.8 1.3s3.7 4.6 3.7 4.6-.1 2.5-.9 3.7-2.1 1.7-3.7 1.4-9.8.3-10.9.4c-1.1.1-3.1-.4-4-2.5-.7-2-1-3.3-1-3.3z" fill="#e28c7c" stroke-width="none" opacity="1" transform="translate(0 3)" stroke="none"></path><path id="SvgjsPath11762" d="M87.8 128.2c2.3.9 3.8.6 6.1-.3 2.6-1 5-1.7 7.8-1.6 2.9.1 5.2 1 7.9 2.1 1.7.7 2.8.4 4.5-.4.6-.3.1-1.4-.6-1-1.5.8-2.4 1-4 .3-.8-.4-1.6-.8-2.5-1-1.9-.6-3.9-.9-5.9-.9-1.9 0-3.8.3-5.6 1-1 .4-2 .8-3 1.1-1.7.5-2.8.4-4.4-.2-.6-.2-.8.7-.3.9z" fill="#d3715f" stroke-width="none" opacity="1" transform="translate(0 3)" stroke="none"></path><path id="SvgjsPath11763" d="M96.1 133.8c1.7.1 3.5-.1 5.2-.2 1.7 0 3.5.1 5.2-.1.2 0 .4-.4.1-.5-3.2-.7-7.3-.5-10.5.3-.4 0-.3.4 0 .5z" fill="#d3715f" stroke-width="none" opacity="1" transform="translate(0 3)" stroke="none"></path></g></g><g id="svga-group-eyes-left-move" transform="matrix(1,0,0,1,0,0)"><g id="svga-group-eyes-left" transform="matrix(1,0,0,1,0,0)"><g id="svga-group-eyesback-left"><path id="SvgjsPath11865" d="M91.7 98s-.6-1.7-1.4-2.7c-.7-1-2.9-2.4-4.3-2.7-1.3-.3-3.6-.6-3.6-.6s-4.4 1.5-6.7 4-2.7 4-2.7 4 1.4.9 3.5 1c2.1.2 5.9.2 8.8-.8s3.8-1.9 4.5-1.9 1.9-.3 1.9-.3z" fill="#ffffff" stroke-width="none" opacity="1"></path></g><g id="svga-group-eyesiriswrapper-left" transform="matrix(1,0,0,1,0,0)"><g id="svga-group-eyesiriscontrol-left" transform="matrix(1,0,0,1,0,0)"><g id="svga-group-eyesiris-left" transform="matrix(1,0,0,1,0,0)"><path id="SvgjsPath11823" d="M82.1 91.3c2.8 0 5.1 2.3 5.1 5.1s-2.3 5.1-5.1 5.1-5.1-2.3-5.1-5.1 2.3-5.1 5.1-5.1z" fill="#b0b9d9" stroke-width="none" opacity="1"></path><path id="SvgjsPath11824" d="M86.5 93.6c.4.6.6 1.2.8 1.9.2.7.2 1.4.1 2.1s-.4 1.4-.8 2-.9 1.1-1.5 1.5-1.3.6-2 .7-1.4.1-2.1-.1c-1.3-.3-2.6-1.1-3.4-2.2-.4-.6-.7-1.2-.9-1.9-.2-.7-.2-1.4 0-2.1.1-.7.4-1.4.8-2s.9-1.1 1.5-1.5 1.3-.7 2-.8 1.4-.1 2.1.1c1.5.3 2.6 1.2 3.4 2.3zm-.1.1-.3-.4c-.1-.1-.2-.2-.3-.4-.1-.1-.2-.2-.4-.3-.1-.1-.3-.2-.4-.3-.6-.3-1.2-.6-1.8-.7-1.3-.2-2.6.1-3.6.8-1.1.7-1.8 1.8-2.1 3-.3 1.2-.1 2.6.6 3.7.3.6.8 1.1 1.3 1.4.5.4 1.2.7 1.8.8.7.1 1.3.1 1.9-.1s1.2-.4 1.8-.8c.5-.4 1-.8 1.3-1.3.4-.5.7-1.1.8-1.7.2-.6.2-1.3.2-1.9-.2-.6-.4-1.3-.8-1.8z" fill="#7282ba" stroke-width="none" opacity="1"></path><path id="SvgjsPath11825" d="M82.1 94.6c1 0 1.8.8 1.8 1.8s-.8 1.8-1.8 1.8-1.8-.8-1.8-1.8.8-1.8 1.8-1.8z" fill="#000000" stroke-width="none" opacity="1"></path><path id="SvgjsPath11826" d="M82.1 98.4c-1.1 0-2-.9-2-2s.9-2 2-2 2 .9 2 2c0 1.2-.9 2-2 2zm0-3.6c-.9 0-1.7.7-1.7 1.7s.7 1.7 1.7 1.7c.9 0 1.7-.7 1.7-1.7s-.8-1.7-1.7-1.7z" fill="#7282ba" stroke-width="none" opacity="1"></path><path id="SvgjsPath11827" d="M79.7 92.6c.4-.2 1.1.2 1.6 1.1.5.8.5 1.7.1 1.9-.4.2-1.1-.2-1.6-1.1-.4-.8-.5-1.7-.1-1.9zm3.6 4.8c.3 0 .6.3.6.6s-.3.6-.6.6-.6-.3-.6-.6.3-.6.6-.6z" fill="#ffffff" stroke-width="none" opacity="1"></path></g></g></g><g id="svga-group-eyesfront-left"><path id="SvgjsPath11873" d="M70.73 98.03c0 6.9 4.93 12.5 11.02 12.5s11.02-5.6 11.02-12.5-4.93-12.5-11.02-12.5-11.02 5.59-11.02 12.5zm2.3 1.91s.33-1.48 2.68-3.96c2.34-2.48 6.7-3.96 6.7-3.96s2.3.35 3.63.64c1.33.29 3.54 1.73 4.27 2.68.73.95 1.37 2.7 1.37 2.7s-1.17.13-1.86.2c-.69.07-1.66.88-4.51 1.92-2.85 1.04-6.68.95-8.76.8-2.08-.16-3.52-1.02-3.52-1.02z" fill="#8c5537" stroke-width="none" opacity="1" stroke="none"></path><path id="SvgjsPath11874" d="M69.06 102.24c.73.04 1.62-.28 2.36-.78-.13.49-.24.99-.3 1.51-.06.48.64.49.78.11.33-.9.71-1.75 1.13-2.56.58.21 1.17.39 1.78.53-.18.17-.34.38-.46.56-.27.4-.41.91-.4 1.39.01.16.2.17.26.03.17-.41.36-.79.6-1.16.17-.27.41-.48.62-.72.28.05.56.1.85.14-.47.34-.78.84-.77 1.45 0 .23.32.27.39.05.17-.53.44-1.09.9-1.44.26.03.52.05.79.07-.12.2-.26.42-.29.64-.02.14.14.27.26.15.2-.19.29-.52.41-.77 1.39.06 2.78-.02 4.09-.21 1.5-.22 2.92-.63 4.32-1.21 1.73-.72 3.43-1.94 5.35-1.85.12.01.13-.14.05-.19.01-.02.03-.05.02-.08-.44-3.51-4.18-5.94-7.65-6.11 1.27-.47 2.55-.91 3.83-1.42.16-.07.16-.36-.05-.34-4.98.59-11.14 3.13-14.48 7.42-.74.18-1.49.2-2.28.16-.17-.01-.24.25-.09.32.61.28 1.27.31 1.89.17-.12.17-.23.35-.34.53-.28.19-.58.36-.87.5-.6.3-1.25.41-1.87.63-.17.06-.21.35 0 .39.78.12 1.54-.1 2.2-.5-.15.31-.29.63-.41.96-.22.2-.44.39-.71.55-.63.36-1.31.53-1.98.77-.15.05-.12.3.07.31zm4.36-2.41a15.81 15.81 0 0 1 4.65-5.09c1.47-1.04 3.04-1.78 4.64-2.42 1.79.12 3.5.46 5.07 1.45 1.71 1.08 2.52 2.6 3.67 4.17-2.68-.09-5.27 1.84-7.9 2.35-3.53.69-6.71.3-10.13-.46z" fill="#09152e" stroke-width="none" opacity="1" stroke="none"></path></g></g></g><g id="svga-group-eyes-right-move" transform="matrix(1,0,0,1,0,0)"><g id="svga-group-eyes-right" transform="matrix(1,0,0,1,0,0)"><g id="svga-group-eyesback-right"><path id="SvgjsPath11866" d="M108.3 98s.6-1.7 1.4-2.7c.7-1 2.9-2.4 4.3-2.7 1.3-.3 3.6-.6 3.6-.6s4.4 1.5 6.7 4 2.7 4 2.7 4-1.4.9-3.5 1c-2.1.2-5.9.2-8.8-.8s-3.8-1.9-4.5-1.9-1.9-.3-1.9-.3z" fill="#ffffff" stroke-width="none" opacity="1"></path></g><g id="svga-group-eyesiriswrapper-right" transform="matrix(1,0,0,1,0,0)"><g id="svga-group-eyesiriscontrol-right" transform="matrix(1,0,0,1,0,0)"><g id="svga-group-eyesiris-right" transform="matrix(1,0,0,1,0,0)"><path id="SvgjsPath11828" d="M118 91.3c2.8 0 5.1 2.3 5.1 5.1s-2.3 5.1-5.1 5.1-5.1-2.3-5.1-5.1 2.3-5.1 5.1-5.1z" fill="#b0b9d9" stroke-width="none" opacity="1"></path><path id="SvgjsPath11829" d="M122.4 93.6c.4.6.6 1.2.8 1.9.2.7.2 1.4.1 2.1s-.4 1.4-.8 2-.9 1.1-1.5 1.5-1.3.6-2 .7-1.4.1-2.1-.1c-1.3-.3-2.6-1.1-3.4-2.2-.4-.6-.7-1.2-.9-1.9-.2-.7-.2-1.4 0-2.1.1-.7.4-1.4.8-2s.9-1.1 1.5-1.5 1.3-.7 2-.8 1.4-.1 2.1.1c1.5.3 2.7 1.2 3.4 2.3zm-.1.1-.3-.4c-.1-.1-.2-.2-.3-.4-.1-.1-.2-.2-.4-.3-.1-.1-.3-.2-.4-.3-.6-.3-1.2-.6-1.8-.7-1.3-.2-2.6.1-3.6.8-1.1.7-1.8 1.8-2.1 3-.3 1.2-.1 2.6.6 3.7.3.6.8 1.1 1.3 1.4.5.4 1.2.7 1.8.8.7.1 1.3.1 1.9-.1s1.2-.4 1.8-.8c.5-.4 1-.8 1.3-1.3.4-.5.7-1.1.8-1.7.2-.6.2-1.3.2-1.9-.2-.6-.4-1.3-.8-1.8z" fill="#7282ba" stroke-width="none" opacity="1"></path><path id="SvgjsPath11830" d="M118 94.6c1 0 1.8.8 1.8 1.8s-.8 1.8-1.8 1.8-1.8-.8-1.8-1.8.8-1.8 1.8-1.8z" fill="#000000" stroke-width="none" opacity="1"></path><path id="SvgjsPath11831" d="M118 98.4c-1.1 0-2-.9-2-2s.9-2 2-2 2 .9 2 2c0 1.2-.9 2-2 2zm0-3.6c-.9 0-1.7.7-1.7 1.7s.7 1.7 1.7 1.7c.9 0 1.7-.7 1.7-1.7s-.8-1.7-1.7-1.7z" fill="#7282ba" stroke-width="none" opacity="1"></path><path id="SvgjsPath11832" d="M115.6 92.6c.4-.2 1.1.2 1.6 1.1.5.8.5 1.7.1 1.9-.4.2-1.1-.2-1.6-1.1-.4-.8-.5-1.7-.1-1.9zm3.6 4.8c.3 0 .6.3.6.6s-.3.6-.6.6-.6-.3-.6-.6.3-.6.6-.6z" fill="#ffffff" stroke-width="none" opacity="1"></path></g></g></g><g id="svga-group-eyesfront-right"><path id="SvgjsPath11875" d="M118.26 85.53c-6.08 0-11.02 5.6-11.02 12.5s4.93 12.5 11.02 12.5 11.02-5.6 11.02-12.5-4.94-12.5-11.02-12.5zm5.19 15.43c-2.08.15-5.91.24-8.76-.8-2.85-1.04-3.83-1.86-4.51-1.92-.69-.07-1.86-.2-1.86-.2s.64-1.75 1.37-2.7c.73-.95 2.94-2.39 4.27-2.68 1.33-.29 3.63-.64 3.63-.64s4.36 1.48 6.7 3.96c2.35 2.48 2.68 3.96 2.68 3.96s-1.44.86-3.52 1.02z" fill="#8c5537" stroke-width="none" opacity="1" stroke="none"></path><path id="SvgjsPath11878" d="M130.99 101.92c-.67-.24-1.35-.41-1.98-.77-.27-.16-.5-.35-.71-.55-.12-.33-.26-.65-.41-.96.66.4 1.43.62 2.2.5.21-.03.17-.33 0-.39-.63-.22-1.27-.33-1.87-.63-.3-.15-.59-.32-.87-.5-.11-.18-.22-.36-.34-.53.62.14 1.28.11 1.89-.17.16-.07.08-.33-.09-.32-.79.05-1.54.03-2.28-.16-3.33-4.3-9.5-6.83-14.48-7.42-.21-.02-.21.27-.05.34 1.28.51 2.56.95 3.83 1.42-3.47.17-7.21 2.6-7.65 6.11 0 .04.01.06.02.08-.08.06-.07.2.05.19 1.92-.08 3.63 1.14 5.35 1.85 1.4.58 2.82 1 4.32 1.21 1.31.19 2.7.27 4.09.21.12.25.21.58.41.77.12.12.28-.01.26-.15-.03-.21-.17-.43-.29-.64.26-.02.53-.04.79-.07.45.35.72.91.9 1.44.07.21.39.18.39-.05.01-.61-.31-1.11-.77-1.45.28-.04.56-.08.85-.14.2.24.44.46.62.72.24.37.43.75.6 1.16.05.13.25.12.26-.03.02-.48-.13-1-.4-1.39-.12-.18-.28-.39-.46-.56.61-.14 1.21-.32 1.78-.53.42.8.79 1.65 1.13 2.56.14.39.84.37.78-.11-.06-.52-.16-1.02-.3-1.51.74.5 1.64.81 2.36.78.21 0 .24-.25.07-.31zm-14.55-1.63c-2.64-.51-5.22-2.45-7.9-2.35 1.15-1.57 1.96-3.08 3.67-4.17 1.57-.99 3.28-1.33 5.07-1.45 1.61.64 3.17 1.38 4.64 2.42 2.03 1.43 3.5 3.11 4.65 5.09-3.41.76-6.59 1.15-10.13.46z" fill="#09152e" stroke-width="none" opacity="1" stroke="none"></path></g></g></g><g id="svga-group-facehighlight-single"></g><g id="svga-group-eyebrows-left-move" transform="matrix(1,0,0,1,0,0)"><g id="svga-group-eyebrows-left-rotate" transform="matrix(1,0,0,1,0,0)"><g id="svga-group-eyebrows-left" transform="matrix(1,0,0,1,0,0)"><path id="SvgjsPath11930" d="m69.1 87.3.2-.2.3-.3v-.1c.1-.2.2-.4.4-.5.3-.4.7-.7 1-.9.7-.6 1.4-1.2 2.3-1.4h.2c1.6-1.3 4-2.5 5.7-1.4 1.7-.2 3.5-.1 5 .4.8-.1 1.5.2 2.3.5 1.3.4 2.6.8 3.7 1.4.1.1.2.2.2.3 1.5.4 3 2.1 1.5 3.5-.8.7-1.8.7-2.7.3-.2-.1-.4-.1-.6-.2-1.7-.1-3.2-1.3-4.8-1.9-1.2-.5-2.5-.7-3.7-1-.9.1-1.7.2-2.6.3-.3 0-.6.1-.9.1-1.1.4-2.1.6-3.2.8-.2.1-.4.2-.7.3-.2.2-.6.3-.8.4-.1.1-.3.1-.4.2l-.9.3c-.3.1-.6.2-.9.2-.1 0-.3 0-.4-.1-.1 0-.1.1-.2.1-.3.1-.6-.1-.6-.4.1-.5.3-.7.6-.7z" fill="#543c32" stroke-width="none" opacity="1"></path><path id="SvgjsPath11931" d="M88.3 87.9c.6-.2 1.3-.2 1.8-.6.6-.4 1-1 1.1-1.6.1-.2.4-.1.4.1-.2 1.4-1.7 3.2-3.3 2.5-.2 0-.2-.4 0-.4zm.5.9c1.4-.2 2.5-.7 3.3-1.9.1-.2.4-.1.3.2-.6 1.4-2.1 2.6-3.7 2.1-.1-.1-.1-.4.1-.4zm-3.7-6.3c-.1-.2.1-.5.3-.3 1.5 1.1 2.3 3.8.7 5.1-.2.1-.4 0-.3-.2.4-.7.7-1.8.5-2.6-.2-.8-.9-1.3-1.2-2zm-4.9-.2c1.9.1 3.2 2 3.5 3.8 0 .2-.2.3-.3.1-.4-.8-.7-1.7-1.4-2.3-.6-.6-1.3-.9-2-1.2-.1-.2 0-.5.2-.4zM72.4 84c2.6-1.7 6.2-.6 8.4 1.3.1.1 0 .2-.1.1-2.8-1.5-5.1-2.1-8.2-1.1-.2.1-.3-.2-.1-.3zm-3.6 3.7c1.8-2 5.2-2.7 7.8-1.9.1 0 .1.3 0 .2-1.2-.1-2.6 0-3.8.2-1.4.3-2.4 1.2-3.7 1.8-.3.1-.4-.2-.3-.3z" fill="#634e45" stroke-width="none" opacity="1"></path><path id="SvgjsPath11932" d="M92.9 87.5c0-.3 0-.5-.1-.7 0-.5-.2-1-.7-1.3-.6-.8-1.6-1.3-2.5-1.7-2.5-1.2-5.4-2-8.2-2.2-4.8-.4-10 1.2-12.8 5.3-.1 0-.2 0-.3.1-.4.5-.4 1.1.2 1.6.9.8 2.3 0 3.2-.3 3.6-1.4 7.3-2.7 11.2-1.5 1.8.6 3.4 1.6 5.2 2.3 1 .4 2.2.6 3.2.1.6-.3 1-.8 1.2-1.4.3-.1.4-.1.4-.3zm-17-4.6s.1 0 0 0c2.2.5 3.8 1 5.5 2.4.1.1.3 0 .2-.2-1-1.3-2.6-2.3-4.2-2.6.9-.2 1.8-.2 2.7-.2v.1c.6.5 1.1.9 1.6 1.5.4.6.6 1.2.8 1.8-.6-.2-1.1-.3-1.7-.3-1.8-.2-3.7.1-5.4.6-1 .3-2 .7-2.9 1-.4.2-2.9 1.5-3.5.5.1 0 .1 0 .2-.1 1.7-2.2 4.1-3.7 6.7-4.5zm9.5.1c-.1.6.1 1.1.1 1.7 0 .7-.3 1.2-.5 1.8v.2c-.7-.3-1.4-.6-2.1-.8 0-1.3-.9-2.8-2.1-3.5 1.6 0 3.1.2 4.6.6zm6.9 3.6c.2 1-.9 1.9-1.9 2.1-.6.1-1.4-.2-1.9-.4-.3-.1-.6-.3-.9-.4.4-.2.9-.5 1.2-.8.7-.6 1.1-1.3 1.2-2.2 0-.2-.2-.2-.2-.1-.3.7-.7 1.3-1.3 1.8-.5.4-1.1.6-1.6.9-.4-.2-.8-.4-1.3-.6-.1 0-.1 0-.2-.1 0 0 .1 0 .1-.1.8-.6 1.2-2.8.4-3.6.6.2 1.2.3 1.7.5 1.1.4 2.4.8 3.3 1.5-.1.6-.4 1.2-.9 1.7-.5.4-1 .6-1.6.8-.2.1-.2.3 0 .4.7.2 1.6-.2 2.1-.8.5-.5.8-1.2.8-1.9.3.4.7.8 1 1.3z" fill="#452c22" stroke-width="none" opacity="1"></path></g></g></g><g id="svga-group-eyebrows-right-move" transform="matrix(1,0,0,1,0,0)"><g id="svga-group-eyebrows-right-rotate" transform="matrix(1,0,0,1,0,0)"><g id="svga-group-eyebrows-right" transform="matrix(1,0,0,1,0,0)"><path id="SvgjsPath11933" d="m130.9 87.3-.2-.2-.3-.3v-.1c-.1-.2-.2-.4-.4-.5-.3-.4-.7-.7-1-.9-.7-.6-1.4-1.2-2.3-1.4h-.2c-1.6-1.3-4-2.5-5.7-1.4-1.7-.2-3.5-.1-5 .4-.8-.1-1.5.2-2.3.5-1.3.4-2.6.8-3.7 1.4-.1.1-.2.2-.2.3-1.5.4-3 2.1-1.5 3.5.8.7 1.8.7 2.7.3.2-.1.4-.1.6-.2 1.7-.1 3.2-1.3 4.8-1.9 1.2-.5 2.5-.7 3.7-1 .9.1 1.7.2 2.6.3.3 0 .6.1.9.1 1.1.4 2.1.6 3.2.8.2.1.4.2.7.3.2.2.6.3.8.4.1.1.3.1.4.2l.9.3c.3.1.6.2.9.2.1 0 .3 0 .4-.1.1 0 .1.1.2.1.3.1.6-.1.6-.4-.1-.5-.3-.7-.6-.7z" fill="#543c32" stroke-width="none" opacity="1"></path><path id="SvgjsPath11934" d="M111.7 87.9c-.6-.2-1.3-.2-1.8-.6-.6-.4-1-1-1.1-1.6-.1-.2-.4-.1-.4.1.2 1.4 1.7 3.2 3.3 2.5.2 0 .2-.4 0-.4zm-.5.9c-1.4-.2-2.5-.7-3.3-1.9-.1-.2-.4-.1-.3.2.6 1.4 2.1 2.6 3.7 2.1.1-.1.1-.4-.1-.4zm3.7-6.3c.1-.2-.1-.5-.3-.3-1.5 1.1-2.3 3.8-.7 5.1.2.1.4 0 .3-.2-.4-.7-.7-1.8-.5-2.6.2-.8.9-1.3 1.2-2zm4.9-.2c-1.9.1-3.2 2-3.5 3.8 0 .2.2.3.3.1.4-.8.7-1.7 1.4-2.3.6-.6 1.3-.9 2-1.2.1-.2 0-.5-.2-.4zm7.8 1.7c-2.6-1.7-6.2-.6-8.4 1.3-.1.1 0 .2.1.1 2.8-1.5 5.1-2.1 8.2-1.1.2.1.3-.2.1-.3zm3.6 3.7c-1.9-2-5.2-2.7-7.8-1.9-.1 0-.1.3 0 .2 1.2-.1 2.6 0 3.8.2 1.4.3 2.5 1.2 3.7 1.8.3.1.4-.2.3-.3z" fill="#634e45" stroke-width="none" opacity="1"></path><path id="SvgjsPath11935" d="M107.3 87.7c.2.6.6 1.1 1.2 1.4 1 .5 2.2.3 3.2-.1 1.8-.7 3.4-1.7 5.2-2.3 3.9-1.2 7.6.1 11.2 1.5.9.4 2.3 1.1 3.2.3.6-.5.6-1.1.2-1.6-.1-.1-.2-.1-.3-.1-2.8-4.1-8.1-5.7-12.8-5.3-2.8.2-5.6 1-8.2 2.2-.9.4-1.8 1-2.5 1.7-.4.3-.7.8-.7 1.3-.1.2-.1.5-.1.7.2.3.3.3.4.3zm23.6-.2c0 .1.1.1.1.1-.5.9-3.1-.4-3.5-.5-1-.4-1.9-.7-2.9-1-1.8-.5-3.6-.8-5.4-.6-.6.1-1.1.2-1.7.3.2-.6.4-1.3.8-1.8.4-.6 1-1.1 1.6-1.5v-.1c.9 0 1.8.1 2.7.2-1.7.2-3.3 1.3-4.2 2.6-.1.1.1.2.2.2 1.6-1.4 3.3-1.9 5.4-2.3 0 0 .1 0 .1-.1 2.6.7 5 2.2 6.8 4.5zm-11.7-5.2c-1.2.7-2.1 2.2-2.1 3.5-.7.2-1.4.5-2.1.8v-.2c-.1-.6-.4-1.2-.5-1.8 0-.5.2-1.1.1-1.6v-.1c1.5-.3 3-.5 4.6-.6zm-10.4 3c0 .7.3 1.4.8 1.9s1.3 1 2.1.8c.2-.1.2-.3 0-.4-.6-.2-1.1-.4-1.6-.8s-.8-1-.9-1.7c1-.7 2.2-1.1 3.3-1.5.6-.2 1.1-.3 1.7-.5-.8.8-.5 3 .4 3.6 0 0 .1 0 .1.1-.1 0-.1 0-.2.1-.4.2-.9.4-1.3.6-.5-.3-1.1-.4-1.6-.9-.6-.5-1-1.1-1.3-1.8-.1-.2-.3-.1-.2.1.1.9.5 1.6 1.2 2.2.3.3.7.6 1.2.8-.3.2-.6.3-.9.4-.5.2-1.3.6-1.9.4-1.1-.2-2.1-1.1-1.9-2.1.2-.5.6-.9 1-1.3z" fill="#452c22" stroke-width="none" opacity="1"></path></g></g></g><g id="svga-group-nose-single-move" transform="matrix(1,0,0,1,0,0)"><g id="svga-group-nose-single" transform="matrix(1,0,0,1,0,0)"><path id="SvgjsPath11907" d="M95.27 105.86c-2.27.15-5.15 2.52-5.25 4.91-.07 1.77 1.92 4.34 3.69 2.72.25-.23-.07-.56-.34-.44-.58.27-1.59.07-2.02-.41-.41-.46-.56-.96-.6-1.53-.07-1.04.34-2.02 1.05-2.77 1.01-1.09 2.47-1.4 3.52-2.36.04-.04.01-.12-.05-.12z" fill="#5e2709" stroke-width="none" opacity="1" transform="translate(0 2)" stroke="none"></path><path id="SvgjsPath11908" d="M93.45 112.93c1.26-1.3 1.88 1.74 2.11 2.19.17.34.38.64.68.88 1.09.88 2.86.88 4.17.88 1.2 0 2.43-.2 3.38-.98.43-.36.73-.77.95-1.29.13-.3.19-.62.29-.92.24-.71.75-2.81 2.25-1.49.13.11.38.01.31-.18-.38-1.05-1.6-1.04-2.35-.31-.5.48-.66 1.17-.89 1.8-.65 1.83-1.73 2.6-3.66 2.65-1.4.04-3.24.07-4.16-1.07-.61-.75-.6-1.77-1.24-2.48-.64-.72-1.66-.82-2.21.05-.13.21.19.46.37.27z" fill="#5e2709" stroke-width="none" opacity="1" transform="translate(0 2)" stroke="none"></path><path id="SvgjsPath11909" d="M105.63 113.51c2.18 1.58 4.54-1.13 3.96-3.32-.63-2.37-3.45-4.55-5.96-4.02-.18.04-.17.31 0 .35 1.74.42 3.24.77 4.44 2.24.8.98 1.31 2.23.64 3.41-.67 1.19-1.8 1.21-3.01 1.05-.16-.03-.18.21-.07.29z" fill="#5e2709" stroke-width="none" opacity="1" transform="translate(0 2)" stroke="none"></path><path id="SvgjsPath11910" d="M96.48 105.71c1.63-.41 3.27-.57 4.93-.72.1-.01.14-.16.03-.19-1.71-.31-3.43-.04-5.05.58-.2.08-.13.38.09.33z" fill="#5e2709" stroke-width="none" opacity="1" transform="translate(0 2)" stroke="none"></path><path id="SvgjsPath11911" d="M105.82 109.12c-.41-2.13-3.98-2.53-5.73-2.55-2.5-.03-4.38.77-6.04 2.6-.19.22-.01.58.29.5 1.76-.48 3.94-.71 5.75-.56.97.08 1.95.33 2.86.68.81.32 1.37.67 2.26.41.47-.15.7-.6.61-1.08z" fill="#945e41" stroke-width="none" opacity="1" transform="translate(0 2)" stroke="none"></path><path id="SvgjsPath11912" d="M103.17 114.32c-.76.22-1.44.56-2.25.61-.87.06-1.73-.11-2.52-.48-.3-.14-.56.29-.26.45 1.52.84 3.91 1.13 5.26-.19.17-.16 0-.46-.23-.39z" fill="#945e41" stroke-width="none" opacity="1" transform="translate(0 2)" stroke="none"></path></g></g><g id="svga-group-hair-front" transform="matrix(1,0,0,1,0,0)"><path id="SvgjsPath11971" d="M121.5 56s-6.3 13.8-31.2 17-29.8 16-26.9 21.6c2.9 5.6 9.7 9.2 2.4 19.9s-.5 12.6 1.7 16-1.7 5.3-1.9 7.5c-.2 2.2 1.9 4.6 1.9 4.6s-4.8-3.1-3.4-9c1.4-5.8-9-8.7-6.1-16.2 2.9-7.5 5.3-9.4 1-22.3s-5.8-22.5-1.5-34.2c6.1-16.2 41.7-39.7 65.9-13.3 0 0 11.4-1.2 17.4 16 6.1 17.2 1.2 27.4-.7 29.8 0 0-.7.5-2.4-6.1-1.7-6.5-7.5-9.2-11.6-18.4S121.5 56 121.5 56z" fill="#5c453b" stroke-width="none" opacity="1" stroke="none"></path><path id="SvgjsPath11972" d="M70 170.9c5.4-4.9 4.1-10.9 1.7-15.8 3.3-10.5-3.9-15.3-3.9-15.3S55 144 54.4 151.6c-.3 4.1-.3 7.3.2 9.8-1.1.3-2.2.8-3 1.4-6.4 5.1-3.4 11.7-2.8 14.9s2.4 5.1 2.4 5.1c-1.4 2.3-4.3 7.4-1 16.4s12.9 13.6 12.9 13.6c-4.5-5.6-3.9-14-3.9-14s.6 2.9 2.3 8.6c1.8 5.6 8.2 10.3 8.2 10.3s-1.4-3.1 0-8.8 1.6-8.6 1.6-8.6c-.2 5.3 2.9 10.7 2.9 10.7-1-4.5 1.4-9.7 0-17.7S65 183.1 65 183.1c6.1-6 5-12.2 5-12.2zm53-121.7s.4 2.2-1.5 6.8-7.2 16-32.4 17.7-25.4 19.7-24.3 21.6 6.6 9.3 3.4 14.4c0 0 .8-5.7-3.6-11.6s-5.3-10.4-.4-17.3S77.7 72 92.7 70.5s21.4-5.5 24.3-9.7c3-4.2 4.9-8.9 6-11.6zm-5.1.4s-3.4 7.8-20.5 10.8-33.2 5.9-38.3 21c0 0-.4-6.3 8.5-14.2s32.6-9.3 38.1-10.4c5.4-1.1 10.3-5.1 12.2-7.2zm-9.5-6.4s-29-3.2-43.8 17.4c0 0 4.9-10.8 17.6-16.3s26.2-1.1 26.2-1.1zM125.5 54s1.7 11.2 7.2 18.8c5.5 7.6 8.7 16.1 8.7 16.1s0-8.5-4.9-15.7c-4.9-7.1-8.9-12-11-19.2zm1.3-2.5s11.4 10.8 15.4 27.7c0 0-.6-10.6-5.3-17.6-4.6-6.9-10.1-10.1-10.1-10.1z" fill="#543c32" stroke-width="none" opacity="1" stroke="none"></path><path id="SvgjsPath11973" d="M119.2 54.9s-5.2 11.4-24.9 13c-19.7 1.7-25.4 4.3-29.9 8.5 0 0 6.4-9.7 18.5-11.6s26.3-3 36.3-9.9zm-2.2-8.1s-4.5 7.1-20.2 8.5-27.5 4.5-34.6 13.5c0 0 5.5-16.4 22.8-20.6s16.1.5 32-1.4zM127.9 57s2.4 5.2 5.9 10.2 6.4 10.4 7.4 14.5c0 0-.7-9.5-5.2-16.1s-8.1-8.6-8.1-8.6z" fill="#634e45" stroke-width="none" opacity="1" stroke="none"></path><path id="SvgjsPath11974" d="M57.9 172.9c-2.2 2.4-1.2 6.4-1.2 6.4s.4-4.1 3.7-5.7c3.3-1.6 7.8-2.5 9.6-2.6 0 0 4.2-4.9 2.1-12.9 0 0-1 8.3-5.3 9.4-4.2 1-6.7 3-8.9 5.4zm8.2 18.5c-1-4.1-5.8-6.9-7.6-7.9 1.7 0 3 .1 3 .1s-2.4-.1-6.4-1.9c-4-1.7-5.7-7.8-5.4-11 .2-2.3 2.3-4.8 3.6-5.9 2.4 2.4 5.7 3.6 5.7 3.6-5-6-2.8-11.8-1.6-14.2 4.4 3.6 8 3.6 8 3.6-14.2-8.4-12-22.7-12-22.7-1.5 2.5-4.5 9.9 1.1 16.4-3.2 1.3-4.8 7.4-2.9 11-1.5 1-3.7 3.1-4.6 7.5-1.5 7 2.9 12.2 4.2 12.8 0 0-3.3 4.3-.2 16.2 3 11.9 12.1 13.8 12.1 13.8-6-3.8-9.9-12.9-10.5-18.7-.5-4.7 1.3-9.2 2.1-10.8 1.1.1 2.3.1 3.4.1.9 1 3.5 4.4 4.9 9.3 1.6 6 .5 9.9 1.2 14.2.7 4.2 4.4 9.1 4.4 9.1s-3.1-6.5-2.9-11.5c0-4.9 1.6-8.1.4-13.1zm5.1-.9c-2.2-5.2-6.5-6.1-6.5-6.1 4.5 3.7 5.7 7.8 6 11.9.3 4.1 2 8.4 2 8.4-.3-3.1.8-9.1-1.5-14.2zm-.1-38.1c.8-3.7-.7-9.5-2.6-11.8 0 0 3.5 7.5-.8 17.6 0 0 2.5-2.1 3.4-5.8zm-8.1-8.3s-7.2-7.4-10.6-20.9c0 0-2.1 16.7 10.6 20.9z" fill="#4c342a" stroke-width="none" opacity="1" stroke="none"></path></g><g id="svga-group-glasses-single-move" transform="matrix(1,0,0,1,0,0)"><g id="svga-group-glasses-single" transform="matrix(1,0,0,1,0,0)"></g></g></g></g></g><rect id="svga-credit-rect" width="200" height="15" x="0" y="185" fill="#ecf0f1" opacity="0.5" style="display: none;"></rect><text id="svga-credit-text" font-family="Avenir Next, Roboto, Helvetica, Arial, sans-serif" font-size="10px" text-anchor="start" font-weight="400" size="10px" anchor="start" weight="400" fill="#333333" x="33.40447998046875" y="182.60824704170227" style="display: none;"><tspan id="SvgjsTspan11325" dy="13" x="33.40447998046875">Created on AvatarMaker.com</tspan></text></g></svg>