<svg xmlns="http://www.w3.org/2000/svg" version="1.1" width="600px" height="600px" viewBox="0 0 200 200" style="overflow:hidden!important;"><defs id="SvgjsDefs17512"></defs><g id="svga-group-wrapper"><g id="svga-group-backs-single"><path id="SvgjsPath18219" d="M0 0h200v200H0V0z" fill="#5e8c6a" stroke-width="none" opacity="1"></path><path id="SvgjsPath18220" d="M88.8 158.9s-21.3-3-23.6-17.1c-1.5-9.3 10.5-9.3 14.8-5.5 0 0 3.3-8.7 9.9-7.2 8.4 1.9 9.2 12.7-1.1 29.8zM38.7 51s14.9-16.3 6.8-30.1c-5.3-9.2-14.9-1.5-15.7 4.6 0 0-8.8-5.6-13 0-5.4 7 1.6 17 21.9 25.5zM168 165s-2.6-14.4 1.6-22.7 14.8-4 13.3 4.9c0 0 8.2-2 10.6 4.5 2.3 6.4-10 12.7-25.5 13.3zm6.6-139.5s5.2-1.9 5.9-4.8c.8-3-3-3.5-4.5-1.6 0 0-1.1-2.8-3.1-2.2-1.9.5-2.2 2.6 1.7 8.6z" fill="#346d43" stroke-width="none" opacity="1"></path><path id="SvgjsPath18221" d="M125 33.1s-13-1.2-19.2-6.8.1-13.7 7.4-10.3c0 0 .2-7.6 6.3-8 6.2-.5 8.7 11.5 5.5 25.1zm15.9 84.9s3.6-4.2 2.8-7.1c-.8-3-4.4-1.6-4.7.8 0 0-2.4-1.9-3.8-.4s-.6 3.4 5.7 6.7zm12.2 66.9s7.1-.7 9-4.2-2.7-5.4-5.2-3.4c0 0-.5-3.9-3.2-3.8s-3.6 2.7-.6 11.4zm-122.9 5.7s23.3-3.5 29-15.3-9.8-17.2-17.5-10.6c0 0-2.3-12.8-11-11.9s-11.7 9.5-.5 37.8zm3.5-106.7s3.3-12.8-1.5-18.3-11 1.3-9.3 6.7c0 0-7.1-1.6-8.5 3-1.4 4.8 2.3 8.2 19.3 8.6z" fill="#477d55" stroke-width="none" opacity="1"></path><path id="SvgjsPath18222" d="M149.4 76.1s-24.7-19.3-16.5-40.8c5.4-14.2 20.6-5.7 23.2 2.7 0 0 11-10 18.2-3.2 9.1 8.6 1.6 24.4-24.9 41.3zm7 29.6s-4.5-12.3-2-20.2 12.4-5.8 12.4 2.3c0 0 6.9-3 10 2.3 3 5.4-6.9 12.7-20.4 15.6zM53.9 143.9s-13-1.2-19.2-6.8.1-13.7 7.4-10.3c0 0 .2-7.6 6.3-8s8.7 11.6 5.5 25.1zm89.6 23.3s-4.6-9.3-3.3-15.7c1.2-6.5 9.3-5.6 10 .8 0 0 5.2-3 8 1s-4.3 10.5-14.7 13.9zM65.3 46s5.8-6.7 4.5-11.4-7-2.5-7.5 1.2c0 0-3.8-3.1-6-.7-2.2 2.4-1 5.6 9 10.9zm-40.7 81.2s4.7-5.4 3.7-9.3-5.7-2-6.1 1c0 0-3.1-2.5-4.9-.6s-.8 4.6 7.3 8.9zm53 60.3s5.2-1.9 5.9-4.8-3-3.5-4.5-1.6c0 0-1.1-2.8-3.1-2.2-1.8.6-2.1 2.7 1.7 8.6zm47.7-12.7s4.7-5.4 3.7-9.3c-1-3.9-5.7-2-6.1 1 0 0-3.1-2.5-4.9-.6-1.9 2-.9 4.6 7.3 8.9zm-22.6-132s4.7-5.4 3.7-9.3-5.7-2-6.1 1c0 0-3.1-2.5-4.9-.6-1.9 2-.9 4.6 7.3 8.9zM77.3 94.4s8.8-4.2 9.6-9.5-5.9-5.6-8.2-2.1c0 0-2.5-4.8-5.8-3.3-3.2 1.4-3.4 5.1 4.4 14.9z" fill="#52845f" stroke-width="none" opacity="1"></path></g><g id="svga-group-humanwrap-move" transform="matrix(1,0,0,1,0,0)"><g id="svga-group-humanwrap" transform="matrix(1,0,0,1,0,0)"><g id="svga-group-hair-back-move" transform="matrix(1,0,0,1,0,0)"><g id="svga-group-hair-back" transform="matrix(1,0,0,1,0,0)"></g></g><g id="svga-group-humanbody-back"><path id="SvgjsPath17913" d="M166.5 181.1c-10.9-6.6-27.6-8.4-35-12.1-4.9-2.5-9.1-4.7-8.9-17.8s1.9-42.4 1.9-42.4H75.4s1.6 29.4 1.9 42.4-4.2 15.6-8.9 17.8c-7.4 3.5-24.1 5.4-35 12.1-10.8 6.6-10 18.9-10 18.9v19.7h153.3V200c-.1 0 .7-12.3-10.2-18.9z" fill="#8c5537" stroke-width="none" opacity="1" stroke="none"></path></g><g id="svga-group-chinshadow-single"><path id="SvgjsPath18164" d="M75.3 163.1c10.5 6.8 14.6 11.7 24.7 11.7 10 0 14.1-4.9 24.6-11.7-1.3-2.5-2.1-6.2-2-11.9.2-13.1 1.9-42.4 1.9-42.4H75.4s1.6 29.4 1.9 42.4c.1 5.7-.6 9.4-2 11.9z" fill="#6d3415" stroke-width="none" opacity="0.65" stroke="none"></path></g><g id="svga-group-humanbody-front"><path id="SvgjsPath17914" d="M78.7 156.8c.5 4.8 1.7 9.4 3.1 13.9.8 2.3 1.6 4.6 2.6 6.9.8 2 1.7 4.2 3.1 5.9.3.4 1 0 .9-.5-.5-2.2-1.6-4.3-2.4-6.4-.9-2.2-1.7-4.4-2.5-6.6-1.5-4.4-2.8-8.9-4.1-13.3-.2-.4-.8-.3-.7.1zm41.3-1c-1.3 8.2-3.9 16.1-5.4 24.2-.1.4.4.5.6.2 3.1-7.7 4.1-16.1 5.1-24.3-.1-.2-.3-.2-.3-.1zm-25.8 11.9c-.9 3.6 1.9 8.6 6.2 7.6.5-.1.4-.8 0-1-1.4-.5-2.9-.9-3.9-2.1-1.1-1.2-1.5-2.9-1.4-4.5 0-.4-.8-.5-.9 0z" fill="#6d3415" stroke-width="none" opacity="1" stroke="none"></path><path id="SvgjsPath17915" d="M177.3 219.7c-.1-6.6-.3-13.1-.3-19.7l-.3-.3c.1 0 .1 0 .2.1s.1.2.1.1v-1.4c0-.5-.1-.9-.1-1.4-.1-.9-.3-1.9-.5-2.8-.5-1.8-1.1-3.6-2-5.3-1.7-3.4-4.4-6.2-7.7-8.1-3.6-2.2-7.6-3.8-11.6-5.1-4-1.3-8.1-2.4-12.1-3.5-4-1.2-8.1-2.2-11.8-4.2-1.9-1-3.6-2.1-4.8-3.6-1.2-1.6-1.9-3.5-2.3-5.5-.8-4-.4-8.2-.3-12.4l.7-12.6 1.5-25.2.1-1.4h-1.4c-8.2 0-16.4 0-24.6.1l-24.6.3h-.9l.1.9c.8 11.9 1.6 23.8 2.1 35.7.1 3 .3 6 .2 8.9-.1 2.9-.4 5.9-1.6 8.6-.6 1.3-1.4 2.5-2.4 3.5s-2.3 1.8-3.6 2.4c-2.6 1.3-5.4 2.2-8.3 3-5.8 1.5-11.6 2.8-17.3 4.7-2.8.9-5.7 2-8.4 3.4-1.3.7-2.7 1.4-4 2.4-1.3.9-2.4 1.9-3.5 3.1-2.1 2.3-3.6 5.2-4.5 8.1-.5 1.5-.8 3-1 4.6-.1.8-.1 1.6-.1 2.4v2.3l-.2 17.9v1.3h1.4l38.3.2c12.8.1 25.5.1 38.3 0 12.8-.1 25.6-.1 38.3-.3 12.8-.2 25.6-.5 38.3-.7h.6v-.5zm-77.2-1.6H61.8l-37 .2-.1-16.6v-2.2c0-.7 0-1.4.1-2.1.1-1.4.4-2.8.8-4.2.8-2.7 2.1-5.3 3.9-7.5.9-1.1 2-2.1 3.1-2.9 1.1-.9 2.4-1.6 3.7-2.3 2.6-1.4 5.3-2.5 8.1-3.5 5.6-2 11.4-3.4 17.1-5.1 2.9-.8 5.8-1.7 8.5-3.1 1.3-.7 2.7-1.5 3.8-2.6 1.1-1.1 2-2.4 2.6-3.9 1.2-2.9 1.5-5.9 1.6-8.9 0-3-.1-6-.2-9l-1.3-34.8 23.5.4c7.7.1 15.4.1 23.1.1-.4 7.9-.8 15.9-1.1 23.8-.2 4.2-.2 8.4-.3 12.6 0 4.2-.2 8.5.8 12.8.5 2.1 1.3 4.2 2.8 6 1.4 1.7 3.4 2.9 5.3 3.8 3.9 1.9 8 2.8 12.1 3.8s8.2 2 12.2 3.3c4 1.3 7.9 2.8 11.5 5 3.2 1.9 5.8 4.7 7.5 8 .9 1.6 1.5 3.4 1.9 5.2.2.9.4 1.8.4 2.7.1.5.1.9.1 1.4V200l-.3 19c-12.6-.2-25.1-.5-37.7-.7-12.7-.1-25.5-.1-38.2-.2z" fill="#5e2709" stroke-width="none" opacity="1" stroke="none"></path></g><g id="svga-group-clothes-single"><path id="SvgjsPath18049" d="M44.5 170.9s-16 3.4-20.6 10.1c0 0-3.2-.6-4.2 2.8s-7.2 19.8-4 36.3h168.6c3.2-16.6-3-33-4-36.3-1-3.4-4.2-2.8-4.2-2.8-4.6-6.7-20.6-10.1-20.6-10.1s-57.7-10.8-111 0z" fill="#152c5e" stroke-width="none" opacity="1"></path><path id="SvgjsPath18050" d="m86.7 153-2.3 1.2-.2.1-.1.1c7 .1 13.8 3.8 13.8 3.8l-3.5.2c4.2 2 8.2 6.3 8.2 6.3 1.5-3.6 5.3-5.1 5.3-5.1l-3-.6c3.6-3.9 13.9-7.3 13.9-7.3l-2.6-.6c5.4-4.1 10.9-4.1 10.9-4.1 1.5-1.9 6.9-3 6.9-3l-.9 2.2c3.9-1.1 9.8.8 9.8.8l-2.8 1.1c8.1 3.2 11.9 8.3 11.9 8.3l-3.5.3c6 3.4 9 12.4 9 12.4l-2.4-.2c3.8 7.5 3.2 14.8 3.2 14.8l-2.4-3.2c.4 11.2-8.9 20.9-8.9 20.9 0-2.6-1.4-6.9-1.4-6.9-1.1 3-7.2 9.5-7.2 9.5l.2-3.8c-3.8 4.3-13 7.8-13 7.8.6-1.5.7-5.3.7-5.3-2.1 3.4-7.7 6.6-7.7 6.6L117 207c0 5.4-1.8 9.1-1.8 9.1l-7.8-3.4 1.1 3.4c-11.6-1.9-21-6.8-21-6.8l1.1 2.8c-9.6-1.7-16.3-9.2-16.3-9.2v4.3c-3.6-1.9-7.9-7.9-7.9-7.9l.6 4.9c-8.4-5.4-11.4-15.9-11.4-15.9l-1.9 3.8c-2.4-3.6-3.2-10.5-3.2-10.5l-1.7 3.9c-5.8-6-4.2-12.8-4.2-12.8l-3.3 2.3c-2.1-7.3 3.7-12.7 3.7-12.7l-2.1.6c2.4-7.1 11.1-13.3 11.1-13.3l-1.9-1.1c8.2-5.4 12.8-4.9 12.8-4.9l-1.4-1.9s6.5-1.8 12.1 1.7l3.1 1.4 1.6 3.5 2 1.9 6.4 2.8z" fill="#152c5e" stroke-width="none" opacity="1"></path><path id="SvgjsPath18051" d="m86.7 153-2.3 1.2-.2.1-.1.1c7 .1 13.8 3.8 13.8 3.8l-3.5.2c4.2 2 8.2 6.3 8.2 6.3 1.5-3.6 5.3-5.1 5.3-5.1l-3-.6c3.6-3.9 13.9-7.3 13.9-7.3l-2.6-.6c5.4-4.1 10.9-4.1 10.9-4.1 1.5-1.9 6.9-3 6.9-3l-.9 2.2c3.9-1.1 9.8.8 9.8.8l-2.8 1.1c8.1 3.2 11.9 8.3 11.9 8.3l-3.5.3c6 3.4 9 12.4 9 12.4l-2.4-.2c3.8 7.5 3.2 14.8 3.2 14.8l-2.4-3.2c.4 11.2-8.9 20.9-8.9 20.9 0-2.6-1.4-6.9-1.4-6.9-1.1 3-7.2 9.5-7.2 9.5l.2-3.8c-3.8 4.3-13 7.8-13 7.8.6-1.5.7-5.3.7-5.3-2.1 3.4-7.7 6.6-7.7 6.6L117 207c0 5.4-1.8 9.1-1.8 9.1l-7.8-3.4 1.1 3.4c-11.6-1.9-21-6.8-21-6.8l1.1 2.8c-9.6-1.7-16.3-9.2-16.3-9.2v4.3c-3.6-1.9-7.9-7.9-7.9-7.9l.6 4.9c-8.4-5.4-11.4-15.9-11.4-15.9l-1.9 3.8c-2.4-3.6-3.2-10.5-3.2-10.5l-1.7 3.9c-5.8-6-4.2-12.8-4.2-12.8l-3.3 2.3c-2.1-7.3 3.7-12.7 3.7-12.7l-2.1.6c2.4-7.1 11.1-13.3 11.1-13.3l-1.9-1.1c8.2-5.4 12.8-4.9 12.8-4.9l-1.4-1.9s6.5-1.8 12.1 1.7l3.1 1.4 1.6 3.5 2 1.9 6.4 2.8z" fill="#ffffff" stroke-width="none" opacity="0.9"></path><path id="SvgjsPath18052" d="M59.3 180.9c-.6-1.1-1-2.2-1.4-3.4s-.7-2.4-1-3.6-.6-2.4-.8-3.6c0-.2-.1-.3-.3-.4-.2-.1-.5 0-.6.3l-1.4 3.4c-.4-1.2-.6-2.4-.7-3.7-.1-1.6 0-3.3.3-4.9.3-1.6.7-3.2 1.2-4.9.5-1.6 1.1-3.2 1.8-4.7-.8 1.4-1.5 3-2.1 4.6-.6 1.6-1.1 3.2-1.4 4.9-.3 1.7-.5 3.4-.5 5.1.1 1.7.4 3.4 1.1 5 0 .1.1.2.2.2.2.1.5 0 .6-.2l1.3-2.9c.4 1.9.9 3.9 1.5 5.7.4 1.2.9 2.4 1.5 3.5s1.3 2.2 2.2 3.1c.1.1.2.1.3.1.2 0 .4-.2.4-.4l.2-4.2c.7 1.2 1.4 2.4 2.2 3.5l1.5 2.1c.5.7 1.1 1.4 1.7 1.9-.6-.6-1.1-1.4-1.5-2.1-.5-.7-.9-1.5-1.3-2.2-.8-1.5-1.7-3-2.5-4.5 0-.1-.1-.1-.2-.2-.2 0-.3.1-.3.3l-.4 4.3c-.8-.6-1.2-1.3-1.6-2.1zm7.6-10.3c0 .9.2 1.9.4 2.8.2.9.5 1.8.8 2.7.3.9.8 1.8 1.2 2.6.5.8 1.1 1.6 1.8 2.3.1.1.2.1.3.1.3 0 .5-.2.5-.4l.1-1.2c.2.3.4.6.7.9.5.6 1 1.2 1.6 1.8.6.6 1.1 1.2 1.8 1.6.6.5 1.3 1 2.1 1.3-1.3-.9-2.3-2.1-3.3-3.4-1-1.2-1.9-2.6-2.7-3.9-.1-.1-.2-.2-.4-.2-.3 0-.5.2-.5.4l-.2 1.4c-.9-1.1-1.7-2.4-2.3-3.7-.7-1.6-1.4-3.3-1.9-5.1zm29.8 30.7c-.2-.1-.5 0-.6.2l-.6 1.4c-2.4-1.5-4.8-3-7.3-4.3h-.3c-.1.1-.2.2-.1.4.6.9 1.1 1.8 1.7 2.7l-.9-2.1c2.2 1.6 4.5 3.1 6.8 4.5h.1c.2.1.5 0 .7-.3l.6-1.4c2.6 1.4 5.2 2.8 8 4-2.7-1.8-5.3-3.5-8.1-5.1zm50.2-42-1.9.2c-.1 0-.2.1-.3.1-.2.2-.2.5 0 .7 1.1 1.2 2.1 2.4 3 3.7.5.6.9 1.3 1.3 2 .3.5.6 1.1.9 1.6-.7-.3-1.4-.6-2.1-.8.8.5 1.6.9 2.5 1.4h.2c.1 0 .2-.1.1-.3-.2-.8-.6-1.5-.9-2.3-.4-.7-.8-1.5-1.2-2.1-.7-1.1-1.5-2.2-2.4-3.2l2.3-.3c.1 0 .2-.1.3-.2.1-.2.1-.5-.1-.7-1.4-1-2.9-1.7-4.4-2.3-1.5-.6-3.1-1.2-4.7-1.6 1.5.7 3 1.4 4.4 2.2 1 .7 2 1.3 3 1.9zm2.2 23.1c-.2 1.2-.4 2.5-.8 3.6-.4-.5-.8-1.1-1.2-1.6 0-.1-.1-.1-.1-.1-.2-.1-.5 0-.6.2l-1.6 3.2c-.4.7-.7 1.4-1.1 2.1l-.8-2.3c0-.1-.1-.2-.2-.3-.2-.1-.5-.1-.6.2-.8 1.3-1.6 2.7-2.5 4-.4.6-.9 1.3-1.4 1.9-.4.5-.8 1-1.3 1.5v-2.3l-.3 2.7v.1c.1.1.1.1.2 0 1.3-1 2.3-2.2 3.3-3.5.8-1 1.5-2 2.2-3.1l.8 2.4c0 .1.1.2.2.3.2.1.5.1.7-.2.6-1 1.2-2.1 1.7-3.2.4-.9.8-1.7 1.2-2.6.4.5.9 1.1 1.3 1.6.1.1.1.1.2.1.2.1.4-.1.5-.3.4-1.5.6-3 .7-4.6.1-1.5.1-3.1.1-4.6-.1 1.8-.3 3.4-.6 4.8zm-25.8-25.5.1-.1c.1-.2 0-.5-.2-.6-.3-.1-.7-.3-1-.4.3-.2.6-.5.9-.7.6-.3 1.1-.6 1.8-.9 1.2-.5 2.5-.8 3.9-1-1.4-.3-2.8-.2-4.2.2-1.4.4-2.7 1.1-3.7 2.1-.1.1-.1.1-.1.2-.1.2 0 .5.3.6.4.1.8.3 1.2.4-.8 1.1-1.7 2.2-2.4 3.4 1.2-.9 2.3-2.1 3.4-3.2zm17.1 12.8c.6.7 1.1 1.5 1.6 2.3l.6 1.2-.5-.3c-.1-.1-.2-.1-.4-.1-.3.1-.4.3-.4.6.1.6.2 1.3.3 2s.1 1.3.1 2c-.1 1.1-.2 2.3-.7 3.4l-.6-1.2c-.3-.6-.6-1.1-.9-1.7.2.6.4 1.2.7 1.8.2.6.4 1.2.7 1.8 0 .1.1.1.1.1.1.1.3 0 .4-.1.8-1.2 1.2-2.6 1.3-4.1.1-1.1.1-2.1-.1-3.2l.8.5c.1.1.3.1.4.1.3-.1.4-.4.3-.6-.6-1.9-1.7-3.6-3-5-.7-.7-1.4-1.4-2.1-1.9-.8-.6-1.6-1.1-2.4-1.6 1.3 1.2 2.7 2.5 3.8 4zm-18.1 26.6c.1-.8.2-1.5.3-2.2-.3.9-.5 1.8-.8 2.6v.1c0 .1.2.2.3.1.8-.3 1.6-.8 2.4-1.2.8-.5 1.5-1 2.2-1.5 1.1-.8 2-1.7 3-2.6-.1.6-.1 1.3-.1 2 0 .1 0 .2.1.3.1.2.4.2.6.1 1.1-.8 1.9-1.9 2.7-3 .7-1.1 1.3-2.2 1.8-3.4-.7 1.1-1.5 2.1-2.3 3.1-.6.7-1.2 1.4-1.9 2 .1-.7.2-1.5.2-2.2 0-.1 0-.3-.1-.4-.2-.2-.5-.2-.7 0-1.2 1.2-2.5 2.4-3.8 3.5-1.3.9-2.5 1.9-3.9 2.7zM62.7 163c.7-.3 1.3-.6 1.9-.9.1.9.2 1.9.3 2.8.1.6.2 1.1.3 1.6.1.5.3 1.1.6 1.6-.2-.5-.3-1.1-.4-1.6-.1-.6-.1-1.1-.1-1.7-.1-1.1-.1-2.2-.1-3.3v-.1c-.1-.2-.3-.3-.5-.2-.5.2-1.1.4-1.6.6.4-1.2.8-2.4 1.4-3.5.7-1.4 1.5-2.8 2.4-4 .1-.1.1-.2.1-.3 0-.2-.2-.4-.5-.4-.7.1-1.3.1-2 .1l.6-.9c.4-.5.8-.9 1.3-1.3.9-.8 2-1.5 3.2-2-1.2.3-2.4.9-3.5 1.6-.5.4-1 .8-1.5 1.3s-.8 1-1.2 1.6v.2c0 .2.2.4.4.4h1.7c-.8 1.1-1.4 2.2-2 3.4-.7 1.5-1.3 3-1.6 4.6v.3c.3.1.5.2.8.1zm30.4 3.8-2.3.4c-.1 0-.2.1-.3.2-.2.2-.1.5.1.7 1 .7 2 1.5 3 2.4.8.7 1.5 1.4 2.2 2.1l-1.5.4c-.1 0-.2.1-.2.1-.2.2-.1.4 0 .6.9.8 1.8 1.7 2.6 2.6l2.1 2.7c-.7-.1-1.4-.2-2.1-.2l2.4.6h.1c.1 0 .1-.1.1-.2-.6-1.1-1.3-2.1-2.1-3.1-.6-.8-1.3-1.6-2-2.3l1.6-.4c.1 0 .1-.1.2-.1.2-.2.2-.4 0-.6-.9-1-1.8-1.9-2.8-2.8-.7-.6-1.4-1.2-2.2-1.8l2.1-.4c.1 0 .2-.1.2-.1.2-.2.2-.5 0-.6-1.5-1.6-3.5-2.4-5.4-3.2-1-.4-1.9-.7-2.9-.9-1-.2-2-.5-3-.6 2 .6 3.9 1.2 5.8 2 1.5.5 3 1.4 4.3 2.5zm-46.8-3.2c.2-.4.5-.7.8-1.1.3-.4.6-.7.9-1l1.8-2 .1-.1c0-.2-.1-.3-.2-.4l-1.8-.5c.5-.7 1.3-1.2 2.1-1.8.9-.6 2-1.2 3-1.7.1-.1.2-.2.2-.3.1-.3-.1-.5-.4-.6l-1.4-.3c.4-.4.9-.8 1.4-1.1.7-.5 1.5-.9 2.3-1.4 1.6-.8 3.2-1.6 4.9-2.2-.9.2-1.8.4-2.6.7-.9.3-1.7.6-2.5.9-.8.4-1.7.8-2.5 1.2-.8.5-1.5 1-2.2 1.8 0 .1-.1.1-.1.2-.1.2.1.5.3.6l.9.2c-.7.4-1.3.8-1.9 1.2-.5.3-1 .7-1.4 1.1-.4.4-.9.9-1.2 1.5v.1c0 .2.1.4.3.5l1.9.4c-.4.6-.9 1.1-1.3 1.7-.5.8-1 1.5-1.4 2.4zm27.5 33.1c-.1-.1-.2-.1-.4-.1-.2.1-.4.3-.3.5l.3 1.5c-.9-.5-1.7-1-2.5-1.6l-3.3-2.4c-.1-.1-.2-.1-.3-.1-.2 0-.4.2-.4.5 0 .4.1.8.1 1.2-.6-.5-1.1-.9-1.7-1.5-.7-.7-1.4-1.5-1.9-2.4.4 1 1 1.9 1.6 2.7.7.8 1.4 1.6 2.2 2.3.1.1.2.1.2.1.2 0 .3-.2.3-.4v-1c1.9 1.6 4 3 6.2 4.2.1.1.2.1.3 0 .2-.1.4-.3.3-.6l-.4-1.4c.8.5 1.6 1 2.4 1.4.6.3 1.2.6 1.8.8.6.2 1.3.4 1.9.6l-1.8-.9c-.6-.3-1.1-.7-1.7-1-.9-.8-2-1.5-2.9-2.4z" fill="#01153f" stroke-width="none" opacity="1"></path><path id="SvgjsPath18053" d="M77.9 148.2c-.7-1.5-.9-2-1.4-3.4l-2-1-1.8-.8c-.8-.6-2-.8-3-1.2-.9-.3-1.9-.5-2.9-.6-2-.2-4 0-5.9.4 0 0-.1.1 0 .2l1.3 1.8c-1.1-.1-2.2.1-3.2.3-1.1.3-2.3.6-3.3 1.1-1.1.4-2.1.9-3.2 1.5l-1.5.9-1.5.9-.1.1c0 .1 0 .2.1.2l1.4.8c-2.3 1.7-4.4 3.6-6.3 5.7-1 1.1-1.9 2.3-2.7 3.5s-1.5 2.6-2 4v.2c0 .1.2.2.3.2l1.2-.3-1.5 2.1c-.6 1-1 2.1-1.4 3.2-.3 1.1-.5 2.3-.5 3.5v1c-1.8.6-3.6 1.2-5.3 1.9-1.8.8-3.6 1.6-5.2 2.7-1.6 1-3.1 2.2-4.3 3.8-.9-.1-1.8 0-2.6.5s-1.4 1.3-1.7 2.2c-.6 1.7-1.1 3.4-1.7 5.1-1 3.4-1.9 6.9-2.6 10.4-.6 3.5-1 7.1-1.1 10.6-.1 3.6.1 7.2.8 10.7.1.4.4.6.8.6 74.4 1.4 168.6 0 168.6 0 .4 0 .7-.3.8-.6 1.9-7.2 1.7-14.5.5-21.6-.6-3.5-1.4-7-2.4-10.5-.5-1.7-1-3.4-1.6-5.1-.3-1-.9-2-2-2.6-.5-.3-1-.5-1.6-.6-.4-.1-.7-.1-1-.1-1.8-2.3-4.2-3.8-6.5-5.1-2.6-1.4-5.2-2.4-8-3.3-1.4-.4-2.7-.8-4.1-1.2-.7-.2-1.4-.4-2.1-.5h-.1c-.1-.3-.2-.5-.4-.8l2.1.3h.1c.1-.1.2-.2.2-.4-.9-2.5-2.1-4.9-3.6-7.1-.8-1.1-1.6-2.2-2.5-3.1-.7-.7-1.5-1.4-2.3-1.9l2.5-.1c.1 0 .1 0 .2-.1s.2-.3.1-.5c-.8-1-1.7-1.9-2.6-2.7-.9-.8-1.9-1.6-2.9-2.3s-2.1-1.4-3.2-2c-.8-.4-1.7-.8-2.5-1.2l1.9-.8c.1 0 .2-.1.2-.2.1-.2-.1-.4-.3-.5-1.6-.5-3.2-.8-4.9-1-1.4-.1-2.8-.2-4.2.1l.6-1.5v-.3c-.1-.2-.3-.4-.5-.3-1.3.3-2.5.6-3.7 1.1-.6.2-1.2.5-1.8.8-.5.3-1.1.6-1.5 1.1-1 .1-1.9.2-2.8.4-1 .2-1.9.5-2.9.9s-1.8.8-2.7 1.3c-.9.5-1.7 1.1-2.5 1.6l-.2.2c0 .2.1.4.3.4l1.3.3c-2.1.8-4.1 1.6-6.1 2.6-1.2.6-2.4 1.2-3.5 1.9s-2.2 1.5-3.2 2.5l-.1.1c0 .2.1.3.2.4l2.5.6c-.9.5-1.7 1.1-2.5 1.9-.5.4-.9.9-1.3 1.5-.3.4-.6.9-.8 1.4-1.2-1.3-2.5-2.4-3.9-3.5-1.2-.9-2.6-1.8-4-2.5h3.3c.1 0 .1 0 .1-.1s0-.2-.1-.2c-2.2-1.1-4.4-1.9-6.8-2.6-1.2-.3-2.3-.6-3.6-.8-1.1-.2-2.2-.3-3.3-.3l1.9-1.2-6-3.1-2-1.9zm-14.7-4.4-1.5-2.3c1.9-.4 3.8-.5 5.7-.4 1 .1 1.9.3 2.9.6.9.3 5.7 2.2 6.5 2.8l.1.2c1.4 4 3.6 5 6 6.3 1.9.9 2.3 1.1 4 2.1l-2.8 1.4h.4c1.2.1 2.3.2 3.5.4 1.1.2 2.4.6 3.5.9 1.8.5 3.9 1.4 5.9 2.3l-3.2-.1c-.1 0-.2.1-.2.1 0 .1 0 .2.1.2.5.3 2.6 1.4 4.6 2.9 1.3 1.1 2.8 2.5 4 3.7l.2.1c.1 0 .3-.1.3-.2.3-.6.5-1.1.9-1.6s.8-1 1.2-1.4c.9-.9 1.9-1.6 3-2.1.1 0 .1-.1.2-.2 0-.1-.1-.3-.2-.3l-2.7-.6c.8-.8 1.7-1.4 2.7-2 1.1-.7 2.3-1.3 3.4-1.9 2.4-1.1 4.8-2.1 7.3-2.9.1 0 .2-.1.2-.3s-.1-.4-.3-.4l-1.8-.4c.6-.4 1.1-.8 1.7-1.1.8-.5 1.7-.9 2.6-1.2s1.8-.6 2.8-.8 1.9-.4 2.8-.4c.1 0 .2-.1.3-.2.3-.4.9-.8 1.4-1 .5-.3 1.1-.5 1.7-.8.9-.3 1.8-.6 2.8-.9l-.6 1.4v.3c.1.2.3.4.5.3 1.5-.4 3.1-.4 4.8-.2 1.2.1 2.4.4 3.6.7l-1.7.7c-.1 0-.2.1-.2.2-.1.2 0 .4.2.5 1.1.5 2.2.9 3.3 1.5s2.1 1.2 3.1 1.9 2 1.4 2.9 2.2l2.1 2.1-2.9.2c-.1 0-.2.1-.3.2-.1.2 0 .4.1.4 1.1.6 2.1 1.5 3 2.4s1.7 2 2.5 3c1.4 2 2.5 4.2 3.4 6.5l-2.1-.3h-.2c-.1.1-.2.2-.1.4 1.1 2.3 2 4.7 2.6 7.1.5 2.3.8 4.6.8 6.9l-2.1-2.7c0-.1-.1-.1-.2-.1s-.2.1-.2.2c0 1.9-.1 3.8-.6 5.7-.4 1.9-1 3.7-1.9 5.4-.8 1.7-1.7 3.4-2.8 5-1 1.5-2.1 2.9-3.2 4.2-.1-1.1-.2-2.1-.5-3.1-.3-1.2-.6-2.3-1-3.4 0-.1-.1-.1-.1-.1-.1 0-.2 0-.2.1-.4.9-.9 1.7-1.5 2.6l-1.8 2.4c-1.1 1.4-2.2 2.7-3.4 4l.3-3.2c0-.1 0-.1-.1-.2s-.2-.1-.3 0c-.8.9-1.8 1.8-2.9 2.5-1 .8-2.1 1.4-3.2 2.1-2.1 1.2-4.2 2.2-6.4 3.1.2-.7.3-1.4.4-2.2.1-.9.2-1.8.2-2.8 0-.1 0-.2-.1-.3s-.3-.1-.4.1c-.9 1.4-2.2 2.6-3.5 3.6s-2.6 1.9-4 2.7L117 206c-.1-.1-.2-.1-.3-.1.1-1.5.1-2.9-.1-4.4-.2-1.4-.4-2.7-.9-4.1l.9.4h.2c.2 0 .3-.2.2-.4-.2-1-.6-1.9-.9-2.9l-1.2-2.7c-.7-1.5-1.5-2.9-2.2-4.4l2.1.5c.1 0 .2 0 .3-.1.2-.1.3-.4.2-.7-1.2-2.1-2.7-4-4.2-5.9-1.3-1.6-2.6-3.1-4-4.6l2 .2h.1c.2-.1.3-.2.3-.4-.5-2.1-1.3-4.2-2.4-6.1-.5-1-1.2-1.9-1.8-2.8-.7-.9-1.4-1.7-2.2-2.4.7.8 1.4 1.7 2 2.6.6.9 1.1 1.9 1.6 2.8.5 1 .9 2 1.2 3 .3.9.5 1.7.7 2.6l-2.6-.4c-.1 0-.2 0-.3.1-.2.2-.2.4 0 .6 2.9 3.2 5.8 6.6 8.1 10.3l-1.9-.4c-.1 0-.2 0-.3.1-.2.1-.3.4-.2.6 1 1.7 1.9 3.5 2.8 5.2.8 1.6 1.6 3.2 2.1 4.8l-.9-.3h-.2c-.2.1-.2.2-.2.4.3.7.5 1.5.7 2.2.2.8.4 1.5.5 2.3.3 1.4.4 2.9.4 4.4-.2 0-.3.2-.3.3 0 1.6-.2 3.1-.4 4.6-.3 1.4-.6 2.8-1.1 4.1l-7.9-3.4c-.1 0-.2-.1-.3 0-.2.1-.3.3-.2.5l1 2.7c-3.4-.6-6.7-1.4-10-2.5-3.5-1.1-7-2.5-10.3-4.1-.1-.1-.2-.1-.4 0s-.3.4-.3.6l.8 2c-1.2-.3-2.5-.6-3.7-1.1-1.4-.6-2.9-1.2-4.2-2-1.3-.8-2.7-1.7-3.9-2.6-1.2-1-2.4-2-3.5-3.1-.1-.1-.2-.1-.3-.1-.3 0-.5.2-.5.5v3.4c-1.3-.8-2.4-1.9-3.5-3-1.3-1.3-2.4-2.8-3.5-4.3-.1-.1-.3-.2-.4-.2-.3 0-.5.3-.4.5l.4 3.8c-1-.8-2-1.6-2.9-2.5-1.1-1.2-2.2-2.4-3.1-3.8-.9-1.4-1.8-2.8-2.5-4.2-.7-1.5-1.4-3-1.8-4.5 0-.1-.1-.2-.2-.3-.2-.1-.5 0-.7.2l-1.5 2.9c-.7-1.3-1.2-2.7-1.6-4.2-.5-1.8-.8-3.6-1.1-5.3 0-.2-.1-.3-.3-.4-.2-.1-.5 0-.6.3l-1.4 3.3c-.6-.7-1.1-1.4-1.6-2.1-.6-.9-1-2-1.4-3.1-.3-1.1-.5-2.2-.6-3.3 0-1.1 0-2.3.3-3.3 0-.1 0-.2-.1-.3-.1-.2-.4-.2-.5-.1l-2.9 2.1c-.2-.9-.4-1.8-.3-2.8.4-1 .5-2.1.8-3.1.3-1.1.7-2.1 1.3-3.1.5-1 1.2-1.9 2-2.7.1-.1.1-.2.1-.3s-.2-.2-.3-.2l-1.5.4c.5-1.2 1-2.3 1.7-3.4.8-1.2 1.7-2.4 2.6-3.5 1.9-2.2 4.1-4.2 6.4-5.9v-.1c0-.1 0-.2-.1-.3l-1.4-.8 1.2-.8 1.5-.9c1-.5 2-1.1 3.1-1.5s5.7-.9 6.9-1.2zm-5.4 75.5c-13.8-.1-27.6-.1-41.5 0-1.2-6.6-1.1-13.5-.1-20.2.5-3.5 1.3-6.9 2.2-10.3l1.5-5.1c.2-.8.7-1.5 1.4-2 .7-.4 1.6-.6 2.4-.5.1 0 .2 0 .2-.1 1-1.6 2.6-2.8 4.2-3.9s3.4-1.9 5.2-2.7c1.7-.7 3.5-1.4 5.2-1.9.1.8.2 1.5.4 2.3 0 0 0 .1.1.1.1.2.3.2.5.1l2.6-1.8c-.1.9-.2 1.7-.2 2.6 0 1.2.2 2.4.6 3.5.3 1.1.8 2.2 1.4 3.3.6 1 1.4 1.9 2.2 2.8 0 .1.1.1.2.1.2.1.5 0 .6-.2l1-2.4c.2 1.3.5 2.5.8 3.8.5 1.8 1.1 3.6 2.2 5.2 0 .1.1.1.2.2.2.1.5 0 .7-.2l1.4-2.7c.4 1.2.9 2.4 1.5 3.6.8 1.5 1.6 3 2.6 4.4s2 2.7 3.2 3.9 2.5 2.3 3.9 3.2c.1.1.2.1.3.1.3 0 .4-.3.4-.5l-.4-3.2c.8 1 1.7 2 2.6 3 .7.7 1.3 1.4 2.1 2s1.5 1.2 2.4 1.7c.1 0 .2.1.2.1.3 0 .5-.2.5-.5v-3.2c.9.9 1.8 1.7 2.8 2.4 1.3 1 2.6 1.9 4 2.7s2.8 1.5 4.3 2.1 3.1 1 4.7 1.3h.3c.2-.1.3-.4.2-.6l-.7-1.7c3.1 1.4 6.2 2.6 9.4 3.6 1.8.6 3.6 1.1 5.4 1.5.2 0 .3.1.5.1v4.7h-3.3c-14.2-.3-28.2-.6-42.3-.7zm125.8 0-41.5.4c-12.3.1-24.6.1-36.9.1v-4.2l3 .6h.2c.2-.1.3-.3.2-.6l-1-2.4 7.3 3.1c.2.1.4 0 .5-.2.6-1.5 1-3 1.3-4.6.2-1.2.3-2.5.4-3.7l1.1 1.6c.1.1.3.2.4.1 1.5-.9 3-1.8 4.3-2.9 1.1-.9 2.1-1.8 3-2.9 0 .6-.1 1.1-.1 1.7-.1.9-.2 1.8-.5 2.6v.2c.1.1.2.2.4.1 2.4-1 4.7-2.1 7-3.4 1.1-.7 2.2-1.3 3.3-2.1.9-.6 1.7-1.3 2.5-2.1l-.3 3.3c0 .1 0 .1.1.2s.2.1.3 0c1.3-1.5 2.6-3 3.9-4.6l1.8-2.4c.5-.7.9-1.4 1.3-2.2.3 1 .6 1.9.8 2.9.3 1.1.5 2.3.5 3.5 0 0 0 .1.1.1.1.1.2.1.2 0 1.3-1.4 2.5-3 3.5-4.6 1.1-1.6 2-3.3 2.8-5.1s1.4-3.6 1.9-5.5c.4-1.7.6-3.4.6-5.2l2.1 2.7c0 .1.1.1.2.1s.2-.1.2-.2c.1-2.6-.2-5.1-.8-7.7-.3-1.2-.6-2.5-1-3.7.2.1.4.1.7.2 1.3.4 2.7.7 4 1.2 2.6.9 5.2 1.9 7.6 3.1 2.4 1.2 4.7 2.8 6.2 4.8.2.3.6.5 1 .4h.9l.9.3c.5.3.9.9 1.1 1.6.5 1.7 1.1 3.4 1.6 5 1 3.4 1.8 6.8 2.4 10.2 1.3 6.7 1.6 13.5.5 20.2zM34.1 199.4c-.2-1.6-.4-3.2-.7-4.8-.1-.4-.1-.8-.2-1.2l-.3-1.2c-.2-.8-.6-1.5-1-2.3-.8-1.4-1.7-2.8-2.8-4-1.1-1.2-2.3-2.3-3.9-2.9 1.4.8 2.6 1.9 3.5 3.2 1 1.3 1.8 2.6 2.4 4.1.3.7.7 1.5.9 2.2.1.4.2.8.3 1.1.1.4.2.8.2 1.2l.6 4.8c.3 3.2.6 6.4 1 9.6l.5 4.8.5 4.8c0-3.2-.1-6.4-.2-9.7-.2-3.3-.4-6.5-.8-9.7zm136.2-13.5c-1.1 1.2-2 2.6-2.8 4-.4.7-.8 1.4-1 2.3l-.3 1.2c-.1.4-.2.8-.2 1.2-.3 1.6-.5 3.2-.7 4.8-.3 3.2-.6 6.4-.7 9.6-.1 3.2-.2 6.4-.2 9.7l.5-4.8.5-4.8.9-9.6.6-4.8c.1-.4.1-.8.2-1.2.1-.4.1-.8.3-1.1.2-.7.6-1.5.9-2.2.7-1.4 1.5-2.8 2.4-4.1s2.1-2.4 3.5-3.2c-1.6.7-2.8 1.8-3.9 3zm-90.7-35.2" fill="#01153f" stroke-width="none" opacity="1"></path></g><g id="svga-group-head" transform="matrix(1,0,0,1,0,0)"><g id="svga-group-ears-left-move" transform="matrix(1,0,0,1,0,0)"><g id="svga-group-ears-left" transform="matrix(1,0,0,1,0,0)"><path id="SvgjsPath18072" d="M60.8 95.5s-3.2-5.5-5-8c-1.8-2.4-4.1-5-4.9-.8s-.9 12.5.3 18.1 6.2 11.3 8.3 11.3c2.2 0 3.6-8.4 3.6-11.4 0-2.8-1.1-7.1-2.3-9.2z" fill="#8c5537" stroke-width="none" opacity="1" stroke="none"></path><path id="SvgjsPath18073" d="M62.6 94.8c.3.8-.2 4.4 0 5.3.4 1.6.8 3.3.9 5 0 1.7-.1 3.3-.4 4.8-.3 1.5-.6 3-1.1 4.3-.3.7-.6 1.3-1 1.9-.2.3-.4.5-.7.7-.2.1-.3.1-.5.1s-.3 0-.5-.1c-.6-.2-1.2-.5-1.7-.9-.3-.2-.5-.5-.8-.7l-.8-.8c-1-1.1-1.9-2.3-2.7-3.7-.8-1.4-1.5-2.9-2-4.6-.1-.4-.2-.8-.3-1.3-.1-.4-.2-.8-.2-1.3-.1-.8-.2-1.7-.3-2.5-.2-1.7-.3-3.3-.3-4.9-.1-3.3-.1-6.5.4-9.6.2-.8.3-1.6.8-2.2l.2-.2c.1-.1.1-.1.2-.1.1-.1.3-.1.5-.2.2 0 5.7.6 6.5 1.9.7 1.5 3.5 8.3 3.8 9.1zM55.8 88c-.9-1.1-1.8-2.2-2.7-2.7-.5-.2-.8-.2-1.1.2-.3.4-.5 1-.6 1.6-.3 1.4-.5 2.9-.6 4.4s-.2 3.1-.2 4.7.1 3.2.3 4.9c.1.8.2 1.6.4 2.4l.3 1.2c.1.4.2.8.3 1.1.5 1.5 1.2 2.9 2 4.1s1.7 2.4 2.6 3.3c.9.9 1.9 1.8 2.8 2 .8.3 1.4-.9 1.9-2.1s.8-2.6 1.1-4 .6-2.9.6-4.4-.2-3.2-.5-4.8c-.3-1.6-.8-3.2-1.6-4.6-1.6-2.4-3.3-5-5-7.3z" fill="#7d4425" stroke-width="none" opacity="1" stroke="none"></path><path id="SvgjsPath18074" d="M53.7 91.4c1.6 1.3 3.1 3.5 3.8 6.1 0 .2-.1.2-.2.1 0 0 0-.1-.1-.1-.5-.5-1-1.1-1.5-1.1-.8.1-.7 1.6-.4 2.7.4 1.6 1.1 3 1.8 4.4.1.2 0 .3-.1.2-1-1.5-2.7-4.8-2.4-6.9.2-1.9 1.5-1 2.3-.1-.6-1.3-1.3-2.6-2.1-3.6-1.1-1.3-3.4-3.3-3.8-.7 0 .2-.2.1-.2-.1-.2-2.5 1.8-1.7 2.9-.9z" fill="#6d3415" stroke-width="none" opacity="1" stroke="none"></path><path id="SvgjsPath18075" d="M57.8 106.7c1 2.6-.6 3.3-1.7 2.2-1.8-1.7-3.1-5.6-3.4-8.8 0-.2.2-.2.2 0 .3 1.8.7 3.5 1.4 5.1.4 1 .9 2 1.5 2.7.4.5.8.9 1.2 1 .9-.1 1.2-.8.8-2.2-.1 0 0-.1 0 0z" fill="#6d3415" stroke-width="none" opacity="1" stroke="none"></path></g></g><g id="svga-group-ears-right-move" transform="matrix(1,0,0,1,0,0)"><g id="svga-group-ears-right" transform="matrix(1,0,0,1,0,0)"><path id="SvgjsPath18076" d="M139.2 95.5s3.2-5.5 5-8c1.8-2.4 4.1-5 4.9-.8s.9 12.5-.3 18.1-6.2 11.3-8.3 11.3c-2.2 0-3.6-8.4-3.6-11.4s1.1-7.1 2.3-9.2z" fill="#8c5537" stroke-width="none" opacity="1" stroke="none"></path><path id="SvgjsPath18077" d="M141.3 85.8c.8-1.4 6.3-2 6.5-1.9.2 0 .3.1.5.2.1 0 .1.1.2.1l.2.2c.5.6.7 1.4.8 2.2.5 3.1.5 6.4.4 9.6-.1 1.6-.2 3.3-.3 4.9-.1.8-.2 1.7-.3 2.5-.1.4-.1.8-.2 1.3-.1.4-.2.8-.3 1.3-.5 1.7-1.2 3.2-2 4.6s-1.7 2.6-2.7 3.7c-.2.3-.5.5-.8.8-.3.2-.5.5-.8.7-.5.4-1.1.8-1.7.9-.2 0-.3.1-.5.1s-.3-.1-.5-.1c-.3-.2-.5-.4-.7-.7-.4-.5-.7-1.2-1-1.9-.5-1.4-.9-2.8-1.1-4.3-.3-1.5-.4-3.1-.4-4.8.1-1.7.4-3.4.9-5 .2-.8-.3-4.5 0-5.3.2-.9 3-7.7 3.8-9.1zm-2.1 9.7c-.7 1.4-1.2 3-1.6 4.6-.3 1.6-.5 3.3-.5 4.8.1 1.5.4 3 .6 4.4.3 1.4.6 2.8 1.1 4s1.1 2.3 1.9 2.1c.9-.2 1.9-1 2.8-2 .9-1 1.8-2.1 2.6-3.3.8-1.3 1.5-2.6 2-4.1.1-.4.2-.8.3-1.1l.3-1.2c.2-.8.3-1.6.4-2.4.2-1.6.3-3.3.3-4.9s0-3.2-.2-4.7c-.1-1.5-.3-3.1-.6-4.4-.2-.7-.4-1.3-.6-1.6-.3-.3-.7-.4-1.1-.2-.9.5-1.8 1.6-2.7 2.7-1.7 2.1-3.4 4.7-5 7.3z" fill="#7d4425" stroke-width="none" opacity="1" stroke="none"></path><path id="SvgjsPath18078" d="M146.3 91.4c-1.6 1.3-3.1 3.5-3.8 6.1 0 .2.1.2.2.1 0 0 0-.1.1-.1.5-.5 1-1.1 1.5-1.1.8.1.7 1.6.4 2.7-.4 1.6-1.1 3-1.8 4.4-.1.2 0 .3.1.2 1-1.5 2.7-4.8 2.4-6.9-.2-1.9-1.5-1-2.3-.1.6-1.3 1.3-2.6 2.1-3.6 1.1-1.3 3.4-3.3 3.8-.7 0 .2.2.1.2-.1.2-2.5-1.8-1.7-2.9-.9z" fill="#6d3415" stroke-width="none" opacity="1" stroke="none"></path><path id="SvgjsPath18079" d="M142.2 106.7c-1 2.6.6 3.3 1.7 2.2 1.8-1.7 3.1-5.6 3.4-8.8 0-.2-.2-.2-.2 0-.3 1.8-.7 3.5-1.4 5.1-.4 1-.9 2-1.5 2.7-.4.5-.8.9-1.2 1-.9-.1-1.2-.8-.8-2.2.1 0 0-.1 0 0z" fill="#6d3415" stroke-width="none" opacity="1" stroke="none"></path></g></g><g id="svga-group-faceshape-wrap" transform="matrix(1,0,0,1,0,0)"><g id="svga-group-faceshape-single"><path id="SvgjsPath18154" d="M142.7 105.7c-.5-4.6-.6-5.7-.1-12.3.4-4.9.6-10.1.6-11.5v-.3c-1.3-29.9-20.7-46.4-43.2-46.4S58.1 51.8 56.9 81.7v.3c0 1.4.2 6.6.6 11.5.5 6.5.4 7.6-.1 12.3-.5 5.2-2.3 15.5-1.6 19.9.9 5.6 2.9 9.5 14.3 16 14.7 8.4 18.4 16 30 16 11.5 0 15.3-7.6 30-16 11.3-6.5 13.4-10.4 14.3-16 .6-4.5-1.2-14.8-1.7-20z" fill="#8c5537" stroke-width="none" opacity="1" stroke="none"></path><path id="SvgjsPath18155" d="M142.6 93.4c.4-4.9.6-11.8.6-11.8-1.3-29.9-20.7-46.4-43.2-46.4S58.1 51.8 56.9 81.7v.3c0 1.4.2 6.6.6 11.5.5 6.5.4 7.6-.1 12.3-.5 5.2-2.3 15.5-1.6 19.9.9 5.6 2.9 9.5 14.3 16 14.7 8.4 18.4 16 30 16 11.5 0 15.3-7.6 30-16 11.3-6.5 13.4-10.4 14.3-16 .6-4.5-1.2-14.8-1.7-20-.5-4.6-.6-5.7-.1-12.3zm1 26.7c.2 1.8.3 2.6.2 4.4 0 .9-.2 1.7-.5 2.5-.2.8-.6 1.6-1 2.4-.8 1.5-2 2.8-3.3 3.9-2.6 2.3-4.8 4.1-7.9 5.8l-4.9 2.6c-1.6.9-3.2 1.9-4.8 2.8-1.6 1-3.1 2-4.7 3-1.5 1-3 2-4.5 2.9-3 1.8-6 3.1-9.2 3.4-1.6.2-3.3.2-5 .1-1.6-.2-3.2-.5-4.7-1-1.5-.6-3-1.3-4.5-2.1-1.5-.9-2.9-1.9-4.4-2.9-3-2.1-6-4.3-9.3-6.2-.8-.5-1.6-1-2.4-1.4l-2.4-1.4c-1.6-.9-3.1-1.8-4.6-2.8-2.9-1.9-4.7-4.1-6.3-6.6-.8-1.3-1.3-2.7-1.5-4.3 0 0-.1-.9-.1-1.1v-1.2c0-.8.1-1.7.2-2.6.3-3.5.8-11.4 1-13.3s.3-2.7.3-4.6c.1-3.8-.5-7.5-.7-11.2l-.4-5.4-.1-2.8c0-.4-.1-.9-.1-1.3l.1-1.3c.1-3.6.5-7.2 1.3-10.7 1.6-7 4.6-13.8 9.3-19.3 1.2-1.3 2.4-2.7 3.8-3.8l1-.9c.3-.3.7-.6 1-.8l2.2-1.5c3-1.9 6.2-3.5 9.7-4.4 1.7-.6 3.4-.9 5.2-1.2.9-.2 1.8-.2 2.6-.3.9-.1 1.7-.2 2.6-.2h2.6c.9 0 1.8.1 2.6.2 1.8.1 3.5.5 5.2.7 3.4.7 6.8 1.7 9.9 3.3 1.6.7 3 1.7 4.5 2.5l2.1 1.5 1.1.8c.4.3.7.6 1 .8l1.9 1.7c.6.6 1.2 1.3 1.8 1.9 1.3 1.2 2.2 2.7 3.3 4 .5.7.9 1.5 1.4 2.2.4.8 1 1.5 1.4 2.3l1.2 2.4c.2.4 1.1 2.4 1.1 2.4l1 2.5c.3.8 2.2 7.7 2.2 7.7.2.9 1 3.4 1.1 8.1V85c0 1.8-.1 3.7-.1 5.5s-.1 3.7-.2 5.5c-.1 1.8-.2 3.7-.1 5.5.1 1.8.6 8.5 1.8 18.6z" fill="#5e2709" stroke-width="none" opacity="1" stroke="none"></path></g></g><g id="svga-group-mouth-single-move" transform="matrix(1,0,0,1,0,0)"><g id="svga-group-mouth-single" transform="matrix(1,0,0,1,0,0)"><path id="SvgjsPath18266" d="M89.47 129.26c7.15 4.25 15.5 3.75 21.52.68.34-.17.08-.61-.24-.56-3.56.54-6.71 1.36-10.36 1.39-3.63.03-7.5-.8-10.8-1.91-.31-.1-.22.35-.12.4z" fill="#6d3415" stroke-width="none" opacity="1" transform="translate(0 2)" stroke="none"></path><path id="SvgjsPath18267" d="M108.72 128.48c-2.29.41-4.47 1.09-6.8 1.27-2.34.18-4.58-.1-6.9-.33-.24-.02-.29.35-.08.41 4.27 1.17 9.93 1.12 13.97-.81.32-.15.12-.59-.19-.54z" fill="#945e41" stroke-width="none" opacity="1" transform="translate(0 2)" stroke="none"></path><path id="SvgjsPath18268" d="M99.53 122.55c-3.63-.05-7.67.28-9.65.6-3.06.5-4.82-.23-4.95.4-.09.41 5.65 1.29 7.28 1.43 1.63.13 4.66 1.62 7.09 1.88 2.43.27 4.02-.95 5.95-1.39 1.93-.43 6.6-.78 8.04-1 1.9-.26 3.41-1.29.32-1.14-.46.02-.93.01-1.39-.03-2.66-.26-8.31-.69-12.69-.75z" fill="#F18F77" stroke-width="none" opacity="1" transform="translate(0 2)" stroke="none"></path></g></g><g id="svga-group-eyes-left-move" transform="matrix(1,0,0,1,0,0)"><g id="svga-group-eyes-left" transform="matrix(1,0,0,1,0,0)"><g id="svga-group-eyesback-left"><path id="SvgjsPath18110" d="M89.5 95.7s-3.1-2.4-5.2-3.2c-2.1-.8-5.6-2.1-9.6-1.8s-4.7.6-4.7.6 1.2 1.9 2.8 3c1.6 1.1 3.8 2.7 7.1 3.1 3.1.5 7.2-.1 9.6-1.7z" fill="#ffffff" stroke-width="none" opacity="1"></path></g><g id="svga-group-eyesiriswrapper-left" transform="matrix(1,0,0,1,0,0)"><g id="svga-group-eyesiriscontrol-left" transform="matrix(1,0,0,1,0,0)"><g id="svga-group-eyesiris-left" transform="matrix(1,0,0,1,0,0)"><path id="SvgjsPath18168" d="M80 88.1c3 0 5.5 2.4 5.5 5.4 0 3-2.4 5.5-5.4 5.5s-5.5-2.4-5.5-5.4c0-3 2.4-5.5 5.4-5.5z" fill="#eec800" stroke-width="none" opacity="1"></path><path id="SvgjsPath18169" d="M80.1 99.3c-3.2 0-5.8-2.5-5.8-5.7s2.5-5.8 5.7-5.8 5.8 2.5 5.8 5.7-2.5 5.7-5.7 5.8zm-.1-11c-2.9 0-5.2 2.4-5.1 5.2s2.4 5.2 5.2 5.1c2.9 0 5.2-2.4 5.1-5.2 0-2.8-2.3-5.1-5.2-5.1z" fill="#debb00" stroke-width="none" opacity="1"></path><path id="SvgjsPath18170" d="M80 88.9c2.6 0 4.7 2.1 4.7 4.6 0 2.6-2.1 4.7-4.6 4.7s-4.7-2.1-4.7-4.6c0-2.6 2-4.7 4.6-4.7z" fill="#f5cf01" stroke-width="none" opacity="1"></path><path id="SvgjsPath18171" d="M80 89.5c2.2 0 4 1.8 4.1 4 0 2.2-1.8 4-4 4.1s-4-1.8-4.1-4c0-2.3 1.8-4.1 4-4.1z" fill="#fdd70e" stroke-width="none" opacity="1"></path><path id="SvgjsPath18172" d="M80 90.6c1.6 0 2.9 1.3 3 2.9 0 1.6-1.3 2.9-2.9 3s-2.9-1.3-3-2.9c0-1.7 1.3-3 2.9-3z" fill="#000000" stroke-width="none" opacity="1"></path><path id="SvgjsPath18173" d="M78.7 90.6c.6 0 1 .4 1 1s-.4 1-1 1-1-.4-1-1 .5-1 1-1zm3.4 4.6c.2 0 .4.2.4.4s-.1.4-.4.4-.4-.2-.4-.4.2-.4.4-.4z" fill="#ffffff" stroke-width="none" opacity="1"></path></g></g></g><g id="svga-group-eyesfront-left"><path id="SvgjsPath18118" d="M69.4 94.6c0 6.4 4.7 11.5 10.6 11.5s10.6-5.2 10.6-11.5S85.9 83.1 80 83.1s-10.6 5.1-10.6 11.5zm.5-3.2s.6-.3 4.7-.6 7.5 1 9.6 1.8 5.2 3.2 5.2 3.2c-2.4 1.6-6.5 2.2-9.7 1.8s-5.5-1.9-7.1-3.1-2.7-3.1-2.7-3.1z" fill="#8c5537" stroke-width="none" opacity="1" stroke="none"></path><path id="SvgjsPath18119" d="M89.9 95.9c-2.1-3.8-4.8-8.7-9.8-8.8-4.3-.1-7.4 3.4-11 5.1-.4.2-.7-.3-.3-.6 3.5-2.4 7.6-5.7 12.2-4.9 4.7.8 7.2 5.2 9.2 9.1.1.1-.2.3-.3.1z" fill="#7d4425" stroke-width="none" opacity="1" stroke="none"></path><path id="SvgjsPath18120" d="M69.1 91.8c.2 0 .3 0 .5-.1C74 97.8 83 100.1 89.5 96c0 0 .1 0 .1.1.2.2.6-.1.3-.3.2-.1 0-.4-.2-.3 0 0-.1 0-.1.1C84.4 91 75.5 88 69 91.7l.1.1zm1.3-.1c3.1-.3 6-.7 9.1-.1 3.5.6 6.8 2 9.6 4.2-6.8 2.9-13.7 1.7-18.7-4.1z" fill="#2c1630" stroke-width="none" opacity="1" stroke="none"></path></g></g></g><g id="svga-group-eyes-right-move" transform="matrix(1,0,0,1,0,0)"><g id="svga-group-eyes-right" transform="matrix(1,0,0,1,0,0)"><g id="svga-group-eyesback-right"><path id="SvgjsPath18111" d="M110.5 95.7s3.1-2.4 5.2-3.2c2.1-.8 5.6-2.1 9.6-1.8 4.1.3 4.7.6 4.7.6s-1.2 1.9-2.8 3c-1.6 1.1-3.8 2.7-7.1 3.1-3.1.5-7.2-.1-9.6-1.7z" fill="#ffffff" stroke-width="none" opacity="1"></path></g><g id="svga-group-eyesiriswrapper-right" transform="matrix(1,0,0,1,0,0)"><g id="svga-group-eyesiriscontrol-right" transform="matrix(1,0,0,1,0,0)"><g id="svga-group-eyesiris-right" transform="matrix(1,0,0,1,0,0)"><path id="SvgjsPath18174" d="M119.9 88.1c3 0 5.5 2.4 5.5 5.4S123 99 120 99s-5.5-2.4-5.5-5.4 2.4-5.5 5.4-5.5z" fill="#eec800" stroke-width="none" opacity="1"></path><path id="SvgjsPath18175" d="M120 99.3c-3.2 0-5.8-2.5-5.8-5.7s2.5-5.8 5.7-5.8 5.8 2.5 5.8 5.7-2.5 5.7-5.7 5.8zm-.1-11c-2.9 0-5.2 2.4-5.1 5.2 0 2.9 2.4 5.2 5.2 5.1 2.9 0 5.2-2.4 5.1-5.2 0-2.8-2.3-5.1-5.2-5.1z" fill="#debb00" stroke-width="none" opacity="1"></path><path id="SvgjsPath18176" d="M119.9 88.9c2.6 0 4.7 2.1 4.7 4.6s-2.1 4.7-4.6 4.7-4.7-2.1-4.7-4.6 2-4.7 4.6-4.7z" fill="#f5cf01" stroke-width="none" opacity="1"></path><path id="SvgjsPath18177" d="M119.9 89.5c2.2 0 4 1.8 4.1 4 0 2.2-1.8 4-4 4.1-2.2 0-4-1.8-4.1-4 0-2.3 1.8-4.1 4-4.1z" fill="#fdd70e" stroke-width="none" opacity="1"></path><path id="SvgjsPath18178" d="M119.9 90.6c1.6 0 2.9 1.3 3 2.9 0 1.6-1.3 2.9-2.9 3-1.6 0-2.9-1.3-3-2.9 0-1.7 1.3-3 2.9-3z" fill="#000000" stroke-width="none" opacity="1"></path><path id="SvgjsPath18179" d="M118.6 90.6c.6 0 1 .4 1 1s-.4 1-1 1-1-.4-1-1 .5-1 1-1zm3.4 4.6c.2 0 .4.2.4.4s-.1.4-.4.4-.4-.2-.4-.4.2-.4.4-.4z" fill="#ffffff" stroke-width="none" opacity="1"></path></g></g></g><g id="svga-group-eyesfront-right"><path id="SvgjsPath18121" d="M120 83.1c-5.9 0-10.6 5.2-10.6 11.5s4.7 11.5 10.6 11.5 10.6-5.2 10.6-11.5-4.8-11.5-10.6-11.5zm7.3 11.3c-1.6 1.1-3.8 2.7-7.1 3.1s-7.3-.2-9.7-1.8c0 0 3.1-2.4 5.2-3.2s5.6-2.1 9.6-1.8 4.7.6 4.7.6-1.1 2-2.7 3.1z" fill="#8c5537" stroke-width="none" opacity="1" stroke="none"></path><path id="SvgjsPath18124" d="M110.1 95.9c2.1-3.8 4.8-8.7 9.8-8.8 4.3-.1 7.4 3.4 11 5.1.4.2.7-.3.3-.6-3.5-2.4-7.6-5.7-12.2-4.9-4.7.8-7.2 5.2-9.2 9.1-.1.1.2.3.3.1z" fill="#7d4425" stroke-width="none" opacity="1" stroke="none"></path><path id="SvgjsPath18125" d="M130.9 91.6c-6.5-3.7-15.4-.7-20.6 3.9 0 0-.1 0-.1-.1-.2-.1-.4.2-.2.3-.2.2.1.5.3.3 0 0 .1 0 .1-.1 6.4 4.1 15.5 1.8 19.9-4.3.2 0 .3 0 .5.1.1.1.2 0 .1-.1zm-20.1 4.1c2.8-2.2 6.1-3.6 9.6-4.2 3.1-.6 6-.2 9.1.1-4.9 5.9-11.8 7.1-18.7 4.1z" fill="#2c1630" stroke-width="none" opacity="1" stroke="none"></path></g></g></g><g id="svga-group-facehighlight-single"></g><g id="svga-group-eyebrows-left-move" transform="matrix(1,0,0,1,0,0)"><g id="svga-group-eyebrows-left-rotate" transform="matrix(1,0,0,1,0,0)"><g id="svga-group-eyebrows-left" transform="matrix(1,0,0,1,0,0)"><path id="SvgjsPath18031" d="M71.9 81.2c.2-.2.4-.3.6-.4.2-.1.4-.2.7-.3.4-.2.8-.4 1.3-.5.5-.2 1.4-.5 1.9-.2 1.7-.6 4-.2 5.6.6 2.1.2 4.3.9 5.9 2 .1.1.2.2.2.3l.9.3c1.1.4 2.3.8 3.4 1.3.1 0 .2.1.3.1.4.2.5.7.2.9-.1.1-.1.2-.3.3-.8.6-2 .2-2.9-.1-.8-.3-1.6-.7-2.2-1.3-.8-.3-1.6-.7-2.3-1.2-.1 0-.2-.1-.3-.1-1.4-.2-2.8-.8-4-1.4h-.1c-.7-.2-1.4-.3-2.2-.3-1-.1-2 .2-3-.1h-.1c-.2.1-.4.1-.6.2-.9.3-1.6.4-2.6.4-.1 0-.2-.1-.2-.2H72s-.2-.2-.1-.3z" fill="#b84131" stroke-width="none" opacity="1"></path><path id="SvgjsPath18032" d="M76.9 79.1c3.4-.3 6.8 1.7 9.9 2.9 1.9.7 5.8 1 6.5 3.3.1.3-.3.5-.5.2-1-1.4-2.6-1.5-4.1-2-1.3-.4-2.6-.9-3.8-1.4-2.7-1.1-5.3-1.7-8-2.4-.3-.2-.2-.6 0-.6z" fill="#c75849" stroke-width="none" opacity="1"></path><path id="SvgjsPath18033" d="M94.4 85.2c.3-1.5-2-2.1-3.1-2.5-2.7-1.1-5.4-2.3-8.2-3.1-1.7-.5-3.4-.8-5.1-.8-1.3 0-2.6.1-3.8.5-2.2.7-4.3 1.9-6.2 3.4-1 .6-2 1.3-2.8 2.1-.2.2 0 .4.2.3.1 0 .1 0 .1-.1.1.1.1.1.2.1 1.6-.7 3.1-1.8 4.8-2.5 1.6-.7 3.4-1.1 5.1-1.2h.8c2.1 0 4.1.4 6 1.3 2.6 1.2 5.1 2.8 7.7 3.8.5.2 1 .3 1.6.2 1.3.2 2.4-.3 2.7-1.5zm-16.3-5.4c1.8 0 3.6.4 5.3 1 2.2.8 4.4 1.8 6.6 2.6.4.2 2.6.7 2.8 1.3.2.7-.3.9-.8 1-.3 0-.6-.1-.8-.1-.7-.2-1.3-.6-1.9-.9-3.4-1.7-6.9-3.9-10.8-4.1h-1.1c-1.2 0-2.5.1-3.8.3.6-.2 1.1-.4 1.7-.6.8-.4 1.8-.5 2.8-.5z" fill="#a92d1c" stroke-width="none" opacity="1"></path></g></g></g><g id="svga-group-eyebrows-right-move" transform="matrix(1,0,0,1,0,0)"><g id="svga-group-eyebrows-right-rotate" transform="matrix(1,0,0,1,0,0)"><g id="svga-group-eyebrows-right" transform="matrix(1,0,0,1,0,0)"><path id="SvgjsPath18034" d="M128.1 81.2c-.2-.2-.4-.3-.6-.4-.2-.1-.4-.2-.7-.3-.4-.2-.8-.4-1.3-.5-.5-.2-1.4-.5-1.9-.2-1.7-.6-4-.2-5.6.6-2.1.2-4.3.9-5.9 2-.1.1-.2.2-.2.3l-.9.3c-1.1.4-2.3.8-3.4 1.3-.1 0-.2.1-.3.1-.4.2-.5.7-.2.9.1.1.1.2.3.3.8.6 2 .2 2.9-.1.8-.3 1.6-.7 2.2-1.3.8-.3 1.6-.7 2.3-1.2.1 0 .2-.1.3-.1 1.4-.2 2.8-.8 4-1.4h.1c.7-.2 1.4-.3 2.2-.3 1-.1 2 .2 3-.1h.1c.2.1.4.1.6.2.9.3 1.6.4 2.6.4.1 0 .2-.1.2-.2h.1s.2-.2.1-.3z" fill="#b84131" stroke-width="none" opacity="1"></path><path id="SvgjsPath18035" d="M123.1 79.1c-3.4-.3-6.8 1.7-9.9 2.9-1.9.7-5.8 1-6.5 3.3-.1.3.3.5.5.2 1-1.4 2.6-1.5 4.1-2 1.3-.4 2.6-.9 3.8-1.4 2.7-1.1 5.3-1.7 8-2.4.3-.2.2-.6 0-.6z" fill="#c75849" stroke-width="none" opacity="1"></path><path id="SvgjsPath18036" d="M108.2 86.8c.5 0 1.1-.1 1.6-.2 2.7-1 5.1-2.7 7.7-3.8 1.9-.9 3.9-1.3 6-1.3h.8c1.8.1 3.5.6 5.1 1.2 1.7.7 3.1 1.7 4.8 2.5.1 0 .2 0 .2-.1 0 0 .1 0 .1.1.2.1.4-.1.2-.3-.8-.8-1.7-1.5-2.8-2.1-1.9-1.4-4-2.7-6.2-3.4-1.2-.4-2.5-.6-3.8-.5-1.7 0-3.4.3-5.1.8-2.8.8-5.5 2-8.2 3.1-1.1.4-3.4 1-3.1 2.5.4 1.1 1.5 1.6 2.7 1.5zm16.7-6.6c.6.2 1.2.4 1.7.6-1.3-.2-2.6-.4-3.8-.3h-1.1c-3.9.2-7.4 2.4-10.8 4.1-.6.3-1.2.7-1.9.9-.2.1-.5.1-.8.1-.6 0-1.1-.3-.8-1 .2-.6 2.4-1.1 2.8-1.3 2.2-.9 4.4-1.9 6.6-2.6 1.7-.6 3.5-1 5.3-1 .8.1 1.8.2 2.8.5z" fill="#a92d1c" stroke-width="none" opacity="1"></path></g></g></g><g id="svga-group-beardwrap" transform="matrix(1,0,0,1,0,0)"><g id="svga-group-beard-single-move" transform="matrix(1,0,0,1,0,0)"><g id="svga-group-beard-single" transform="matrix(1,0,0,1,0,0)"></g></g></g><g id="svga-group-mustache-single-move" transform="matrix(1,0,0,1,0,0)"><g id="svga-group-mustache-single" transform="matrix(1,0,0,1,0,0)"></g></g><g id="svga-group-nose-single-move" transform="matrix(1,0,0,1,0,0)"><g id="svga-group-nose-single" transform="matrix(1,0,0,1,0,0)"><path id="SvgjsPath18239" d="M105.35 105.76c.4.4 2.55 1.75 3.44 3.19.89 1.44.43 3.21 0 3.82-.43.61-1.87 1.52-3.69.99-1.82-.53-2.45-1.42-2.45-1.42s-2.18 1.44-4.83.46c0 0-1.44.4-2.3.71-.86.3-3.06.99-4.05-.89-.99-1.87.46-4.25 1.87-5.77 1.42-1.52 3.06-3.82 4.68-4.4 1.62-.58 4.75-.33 5.84 1.14 1.08 1.46.8 1.49 1.49 2.17z" fill="#8c5537" stroke-width="none" opacity="1" transform="translate(0 1)" stroke="none"></path><path id="SvgjsPath18240" d="M103.76 112.15c.33.55.88.54 1.42.74.41.15.74.46 1.16.61.64.24 1.16-.46 1.03-1.03-.22-1.05-1.8-2-2.9-1.69.15-.31.28-.63.37-.99.07-.29-.36-.51-.51-.21-2.02 4.05-6.8 4.44-9.23.45-.05-.08-.19-.03-.16.07.11.34.25.65.42.95-1.05-.05-2.6.88-2.25 1.97-.04.45.45.69.83.6.34-.01.65-.17.95-.35.27-.16.68-.19 1.04-.36.27-.13.41-.36.46-.6.24.2.49.37.76.52-1.57.04-2.96 1.47-4.55.53-3.04-1.79.01-5.5 1.54-7.11.12-.13-.06-.31-.2-.2-1.86 1.63-4.3 4.28-2.68 6.91 1.62 2.64 4.24.52 6.41.13 1.99.84 4.49.45 6-1.14.03.06.06.13.09.2z" fill="#5e2709" stroke-width="none" opacity="1" transform="translate(0 1)" stroke="none"></path><path id="SvgjsPath18241" d="M105.27 105.55c-.14-.07-.3.11-.17.22 1.55 1.38 3.8 2.66 3.9 5.01.06 1.31-.62 2.37-1.87 2.71-1.29.36-2.54-.25-3.75-.62-.18-.05-.26.19-.12.28 2.03 1.45 5.38 2.01 6.3-1 .9-2.94-1.92-5.45-4.29-6.6z" fill="#5e2709" stroke-width="none" opacity="1" transform="translate(0 1)" stroke="none"></path><path id="SvgjsPath18242" d="M97.87 102.59c2.41-.65 4.55-.1 6.67 1.1.11.06.23-.09.13-.17-1.88-1.61-4.56-1.86-6.86-1.13-.12.04-.07.24.06.2z" fill="#5e2709" stroke-width="none" opacity="1" transform="translate(0 1)" stroke="none"></path><path id="SvgjsPath18243" d="M96.72 101.68c1.2-2.62 1.2-5.98.16-8.64-.04-.11-.2-.07-.18.05.49 2.99.34 5.5-.3 8.45-.04.19.23.33.32.14z" fill="#5e2709" stroke-width="none" opacity="1" transform="translate(0 1)" stroke="none"></path><path id="SvgjsPath18244" d="M102.02 105.4c-.49-.55-1.41-.62-2.03-.26-.28.17-.49.41-.63.69-.06-.07-.11-.15-.17-.22-.93-1.1-2.81-.19-2.79 1.15.03 1.94 2.2 3.56 4.06 3.09 1.92-.48 2.94-2.91 1.56-4.45z" fill="#945e41" stroke-width="none" opacity="1" transform="translate(0 1)" stroke="none"></path></g></g><g id="svga-group-hair-front" transform="matrix(1,0,0,1,0,0)"><path id="SvgjsPath18289" d="M55.7 57.9s-10.6 13-9.5 22.2l2.7-3.3s-5.2 15.1-9.3 20.1c0 0 4.1-1.3 6.8-4.6v7.3s4.3-10.4 8.9-14.7c0 0 1.5 8.5 6.2 12.6 0 0-1-9.5 1-15.5 0 0 4.8-10.6 4.5-16.2 0 0 .8 5.6 3.3 8.1 0 0-2.1-11 3.3-17.2 0 0 6.4 2.1 18.2-1.5 0 0 12-1 22.1 11.6 0 0-.4-8.5-5.6-12.8 0 0 7.3 3.5 11.4 2.9 0 0 7.3 5.8 11.2 6 0 0 2.3 8.1 2.3 14.5 0 0 2.9-5.2 3.3-7.7 0 0-1.9 17.2 2.7 24.2 0 0 1-5.6 2.9-7 0 0 6.8 10.2 11.6 11.8 0 0-5.6-6.8-6-14.3l5.8 3.5s-5.6-6.4-5.8-16.1c0 0 3.9.6 6 4.1 0 0-5-13.9-12-18.8 0 0 7.6 5.4 13.4 3.5 0 0-13-5.8-16.2-14.1 0 0 5.4.6 8.7 3.7 0 0-7.6-12.4-20.3-13.9 0 0 8.3-8.3 8.1-12.2 0 0-13.9 8.7-25.2 8.5 0 0 4.6-7.9 4.4-11.6 0 0-7.9 9.7-12 10.5 0 0-.2-3.3 1.2-7.4 0 0-6 8.5-8.7 9.7L97 27s-6 8.1-11 9.7c0 0 1.3-2.9.6-5.6 0 0-1.7 3.1-3.7 4.1 0 0 1.6-6 1.3-7.9 0 0-4.4 7-6.2 7.9l-.2-5.4s-4.3 8.1-7.9 10.1c0 0-.8-2.9-1.9-4.3 0 0-1 3.9-1.3 5.8 0 0-.6-8.5-6.4-11.2 0 0 3.1 13.9.8 16.8 0 0-4.5-7.7-6-8.7 0 0 1.9 9.5 1.5 11.8 0 0-7.9 4.8-9.5 9.7 0 0 6-2.5 9.1-3.7l-.5 1.8z" fill="#b84131" stroke-width="none" opacity="1" stroke="none"></path><path id="SvgjsPath18290" d="M116.5 37.2c-7.8 8.4-16.7 13.2-27.8 15.5-.4.1-.3.8.1.8 10.9-1.2 21.4-7.3 28-16 .1-.3-.2-.5-.3-.3zm.6-1.2c-5.2 2.6-10.4 4.2-16 5.3-.3 0-.2.5.1.5 5.7-.5 11.3-2.4 16.2-5.4.2-.1 0-.5-.3-.4zm12.5-7.4c-2.3 4-5.2 7.1-8.7 10.1-.2.2.1.6.3.4 3.8-2.4 6.8-6.2 8.7-10.3.2-.2-.2-.4-.3-.2zM76 50.8c4.7-2.5 7.2-6.5 8.8-11.4.2-.4-.5-.6-.7-.3-1.1 1.5-2.4 2.7-4 3.8-.3.2-.1.6.3.5 1.9-.8 3.2-2.2 4.3-3.9-.2-.1-.5-.2-.7-.3-.8 4.7-4.4 8.7-8.4 11-.3.2.1.8.4.6zm6.4-1.2c2.8-1.3 5.7-3.1 7.6-5.5.2-.2-.1-.5-.3-.3-2.4 2.1-4.7 4-7.5 5.4-.3.1-.1.5.2.4zM71.3 54c-2.4 2.5-4.2 6.1-3.8 9.6.1.5.7.5.7 0 .4-3.5 1.2-6.4 3.5-9.1.4-.3-.1-.8-.4-.5zM60.9 32.3c1.8 6.7 1.1 11.8-.8 18.3-.1.4.4.6.7.3 3.6-5.3 3.5-13.2.9-18.9-.3-.4-.9-.1-.8.3zM56.3 42c-.3 3.8 1.1 7.8 4.2 10.1.3.2.6-.2.4-.5-2.5-2.8-4.1-5.8-4.2-9.6 0-.3-.4-.3-.4 0zm.2 15.9c-3.3 3.1-6 7.9-6.8 12.4-.1.3.5.6.6.3.9-2.2 1.7-4.3 2.8-6.4 1.1-2.1 2.6-3.9 3.9-5.8.3-.4-.2-.8-.5-.5zM60.1 74c-1.6 4.2-2.5 8.8-1.9 13.3.1.4.7.5.7 0 0-4.5.3-8.8 1.7-13.2.1-.3-.4-.4-.5-.1zM46.8 94.8c2.8-3.7 5.7-7.6 7.9-11.7.2-.4-.3-.8-.6-.5-3 3.6-5.4 7.8-7.8 11.8-.2.4.3.7.5.4zm52.1-40.7c4.2.6 6.7 3.1 9.2 6.3.2.2.5 0 .4-.2-1.2-3.9-5.7-6.3-9.5-6.6-.3 0-.4.5-.1.5zm10.8-2.8c5.8 2.1 12.3 3.2 18.5 2.5.4 0 .4-.5 0-.5-6.3-.3-12.3-.8-18.4-2.4-.3-.2-.4.3-.1.4zm18.1 8.5c4.6.6 8.9 1.9 13.3 3.2.4.1.6-.4.3-.6-4.2-2-8.9-2.8-13.5-2.9-.3-.1-.4.2-.1.3zm10.7 8.4c-1.3 6.1-1.5 12.8.2 18.8.1.3.7.3.7-.1-.8-6.4-1.1-12.3-.3-18.7 0-.3-.6-.4-.6 0zm-22.2-21.4c5.2.1 10.2.9 15.1 2.8-.1-.2-.1-.5-.2-.7-1.4 1.2-2.8 1.9-4.6 2.2-.2 0-.2.4.1.4 2 0 3.6-.6 5.1-1.9.3-.2.1-.6-.2-.7-4.9-2-10-2.9-15.3-2.6-.3 0-.4.5 0 .5zm23.9 8c1.4 1.4 3.3 2.9 5.3 3.3.3.1.5-.4.2-.6-.8-.5-1.8-.8-2.6-1.3-.9-.5-1.8-1.1-2.6-1.8-.2-.2-.6.1-.3.4zm2.6 7.4c2.6 2.4 4.3 5.1 6.2 8 .2.3.7.1.6-.2-1.1-3.3-3.8-6.1-6.5-8.1-.2-.3-.5.1-.3.3zm-1.3 8.4c.6 4.8 3 9.9 7 12.8.3.2.6-.2.4-.5-3.4-3.7-5.8-7.4-6.9-12.4-.1-.2-.5-.1-.5.1zm.9 12.9c.5 3.1 1.7 6.6 4.1 8.8.3.2.7-.1.5-.4-1.8-2.8-3.3-5.3-3.8-8.6-.2-.5-.9-.3-.8.2z" fill="#c75849" stroke-width="none" opacity="1" stroke="none"></path><path id="SvgjsPath18291" d="M106.1 29.8c2.9-1.7 5.5-4.2 7.5-7-1.2 3.5-2.8 6.7-4.7 10-.3.5.4.8.7.4 2.8-4 4.6-8.6 5.8-13.3.1-.5-.5-.8-.8-.3-2.6 3.8-5.4 6.8-8.9 9.8-.4.1 0 .6.4.4zm-17.4 6c2.8-2.1 5.4-4.6 7.6-7.3-.6 1.8-1.4 3.5-2.2 5.2-.2.4.2.9.6.6 3.2-2.2 6.2-5 8.2-8.4-.3 1.1-.7 2.2-1 3.3-.1.3.3.4.4.1.6-1.9 1.1-3.9 1.8-5.7.2-.4-.4-.6-.7-.3-2.3 3.5-4.7 6.6-8 9.2.8-1.9 1.4-3.8 2-5.8.1-.3-.3-.6-.6-.3-2.6 3.3-5.4 6.3-8.6 9 0 .2.2.6.5.4zm-6.1-1.2c-.1.5.6.6.7.2.9-2.6 1.2-5.3 1.2-8 0-.5-.7-.7-.9-.2-1.4 2.7-3.1 5.2-5.2 7.4-.1-1.5-.1-3-.2-4.5 0-.4-.7-.7-.8-.2-1.4 3-3.2 5.6-5.2 8.3-.2.3.2.5.4.3 2-1.9 3.5-4.2 4.7-6.6 0 1.3.1 2.6.1 3.9 0 .4.5.7.8.3 2.1-2 3.8-4.3 5.2-6.8 0 1.9-.3 3.9-.8 5.9zM57 49c-.2-3.3-.8-6.7-1.4-10 2.2 2.5 3.8 5.5 4.9 8.6.1.3.7.2.6-.2-1.3-3.8-3.4-7-5.9-10.1-.2-.3-.8-.1-.8.3.5 3.8 1 7.7 1.9 11.5.2.4.7.3.7-.1zm-9.5 11.5c2.6-1.2 5.5-2.2 7.9-3.8.4-.3.2-.9-.3-.8-2.2.7-4.4 1.8-6.5 2.8 1.7-2.8 3.9-5.2 6.5-7.3.4-.3-.1-.9-.5-.7-3.3 2.3-5.9 5.4-7.7 9-.4.6.1 1.1.6.8zm-2.9 32.4-3.6 3c4.3-5.6 7.3-12.1 8.5-19.1.7-.8 1.3-1.6 2.1-2.3.5-.5-.3-1.3-.8-.8s-.9.9-1.3 1.4c-.2-.1-.5 0-.5.2s-.1.3-.1.5c-.7.9-1.4 1.8-2 2.7 1.7-7.4 4.8-14.2 9.1-20.5.3-.4-.4-.8-.7-.4-5.4 7-8.6 15.2-10.1 23.9-.1.6.7 1 1 .4.6-1.2 1.3-2.4 2.1-3.5-2 7.6-5.6 14.4-11 20.2-.4.5.1 1.3.7.9 2.7-1.7 5.2-3.6 7.3-6 .3-.4-.3-1-.7-.6zm17.3-8.8c-1.4 4.1-1.5 8.5-.9 12.8-2.8-3.5-4.3-7.4-5.2-11.8 0 0 0-.1-.1-.1.3-.4.6-.8.9-1.3.2-.3-.2-.6-.4-.3-4 4.2-7 9.4-9.4 14.6 0-4.5 1.1-8.8 2.9-13 .2-.4-.3-.7-.5-.3-2.6 4.8-3.6 10-3.2 15.4 0 .4.7.7.9.2 2.3-5.2 5.3-9.9 8.5-14.7.5 4.9 2.9 9.4 6.2 13 .3.3.8 0 .8-.4-1-4.8-.6-9.3.3-14.1-.2-.2-.7-.3-.8 0zm10.9-26.6c-2.6 3-3.5 7.4-3.5 11.2 0 1 .1 1.9.2 2.9 0 .1.1.4.2.8l-1-1.5c-.8-1.6-1.2-3.3-1.6-5-.1-.3-.7-.3-.6.1.4 3.3 1.9 6.2 3.8 8.9.2.3.7.1.6-.3-1.6-6.3-.2-11.1 2-16.9.3-.2 0-.4-.1-.2zm-11 18.9c1.2-5.5 3-10.6 5.8-15.5.2-.3-.3-.6-.4-.3-2.9 4.9-4.9 10.1-5.7 15.7 0 .2.2.3.3.1zM76.2 40c-2.2 3.5-4.4 7-6.8 10.4-.1.2.1.4.3.2 2.5-2.7 4.8-5.8 6.6-9.1.2 3.1-.8 6.1-2.7 8.6-.3.3.2.8.5.5 2.6-3 3.6-6.7 2.9-10.6-.1-.3-.6-.3-.8 0zM61.7 60.1c.3-.3-.2-.8-.5-.5-2.2 2.1-4 4.6-5.2 7.4-.4 1-2.2 4.3-.6 5.1.2.1.4.1.6-.1 1-.7 1.6-1.9 2.3-2.9 1-1.3 2-2.6 2.9-4 .2-.4-.3-.8-.6-.5-1 1.1-1.9 2.4-2.8 3.6-.1.1-1.5 2.2-1.6 2.2-.5-.2.1-1.4.2-1.7 1-3.3 2.9-6.2 5.3-8.6zm31.5-14.8c-3.1 1.9-5.9 3.8-9.4 5-.4.1-.2.8.2.7 3.4-1 7-2.6 9.6-5.1.3-.3 0-.8-.4-.6zm21.1-12.5c6.7-1 14.3-3.4 20-7.5-1.1 2.6-2.7 4.9-4.6 7-.2.2.1.6.3.4 2.6-2 4.5-4.7 5.3-7.9v-.2c.3-.2.6-.4.8-.7.2-.2-.1-.6-.3-.4-7.2 3.6-13.7 6.9-21.6 8.8-.4 0-.3.5.1.5zm12.5 4.9c8.4 1.2 14.5 5.1 19.4 11.5-3.7-3.2-8.7-4.8-13.5-4.6-.5 0-.4.7 0 .7 5.2.5 9.4 2.1 13.9 4.9.1.1.3 0 .4-.1.2.3.4.6.7.9.3.4.9.1.7-.4-3.5-8.1-12.8-13.5-21.4-13.6-.5 0-.6.6-.2.7zm-12.6 29.1c.1-5.2-2.4-10.5-7.2-12.9-.2-.1-.5.2-.3.4 3.8 3 6.3 6.8 6.8 11.6-4.5-6.6-12.4-10.6-20.3-10.9 12.1-4.1 22.9-12.2 30.6-22.1.3-.3 0-1-.5-.8-4.9 1.7-9.8 3.6-14.7 5.6-.3.1-.1.6.2.5 3.1-1 6.2-2 9.2-3.1.8-.3 3.2-1.6 3.9-1.5.2 0-1.4 1.8-1.8 2.2-3.6 4-7.6 7.5-12.1 10.5-8.9 6-18.7 9.2-29.2 11.1-.3 0-.2.5.1.5 4.5-.3 8.9-1.2 13.2-2.5 0 .1.1.2.2.2 8.9.8 15.8 5.1 21.3 12 .3.3.8-.1.6-.4.1-.3.1-.3 0-.4zm19.9-10c.4-.1.3-.8-.1-.7-8.6.7-16.2-.2-24.6-1.8-.2 0-.4.3-.2.4 3.2 1.4 6.8 2.3 10.4 2.7 5.7 4.4 13.5 7.2 20.7 6.4.4 0 .4-.5 0-.6-7.2-.8-13.1-2.2-19.2-5.7 4.4.4 8.8.1 13-.7zm5.1-9.6c-.1-.2-.5 0-.4.2 3.1 6 8.5 11.2 15.1 13.2-4.7.2-8.6-.9-12.4-4.2-.2-.2-.6.1-.4.3 3.2 4.2 9.6 6.4 14.6 4.4l.1-.1c.4.1.6-.5.2-.7-7-2.8-12.8-6.6-16.8-13.1zm17.1 53c-2.1-2.4-4.2-4.6-5.7-7.4-1.4-2.6-1.9-5.2-2.8-7.9 1.5 1.2 3.2 2.2 5.1 2.9l.3.3c.1.2.4.1.5-.1.1 0 .1.1.2.1.3.1.5-.4.2-.6-.3-.2-.6-.3-.9-.5-3.2-4.7-4.6-9.3-5.2-15 2.1 1.4 4.1 2.9 5.8 4.9 0 .1.1.2.1.3.1.2.4.2.5 0 .1-.1.2-.3.1-.4-.1-.1-.1-.2-.2-.3-1.7-7.8-7.4-14.6-13.6-19.2-.2-.1-.4.2-.2.3 5.6 4.8 9 10.4 12.1 16.8-1.9-2-4.2-3.6-6.8-4.3-.3-.1-.4.3-.2.5.6.3 1.2.7 1.8 1.1 0 .1-.1.1-.1.2-.4 5 1.3 10.2 4.3 14.3-4.3-2.7-7.8-6.1-10.2-10.7-.2-.4-.7-.1-.6.3 1.4 3.3 3.6 6.3 6.4 8.6-.3 4.1 1.8 8.9 4.7 12.6-4.2-2.8-7.6-6.2-9.8-10.7 0-.1 0-.2-.1-.2-.6-1.3-1.2-2.8-1.6-4.3-.1-.3-.6-.2-.5.1.3 1.5.8 3.1 1.4 4.6-1.2 1.7-2.3 4.3-2.3 6.6-2.6-7.9-3.1-15.1-2-23.4 0-.3-.2-.4-.4-.3.1-.5.2-1 .2-1.5.1-.4-.6-.4-.7-.1-1 2.8-1.9 5.5-3 8.2.2-4-.6-8-2-11.8-.1-.3-.6-.2-.5.2 1.5 4.6 1.7 9.3 1.6 14.1-.1.2-.2.4-.3.7-.2.4.4.6.7.3 1.1-1.7 2.1-3.7 2.8-5.7-1.1 7 .1 14.5 3.2 20.7.1.2.4.2.6.1v.1c.1.3.5.3.6 0 .5-1.3.4-2.8.8-4.2.3-1 .7-2 1.1-3 2.3 5.1 6.4 9.5 11.7 11.3.8.8 1.6 1.6 2.5 2.2.3 0 .6-.5.4-.8zm-96.8-70c1.7 5.5 1.7 10.5 1.2 16.1 0 .5.7.5.8.1 1.3-5.3.6-11-1.2-16.1 3.4 3 5.3 6.2 6.1 10.9 0 .2.4.2.4-.1.1-4.6-2.7-9.7-6.9-11.7-.2-.1-.5.2-.3.4-.1 0-.1.2-.1.4z" fill="#a92d1c" stroke-width="none" opacity="1" stroke="none"></path></g><g id="svga-group-glasses-single-move" transform="matrix(1,0,0,1,0,0)"><g id="svga-group-glasses-single" transform="matrix(1,0,0,1,0,0)"></g></g></g></g></g><rect id="svga-credit-rect" width="200" height="15" x="0" y="185" fill="#ecf0f1" opacity="0.5" style="display: none;"></rect><text id="svga-credit-text" font-family="Avenir Next, Roboto, Helvetica, Arial, sans-serif" font-size="10px" text-anchor="start" font-weight="400" size="10px" anchor="start" weight="400" fill="#333333" x="33.40447998046875" y="182.60824704170227" style="display: none;"><tspan id="SvgjsTspan17565" dy="13" x="33.40447998046875">Created on AvatarMaker.com</tspan></text></g></svg>