<svg xmlns="http://www.w3.org/2000/svg" version="1.1" width="600px" height="600px" viewBox="0 0 200 200" style="overflow:hidden!important;"><defs id="SvgjsDefs12718"></defs><g id="svga-group-wrapper"><g id="svga-group-backs-single"></g><g id="svga-group-humanwrap-move" transform="matrix(1,0,0,1,0,0)"><g id="svga-group-humanwrap" transform="matrix(1,0,0,1,0,0)"><g id="svga-group-hair-back-move" transform="matrix(1,0,0,1,0,0)"><g id="svga-group-hair-back" transform="matrix(1,0,0,1,0,0)"></g></g><g id="svga-group-humanbody-back"><path id="SvgjsPath13119" d="M166.5 181.1c-10.9-6.6-27.6-8.4-35-12.1-4.9-2.5-9.1-4.7-8.9-17.8s1.9-42.4 1.9-42.4H75.4s1.6 29.4 1.9 42.4-4.2 15.6-8.9 17.8c-7.4 3.5-24.1 5.4-35 12.1-10.8 6.6-10 18.9-10 18.9v19.7h153.3V200c-.1 0 .7-12.3-10.2-18.9z" fill="#8c5537" stroke-width="none" opacity="1" stroke="none"></path></g><g id="svga-group-chinshadow-single"><path id="SvgjsPath13360" d="M76.5 160c4.2 4.3 10.1 13.3 14.2 13.3 5.3 0 6.5-1.4 9.3-1.4s4 1.4 9.3 1.4c4.1 0 9.9-8.9 14.1-13.3-.6-2.2-.9-5.1-.8-8.8.2-13.1 1.9-42.4 1.9-42.4H75.4s1.6 29.4 1.9 42.4c.1 3.7-.2 6.5-.8 8.8z" fill="#6d3415" stroke-width="none" opacity="0.65" stroke="none"></path></g><g id="svga-group-humanbody-front"><path id="SvgjsPath13120" d="M78.7 156.8c.5 4.8 1.7 9.4 3.1 13.9.8 2.3 1.6 4.6 2.6 6.9.8 2 1.7 4.2 3.1 5.9.3.4 1 0 .9-.5-.5-2.2-1.6-4.3-2.4-6.4-.9-2.2-1.7-4.4-2.5-6.6-1.5-4.4-2.8-8.9-4.1-13.3-.2-.4-.8-.3-.7.1zm41.3-1c-1.3 8.2-3.9 16.1-5.4 24.2-.1.4.4.5.6.2 3.1-7.7 4.1-16.1 5.1-24.3-.1-.2-.3-.2-.3-.1zm-25.8 11.9c-.9 3.6 1.9 8.6 6.2 7.6.5-.1.4-.8 0-1-1.4-.5-2.9-.9-3.9-2.1-1.1-1.2-1.5-2.9-1.4-4.5 0-.4-.8-.5-.9 0z" fill="#6d3415" stroke-width="none" opacity="1" stroke="none"></path><path id="SvgjsPath13121" d="M177.3 219.7c-.1-6.6-.3-13.1-.3-19.7l-.3-.3c.1 0 .1 0 .2.1s.1.2.1.1v-1.4c0-.5-.1-.9-.1-1.4-.1-.9-.3-1.9-.5-2.8-.5-1.8-1.1-3.6-2-5.3-1.7-3.4-4.4-6.2-7.7-8.1-3.6-2.2-7.6-3.8-11.6-5.1-4-1.3-8.1-2.4-12.1-3.5-4-1.2-8.1-2.2-11.8-4.2-1.9-1-3.6-2.1-4.8-3.6-1.2-1.6-1.9-3.5-2.3-5.5-.8-4-.4-8.2-.3-12.4l.7-12.6 1.5-25.2.1-1.4h-1.4c-8.2 0-16.4 0-24.6.1l-24.6.3h-.9l.1.9c.8 11.9 1.6 23.8 2.1 35.7.1 3 .3 6 .2 8.9-.1 2.9-.4 5.9-1.6 8.6-.6 1.3-1.4 2.5-2.4 3.5s-2.3 1.8-3.6 2.4c-2.6 1.3-5.4 2.2-8.3 3-5.8 1.5-11.6 2.8-17.3 4.7-2.8.9-5.7 2-8.4 3.4-1.3.7-2.7 1.4-4 2.4-1.3.9-2.4 1.9-3.5 3.1-2.1 2.3-3.6 5.2-4.5 8.1-.5 1.5-.8 3-1 4.6-.1.8-.1 1.6-.1 2.4v2.3l-.2 17.9v1.3h1.4l38.3.2c12.8.1 25.5.1 38.3 0 12.8-.1 25.6-.1 38.3-.3 12.8-.2 25.6-.5 38.3-.7h.6v-.5zm-77.2-1.6H61.8l-37 .2-.1-16.6v-2.2c0-.7 0-1.4.1-2.1.1-1.4.4-2.8.8-4.2.8-2.7 2.1-5.3 3.9-7.5.9-1.1 2-2.1 3.1-2.9 1.1-.9 2.4-1.6 3.7-2.3 2.6-1.4 5.3-2.5 8.1-3.5 5.6-2 11.4-3.4 17.1-5.1 2.9-.8 5.8-1.7 8.5-3.1 1.3-.7 2.7-1.5 3.8-2.6 1.1-1.1 2-2.4 2.6-3.9 1.2-2.9 1.5-5.9 1.6-8.9 0-3-.1-6-.2-9l-1.3-34.8 23.5.4c7.7.1 15.4.1 23.1.1-.4 7.9-.8 15.9-1.1 23.8-.2 4.2-.2 8.4-.3 12.6 0 4.2-.2 8.5.8 12.8.5 2.1 1.3 4.2 2.8 6 1.4 1.7 3.4 2.9 5.3 3.8 3.9 1.9 8 2.8 12.1 3.8s8.2 2 12.2 3.3c4 1.3 7.9 2.8 11.5 5 3.2 1.9 5.8 4.7 7.5 8 .9 1.6 1.5 3.4 1.9 5.2.2.9.4 1.8.4 2.7.1.5.1.9.1 1.4V200l-.3 19c-12.6-.2-25.1-.5-37.7-.7-12.7-.1-25.5-.1-38.2-.2z" fill="#5e2709" stroke-width="none" opacity="1" stroke="none"></path></g><g id="svga-group-clothes-single"><path id="SvgjsPath13266" d="M127.8 142.4c10.7 3.1 5.9 12.4 6.7 12.7 5.2 2.2 6.4 9.8 5.2 12.4 0 0 5.1 1.6 7.9 2.4 8.6 2.4 29.9 8.2 33.1 23.5 0 0 2.6 9.2 2.6 26.7H16.7c0-17.5 2.6-26.7 2.6-26.7 3-14 23.7-22.7 32.5-24.6 3.6-.8 6.9-2.1 10-2.6 0-3-.8-8.7 4.9-11.3 2.2-1-3.5-9.3 5.8-12.6 0 0 9.6 8.8 27.9 9.4s27.4-9.3 27.4-9.3z" fill="#591956" stroke-width="none" opacity="1"></path><path id="SvgjsPath13267" d="M183.4 200.5c-.4-3.2-1-6.5-2.1-9.8-1.1-3.3-3.1-6.2-5.6-8.6-2.4-2.4-5.2-4.3-8.1-5.9-2.9-1.6-5.9-2.9-9-4.1-3.1-1.1-6.2-2-9.4-2.9-2.9-.7-5.7-1.6-8.5-2.4.3-1.2.2-2.3.1-3.3-.2-1.4-.6-2.7-1.1-3.9-.6-1.2-1.3-2.4-2.3-3.4-.5-.5-1.1-.9-1.6-1.3-.2-.1-.5-.3-.8-.4v-.4c.2-1.2.4-2.6.3-3.9-.1-1.3-.4-2.7-1.1-3.9-.7-1.2-1.7-2.1-2.8-2.8-5.2-3.6-7.2-2.4-7.5-2.2 0 0-.5 3-2.9 5-2.2 1.1-3.9 2.1-6.3 2.7-4.7 1.4-9.7 1.9-14.6 1.6-4.9-.3-9.8-1.1-14.4-2.7-2.3-.8-4.6-1.8-6.7-2.9-2.1-1.1-2.6-3.2-2.6-3.2-1.8-1.4-4.1-1.1-4.6-.9-1.2.4-2.4 1-3.5 1.9-1.1.9-2 2.1-2.4 3.5-.5 1.4-.5 2.8-.4 4 0 .6.1 1.3.2 1.9.1.5.1 1.1.1 1.4-.2.1-.3.1-.5.2-.6.3-1.2.7-1.7 1.2-1.1.9-2 2.1-2.5 3.4-.9 2.2-.9 4.4-.9 6.4-3 .7-5.7 1.6-8.5 2.2-3.4.7-6.6 1.8-9.8 3.1-3.1 1.3-6.2 2.8-9.1 4.6-2.9 1.8-5.7 3.9-8.2 6.3-2.5 2.4-4.7 5.3-6 8.7-.3.8-.6 1.7-.8 2.6-.2.8-.4 1.7-.6 2.5-.3 1.7-.6 3.3-.8 5-.9 6.7-1.2 13.4-1.2 20.1 0 .8.6 1.4 1.4 1.4l166.7-.1c.7 0 1.2-.6 1.2-1.2.1-6.4-.2-13-1.1-19.5zm-4.5-8.9c.9 2.9 1.4 6.1 1.9 9.3.8 5.9 1.1 11.9 1.3 18l-25.1.4c.3-3.5.6-6.9 1-10.3.4-3.7 1-7.3 1.6-10.9.3-1.8.7-3.6 1.1-5.4.5-1.7 1.1-3.4 1.9-5.1 1.3-3 3-5.8 4.8-8.5 2.4 1.4 4.6 3.1 6.6 5.1 2.2 2 4 4.6 4.9 7.4zm-42.3-34.4c.8.9 1.4 1.9 1.9 3.1.5 1.1.8 2.3.9 3.5.1 1.2.1 2.5-.3 3.4v.1c-.1.3 0 .7.3.9-.4.5-.8.9-1.3 1.3-.3.3-.7.6-1 .8-.4.3-.7.5-1.1.8-.5.4-1.1.7-1.6 1 .2-.6.3-1.1.5-1.7.1-.7.3-1.4.3-2.1.1-1.4.1-2.9-.2-4.3-.3-1.4-.8-2.8-1.6-4.1-.7-1.1-1.5-2.1-2.5-2.9 1.1-.5 2.3-1 3.4-1.6 0 .1.1.1.1.1.3.2.2.1.2.1.3.1.5.3.8.4.3.4.7.8 1.2 1.2zM75 145.6c.8.5 1.6.9 2.4 1.4.3.3.6.5 1 .8-.7.6-1.2 1.4-1.6 2.3-.6 1.1-1 2.2-1.3 3.4-.3 1.2-.4 2.4-.5 3.6v2.7c-.7-.3-1.3-.7-2-1.1l-.3-1.8c-.1-.6-.1-1.2-.2-1.8 0-.6-.1-1.2-.1-1.8 0-.6 0-1.2.1-1.8.1-1.2.4-2.4.9-3.5.5-.9 1-1.7 1.6-2.4zm15.3 8.1c1 .3 2.1.5 3.1.8 1.1.2 2.1.4 3.2.5-2-.7-4-1.3-6-2.1-.5-.2-1-.4-1.4-.6 0-.4.1-.8.2-1.2 2.7.6 5.5 1 8.3 1.1-.2 1.3-.4 2.5-.5 3.8-.1 1.4-.1 2.8.1 4.3-1.6 0-3.2-.1-4.8-.3-1.3-.1-2.6-.2-3.9-.5V159.2c-.1-1.1-.2-2.1-.1-3.2 0-.5.1-1.1.2-1.6.1-.4.2-.9.3-1.3.4.3.8.5 1.3.6zm-2.5 2.4c-.1 1.1-.2 2.1-.1 3.2v.1c-.4-.1-.8-.2-1.3-.4.4.2.8.4 1.2.5-.2.4-.3.8-.4 1.1-.2.5-.3 1-.4 1.5-.2.8-.2 1.7-.3 2.5l-1.2-.4c-1.9-.7-3.9-1.5-5.8-2.3l-.1-1.2c0-.5-.1-1.1-.1-1.6 0-1.1.1-2.1.2-3.2.2-1.1.4-2.1.8-3.1s.8-1.9 1.4-2.8c.8.4 1.6.9 2.4 1.3 1.4.7 2.8 1.2 4.3 1.8l-.6 3zm-7.7-3.4c-.5 1-.8 2-1.1 3.1-.3 1.1-.4 2.2-.4 3.3v1.7l.1.7c-.9-.4-1.8-.8-2.6-1.2l-.1-1.5V157c.1-1.2.1-2.3.3-3.5.2-1.1.5-2.3 1-3.4.3-.8.8-1.6 1.3-2.4.1.1.2.2.3.2 1 .8 2 1.4 3.1 2.1-.8.8-1.4 1.8-1.9 2.7zm-7.5 6.7c.7.4 1.4.9 2.1 1.2l-.9.9c-.4.5-.8 1.1-1.1 1.6-.6 1.1-1 2.4-1.2 3.6-.2 1.2-.3 2.5-.3 3.8l.1 1.9c0 .4.1.7.2 1.1-.5-.3-1.1-.5-1.6-.8-.8-.4-1.5-.8-2.2-1.3V170c.1-.6.1-1.2.2-1.8.2-1.2.3-2.4.8-3.5.4-1.1.9-2.2 1.6-3.1.6-.9 1.4-1.7 2.3-2.2zm-1 13 .1-1.8c.1-1.2.2-2.4.6-3.6.3-1.2.7-2.3 1.3-3.3.5-.9 1.2-1.9 2.1-2.5.9.5 1.9.9 2.8 1.4-.6.9-1.1 1.8-1.6 2.8-.5 1.2-.9 2.4-1.1 3.6-.2 1.2-.3 2.5-.2 3.7.1.9.2 1.8.4 2.7-1.5-.5-3-1.1-4.4-1.8v-1.2zm4.5 3c0-.3-.1-.6-.1-.9v-1.8c0-1.2.2-2.4.5-3.6.3-1.2.7-2.3 1.2-3.4.4-1 1-1.9 1.6-2.8l2.4.9c1.1.4 2.2.8 3.4 1.1.5.1.9.3 1.4.4-.6 2.1-1 4.3-1.2 6.5-.2 1.9-.2 3.9 0 5.8-1.9-.3-3.8-.7-5.7-1.2-1.2-.2-2.3-.6-3.5-1zm9.5 0c.1-1.1.2-2.2.4-3.4.4-2.1.8-4.3 1.5-6.4.4.1.7.2 1.1.3 1.2.2 2.3.5 3.5.8l-4.5-1.6c0-.9.1-1.8.2-2.7.1-.5.2-1 .3-1.4.1-.4.2-.8.4-1.1.3.1.6.1.8.2l3 .6c1.6.2 3.2.4 4.8.5-.3 1.4-.6 2.8-.8 4.2-.2 1.6-.3 3.2-.4 4.9-.1 1.6 0 3.3.1 4.9.1 1.2.2 2.4.4 3.6-3.7-.1-7.4-.4-11.1-1 .1-.9.2-1.7.3-2.4zm11.1 3.3c0-1.2-.1-2.4-.1-3.7 0-1.6.1-3.2.2-4.8.1-1.6.2-3.2.5-4.8.2-1.4.4-2.9.7-4.3h.5c2.2.1 4.3.1 6.5.1-.1 3.1-.1 6.1.2 9.1.1 1.6.3 3.1.6 4.7.2 1.1.4 2.2.8 3.3l-.9.1-2.6.2c-.9 0-1.8 0-2.6.1h-3.8zm8.7-22.4c-.1-1.4-.2-2.7-.3-4.1 2-.2 3.9-.5 5.9-.9.3 1.4.4 2.9.5 4.3.1 1.5.1 3 0 4.4-.2 0-.5 0-.7.1-1.6.1-3.3.2-4.9.2-.2-1.3-.4-2.6-.5-4zm10.4 3.4c-1.2.1-2.3.2-3.5.3 0-.7 0-1.4-.1-2-.1-.8-.2-1.6-.2-2.4-.1-.8-.3-1.6-.5-2.4-.2-.6-.3-1.3-.6-1.9l3.3-.9c.7 1.5 1.1 3.1 1.3 4.7.4 1.5.4 3.1.3 4.6zm-9.1 18.7c-.2-1.1-.3-2.2-.4-3.4-.2-1.6-.2-3.1-.3-4.7-.1-3-.2-6.1-.2-9.1 1.7 0 3.3-.1 4.9-.1.3 0 .6-.1.8-.1.4 1.2.8 2.5 1.1 3.8.4 1.4.7 2.9.9 4.4.2 1.5.5 3 .6 4.5l.3 3.9-1.2.2-2.6.3-2.6.3h-1.3zm7.9-9.3c-.2-1.5-.5-3-.9-4.5-.3-1.2-.7-2.4-1.1-3.6 1.1-.1 2.2-.2 3.3-.4.8 1.1 1.4 2.4 2 3.8.5 1.4.9 2.8 1.3 4.2.3 1.4.6 2.9.8 4.3l.2 2.2c0 .5.1 1 .1 1.5-1.4.3-2.8.6-4.2.7l-1.3.2c.1-1.3.2-2.6.2-3.9-.1-1.4-.2-3-.4-4.5zm5.4-.7c-.3-1.5-.7-2.9-1.2-4.4-.5-1.2-1.1-2.4-1.9-3.6 2.1-.3 4.1-.7 6.1-1.2.9-.2 1.9-.5 2.8-.8 1 .8 1.9 1.9 2.6 3.1.7 1.2 1.3 2.4 1.8 3.8.4 1.3.8 2.7 1 4.1.1.7.2 1.4.2 2.1l.1 1.7c-.1 0-.2.1-.3.1-3.2 1.4-6.6 2.3-10 3-.3.1-.6.1-.8.2.1-1.2.2-2.5.1-3.7-.1-1.4-.2-2.9-.5-4.4zm11.7 1c-.1-1.4-.3-2.9-.7-4.3-.4-1.4-1-2.8-1.7-4-.6-1.1-1.4-2-2.4-2.9l2.7-.9c1.1.7 2 1.8 2.7 2.9.7 1.1 1.3 2.4 1.6 3.8.3 1.3.5 2.7.5 4.1 0 .7-.1 1.4-.1 2.1l-.2 1.7c-.8.4-1.7.9-2.6 1.2.1-.6.1-1.1.1-1.6.1-.6.2-1.4.1-2.1zm-5.1-25.6.7-.6.3-.3.2-.2.1-.1c.1.1.2.1.4.1l.4.2c.3.1.6.2.9.4.6.3 1.1.6 1.6.9 1 .7 1.9 1.6 2.5 2.7.6 1.1.8 2.3.8 3.6 0 1.2-.2 2.4-.5 3.7 0 .2-.1.3-.1.5v.4c0 .1 0 .1.1.2-1.2.5-2.4.9-3.6 1.3v-1.4c-.1-.6-.1-1.2-.2-1.8-.1-1.2-.5-2.3-.9-3.4-.5-1.1-1.1-2.1-1.8-3-.7-.8-1.5-1.6-2.4-2.1.5-.4 1-.7 1.5-1.1zM122 147c1.1-.6 2.1-1.3 3.1-2.1 1.7 1.4 2.8 3.3 3.6 5.4.3 1.1.6 2.2.7 3.3.1.6.1 1.1.1 1.7v1.7c-.2.1-.4.1-.6.2-.7.2-1.5.4-2.2.6l-.1-1.2c-.1-.5-.2-1.1-.2-1.6-.2-1.1-.5-2.1-.9-3.1s-.9-1.9-1.6-2.8c-.6-.7-1.3-1.4-2.1-1.9-.1 0 0-.1.2-.2zm-6.9 3.2c2.2-.8 4.4-1.7 6.4-2.9.7.6 1.3 1.3 1.8 2.1.6.9 1 1.8 1.3 2.8.3 1 .5 2 .7 3 .1.5.1 1 .2 1.5l.1 1.3c-.9.2-1.8.4-2.8.6-2 .4-4.1.7-6.1 1 0-.6 0-1.3-.1-1.9-.1-.9-.2-1.8-.4-2.6-.2-.9-.4-1.7-.8-2.6-.3-.7-.7-1.5-1.1-2.1.3-.1.6-.2.8-.2zm-10.1 2c-.1 1.4-.2 2.8-.2 4.1 0 1.3 0 2.7.1 4H98.1c-.3-1.4-.4-2.8-.4-4.3v-3.8c.8.1 1.7.1 2.5.1 1.6.1 3.2.1 4.8-.1zm-15.9-1.1-.3 1.2c-1.4-.6-2.7-1.1-4.1-1.8-1-.5-2.1-1.1-3.1-1.6 1.2.4 2.3.9 3.5 1.2 1.4.4 2.7.7 4 1zm-20.7-3.8c.5-1.7 1.9-2.9 3.7-3.6.9.7 1.8 1.3 2.7 1.9-.2.2-.5.4-.7.7-.4.5-.8 1-1.1 1.6-.6 1.1-1 2.4-1.2 3.6-.3 1.2-.3 2.5-.2 3.8.1.6.1 1.3.2 1.9l.1 1c-.8-.5-1.6-1-2.3-1.6-.5-.4-1-.8-1.5-1.3 0-.1.1-.2.1-.2.1-.3.2-.6.2-.8.1-.9 0-1.5-.1-2.1-.1-.6-.2-1.2-.2-1.7 0-1.3 0-2.3.3-3.2zm-5.2 18.9c0-1.3-.1-2.4 0-3.5 0-1.1.2-2.1.6-3.1.4-.9.9-1.7 1.7-2.4l1.2-.9c.1-.1.2-.1.3-.2l.2-.1.2-.1c.1-.1.2-.1.3-.2.2-.1.3-.3.4-.5 1 1.3 2.3 2.4 3.7 3.4-.9.6-1.6 1.4-2.2 2.2-.7 1.1-1.3 2.2-1.6 3.4-.4 1.2-.5 2.5-.5 3.7 0 .6.1 1.2.1 1.9.1.4.1.9.2 1.3a23.8 23.8 0 0 1-4.9-4c.1-.1.3-.5.3-.9zm-45.1 52.5c.1-6.1.5-12.2 1.4-18.3.2-1.6.5-3.2.9-4.8.2-.8.4-1.5.6-2.3.2-.8.4-1.5.7-2.2 1.1-2.8 3.1-5.4 5.3-7.6 1.7-1.7 3.6-3.2 5.6-4.6 1.9 2.7 3.5 5.6 4.8 8.5.7 1.7 1.4 3.4 1.9 5.1.4 1.7.8 3.6 1.1 5.4.7 3.6 1.2 7.3 1.6 10.9.4 3.3.7 6.7 1 10l-5.5-.1H18.1zm81.9.9c-6.9 0-13.9-.1-20.8-.2l-20.8-.3-15.1-.2c.4-3.4.5-6.8.4-10.1-.1-3.8-.6-7.5-1.3-11.2-.4-1.8-.7-3.7-1.3-5.5-.6-1.8-1.4-3.6-2.3-5.2-1.6-2.9-3.6-5.6-6-8 3.2-2.2 6.8-4 10.4-5.6 3-1.3 6-2.3 9.2-3 3.4-.8 6.5-2 9.6-2.6.2 0 .4-.1.5-.2.8 1 1.7 1.9 2.6 2.8l1 .9 1.1.8c.7.6 1.4 1 2.2 1.6 3 1.9 6.3 3.4 9.8 4.5 6.9 2.1 14.1 2.8 21.2 2.7 7.1-.2 14.2-1 21.2-2.7 3.5-.9 6.9-2.1 10.1-3.7 1.6-.9 3.1-1.7 4.5-2.9 1.2-.9 2.3-2 3.1-3.2.1 0 .1.1.2.1 3.1 1 6.2 2.1 9.3 2.9 3.1.9 6.1 1.9 9.1 3.1 3 1.2 5.9 2.5 8.6 4.1.2.1.5.3.7.4-2.4 2.3-4.4 5.1-6 8-.9 1.7-1.7 3.4-2.3 5.2-.6 1.9-1 3.7-1.3 5.5-.7 3.7-1.1 7.4-1.3 11.2-.1 3.5-.1 7 .4 10.4l-15.1.2c-13.8.2-27.7.3-41.6.2z" fill="#3a0538" stroke-width="none" opacity="1"></path></g><g id="svga-group-head" transform="matrix(1,0,0,1,0,0)"><g id="svga-group-ears-left-move" transform="matrix(1,0,0,1,0,0)"><g id="svga-group-ears-left" transform="matrix(1,0,0,1,0,0)"><path id="SvgjsPath13276" d="M62 92.9c-.2-.3-3.3-4.3-5.9-6.7-2.6-2.4-3.4-2.4-4.6-.9-1.3 1.5-2.9 9.1-2.5 12.4.4 3.4 3.6 8.7 5.2 11.7 1.7 3 3.3 6.7 5.1 6.3 1.9-.4 4.4-4.6 5.7-7.7 1.3-3.1.5-10.8-3-15.1z" fill="#8c5537" stroke-width="none" opacity="1" stroke="none"></path><path id="SvgjsPath13277" d="M65.8 102c.1.9.2 1.7.2 2.6s0 1.7-.2 2.6c-.1.4-.2.9-.3 1.3-.1.4-.3.7-.4 1.1-.3.7-.6 1.4-1 2.1-.7 1.3-1.5 2.6-2.6 3.6-.5.5-1.1 1-1.8 1.3-.4.1-.9.1-1.3 0-.4-.2-.8-.5-1.1-.8-1.2-1.3-1.9-2.8-2.7-4.3-.7-1.5-1.5-2.9-2.2-4.3-.7-1.5-1.5-2.9-2.1-4.4-.3-.8-.7-1.5-.9-2.3-.3-.8-.5-1.6-.6-2.5-.2-1.7 0-3.4.1-5 .2-1.6.5-3.2.8-4.8.2-.8.4-1.6.8-2.3l.3-.6c.1-.2.3-.4.4-.5.2-.3.5-.6.9-.8.3-.2.8-.3 1.2-.3.4.1.8.3 1.1.5.7.4 1.2 1 1.8 1.5 2.2 2.2 4 4.8 5.9 7.2 1.9 2.4 3.2 5.7 3.7 9.1zM55.7 86.4c-1.1-.9-2.4-1.9-3.1-1.2-.2.1-.4.4-.6.6l-.3.3c-.1.1-.1.3-.2.4-.3.6-.5 1.3-.8 2-.5 1.4-.9 2.9-1.1 4.5-.3 1.5-.5 3.1-.4 4.7.1.8.3 1.6.6 2.3.3.8.6 1.5.9 2.2.7 1.5 1.5 2.8 2.3 4.2.8 1.4 1.7 2.7 2.5 4.1.4.7.8 1.4 1.2 2s.8 1.3 1.3 1.7c.5.4.9.6 1.3.4.5-.2.9-.6 1.4-1.1.9-1 1.6-2.1 2.3-3.4.4-.6.7-1.3 1-1.9.2-.3.3-.7.4-1l.2-.5c0-.2.1-.3.1-.5.3-1.4.4-3 .3-4.6s-.4-3.2-.9-4.8c-.5-1.6-1.2-3-2.2-4.2-1.9-2.1-4-4.3-6.2-6.2z" fill="#7d4425" stroke-width="none" opacity="1" stroke="none"></path><path id="SvgjsPath13278" d="M51.2 99.4c-.3-2.3-.5-7.8.8-9.6 2.2-2.9 6 6.4 6.9 9.3 0 .1.1.2.1.3.2.3-.1.7-.4.6-.4-.2-.9-.6-1.3-.8-1.1-.5-1.6.5-1.3 1.8.4 1.8 1.4 2.9 2.2 4.3.1.2 0 .4-.2.3-1.6-.9-3.5-4.5-3.1-6.6.3-2 1.9-1.8 3.1-.8-.7-1.7-1.5-3.3-2.5-4.8-.6-.9-1.2-2-2.2-2.2-1.2-.2-1 .3-1.2 1.8-.8 4.8-.3 10.4 2.5 14.5.1.1 0 .2-.1.1-1.8-2.3-3-4.9-3.3-8.2z" fill="#6d3415" stroke-width="none" opacity="1" stroke="none"></path></g></g><g id="svga-group-ears-right-move" transform="matrix(1,0,0,1,0,0)"><g id="svga-group-ears-right" transform="matrix(1,0,0,1,0,0)"><path id="SvgjsPath13279" d="M138 92.9c.2-.3 3.3-4.3 5.9-6.7 2.6-2.4 3.4-2.4 4.6-.9 1.3 1.5 2.9 9.1 2.5 12.4s-3.6 8.7-5.2 11.7c-1.7 3-3.3 6.7-5.1 6.3-1.9-.4-4.4-4.6-5.7-7.7s-.5-10.8 3-15.1z" fill="#8c5537" stroke-width="none" opacity="1" stroke="none"></path><path id="SvgjsPath13280" d="M138 92.9c1.9-2.4 3.8-5 5.9-7.2.5-.5 1.1-1.1 1.8-1.5.3-.2.7-.4 1.1-.5.4-.1.9.1 1.2.3.3.2.6.5.9.8.1.1.2.3.4.5l.3.6c.3.7.6 1.5.8 2.3.4 1.6.7 3.2.8 4.8.2 1.6.3 3.3.1 5-.1.9-.4 1.7-.6 2.5-.3.8-.6 1.6-.9 2.3-.7 1.5-1.4 3-2.1 4.4-.8 1.5-1.5 2.9-2.2 4.3-.8 1.4-1.4 3-2.7 4.3-.3.3-.7.6-1.1.8-.4.2-.9.2-1.3 0-.8-.3-1.3-.8-1.8-1.3-1-1.1-1.8-2.3-2.6-3.6-.4-.7-.7-1.4-1-2.1-.2-.4-.3-.7-.4-1.1-.1-.4-.3-.8-.3-1.3-.1-.9-.2-1.7-.2-2.6s.1-1.7.2-2.6c.4-3.4 1.7-6.7 3.7-9.1zm.1.1c-1 1.2-1.7 2.7-2.2 4.2-.5 1.6-.8 3.2-.9 4.8-.1 1.6 0 3.2.3 4.6 0 .2.1.3.1.5l.2.5c.1.3.3.7.4 1 .3.7.6 1.3 1 1.9.7 1.2 1.5 2.4 2.3 3.4.4.5.9.9 1.4 1.1.4.2.8 0 1.3-.4s.9-1 1.3-1.7c.4-.6.8-1.3 1.2-2 .8-1.4 1.7-2.8 2.5-4.1.8-1.4 1.6-2.8 2.3-4.2.4-.7.7-1.5.9-2.2.3-.8.5-1.6.6-2.3.1-1.6-.1-3.2-.4-4.7-.3-1.5-.7-3-1.1-4.5-.2-.7-.5-1.4-.8-2-.1-.1-.1-.3-.2-.4-.1-.1-.1-.2-.3-.3-.2-.2-.4-.5-.6-.6-.7-.6-2 .4-3.1 1.2-2.2 1.5-4.3 3.7-6.2 6.2z" fill="#7d4425" stroke-width="none" opacity="1" stroke="none"></path><path id="SvgjsPath13281" d="M148.8 99.4c.3-2.3.5-7.8-.8-9.6-2.2-2.9-6 6.4-6.9 9.3 0 .1-.1.2-.1.3-.2.3.1.7.4.6.4-.2.9-.6 1.3-.8 1.1-.5 1.6.5 1.3 1.8-.4 1.8-1.4 2.9-2.2 4.3-.1.2 0 .4.2.3 1.6-.9 3.5-4.5 3.1-6.6-.3-2-1.9-1.8-3.1-.8.7-1.7 1.5-3.3 2.5-4.8.6-.9 1.2-2 2.2-2.2 1.2-.2 1 .3 1.2 1.8.8 4.8.3 10.4-2.5 14.5-.1.1 0 .2.1.1 1.8-2.3 3-4.9 3.3-8.2z" fill="#6d3415" stroke-width="none" opacity="1" stroke="none"></path></g></g><g id="svga-group-faceshape-wrap" transform="matrix(1,0,0,1,0,0)"><g id="svga-group-faceshape-single"><path id="SvgjsPath13350" d="M143.2 106c.1-6.7 0-16-.1-24.1v-.3c-1.3-29.9-20.7-46.4-43.2-46.4S58.1 51.8 56.8 81.7v.3c0 8-.2 17.3-.1 24.1.3 17.1-1.2 18.4 3.7 23.9 2.2 2.5 9.9 9.4 14.1 12.2s11.3 15 16.1 15c5.3 0 6.5-1.4 9.3-1.4 2.8 0 4 1.4 9.3 1.4 4.8 0 11.9-12.2 16.1-15s11.9-9.7 14.1-12.2c5-5.6 3.5-6.9 3.8-24z" fill="#8c5537" stroke-width="none" opacity="1" stroke="none"></path><path id="SvgjsPath13351" d="M90.6 157.2c5.3 0 6.5-1.4 9.3-1.4s4 1.4 9.3 1.4c4.8 0 11.9-12.2 16.1-15s11.9-9.7 14.1-12.2c5-5.6 3.5-6.9 3.8-24 .1-6.7 0-16-.1-24.1v-.3c-1.3-29.9-20.7-46.4-43.2-46.4S58.1 51.8 56.8 81.7v.3c0 8-.2 17.3-.1 24.1.3 17.1-1.2 18.4 3.7 23.9 2.2 2.5 9.9 9.4 14.1 12.2s11.3 15 16.1 15zm-30.2-31.1c-.8-1.2-1.1-2.4-1.3-4-.1-1.6-.2-3.4-.2-5.2 0-3.6-.1-7.2-.2-10.8-.1-7.2-.4-12.3-.6-19.5 0-1.8-.1-3.6-.1-5.3.1-1.7.2-3.5.3-5.3.3-1.7.4-3.5.8-5.2l.6-2.6c.2-.9.4-1.7.7-2.6 2.1-6.7 5.7-13.1 10.8-18 5.1-4.8 11.5-8.3 18.3-9.7 11.1-2.5 17.4-.6 20.7.4 6.8 2 12.5 5.6 17.4 10.2 4.9 4.7 8.6 10.7 11.1 17.2.4.8.6 1.6.9 2.5l.8 2.5c.5 1.7.8 3.4 1.2 5.2.3 1.7.5 3.5.7 5.2s.2 3.6.3 5.4c.3 7.2.5 12.4.5 19.5-.1 3.6-.1 7.2-.1 10.8 0 1.8-.1 3.6-.2 5.3-.2 1.8-.7 3.4-1.6 4.8-2 2.8-4.8 5-7.6 7.3-2.8 2.2-5.6 4.4-8.5 6.3 0 0-2.1 1.5-2.5 1.9-.7.7-1.4 1.3-2 2-1.3 1.3-2.5 2.7-3.7 4s-2.4 2.6-3.6 3.8c-.6.6-1.2 1.1-1.8 1.6-.6.5-1.5 1.7-8.1.1-.9-.3-2.1-.5-3.3-.5-1.2 0-2.4.2-3.3.5-.9.2-3.9.8-4.7.8-.4 0-1.6.1-3.2-1.1-1.7-1.2-4.1-4.1-5.2-5.5s-2.3-2.8-3.5-4.2c-.6-.7-1.3-1.4-2-2.1-.4-.4-2.5-2-2.5-2-2.8-1.9-5.5-4.2-8.2-6.5-2.7-2.4-5.5-4.7-7.1-7.2z" fill="#5e2709" stroke-width="none" opacity="1" stroke="none"></path></g></g><g id="svga-group-mouth-single-move" transform="matrix(1,0,0,1,0,0)"><g id="svga-group-mouth-single" transform="matrix(1,0,0,1,0,0)"><path id="SvgjsPath13438" d="M86.62 127.55s2.05 2.59 5.62 4.12 13.46 4.37 22.92-4c0 0-1.83-1.01-4.25-2.59s-3.79-2.39-5.87-2.71-3.23.58-4.6.64c-1.37.05-2.88-.8-4.51-.66-3.58.3-9.36 4.5-9.36 4.5l.05.7z" fill="#e66638" stroke-width="none" opacity="1" transform="translate(0 2)" stroke="none"></path><path id="SvgjsPath13439" d="M85.9 127.36c1.93 1.35 3.95.8 6.06.2 1.1-.31 1.84-.44 3.03-.4 1.4.05 1.65.32 2.77.82.84.37 1.64.61 2.55.48 1.07-.15 1.89-.82 2.89-1.19 2.34-.87 4.17.21 6.35.86 2.06.61 4.33 1.01 6.18-.31.5-.36.08-1.04-.47-.81-2.86 1.23-5.62-.26-8.45-.67-2.23-.32-3.49.46-5.64.81-2.45.4-4.48-1.02-6.92-1.03-2.61-.02-5.17 1.6-7.62 0-.78-.53-1.48.71-.73 1.24z" fill="#d74f1f" stroke-width="none" opacity="1" transform="translate(0 2)" stroke="none"></path></g></g><g id="svga-group-eyes-left-move" transform="matrix(1,0,0,1,0,0)"><g id="svga-group-eyes-left" transform="matrix(1,0,0,1,0,0)"><g id="svga-group-eyesback-left"><path id="SvgjsPath13308" d="M87.1 98.5s.3.9 1.3.7c1-.2 1.1-2.3 1-2.9-.1-.6-.5-3-1.7-4.2-1.2-1.2-3.1-1.7-3.1-1.7l-13.8.6s-1.1 3.4.3 5c1.3 1.7 4 3.3 6.9 3.3 2.9.1 6.7-.1 9.1-.8z" fill="#ffffff" stroke-width="none" opacity="1"></path></g><g id="svga-group-eyesiriswrapper-left" transform="matrix(1,0,0,1,0,0)"><g id="svga-group-eyesiriscontrol-left" transform="matrix(1,0,0,1,0,0)"><g id="svga-group-eyesiris-left" transform="matrix(1,0,0,1,0,0)"><path id="SvgjsPath13364" d="M80.1 88.3c2.9 0 5.2 2.3 5.2 5.2s-2.3 5.2-5.2 5.2-5.2-2.3-5.2-5.2 2.3-5.2 5.2-5.2z" fill="#4faaab" stroke-width="none" opacity="1"></path><path id="SvgjsPath13365" d="M80.1 88.6c2.7 0 4.9 2.2 4.9 4.9s-2.2 4.9-4.9 4.9-4.9-2.2-4.9-4.9 2.1-4.9 4.9-4.9m0-.5c-3 0-5.5 2.4-5.5 5.5 0 3 2.4 5.5 5.5 5.5 3 0 5.5-2.4 5.5-5.5s-2.5-5.5-5.5-5.5z" fill="#258b8c" stroke-width="none" opacity="1"></path><path id="SvgjsPath13366" d="M82.7 89c-.1.3-.3.7-.5 1-.2.3-.4.6-.7.9.1-.3.3-.7.5-1 .2-.4.4-.7.7-.9zm.7.6-.6.9c-.2.3-.5.6-.8.8l.6-.9c.3-.3.5-.6.8-.8zm-.9 2c.2-.3.4-.5.6-.7.2-.2.5-.4.8-.5-.2.3-.4.5-.6.7-.2.2-.5.4-.8.5zm.3.6c.3-.2.6-.3.9-.4.3-.1.6-.2 1-.3-.3.2-.6.3-.9.4-.4.2-.7.3-1 .3zm.3.5c.3-.1.6-.2.9-.2s.6-.1.9-.1c-.3.1-.6.2-.9.2-.3.1-.6.2-.9.1zm.1.7c.2 0 .3-.1.5-.1h.5c.3 0 .6.1.9.2-.3.1-.6 0-.9 0-.2 0-.3 0-.4-.1-.3.1-.5.1-.6 0zm-.2.6c.3 0 .6.1.9.1l.9.3c-.3 0-.6-.1-.9-.1-.3 0-.6-.1-.9-.3zm0 .7c.2 0 .3.1.4.1.1.1.3.1.4.2.3.1.5.3.7.5-.3-.1-.6-.2-.8-.3-.1-.1-.3-.1-.4-.2 0-.1-.2-.2-.3-.3zm-.5.8c.3.1.5.2.7.4.2.2.4.3.6.6-.3-.1-.5-.2-.7-.4l-.6-.6zm-.9-6.8c0 .3-.1.7-.2 1-.1.3-.2.6-.4.9 0-.3.1-.7.2-1 .1-.3.2-.7.4-.9zm-1.3 1.7c-.1-.3 0-.7 0-1 0-.3.1-.7.2-1 .1.3 0 .7 0 1s-.1.7-.2 1zm-1.1-2c.1.3.2.7.3 1 .1.3.1.7.1 1-.1-.3-.2-.6-.3-1 0-.2-.1-.3-.1-.5v-.5zm-1.1.4c.2.3.3.6.4.9.1.3.2.7.3 1-.2-.3-.3-.6-.4-.9-.2-.3-.3-.7-.3-1zm-.9.5c.2.2.5.5.7.8s.4.6.5.9c-.2-.2-.5-.5-.7-.8-.2-.3-.4-.5-.5-.9zm-1 .9c.3.2.7.4.9.7.3.2.6.5.8.8-.3-.2-.7-.4-.9-.7-.3-.3-.6-.5-.8-.8zm-.3 1c.3.1.5.2.8.3.2.1.5.3.7.5-.3-.1-.5-.2-.8-.3-.3-.1-.5-.3-.7-.5zm-.5 1c.3 0 .5 0 .8.1s.5.1.7.3c-.3 0-.5 0-.8-.1s-.4-.1-.7-.3zm-.2 1.2c.3-.1.6-.1.8-.1s.6 0 .8.1c-.3.1-.6.1-.8.1-.2 0-.5-.1-.8-.1zm.1.9c.2-.1.5-.2.8-.2.3-.1.5-.1.8-.1-.2.1-.5.2-.8.2-.2.1-.5.1-.8.1zm.1.9c.3-.2.6-.3.9-.3s.6-.2.9-.2c-.3.2-.6.3-.9.3-.3.1-.6.2-.9.2zm.5.9c.2-.2.5-.3.8-.5.3-.1.5-.2.8-.3-.2.2-.5.3-.8.5-.2.1-.5.2-.8.3zm.8.9c.1-.2.3-.4.5-.6.2-.2.4-.4.6-.5-.1.2-.3.4-.5.6-.2.2-.4.4-.6.5zm.9.8c.1-.3.2-.7.4-.9.2-.3.3-.6.6-.9-.1.3-.2.7-.4.9-.2.4-.4.7-.6.9zm1.1.4c0-.3 0-.5.1-.8.1-.3.2-.5.3-.8 0 .3 0 .5-.1.8 0 .3-.1.5-.3.8zm2.7-1.8c.2.2.2.5.3.7.1.3.2.5.2.8-.2-.2-.2-.5-.3-.7-.1-.2-.2-.5-.2-.8zm.7-.3c.2.2.4.4.5.6.2.2.3.4.4.7-.2-.2-.4-.4-.5-.6-.2-.2-.3-.4-.4-.7zm-1.5.6c.1.2.1.5.2.8v.8c-.1-.2-.1-.5-.2-.8v-.8zm-.7.1c.1.2.1.5.1.7 0 .3 0 .5-.1.8-.1-.3-.1-.5-.1-.8 0-.2.1-.5.1-.7z" fill="#147c7d" stroke-width="none" opacity="1"></path><path id="SvgjsPath13367" d="M80.1 90.6c1.6 0 2.9 1.3 2.9 2.9s-1.3 2.9-2.9 2.9-2.9-1.3-2.9-2.9 1.2-2.9 2.9-2.9z" fill="#000000" stroke-width="none" opacity="1"></path><path id="SvgjsPath13368" d="m79.3 91.1-.6-.6c-.2-.2-.5-.3-.7-.3-.2 0-.6.1-.7.3-.2.2-.3.5-.3.8 0 .3.1.5.3.7l.6.6c.2.2.5.3.7.3.2 0 .6-.1.7-.3.4-.4.4-1.1 0-1.5zm2.8 5c.9 0 .9-1.5 0-1.5s-1 1.5 0 1.5z" fill="#ffffff" stroke-width="none" opacity="1"></path></g></g></g><g id="svga-group-eyesfront-left"><path id="SvgjsPath13316" d="M69.4 94.6c0 6.4 4.7 11.5 10.6 11.5s10.6-5.2 10.6-11.5S85.9 83.1 80 83.1s-10.6 5.1-10.6 11.5zM71 96c-1.3-1.7-.3-5-.3-5l13.8-.7s1.9.5 3.1 1.7 1.6 3.6 1.7 4.2 0 2.7-1 2.9c-1 .2-1.3-.7-1.3-.7-2.4.8-6.2 1-9.2.9S72.4 97.7 71 96z" fill="#8c5537" stroke-width="none" opacity="1" stroke="none"></path><path id="SvgjsPath13317" d="M66.8 92.4c1.1-.4 2.2-.6 3.3-.8-1.6 2.6 1.1 6.1 3.5 7.2 3.8 1.8 9.4 1.4 13.4 0v.1c.6.6 1.6 1.1 2.3.3.7-.8.4-2.6.3-3.5-.3-2-1.5-4.2-3.3-5.1 1 0 1.9.1 2.8.5.6.3.7.5 1.4.7h.1c1-3.5-8-2.3-9.4-2.2-3.1.1-6.1.4-9.2.6-1.9.1-4.2 0-5.5 1.6-.3.2-.1.7.3.6zm4.3-.9c2.7-.3 5.4-.3 8.1-.5 1.9-.1 3.7-.2 5.6-.3 1.7.5 3 1.6 3.6 3.3.4 1.1 1.4 5.3-1 4.6.1 0 .2-.1.3-.1.3-.1.2-.5-.1-.5-3.6.7-7.3 1.5-11 .7-1.8-.4-3.6-1.1-4.7-2.7-1.2-1.5-1-2.8-.8-4.5z" fill="#2e0914" stroke-width="none" opacity="1" stroke="none"></path></g></g></g><g id="svga-group-eyes-right-move" transform="matrix(1,0,0,1,0,0)"><g id="svga-group-eyes-right" transform="matrix(1,0,0,1,0,0)"><g id="svga-group-eyesback-right"><path id="SvgjsPath13309" d="M112.9 98.5s-.3.9-1.3.7c-1-.2-1.1-2.3-1-2.9.1-.6.5-3 1.7-4.2 1.2-1.2 3.1-1.7 3.1-1.7l13.8.7s1.1 3.4-.3 5c-1.3 1.7-4 3.3-6.9 3.3-2.9 0-6.7-.2-9.1-.9z" fill="#ffffff" stroke-width="none" opacity="1"></path></g><g id="svga-group-eyesiriswrapper-right" transform="matrix(1,0,0,1,0,0)"><g id="svga-group-eyesiriscontrol-right" transform="matrix(1,0,0,1,0,0)"><g id="svga-group-eyesiris-right" transform="matrix(1,0,0,1,0,0)"><path id="SvgjsPath13369" d="M119.9 88.3c2.9 0 5.2 2.3 5.2 5.2s-2.3 5.2-5.2 5.2-5.2-2.3-5.2-5.2 2.4-5.2 5.2-5.2z" fill="#4faaab" stroke-width="none" opacity="1"></path><path id="SvgjsPath13370" d="M119.9 88.6c2.7 0 4.9 2.2 4.9 4.9s-2.2 4.9-4.9 4.9-4.9-2.2-4.9-4.9 2.2-4.9 4.9-4.9m0-.5c-3 0-5.5 2.4-5.5 5.5 0 3 2.4 5.5 5.5 5.5 3 0 5.5-2.4 5.5-5.5s-2.4-5.5-5.5-5.5z" fill="#258b8c" stroke-width="none" opacity="1"></path><path id="SvgjsPath13371" d="M122.6 89c-.1.3-.3.7-.5 1-.2.3-.4.6-.7.9.1-.3.3-.7.5-1 .2-.4.4-.7.7-.9zm.7.6-.6.9c-.2.3-.5.6-.8.8l.6-.9c.3-.3.5-.6.8-.8zm-.9 2c.2-.3.4-.5.6-.7.2-.2.5-.4.8-.5-.2.3-.4.5-.6.7-.3.2-.5.4-.8.5zm.3.6c.3-.2.6-.3.9-.4.3-.1.6-.2 1-.3-.3.2-.6.3-.9.4-.4.2-.7.3-1 .3zm.3.5c.3-.1.6-.2.9-.2s.6-.1.9-.1c-.3.1-.6.2-.9.2-.3.1-.6.2-.9.1zm.1.7c.2 0 .3-.1.5-.1h.5c.3 0 .6.1.9.2-.3.1-.6 0-.9 0-.2 0-.3 0-.4-.1-.3.1-.5.1-.6 0zm-.2.6c.3 0 .6.1.9.1l.9.3c-.3 0-.6-.1-.9-.1-.3 0-.6-.1-.9-.3zm0 .7c.2 0 .3.1.4.1.1.1.3.1.4.2.3.1.5.3.7.5-.3-.1-.6-.2-.8-.3-.1-.1-.3-.1-.4-.2 0-.1-.2-.2-.3-.3zm-.5.8c.3.1.5.2.7.4.2.2.4.3.6.6-.3-.1-.5-.2-.7-.4l-.6-.6zm-.9-6.8c0 .3-.1.7-.2 1-.1.3-.2.6-.4.9 0-.3.1-.7.2-1 .1-.3.2-.7.4-.9zm-1.3 1.7c-.1-.3 0-.7 0-1 0-.3.1-.7.2-1 .1.3 0 .7 0 1s-.1.7-.2 1zm-1.1-2c.1.3.2.7.3 1 .1.3.1.7.1 1-.1-.3-.2-.6-.3-1 0-.2-.1-.3-.1-.5v-.5zm-1.1.4c.2.3.3.6.4.9.1.3.2.7.3 1-.2-.3-.3-.6-.4-.9-.2-.3-.3-.7-.3-1zm-.9.5c.2.2.5.5.7.8s.4.6.5.9c-.2-.2-.5-.5-.7-.8-.2-.3-.4-.5-.5-.9zm-1 .9c.3.2.7.4.9.7.3.2.6.5.8.8-.3-.2-.7-.4-.9-.7-.3-.3-.6-.5-.8-.8zm-.3 1c.3.1.5.2.8.3.2.1.5.3.7.5-.3-.1-.5-.2-.8-.3-.3-.1-.5-.3-.7-.5zm-.5 1c.3 0 .5 0 .8.1s.5.1.7.3c-.3 0-.5 0-.8-.1s-.4-.1-.7-.3zm-.2 1.2c.3-.1.6-.1.8-.1s.6 0 .8.1c-.3.1-.6.1-.8.1-.2 0-.5-.1-.8-.1zm.1.9c.2-.1.5-.2.8-.2.3-.1.5-.1.8-.1-.2.1-.5.2-.8.2-.2.1-.5.1-.8.1zm.1.9c.3-.2.6-.3.9-.3s.6-.2.9-.2c-.3.2-.6.3-.9.3-.3.1-.6.2-.9.2zm.5.9c.2-.2.5-.3.8-.5.3-.1.5-.2.8-.3-.2.2-.5.3-.8.5-.3.1-.5.2-.8.3zm.8.9c.1-.2.3-.4.5-.6.2-.2.4-.4.6-.5-.1.2-.3.4-.5.6-.2.2-.4.4-.6.5zm.9.8c.1-.3.2-.7.4-.9.2-.3.3-.6.6-.9-.1.3-.2.7-.4.9-.2.4-.4.7-.6.9zm1.1.4c0-.3 0-.5.1-.8.1-.3.2-.5.3-.8 0 .3 0 .5-.1.8-.1.3-.1.5-.3.8zm2.7-1.8c.2.2.2.5.3.7.1.3.2.5.2.8-.2-.2-.2-.5-.3-.7-.1-.2-.2-.5-.2-.8zm.7-.3c.2.2.4.4.5.6.2.2.3.4.4.7-.2-.2-.4-.4-.5-.6-.2-.2-.3-.4-.4-.7zm-1.5.6c.1.2.1.5.2.8v.8c-.1-.2-.1-.5-.2-.8v-.8zm-.7.1c.1.3.1.5.1.8 0 .3 0 .5-.1.8-.1-.3-.1-.5-.1-.8 0-.3.1-.6.1-.8z" fill="#147c7d" stroke-width="none" opacity="1"></path><path id="SvgjsPath13372" d="M119.9 90.6c1.6 0 2.9 1.3 2.9 2.9s-1.3 2.9-2.9 2.9-2.9-1.3-2.9-2.9 1.3-2.9 2.9-2.9z" fill="#000000" stroke-width="none" opacity="1"></path><path id="SvgjsPath13373" d="m119.2 91.1-.6-.6c-.2-.2-.5-.3-.7-.3-.2 0-.6.1-.7.3-.2.2-.3.5-.3.7 0 .3.1.5.3.7l.6.6c.2.2.5.3.7.3.2 0 .6-.1.7-.3.4-.3.4-1 0-1.4zm2.7 5c.9 0 .9-1.5 0-1.5s-.9 1.5 0 1.5z" fill="#ffffff" stroke-width="none" opacity="1"></path></g></g></g><g id="svga-group-eyesfront-right"><path id="SvgjsPath13318" d="M120 83.1c-5.9 0-10.6 5.2-10.6 11.5s4.7 11.5 10.6 11.5 10.6-5.2 10.6-11.5-4.8-11.5-10.6-11.5zm2 16.3c-2.9.1-6.8-.2-9.2-.9 0 0-.3.9-1.3.7-1-.2-1.1-2.3-1-2.9s.5-3 1.7-4.2 3.1-1.7 3.1-1.7l13.8.7s1.1 3.4-.3 5c-1.2 1.6-3.8 3.2-6.8 3.3z" fill="#8c5537" stroke-width="none" opacity="1" stroke="none"></path><path id="SvgjsPath13321" d="M133.6 91.7c-1.3-1.6-3.6-1.4-5.5-1.6-3.1-.2-6.1-.5-9.2-.6-1.4-.1-10.4-1.3-9.4 2.2h.1c.6-.2.7-.3 1.4-.7.9-.5 1.8-.6 2.8-.5-1.8.9-3 3-3.3 5.1-.1.9-.5 2.7.3 3.5.7.8 1.7.3 2.3-.3v-.1c4 1.4 9.5 1.8 13.4 0 2.3-1.1 5.1-4.6 3.5-7.2 1.1.2 2.2.4 3.3.8.3.2.5-.3.3-.6zm-5.4 4.3c-1.1 1.5-2.9 2.3-4.7 2.7-3.7.8-7.4 0-11-.7-.3-.1-.4.4-.1.5.1 0 .2.1.3.1-2.4.7-1.4-3.5-1-4.6.7-1.7 1.9-2.9 3.6-3.3 1.9.1 3.7.2 5.6.3 2.7.1 5.4.2 8.1.5.1 1.7.3 3-.8 4.5z" fill="#2e0914" stroke-width="none" opacity="1" stroke="none"></path></g></g></g><g id="svga-group-facehighlight-single"></g><g id="svga-group-eyebrows-left-move" transform="matrix(1,0,0,1,0,0)"><g id="svga-group-eyebrows-left-rotate" transform="matrix(1,0,0,1,0,0)"><g id="svga-group-eyebrows-left" transform="matrix(1,0,0,1,0,0)"><path id="SvgjsPath13242" d="M65.8 82.4c.4-.2 1 0 1.4.1l.1-.1c.5-.1 1.1-.1 1.7-.1.3-.1.5-.1.8-.1.4 0 .9-.1 1.3-.1.1 0 .2 0 .2.1.7-.1 1.5-.1 2.2-.2 1.2-.1 2.3-.2 3.5-.2 2-.2 4.1-.5 6.1-.2h1.8c1 0 2.1-.3 3.1-.1h1.2c.2 0 .4.2.5.4.5-.1.9-.2 1.4-.2.2 0 .4 0 .5.1.1-.1.3-.1.4.1.1-.1.3-.1.4 0 .1.3.1.6.1.9v.2c-.2.7-.3 2.5-1.3 2.6-.2 0-.4 0-.7-.1-.6.2-1.2.2-1.9.1-.9-.2-1.8-.3-2.8-.5-1.7.3-3.4 0-5.1-.5 0 0-.1.1-.2.1-1.2-.1-2.4-.2-3.6-.4-1.3-.2-2.7-.1-4-.4-.8 0-1.6-.1-2.4-.2-.9-.1-1.8-.1-2.6-.4-.1 0-.1-.1-.1-.2h-.2c-.2 0-.5 0-.7-.2-.4 0-.7 0-1-.3-.2 0-.2-.1-.1-.2z" fill="#4e4341" stroke-width="none" opacity="1"></path><path id="SvgjsPath13243" d="M90.6 82.2c.2.5.3 1.1.4 1.7.1.4.2.9.1 1.3 0 .1-.2.2-.3 0-.2-.4-.3-1-.4-1.5-.1-.5-.2-1-.2-1.5 0-.2.3-.2.4 0zm-4.3-.2c.6.4 1 1 1.5 1.6l.9 1.2c-.2-.4-.3-.8-.5-1.2-.3-.6-.7-1.2-1-1.8-.1-.2.1-.4.3-.2.9 1 1.6 2.6 1.8 3.8 0 .1-.2.3-.2.1 0-.1-.1-.2-.1-.2 0 .1-.1.2-.2.1-.5-.4-.9-1.1-1.3-1.6s-.9-1-1.2-1.5c-.3-.2-.1-.4 0-.3zm-3.3-.2c.7.5 1.2 1.1 1.7 1.7s1.1 1.2 1.6 1.8c.1.2-.1.3-.2.2-.6-.5-1.2-1.1-1.8-1.7-.5-.5-1.1-1-1.5-1.7-.2-.2 0-.4.2-.3zm-2.4-.5c.6.3 1 1 1.4 1.5.4.6.8 1.2 1.1 1.9.1.2-.2.3-.3.1-.4-.6-.7-1.2-1.2-1.7-.4-.6-.9-1-1.3-1.6 0-.1.2-.3.3-.2zm-6.8.3c2.1.3 3.7 2.1 5.6 2.6.2 0 .1.3 0 .3-.9.1-1.7-.6-2.4-.9-1.1-.6-2.3-.9-3.3-1.6-.2-.1-.1-.4.1-.4zm-5.3.6c1.2.1 2.5.5 3.7.7 1.1.2 2.2.4 3.3.9.2.1.1.4-.1.3-2.2-.9-4.7-.8-6.9-1.7-.2.1-.2-.2 0-.2z" fill="#5d5857" stroke-width="none" opacity="1"></path><path id="SvgjsPath13244" d="M65.5 82.7c2.8-.1 5.7-.4 8.5-.6.7.7 1.5 1.4 2.4 1.9-.9-.1-1.9-.2-2.8-.3-2.4-.3-4.8-.8-7.3-.9-.2 0-.3.3-.1.4 4 1.1 8.4 1.4 12.6 1.8 4.4.5 8.7.8 13.1 1 .1 0 .3-.1.3-.2.3-1.2.6-2.4.8-3.6 0-.2-.3-.3-.4-.1-.3.7-.5 1.3-.7 2-.1.4-.2.9-.5 1.2.1-.4.1-.9.1-1.3 0-.6 0-1.2-.1-1.8 0-.1-.2-.1-.2 0-.1.5-.2 1.1-.2 1.8 0 .4-.1 1 0 1.4-.3 0-.8-.1-1.2-.1-.2-1.2-.6-2.3-1-3.4 1.3.1 2.7.1 3.9-.1.1 0 .1-.2 0-.2-2-.6-4.6-.3-6.7-.3-2.3 0-4.6 0-6.9.1-4.5.1-9.2.2-13.7.9-.3-.1-.3.5.1.4zm23.7 2.5c-.5 0-.9-.1-1.4-.1V85c-1-1.1-1.9-2.3-3.1-3.3h1.6c.7 0 1.4.1 2.1.1.2 1.1.6 2.3 1 3.4h-.2zm-14.8-3.1c1.6-.1 3.3-.2 4.9-.3 1.7-.1 3.3-.1 5-.1.9 1.2 2.1 2.3 3.2 3.3-1-.1-2-.1-3-.2-.9-1-1.8-2.1-2.9-2.8-.1-.1-.3.1-.2.2.7.9 1.6 1.8 2.5 2.6-.5 0-1-.1-1.5-.1-.5-.9-1.2-1.8-1.9-2.6-.1-.1-.2 0-.2.1.4.9 1 1.7 1.6 2.4-.5 0-.9-.1-1.4-.1-1.2-.1-2.3-.2-3.4-.4-.8-.7-1.8-1.4-2.7-2z" fill="#3f312e" stroke-width="none" opacity="1"></path></g></g></g><g id="svga-group-eyebrows-right-move" transform="matrix(1,0,0,1,0,0)"><g id="svga-group-eyebrows-right-rotate" transform="matrix(1,0,0,1,0,0)"><g id="svga-group-eyebrows-right" transform="matrix(1,0,0,1,0,0)"><path id="SvgjsPath13245" d="M134.2 82.4c-.4-.2-1 0-1.4.1l-.1-.1c-.5-.1-1.1-.1-1.6-.1-.3-.1-.5-.1-.8-.1-.4 0-.9-.1-1.3-.1-.1 0-.2 0-.2.1-.7-.1-1.5-.1-2.2-.2-1.2-.1-2.3-.2-3.5-.2-2-.2-4.1-.5-6.1-.2h-1.8c-1 0-2.1-.3-3.1-.1h-1.2c-.2 0-.4.2-.5.4-.5-.1-.9-.2-1.4-.2-.2 0-.4 0-.5.1-.1-.1-.3-.1-.4.1-.1-.1-.3-.1-.4 0-.1.3-.1.6-.1.9v.2c.2.7.3 2.5 1.3 2.6.2 0 .4 0 .7-.1.6.2 1.2.2 1.9.1.9-.2 1.8-.3 2.8-.5 1.7.3 3.4 0 5.1-.5 0 0 .1.1.2.1 1.2-.1 2.4-.2 3.6-.4 1.3-.2 2.7-.1 4-.4.8 0 1.6-.1 2.4-.2.9-.1 1.8-.1 2.6-.4.1 0 .1-.1.1-.2h.2c.2 0 .5 0 .7-.2.4 0 .7 0 1-.3.1 0 .1-.1 0-.2z" fill="#4e4341" stroke-width="none" opacity="1"></path><path id="SvgjsPath13246" d="M109.4 82.2c-.2.5-.3 1.1-.4 1.7-.1.4-.2.9-.1 1.3 0 .1.2.2.3 0 .2-.4.3-1 .4-1.5.1-.5.2-1 .2-1.5 0-.2-.3-.2-.4 0zm4.3-.2c-.6.4-1 1-1.5 1.6l-.9 1.2c.2-.4.3-.8.5-1.2.3-.6.7-1.2 1-1.8.1-.2-.1-.4-.3-.2-.9 1-1.6 2.6-1.8 3.8 0 .1.2.3.2.1 0-.1.1-.2.1-.2 0 .1.1.2.2.1.5-.4.9-1.1 1.3-1.6s.9-1 1.2-1.5c.3-.2.1-.4 0-.3zm3.3-.2c-.7.5-1.2 1.1-1.7 1.7s-1.1 1.2-1.6 1.8c-.1.2.1.3.2.2.6-.5 1.2-1.1 1.8-1.7.5-.5 1.1-1 1.5-1.7.2-.2 0-.4-.2-.3zm2.4-.5c-.6.3-1 1-1.4 1.5-.4.6-.8 1.2-1.1 1.9-.1.2.2.3.3.1.4-.6.7-1.2 1.2-1.7.4-.6.9-1 1.3-1.6 0-.1-.2-.3-.3-.2zm6.8.3c-2.1.3-3.7 2.1-5.6 2.6-.2 0-.1.3 0 .3.9.1 1.7-.6 2.4-.9 1.1-.6 2.3-.9 3.3-1.6.2-.1.1-.4-.1-.4zm5.3.6c-1.2.1-2.5.5-3.7.7-1.1.2-2.2.4-3.3.9-.2.1-.1.4.1.3 2.2-.9 4.7-.8 6.9-1.7.2.1.2-.2 0-.2z" fill="#5d5857" stroke-width="none" opacity="1"></path><path id="SvgjsPath13247" d="M134.6 82.2c-4.4-.8-9.1-.8-13.7-.9-2.3-.1-4.6-.1-6.9-.1-2.1 0-4.7-.3-6.7.3-.1 0-.1.2 0 .2 1.2.2 2.6.2 3.9.1-.5 1.1-.8 2.3-1 3.4-.4.1-.9.1-1.2.1.1-.4 0-1 0-1.4 0-.6-.1-1.2-.2-1.8 0-.1-.2-.1-.2 0-.1.6-.1 1.2-.1 1.8 0 .4 0 .9.1 1.3-.4-.3-.4-.7-.5-1.2-.2-.7-.4-1.4-.7-2-.1-.2-.4-.1-.4.1.2 1.2.5 2.4.8 3.6 0 .1.2.2.3.2 4.4-.2 8.8-.6 13.1-1 4.1-.4 8.6-.7 12.6-1.8.2-.1.2-.4-.1-.4-2.4.1-4.9.6-7.3.9-.9.1-1.9.2-2.8.3.8-.5 1.7-1.2 2.4-1.9 2.8.2 5.6.5 8.5.6.4.2.4-.4.1-.4zm-24 3c.5-1.1.9-2.2 1-3.4.7-.1 1.4-.1 2.1-.1h1.6c-1.2 1-2.1 2.2-3.1 3.3v.1c-.5 0-.9.1-1.4.1h-.2zm12.3-1.1c-1.2.1-2.3.2-3.4.4-.5.1-.9.1-1.4.1.6-.7 1.2-1.5 1.6-2.4.1-.1-.1-.2-.2-.1-.8.8-1.4 1.6-1.9 2.6-.5.1-1 .1-1.5.1.9-.8 1.8-1.6 2.5-2.6.1-.1-.1-.3-.2-.2-1.1.8-2.1 1.8-2.9 2.8-1 .1-2 .2-3 .2 1.1-1 2.3-2.1 3.2-3.3 1.7 0 3.3 0 5 .1 1.6.1 3.3.2 4.9.3-.9.6-1.9 1.3-2.7 2z" fill="#3f312e" stroke-width="none" opacity="1"></path></g></g></g><g id="svga-group-beardwrap" transform="matrix(1,0,0,1,0,0)"><g id="svga-group-beard-single-move" transform="matrix(1,0,0,1,0,0)"><g id="svga-group-beard-single" transform="matrix(1,0,0,1,0,0)"><path id="SvgjsPath13232" d="m126.8 120.8.6.6s-.5-4-4.5-6.3-10-1-13.3-.1-6.3 2.7-9.2 2.7c-8.2 0-11.9-5-22.4-3.3s-6.8 20.4-3.3 27.2l.6-.9s3.1 8.3 7.7 12.1l.2-1s5.3 6.1 14.2 8.3 14.9-3.1 14.9-3.1v.9s7.4-4.9 9.3-9.1c0 0 4.2-5.9 5.6-13.1 1.2-7.4-.4-14.9-.4-14.9zm-8.9 15c-3.1 7.2-8 8.2-10.7 7.4-2.7-.8-1.5-5.3-1.5-5.3-3 .3-9.7-.1-9.7-.1s2.6 5.7-5 5.4c-7.6-.3-13-12.3-13.5-15.7-.5-3.4.2-8.3 4.4-9.8s13.8 2.6 18 2.4c7.7-.3 12.8-3.3 17.5-2.6s3.6 11.2.5 18.3z" fill="#4e4341" stroke-width="none" opacity="1"></path><path id="SvgjsPath13233" d="M79.7 134.5c-2.1-5.3-4.5-12.2 1.8-15.7 4.6-2.5 9.2.1 13.8 1 7.7 1.5 13.9-2.8 21.3-2.9.2 0 .2-.3 0-.3-5.6-.8-11 2.5-16.7 2.5-5.3 0-10.3-3.2-15.7-2.6-9.4 1.1-8.9 11.8-5.3 18.2.3.4.9.2.8-.2zm-5.5-17.6c.1-.1-.1-.2-.2-.1-4.8 7.2-3.3 16.8.4 24 .2.3.7.1.6-.3-3-8-4.7-15.3-.8-23.6zm.5 20.7c-.1-.2-.4-.1-.3.1 1.3 5.7 4 12.1 8.5 16 .2.2.6-.1.4-.3-3.5-5.2-6.8-9.6-8.6-15.8zm25.9 23c-4.9 0-8.2-2.7-11.3-6.1-.2-.2-.5.1-.3.3 1 1.3 2.2 2.8 3.6 3.9-2-1.3-4-2.5-5.8-4.2-1.9-1.9-3.4-4.1-4.6-6.4-.1-.2-.5-.1-.4.2 1.7 4.9 6.1 10.1 11.2 11.6.3.1.4-.2.4-.4 2.1 1.6 4.6 2.5 7.3 1.8.2-.3.1-.7-.1-.7zm1.7-.9c-3-.3-5.4-.9-7.6-3-.3-.2-.6.1-.4.4 2 2.1 5.1 3.8 8.1 3.2.4-.1.3-.6-.1-.6zm2.6-.3c-.8-.2-1.7-.4-2.5-.8-.2-.1-.4.2-.2.3.8.4 1.7.7 2.6.7.2 0 .2-.2.1-.2zm-22.7-13.6c.2.1.3-.1.2-.3-3.3-3.3-6.1-6.9-7.8-11.3-.1-.2-.3-.1-.3.1 1.6 4.5 4.1 8.6 7.9 11.5zm14.3-7.7c-.1-.4-.7-.3-.7.1-.1 1.1 0 2.2-.3 3.2s-.9 1.7-1.8 2.3c-.2.2-.2.7.2.6 2.8-.3 3.1-4.1 2.6-6.2zm-12 8.9c-.1-.1-.4 0-.3.2.7 1.2 2 2.3 3.1 3.2.1.1.2.1.3 0 1.7 1.9 3.9 3.3 6.2 4 .2 0 .3 0 .3-.1 1.2.9 2.5 1.7 3.9 2.2.2.1.4-.3.2-.4-2.5-1.5-4.9-2.9-6.8-5.1-.2-.2-.5.1-.3.3.5.6 1.1 1.3 1.8 1.9-3-1.6-5.2-3.7-7.2-6.5-.1-.2-.4-.1-.3.1.3.8.8 1.6 1.3 2.4-.2-.2-.4-.4-.7-.6-.5-.5-.9-1.1-1.5-1.6zm26.4 9.5c-1.2 1.1-2.4 2.1-3.8 2.9-.3.1 0 .5.2.4 1.5-.7 2.9-1.6 3.9-3.1.1-.1-.2-.3-.3-.2zm6.2-5.6c-1.5 2.6-2.9 4.8-5.3 6.7-.2.2.1.5.3.4 2.5-1.5 4.7-4 5.4-6.9.1-.2-.3-.4-.4-.2zm8.5-14.7c-.3 2.4-.9 4.7-1.8 6.9-.1-.1-.4-.1-.5.1-.7 1.9-1.3 3.8-2.4 5.5s-2.6 3.1-4 4.5c-.2.2.1.5.3.4 3.3-1.9 5.9-5.8 6.5-9.5 1.5-2.4 2.3-5.1 2.3-7.9 0-.2-.4-.2-.4 0zm-5.3-4.1c-1.4 5.6-4.5 11.8-11 12.5-.3 0-.4.4-.1.5 11.1 2.8 19.1-25.2 8.1-28.2-.2-.1-.3.2-.1.3 5.3 2.5 4.3 10.2 3.1 14.9zm7.1-6.4c0-.2-.3-.1-.3 0 .3 2.2.2 4.3.2 6.5 0 .2.3.2.3.1.5-2.2.2-4.4-.2-6.6zm-1 3.9c.4 3.1 0 5.9-.4 9 0 .3.4.4.5.1 1.1-2.9 1-6.2.3-9.2 0-.2-.4-.1-.4.1zm-18 23.4c-1.1 2.1-2.3 3.9-3.9 5.7-.2.3.1.6.4.4 1.8-1.6 3.2-3.6 3.8-5.9.1-.2-.2-.4-.3-.2zm2-.2-1.2 1.8c-.5.6-1 1.2-1.6 1.7-.2.2.1.6.4.4 1.1-.9 2.3-2.2 2.8-3.6 0-.3-.2-.5-.4-.3zm2.2-1.7c-.3.9-.8 1.8-1.4 2.6-.1.2.2.3.3.1.6-.9 1-1.7 1.2-2.7 0 0-.1-.1-.1 0zM92.8 148c-.2-.2-.4.1-.3.3.9 1 1.7 2.2 2.7 3.1.1.1.3 0 .3-.2-.7-1.2-1.8-2.3-2.7-3.2zm6.1 6.2c-.3-.5-.8-.9-1.2-1.3-.4-.5-.8-1.1-1.1-1.7-.1-.2-.5 0-.3.2.6 1.1 1.3 2.4 2.5 2.9 0 .1.2 0 .1-.1zm0-.6c.1.6.3 1.4.7 1.9.1.1.3 0 .3-.2-.2-.6-.5-1.2-.6-1.8 0-.2-.4-.1-.4.1z" fill="#3f312e" stroke-width="none" opacity="1"></path></g></g></g><g id="svga-group-mustache-single-move" transform="matrix(1,0,0,1,0,0)"><g id="svga-group-mustache-single" transform="matrix(1,0,0,1,0,0)"></g></g><g id="svga-group-nose-single-move" transform="matrix(1,0,0,1,0,0)"><g id="svga-group-nose-single" transform="matrix(1,0,0,1,0,0)"><path id="SvgjsPath13415" d="M109.05 113.12c.28.89.49 2.03-.2 2.51-.69.49-2.8-.08-3.4 0s-1.26.12-2.03.89-1.62 2.15-2.76 2.07c-1.13-.08-1.82-.89-2.39-1.54s-1.78-1.78-2.43-1.9-1.78.65-2.63 1.18c-.85.53-2.39.65-2.43-1.09-.04-1.74 1.54-7.46 1.9-8.71.36-1.26 1.78-4.86 2.39-5.96.61-1.09 6.2-3.61 9.04 0s4.94 12.55 4.94 12.55z" fill="#8c5537" stroke-width="none" opacity="1" transform="translate(0 1)" stroke="none"></path><path id="SvgjsPath13416" d="M95.41 99.54c-2.42 4.09-3.81 8.9-4.62 13.56-.19 1.09-.85 3.07.4 3.8.94.55 2-.14 2.72-.74.17-.14-.05-.41-.23-.3-3.43 2.04-2.36-2.33-2.12-3.62.27-1.49.62-2.97 1.04-4.42.8-2.81 1.95-5.47 3.03-8.17.05-.14-.15-.22-.22-.11z" fill="#5e2709" stroke-width="none" opacity="1" transform="translate(0 1)" stroke="none"></path><path id="SvgjsPath13417" d="M92.73 114.39c1.98.45 3.69 1.11 5.06 2.68.69.78 1.27 1.84 2.39 2.05 3.17.6 3.33-4.52 6.24-4.77.33-.03.34-.5 0-.52-3.06-.15-4.19 6.6-7.29 3.72-.95-.88-1.57-1.93-2.72-2.62-1.11-.67-2.33-1.02-3.62-.95-.23 0-.3.35-.06.41z" fill="#5e2709" stroke-width="none" opacity="1" transform="translate(0 1)" stroke="none"></path><path id="SvgjsPath13418" d="M105.14 115.86c1.2-.21 3.1 1.16 4.14.01.81-.9.07-2.83-.15-3.8-.92-4.09-2.38-8.7-4.96-12.08-.18-.23-.52-.04-.39.23 1.44 3.25 3.1 6.25 4.15 9.69.23.77.45 1.54.63 2.32.1.45.2.89.29 1.34.52.92.27 1.44-.73 1.58-1.28.64-.86.17-2.02.17-.61 0-.53 0-1.06.28-.17.07-.05.28.1.26z" fill="#5e2709" stroke-width="none" opacity="1" transform="translate(0 1)" stroke="none"></path><path id="SvgjsPath13419" d="M97.56 106.48c2.43-1.42 4.5-.86 6.61.77.18.14.48-.03.34-.27-1.47-2.51-5.14-2.59-7.2-.83-.18.16.05.45.25.33z" fill="#5e2709" stroke-width="none" opacity="1" transform="translate(0 1)" stroke="none"></path><path id="SvgjsPath13420" d="M102.21 107.74c-1.68-.7-4.03-1.05-5.37.46-.23.26-.26.79.12.96 1.91.84 3.92.73 5.56 2.23.8.74 2.87 2.56 3.3.4.39-1.91-2.17-3.44-3.61-4.05z" fill="#945e41" stroke-width="none" opacity="1" transform="translate(0 1)" stroke="none"></path></g></g><g id="svga-group-hair-front" transform="matrix(1,0,0,1,0,0)"><path id="SvgjsPath13460" d="M62.9 41.7s-3.6 12.5-2.2 21.4c0 0 8.8-7.1 15.3-9.5s13.2.7 18.8 1.4c5.6.7 16.8.7 21.2-1s14.1 1 18 5.8 5.4 7.8 6.1 7.8-.9-20.7-.9-20.7l-2.5-5.2-3.1.7-2.2-3-3.4-.5c0-.2-1.8 0-2.1.3-.4.4-1.9-1.5-1.9-1.5l-1.6.4-1.1-1.5-1.9.5-1.9-2.1-1.4 1.4-2.3-1.2-2.2 1-1.9-2.5-1.8 1.6-2.5-1.8-1.7 1.3-2.4-1.4-2.9 1.9-1.4-3.1-1.6 3.1-2-2.6-2.2 1.7-3.2-1.7-1 2.9-1.7-2.1-1.3 2.6-2.5-2.4-1.6 2.8-2.4-1.6-1.5 2.3-1.7-2.2-1.2 1.9-1.7-1.2-1.2 2.3-1.9-.7-1.7 3.6-1.7-1-.2 1.9-1.8-.1z" fill="#4e4341" stroke-width="none" opacity="1" stroke="none"></path><path id="SvgjsPath13461" d="M60.6 62.7c.3-3.8.2-7.5.7-11.3.5-3.8 1.5-7.4 2.4-11.1.1-.6-.7-.8-.9-.2-2.6 6.7-4 15.6-2.8 22.7.1.4.6.3.6-.1zm1 .6c1.2-1.5 2.2-3.2 3.2-4.9.9-1.5 1.9-2.9 2.6-4.6.2-.5-.5-.8-.8-.5-1.2 1.3-2 2.9-2.9 4.4-1 1.7-2 3.3-2.9 5.1-.2.6.4 1 .8.5zm5.3-5.7c.9-1.2 1.8-2.5 2.6-3.7.7-1.1 1.6-2.2 2-3.5.1-.4-.4-.7-.7-.4-1 .9-1.6 2.2-2.3 3.4-.8 1.3-1.5 2.6-2.2 4-.1.2.3.5.6.2zm5.7-2.6c.8-1.1 1.5-2.2 2.1-3.4.4-.9 1-1.9.8-3-.1-.3-.4-.3-.6-.2-.8.7-1 1.9-1.4 2.8-.5 1.1-1 2.3-1.6 3.4-.2.5.4.8.7.4zm4.3-1.5c.3-.7.6-1.4.8-2.2.3-.7.6-1.3.6-2 0-.4-.6-.7-.8-.3-.5.6-.7 1.2-.9 1.9-.3.8-.5 1.5-.8 2.3-.2.7.8 1 1.1.3zm5-.1c2.8-3.6 5.3-8.8 4.7-13.5-.1-.4-.7-.4-.8 0-.6 2.1-.8 4.3-1.5 6.4-.7 2.3-1.8 4.5-3 6.6-.3.4.3.9.6.5zm5.3-.6c1.2-2.8 2.2-5.9 2.6-8.9.1-.4-.5-.8-.7-.3-1.3 2.8-2.1 6-2.6 9-.2.6.5.7.7.2zm-8.1-18.1c-.6 1.1-1.1 2.2-1.5 3.3-.4 1.1-1.2 2.3-1.2 3.5 0 .4.5.6.7.3.7-.8 1-2 1.4-3 .5-1.3.9-2.5 1.2-3.8.2-.4-.4-.7-.6-.3zm-2.7 1.4c-.3.9-.6 1.8-1 2.7-.3.7-.8 1.5-1 2.2-.1.5.5.8.8.5 1.3-1.2 1.8-3.6 2-5.2.1-.6-.7-.7-.8-.2zm-4.7 1.2c-1.3 2.2-2.8 4.5-3.6 6.9-.1.4.4.5.6.3 1.5-2.1 2.6-4.5 3.6-6.8.1-.4-.4-.8-.6-.4zm-4.8 2.4c-.8 1.6-2 3.3-2.5 5-.1.4.4.8.7.4 1.1-1.4 1.8-3.4 2.6-5 .3-.5-.5-1-.8-.4zm-4 .7c.2 1.4.2 2.8.7 4.1.2.4.7.4.8-.1.1-1.4-.3-2.8-.6-4.2-.1-.4-1-.3-.9.2zm66.3 15.2c.9 1.2 1.9 2.3 3 3.4.9 1 1.9 2.1 3 2.8.3.2.7-.2.5-.5-.7-1.2-1.7-2.2-2.7-3.2-1-1.1-2.1-2.2-3.2-3.2-.4-.3-.9.3-.6.7zm11.2 12c.8-6.6 1-14.6-.8-21.1-.1-.4-.7-.3-.7.1-.3 6.9.6 14.1.9 21 0 .4.5.4.6 0zm-2.6-7.4c-.1-4.2-.5-8.6-1.5-12.6-.1-.4-.8-.3-.8.1 0 4.2.7 8.6 1.6 12.6.1.4.7.3.7-.1zm-5.3-16.9c-.2.6-.2 1.3-.2 1.9s-.2 1.3 0 1.9c.1.5.8.5 1 0 .2-.6.2-1.3.2-1.9 0-.6.1-1.3-.1-1.9-.1-.5-.8-.4-.9 0zm-.9 3.4c-.3-1.9-.5-4-1.3-5.8-.1-.3-.7-.2-.7.2 0 1.9.8 4 1.3 5.8.1.4.8.2.7-.2zm-3.9-7.3c-.1 1.4-.4 3.2.1 4.6.1.4.7.4.8 0 .5-1.4.2-3.1.1-4.6 0-.7-1-.7-1 0zm-9.2-2.2c0 1.7-.2 3.6.4 5.2.1.3.6.4.7 0 .5-1.6.1-3.5 0-5.2 0-.7-1.1-.7-1.1 0zm-.8 3.5c-.4-1.7-.7-3.5-1.5-5.1-.2-.3-.6-.2-.6.2 0 1.8.6 3.5 1 5.3.2.6 1.3.3 1.1-.4zm-5.4-6.2c0 1.6 0 3.2.5 4.8.1.3.6.3.6 0 .4-1.6.2-3.1.1-4.8-.1-.7-1.2-.8-1.2 0zm-7 4c-.1-1.5-.1-3.3-.7-4.8-.2-.4-.7-.4-.8.1-.2 1.5.4 3.3.7 4.8.1.4.9.4.8-.1zm-2.3 0c0-.6 0-1.1-.1-1.7 0-.5 0-1-.2-1.5-.2-.4-.7-.2-.8.1-.2.5-.1 1 0 1.5s.1 1.1.2 1.6c0 .6.9.6.9 0zM97.7 53c.8-3.5 1.1-7.4-.3-10.8-.1-.3-.5-.3-.5.1-.1 3.6.4 7 .1 10.6 0 .5.6.6.7.1zm6.1.2c.1-2.4.4-4.9.1-7.2 0-.3-.6-.5-.7-.1-.4 2.4-.2 4.9-.2 7.3 0 .5.8.5.8 0zM94 54.7c.3-3 .5-5.9.6-8.9 0-.5-.7-.5-.8 0-.2 3-.3 5.9-.3 8.9.1.3.5.2.5 0zm15.1-1.1c.1-1 .4-2.3.1-3.3-.1-.4-.6-.3-.7 0-.4 1-.3 2.3-.3 3.3-.1.6.9.6.9 0zm3.5-.3c.1-.9.5-2 .3-2.9 0-.3-.4-.5-.6-.2-.4.8-.4 1.9-.6 2.8 0 .6.9.8.9.3zm8 1.4c.2-2.8.5-5.9.2-8.7-.1-.5-.8-.7-.9-.1-.5 2.9-.3 5.9-.3 8.8.1.6 1 .6 1 0zm4.5-.1c.2-1.5.7-3.1.6-4.6 0-.5-.7-.6-.8-.1-.5 1.4-.6 3-.8 4.4-.2.7.9 1 1 .3zM97.5 32.8c-.3.9-.4 1.9-.6 2.8-.1.8-.3 1.6-.2 2.3.1.4.7.4.8.1.4-.8.5-1.7.6-2.5.1-.9.3-1.7.4-2.6.1-.5-.8-.6-1-.1zm-2.3 1.6c-.3 1.2-.9 2.5-.9 3.7 0 .4.6.6.8.2.6-1.1.6-2.5.8-3.8 0-.4-.6-.6-.7-.1zm-3.4.8c-.3 1-.7 2.2-.8 3.3 0 .2.4.3.5.1.5-1 .7-2.2.9-3.2.1-.4-.5-.6-.6-.2zM87.6 34c-.2 2.1-.6 4.3-.3 6.4 0 .4.6.5.7.1.5-2.1.4-4.3.5-6.5 0-.5-.8-.5-.9 0zm-2.7 2.6c-.1 1.7-.7 3-1.4 4.5.2.1.5.2.7.3.4-1.2 0-3-.8-4-.2-.3-.6 0-.6.3.1.6.3 1.2.4 1.8.1.6.1 1.2.2 1.8.1.4.6.4.7.1 1-1.4 1.2-3.2 1.1-4.9 0-.1-.3-.1-.3.1zm-2.8-.7c-.2 1.5-.6 3-.4 4.5 0 .3.5.4.6.1.4-1.4.3-3.1.3-4.5-.1-.3-.5-.4-.5-.1zm25.5-1.1c.5 1.7.9 3.3 1.6 4.9.1.3.6.1.5-.2-.3-1.7-.9-3.3-1.4-4.9-.1-.5-.8-.3-.7.2zm-3.1 6.4c.5 2 .9 4.4 1.9 6.3.2.4.8.2.8-.2-.2-2.1-1.2-4.3-1.9-6.3-.2-.5-1-.3-.8.2zm3 1.3c.1 1.6.2 3.4.8 4.9.2.4.7.2.8-.2.1-1.5-.4-3.3-.8-4.8-.1-.4-.8-.3-.8.1zm16.3-5.2c-.2.9-.4 2-.1 3 .1.2.5.3.6.1.4-.9.3-2 .3-2.9 0-.5-.7-.7-.8-.2z" fill="#3f312e" stroke-width="none" opacity="1" stroke="none"></path><path id="SvgjsPath13462" d="M61.9 54.1c.1-3.5 1.4-6.7 1.3-10.2 0-.4-.5-.3-.6 0-.4 3.7-2.4 7.6-1.5 11.4.1.3.5.3.6.1.4-.6.3-.4.4-1.2.1-.2-.1-.2-.2-.1zm5-6.1c-.1.1-.1.2-.2.3-.1-1-.1-2.1-.2-3.1 0-.3-.5-.3-.5 0-.1 1.4 0 2.8 0 4.2 0 .3.5.6.7.3.3-.4.7-.9.8-1.5-.1-.3-.4-.5-.6-.2zm2.7-1.5c.1-.8-.1-1.7-.6-2.4-.2-.3-.6 0-.5.3.4.8.4 1.6.3 2.5-.1.3.3.7.6.4l.3-.3c.1-.3 0-.5-.1-.5zm7.1-9c-.7 2.8-1.8 5.8-1.8 8.6 0 .2.3.3.4.1 1.1-2.6 1.2-5.8 1.7-8.6.1-.2-.2-.3-.3-.1zm2.4 1.7c-.3 1.6-.8 3.3-1 4.9 0 .3.4.4.6.2.7-1.5.8-3.4 1-5 0-.4-.5-.5-.6-.1zm1.2 1c-.2.9-.6 2-.5 2.9 0 .3.4.3.5.1.2-.4.3-.9.3-1.3l.2-1.5c.3-.4-.4-.6-.5-.2zm8.1-3.3c-.2 2.5-.8 5-1 7.6 0 .3.5.4.6.1.8-2.4.9-5.1 1-7.7 0-.3-.5-.3-.6 0zm2.8 1c-.4 1.8-1 3.7-1.1 5.6 0 .4.6.5.7.1.6-1.7.8-3.7 1.1-5.5.2-.5-.6-.7-.7-.2zm2 1.1c0-.4-.7-.4-.7 0 0 .6-.1 1.4.1 2 .1.2.4.2.5 0 .2-.6.1-1.3.1-2zm7.4-2.3c-.2 1.4-.4 2.8-.3 4.2 0 .2.3.3.4 0 .4-1.4.4-2.9.6-4.3-.1-.3-.6-.3-.7.1zm2.4 1.2c-.1 1-.4 2-.4 3 0 .2.2.2.3 0 .3-.9.3-2 .5-2.9 0-.2-.4-.3-.4-.1zm1.6.1c-.3.5-.5 1.5.2 1.8.1 0 .3 0 .3-.1.1-.5-.1-.9.2-1.4.1-.3-.5-.7-.7-.3zm1.5.4c0 .4 0 .9.1 1.3 0 .1.2.1.3 0 .1-.4.1-.9.1-1.3 0-.3-.5-.3-.5 0zm7.7 1.1c0-.3-.5-.4-.5-.1-.3 2.3-.8 5.1-.2 7.3.1.3.5.3.6 0 .2-1.1 0-2.3 0-3.4 0-1.3.1-2.6.1-3.8zm2.4.6c-.2 1.7-.8 3.8-.5 5.5.1.3.5.2.5 0 .3-.8.3-1.8.3-2.6.1-1 .1-2 .2-3 .2-.3-.4-.3-.5.1zm3.4 1.3v-1.9c0-.5-.7-.4-.7 0-.1 1.2-.3 2.8.2 4 .1.3.5.1.5-.1.1-.8 0-1.4 0-2zm2.5-.1c-.1-.5-.1-1-.2-1.5-.1-.4-.7-.4-.7 0 .1.5.1 1.1.2 1.6.1.4.1.9.3 1.3.1.2.3.1.4 0 .1-.5 0-.9 0-1.4zm1.5-.8c0-.4-.7-.4-.7 0 0 .8-.1 1.6.1 2.4.1.2.4.2.4 0 .3-.8.2-1.6.2-2.4zm2.5 2.8c-.2-.3-.7-.1-.6.2.8 2.3 1 4.6 1.7 7 .1.3.5.2.6-.1.1-2.4-.8-4.9-1.7-7.1zm3.7 1.6c0-.5-.8-.5-.7 0 .1 1.7 0 3.5.4 5.2.1.4.6.3.7-.1.1-1.6-.3-3.4-.4-5.1zm2.7.3c0-.5-.8-.5-.8 0 .1 1.7 0 3.7.4 5.4.1.4.6.3.7-.1.1-1.8-.2-3.6-.3-5.3zm1.4 1.8c-.1-.3-.7-.3-.6.1.2 2.2.3 4.5 1 6.7.1.4.7.3.7-.1-.1-2.3-.7-4.6-1.1-6.7zm4 2c-.1-.4-.8-.3-.7.2.7 2.2.8 4.5 1.3 6.8.1.4.6.3.6-.1.2-2.2-.5-4.7-1.2-6.9z" fill="#5d5857" stroke-width="none" opacity="1" stroke="none"></path></g><g id="svga-group-glasses-single-move" transform="matrix(1,0,0,1,0,0)"><g id="svga-group-glasses-single" transform="matrix(1,0,0,1,0,0)"></g></g></g></g></g><rect id="svga-credit-rect" width="200" height="15" x="0" y="185" fill="#ecf0f1" opacity="0.5" style="display: none;"></rect><text id="svga-credit-text" font-family="Avenir Next, Roboto, Helvetica, Arial, sans-serif" font-size="10px" text-anchor="start" font-weight="400" size="10px" anchor="start" weight="400" fill="#333333" x="33.40447998046875" y="182.60824704170227" style="display: none;"><tspan id="SvgjsTspan12771" dy="13" x="33.40447998046875">Created on AvatarMaker.com</tspan></text></g></svg>