<svg xmlns="http://www.w3.org/2000/svg" version="1.1" width="600px" height="600px" viewBox="0 0 200 200" style="overflow:hidden!important;"><defs id="SvgjsDefs32256"></defs><g id="svga-group-wrapper"><g id="svga-group-backs-single"><path id="SvgjsPath32943" d="M0 0h200v200H0V0z" fill="#e5fcc2" stroke-width="none" opacity="1"></path><path id="SvgjsPath32944" d="M0 0v10.1L76.5 100 0 0zm0 34.1V50l76.5 58.3L0 34.1zm0 37.1v13.6l76.5 33.4L0 71.2zM38.3 0H21.1l67.2 108.3L38.3 0zm36.3 0H61l27.2 90L74.6 0zM0 108.3v9.9l76.5 9.9L0 108.3zM0 144v13.6l76.5-22.1L0 144zm0 35.7V200l88.3-64.5L0 179.7zM38.3 200h16.4l26.5-42.4L38.3 200zm85.2-100L200 10.1V0l-76.5 100zM200 50V34.1l-76.5 74.2L200 50zm0 34.8V71.2l-76.5 47L200 84.8zM178.9 0h-17.2l-50 108.3L178.9 0zM139 0h-13.6l-13.6 90L139 0zm61 118.2v-9.9L123.5 128l76.5-9.8zm0 39.4V144l-76.5-8.5 76.5 22.1zm0 42.4v-20.3l-88.3-44.2L200 200zm-54.7 0h16.4l-43-42.4 26.6 42.4zM111.7 0H88.3L100 100 111.7 0zM76.5 200h11.7l6.4-58.5L76.5 200zm35.2 0h11.7l-18.2-58.5 6.5 58.5zm-17 0h10.6l-5.3-42.4-5.3 42.4z" fill="#ceed9f" stroke-width="none" opacity="1"></path></g><g id="svga-group-humanwrap-move" transform="matrix(1,0,0,1,0,0)"><g id="svga-group-humanwrap" transform="matrix(1,0,0,1,0,0)"><g id="svga-group-hair-back-move" transform="matrix(1,0,0,1,0,0)"><g id="svga-group-hair-back" transform="matrix(1,0,0,1,0,0)"></g></g><g id="svga-group-humanbody-back"><path id="SvgjsPath32657" d="M166.5 181.1c-10.9-6.6-27.6-8.4-35-12.1-4.9-2.5-9.1-4.7-8.9-17.8s1.9-42.4 1.9-42.4H75.4s1.6 29.4 1.9 42.4-4.2 15.6-8.9 17.8c-7.4 3.5-24.1 5.4-35 12.1-10.8 6.6-10 18.9-10 18.9v19.7h153.3V200c-.1 0 .7-12.3-10.2-18.9z" fill="#8c5537" stroke-width="none" opacity="1" stroke="none"></path></g><g id="svga-group-chinshadow-single"><path id="SvgjsPath32911" d="M124.5 108.9H75.4c.1 1.8 1.6 29.7 1.9 42.3.1 2.2 0 4.2-.2 5.8 1.2.2 2.3.4 3.4.6C88 159 88 165 99.9 165s12.1-6 19.5-7.4c1.1-.2 2.3-.4 3.5-.6-.2-1.7-.3-3.6-.3-5.8.2-12.7 1.8-40.5 1.9-42.3z" fill="#6d3415" stroke-width="none" opacity="0.65" stroke="none"></path></g><g id="svga-group-humanbody-front"><path id="SvgjsPath32658" d="M78.7 156.8c.5 4.8 1.7 9.4 3.1 13.9.8 2.3 1.6 4.6 2.6 6.9.8 2 1.7 4.2 3.1 5.9.3.4 1 0 .9-.5-.5-2.2-1.6-4.3-2.4-6.4-.9-2.2-1.7-4.4-2.5-6.6-1.5-4.4-2.8-8.9-4.1-13.3-.2-.4-.8-.3-.7.1zm41.3-1c-1.3 8.2-3.9 16.1-5.4 24.2-.1.4.4.5.6.2 3.1-7.7 4.1-16.1 5.1-24.3-.1-.2-.3-.2-.3-.1zm-25.8 11.9c-.9 3.6 1.9 8.6 6.2 7.6.5-.1.4-.8 0-1-1.4-.5-2.9-.9-3.9-2.1-1.1-1.2-1.5-2.9-1.4-4.5 0-.4-.8-.5-.9 0z" fill="#6d3415" stroke-width="none" opacity="1" stroke="none"></path><path id="SvgjsPath32659" d="M177.3 219.7c-.1-6.6-.3-13.1-.3-19.7l-.3-.3c.1 0 .1 0 .2.1s.1.2.1.1v-1.4c0-.5-.1-.9-.1-1.4-.1-.9-.3-1.9-.5-2.8-.5-1.8-1.1-3.6-2-5.3-1.7-3.4-4.4-6.2-7.7-8.1-3.6-2.2-7.6-3.8-11.6-5.1-4-1.3-8.1-2.4-12.1-3.5-4-1.2-8.1-2.2-11.8-4.2-1.9-1-3.6-2.1-4.8-3.6-1.2-1.6-1.9-3.5-2.3-5.5-.8-4-.4-8.2-.3-12.4l.7-12.6 1.5-25.2.1-1.4h-1.4c-8.2 0-16.4 0-24.6.1l-24.6.3h-.9l.1.9c.8 11.9 1.6 23.8 2.1 35.7.1 3 .3 6 .2 8.9-.1 2.9-.4 5.9-1.6 8.6-.6 1.3-1.4 2.5-2.4 3.5s-2.3 1.8-3.6 2.4c-2.6 1.3-5.4 2.2-8.3 3-5.8 1.5-11.6 2.8-17.3 4.7-2.8.9-5.7 2-8.4 3.4-1.3.7-2.7 1.4-4 2.4-1.3.9-2.4 1.9-3.5 3.1-2.1 2.3-3.6 5.2-4.5 8.1-.5 1.5-.8 3-1 4.6-.1.8-.1 1.6-.1 2.4v2.3l-.2 17.9v1.3h1.4l38.3.2c12.8.1 25.5.1 38.3 0 12.8-.1 25.6-.1 38.3-.3 12.8-.2 25.6-.5 38.3-.7h.6v-.5zm-77.2-1.6H61.8l-37 .2-.1-16.6v-2.2c0-.7 0-1.4.1-2.1.1-1.4.4-2.8.8-4.2.8-2.7 2.1-5.3 3.9-7.5.9-1.1 2-2.1 3.1-2.9 1.1-.9 2.4-1.6 3.7-2.3 2.6-1.4 5.3-2.5 8.1-3.5 5.6-2 11.4-3.4 17.1-5.1 2.9-.8 5.8-1.7 8.5-3.1 1.3-.7 2.7-1.5 3.8-2.6 1.1-1.1 2-2.4 2.6-3.9 1.2-2.9 1.5-5.9 1.6-8.9 0-3-.1-6-.2-9l-1.3-34.8 23.5.4c7.7.1 15.4.1 23.1.1-.4 7.9-.8 15.9-1.1 23.8-.2 4.2-.2 8.4-.3 12.6 0 4.2-.2 8.5.8 12.8.5 2.1 1.3 4.2 2.8 6 1.4 1.7 3.4 2.9 5.3 3.8 3.9 1.9 8 2.8 12.1 3.8s8.2 2 12.2 3.3c4 1.3 7.9 2.8 11.5 5 3.2 1.9 5.8 4.7 7.5 8 .9 1.6 1.5 3.4 1.9 5.2.2.9.4 1.8.4 2.7.1.5.1.9.1 1.4V200l-.3 19c-12.6-.2-25.1-.5-37.7-.7-12.7-.1-25.5-.1-38.2-.2z" fill="#5e2709" stroke-width="none" opacity="1" stroke="none"></path></g><g id="svga-group-clothes-single"><path id="SvgjsPath32799" d="M179.3 220.1c0-17.5-1.6-26.7-1.6-26.7-3.2-15.2-21.5-18.1-30.1-20.5-2.8-.8-7.9-2.4-7.9-2.4-4.8 5.3-10.2 17.8-16.2 23.3-7.5 7-14.9 13-21.8 18.1-6.4-4-13.8-9.3-21.4-16.1-7.7-6.9-13.9-20.7-18.6-26.7-3.1.5-6.3 1.8-10 2.6-8.7 1.9-26.5 7.6-29.5 21.6 0 0-1.6 9.2-1.6 26.7h158.7z" fill="#ededed" stroke-width="none" opacity="1"></path><path id="SvgjsPath32800" d="m72.9 159.9.7-8.2-14.3 9-9.1 6.8 2.1 1-27.1 9.9-3.3.8-5 19.8v20.9h59.9L72 175.8l.9-15.9zm105.2 19.5-3.3-.8-27.1-9.9 2.1-1-9.1-6.8-13.8-9.3.2 8.5.8 16.1-4.8 44.1H183v-20.9l-4.9-20z" fill="#1d282e" stroke-width="none" opacity="1"></path><path id="SvgjsPath32801" d="M148.5 181.7c-2-1.7-4-3.5-6-5.2l-5.9-5.3c-2-1.7-4-3.5-6-5.3 1.7 2 3.6 3.9 5.4 5.9 1.8 1.9 3.7 3.8 5.6 5.7 1.9 1.9 3.8 3.7 5.8 5.5 1.6 1.5 3.3 3 5.1 4.4-2.3 1.6-4.6 3.3-6.8 5-2.6 2-5.1 4-7.6 6.2-1.2 1.1-2.4 2.2-3.5 3.6-.3.3-.5.9-.6 1.3l-.4 1.1-.8 2.3c-1.1 3.1-2.1 6.1-3.1 9.2 1.4-2.9 2.8-5.9 4.1-8.8l1-2.2.5-1.1c.2-.4.3-.6.5-.9.9-1.1 2.2-2.2 3.4-3.2 2.5-2.1 5.1-3.9 7.6-5.9l7.8-5.7.2-.2c.3-.4.2-1.1-.2-1.4-2-1.6-4.1-3.3-6.1-5zm11.6-6.8c-3.6-1.2-7.3-2.3-11-3.2 3.5 1.6 7.1 2.9 10.7 4.1 3.6 1.2 7.3 2.3 11 3.2-3.5-1.6-7-2.9-10.7-4.1zm12.6 7.8c-1 .7-2.1 1.4-2.7 2.8-1.1 2.3-1.7 4.6-2.4 6.9-.6 2.3-1.1 4.7-1.5 7.1-.4 2.4-.7 4.8-.6 7.2.7-2.3 1.5-4.6 2.1-6.9.7-2.3 1.3-4.6 1.9-6.9l.9-3.5c.3-1.1.6-2.3 1-3.4.2-1 1.1-1.8 1.9-2.6.8-.8 1.8-1.5 2.8-2.2-1.2.3-2.3.8-3.4 1.5zm-36.1-22 4.6 3.1c1.4 1 2.8 1.9 4 3.1-.6.4-1.3.7-1.9 1.1-.8.4-1.5.9-2.2 1.3.8-.3 1.6-.7 2.4-1 .8-.3 1.6-.7 2.4-1.1h.1c.1-.1.1-.3 0-.4-1.2-1.5-2.7-2.6-4.2-3.7s-3-2.1-4.6-3.2c-3.1-2.1-6.2-4-9.1-6.3 1.2 1.4 2.6 2.6 4.1 3.8 1.4 1.2 2.9 2.2 4.4 3.3zM72 190.8l-.9-6.3-.9-6.3c-.1-.9 0-2 .1-3.1l.3-3.2c.2-2.1.4-4.2.5-6.4-.6 2.1-1 4.2-1.4 6.2l-.6 3.2c-.2 1.1-.4 2.1-.3 3.3.3 4.4.8 8.5 1.3 12.8.6 4.2 1.2 8.4 1.9 12.6.7 4.2 1.5 8.4 2.5 12.6-.2-4.3-.5-8.5-.9-12.8-.5-4.2-1.1-8.4-1.6-12.6z" fill="#2d373d" stroke-width="none" opacity="1"></path><path id="SvgjsPath32802" d="M183.4 199.2c0-.1 0-.1 0 0-.8-3.4-1.5-6.7-2.3-10.1l-2.3-10c-.1-.3-.3-.5-.5-.5l-3.2-.9c-4.5-1.7-9-3.4-13.5-5-3.9-1.4-7.9-2.9-11.9-4.2l.4-.2c.4-.2.5-.6.3-1-.1-.1-.1-.2-.2-.3l-5.7-4.1c-1.9-1.4-3.8-2.8-5.8-4-2-1.3-4.1-2.5-6.1-3.8l-5.8-3.7c-1.1-.4-3.3-1-3.3-1s-.3 2.1-.2 4.6c.2 2.6.5 5.7 1.8 8.1.9 1.6 1.4 2.1 1.7 2.2l.3 10.7-1.7 13.7c-.9 1.1-1.8 2.2-2.8 3.2-6.7 6.3-13.7 12.4-21.1 18-4-2.5-7.9-5.1-11.7-7.9-2-1.5-3.9-3-5.8-4.6s-3.8-3.1-5.5-4.9c-1.6-1.7-3-3.5-4.3-5.4L72.8 176l.3-10.7c.2-.2.9-.8 1.6-1.9.9-1.5 2.4-4.5 2.6-6.9.2-2.3.3-5.4.3-6.2 0 0-3.4.5-4.5 1l-5.8 3.7c-2 1.2-4 2.5-6.1 3.8s-3.9 2.7-5.8 4l-5.7 4.1c-.1.1-.2.2-.2.3-.2.4 0 .8.3 1l.4.2c-4 1.4-7.9 2.8-11.9 4.2-4.5 1.6-9 3.3-13.5 5l-3.2.9c-.2.1-.5.3-.5.5l-2.3 10c-.8 3.3-1.5 6.6-2.3 10v.1c0 3.5.1 7 .1 10.5l-.1 10.5c0 .2.2 2.1.4 2.1l166.1-.6c.2 0 .4-1.3.4-1.5l-.1-10.5c.1-3.4.1-6.9.1-10.4zM17.3 219.7l-.1-10.1c0-3.5 0-6.9.1-10.4.9-3.3 1.8-6.6 2.6-9.8l2.5-9.4 2.3-.5c1.4.9 2.8 1.9 4.1 2.9.4.3.7.6 1 .9.2.2.2.3.3.4l.3.6c.3.8.7 1.7 1 2.6.6 1.8 1.1 3.6 1.6 5.4l1.5 5.4.7 2.7c.2.9.4 1.8.5 2.7.3 1.8.6 3.7.9 5.6.5 3.6 1.1 7.2 1.8 10.8l-21.1.2zm29.6-.4-8.2.1c0-3.6-.1-7.3-.3-10.9-.1-1.9-.3-3.8-.5-5.7-.1-.9-.3-2-.5-2.9l-.7-2.8c-1-3.7-2.2-7.3-3.6-10.8-.4-.9-.8-1.8-1.3-2.6l-.4-.6c-.2-.2-.4-.5-.6-.6-.4-.3-.8-.6-1.2-.8-1.4-.8-2.9-1.5-4.4-2.1l.4-.1h.1c4.5-1.6 9.1-3.2 13.6-4.9s9-3.3 13.5-5.1c.2-.1.3-.2.4-.3.8.3 1.6.5 2.4.8 1.5.5 2.9.9 4.4 1.4-1.5 1.3-3 2.6-4.6 3.9l-7 6.1c-1.2 1-2.3 2.1-3.5 3L41 187l-.2.2c-.3.4-.2 1.1.2 1.4l17.7 13.3c.7.6 1.5 1.1 2.2 1.7l.3.2.1.1.2.2.2.3.7 1.2 2.8 4.8c1.7 2.9 3.4 5.8 5.1 8.6-7.9.1-15.6.2-23.4.3zm23.4-.2c-1.4-3.1-2.9-6.1-4.3-9.1l-2.5-5-.6-1.2-.2-.3c0-.1-.1-.2-.2-.4-.1-.1-.2-.3-.3-.4l-.3-.2-2.1-1.8c-2.9-2.4-5.8-4.6-8.7-6.9-2.6-2-5.2-4-7.8-5.9l2.7-2c1.3-1 2.3-2.1 3.5-3.1 2.3-2.1 4.5-4.2 6.8-6.4 2.2-2.1 4.5-4.3 6.7-6.5s4.4-4.4 6.5-6.6c-2.4 1.9-4.8 4-7.1 6-.8.7-1.6 1.4-2.3 2-.6-.4-1.2-.7-1.8-1-.8-.4-1.6-.8-2.4-1.1-1-.4-2.1-.8-3.1-1.1l-.9-.4 4.5-3.5c1.8-1.4 3.7-2.9 5.5-4.1 1.8-1.3 3.7-2.7 5.6-4l5.8-4.1c-.1 2.1-.3 4.1-.4 6.1-.1 1.9-.3 4-.4 6.1L71.4 176v.1l2.1 22.1c.7 7 1.4 13.9 2.2 20.9h-5.4zm29.1-.3c-7.2-.1-14.4-.1-21.7-.1-.7-6.9-1.5-13.8-2.3-20.6l-1-7.9c1 1.4 2.2 2.8 3.3 4.1 1.7 1.9 3.6 3.5 5.5 5.1s3.8 3.2 5.8 4.7c3.9 3.1 8 6 12.1 8.7.3.2.7.2 1 0 7.7-5.6 15.2-11.5 22.2-17.9.2-.1.3-.3.5-.5l-.4 3.7c-.8 7-1.6 14.1-2.3 21.1l-22.7-.4zm24.9.2c.8-6.9 1.5-13.9 2.2-20.9l2.1-22.1v-.1l-.9-12.3c-.2-2.1-.3-4.1-.4-6.1s-.3-4-.4-6.1l5.8 4.1c1.9 1.4 3.7 2.7 5.6 4 1.9 1.2 3.7 2.7 5.5 4.1l4.6 3.5-.9.4c-1 .4-2.1.7-3.1 1.1-.8.3-1.6.7-2.4 1.1-.6.3-1.2.6-1.8 1-.8-.7-1.6-1.4-2.3-2-2.4-2-4.7-4-7.1-6 2.1 2.2 4.4 4.4 6.5 6.6 2.2 2.2 4.4 4.4 6.7 6.5 2.2 2.1 4.5 4.3 6.8 6.4 1.2 1.1 2.2 2.1 3.5 3.1l2.7 2c-2.6 1.9-5.2 3.9-7.8 5.9-2.9 2.3-5.8 4.5-8.7 6.9l-2.1 1.8-.3.2c-.1.1-.2.3-.4.4-.1.2-.2.3-.2.4l-.2.3-.6 1.2-2.4 5c-1.4 3-2.9 6.1-4.3 9.1-2.1.6-3.9.6-5.7.5zm28.8.3c-7.8-.1-15.5-.1-23.2-.2 1.7-2.9 3.4-5.7 5.1-8.6l2.8-4.8.7-1.2.2-.3c.1-.1.1-.2.2-.2s.1 0 .1-.1l.3-.2c.7-.6 1.4-1.1 2.1-1.7l17.7-13.3c.4-.3.5-.9.2-1.4l-.2-.2-3.7-2.8c-1.1-.9-2.3-2-3.5-3l-7-6.1c-1.5-1.3-3-2.6-4.6-3.9 1.5-.5 2.9-.9 4.4-1.4.8-.2 1.6-.5 2.4-.8.1.1.2.3.4.3l13.5 5.1c4.5 1.7 9 3.3 13.6 4.9h.1l.4.1c-1.5.6-2.9 1.3-4.4 2.1-.4.2-.8.5-1.2.8-.2.1-.4.4-.6.6l-.4.6c-.5.9-.9 1.8-1.3 2.6-1.5 3.5-2.6 7.2-3.6 10.8l-.7 2.8c-.2.9-.4 1.9-.5 2.9-.2 1.9-.4 3.8-.5 5.7-.3 3.6-.4 7.3-.4 10.9h-8.4zm29.6.4-21.3-.3c.7-3.6 1.3-7.2 1.8-10.8.3-1.9.5-3.7.9-5.6.2-.9.3-1.8.6-2.7l.7-2.7 1.5-5.4c.5-1.8 1.1-3.6 1.6-5.4.3-.9.6-1.8 1-2.6l.3-.6c.1-.1.1-.3.3-.4.3-.3.7-.6 1-.9 1.3-1 2.7-1.9 4.1-2.9l2.3.5 2.6 9.4c.9 3.3 1.8 6.6 2.6 9.8.1 3.5.1 6.9.1 10.4l-.1 10.2z" fill="#070c0f" stroke-width="none" opacity="1"></path></g><g id="svga-group-head" transform="matrix(1,0,0,1,0,0)"><g id="svga-group-ears-left-move" transform="matrix(1,0,0,1,0,0)"><g id="svga-group-ears-left" transform="matrix(1,0,0,1,0,0)"><path id="SvgjsPath32818" d="M60.8 95.5s-3.2-5.5-5-8c-1.8-2.4-4.1-5-4.9-.8s-.9 12.5.3 18.1 6.2 11.3 8.3 11.3c2.2 0 3.6-8.4 3.6-11.4 0-2.8-1.1-7.1-2.3-9.2z" fill="#8c5537" stroke-width="none" opacity="1" stroke="none"></path><path id="SvgjsPath32819" d="M62.6 94.8c.3.8-.2 4.4 0 5.3.4 1.6.8 3.3.9 5 0 1.7-.1 3.3-.4 4.8-.3 1.5-.6 3-1.1 4.3-.3.7-.6 1.3-1 1.9-.2.3-.4.5-.7.7-.2.1-.3.1-.5.1s-.3 0-.5-.1c-.6-.2-1.2-.5-1.7-.9-.3-.2-.5-.5-.8-.7l-.8-.8c-1-1.1-1.9-2.3-2.7-3.7-.8-1.4-1.5-2.9-2-4.6-.1-.4-.2-.8-.3-1.3-.1-.4-.2-.8-.2-1.3-.1-.8-.2-1.7-.3-2.5-.2-1.7-.3-3.3-.3-4.9-.1-3.3-.1-6.5.4-9.6.2-.8.3-1.6.8-2.2l.2-.2c.1-.1.1-.1.2-.1.1-.1.3-.1.5-.2.2 0 5.7.6 6.5 1.9.7 1.5 3.5 8.3 3.8 9.1zM55.8 88c-.9-1.1-1.8-2.2-2.7-2.7-.5-.2-.8-.2-1.1.2-.3.4-.5 1-.6 1.6-.3 1.4-.5 2.9-.6 4.4s-.2 3.1-.2 4.7.1 3.2.3 4.9c.1.8.2 1.6.4 2.4l.3 1.2c.1.4.2.8.3 1.1.5 1.5 1.2 2.9 2 4.1s1.7 2.4 2.6 3.3c.9.9 1.9 1.8 2.8 2 .8.3 1.4-.9 1.9-2.1s.8-2.6 1.1-4 .6-2.9.6-4.4-.2-3.2-.5-4.8c-.3-1.6-.8-3.2-1.6-4.6-1.6-2.4-3.3-5-5-7.3z" fill="#7d4425" stroke-width="none" opacity="1" stroke="none"></path><path id="SvgjsPath32820" d="M53.7 91.4c1.6 1.3 3.1 3.5 3.8 6.1 0 .2-.1.2-.2.1 0 0 0-.1-.1-.1-.5-.5-1-1.1-1.5-1.1-.8.1-.7 1.6-.4 2.7.4 1.6 1.1 3 1.8 4.4.1.2 0 .3-.1.2-1-1.5-2.7-4.8-2.4-6.9.2-1.9 1.5-1 2.3-.1-.6-1.3-1.3-2.6-2.1-3.6-1.1-1.3-3.4-3.3-3.8-.7 0 .2-.2.1-.2-.1-.2-2.5 1.8-1.7 2.9-.9z" fill="#6d3415" stroke-width="none" opacity="1" stroke="none"></path><path id="SvgjsPath32821" d="M57.8 106.7c1 2.6-.6 3.3-1.7 2.2-1.8-1.7-3.1-5.6-3.4-8.8 0-.2.2-.2.2 0 .3 1.8.7 3.5 1.4 5.1.4 1 .9 2 1.5 2.7.4.5.8.9 1.2 1 .9-.1 1.2-.8.8-2.2-.1 0 0-.1 0 0z" fill="#6d3415" stroke-width="none" opacity="1" stroke="none"></path></g></g><g id="svga-group-ears-right-move" transform="matrix(1,0,0,1,0,0)"><g id="svga-group-ears-right" transform="matrix(1,0,0,1,0,0)"><path id="SvgjsPath32822" d="M139.2 95.5s3.2-5.5 5-8c1.8-2.4 4.1-5 4.9-.8s.9 12.5-.3 18.1-6.2 11.3-8.3 11.3c-2.2 0-3.6-8.4-3.6-11.4s1.1-7.1 2.3-9.2z" fill="#8c5537" stroke-width="none" opacity="1" stroke="none"></path><path id="SvgjsPath32823" d="M141.3 85.8c.8-1.4 6.3-2 6.5-1.9.2 0 .3.1.5.2.1 0 .1.1.2.1l.2.2c.5.6.7 1.4.8 2.2.5 3.1.5 6.4.4 9.6-.1 1.6-.2 3.3-.3 4.9-.1.8-.2 1.7-.3 2.5-.1.4-.1.8-.2 1.3-.1.4-.2.8-.3 1.3-.5 1.7-1.2 3.2-2 4.6s-1.7 2.6-2.7 3.7c-.2.3-.5.5-.8.8-.3.2-.5.5-.8.7-.5.4-1.1.8-1.7.9-.2 0-.3.1-.5.1s-.3-.1-.5-.1c-.3-.2-.5-.4-.7-.7-.4-.5-.7-1.2-1-1.9-.5-1.4-.9-2.8-1.1-4.3-.3-1.5-.4-3.1-.4-4.8.1-1.7.4-3.4.9-5 .2-.8-.3-4.5 0-5.3.2-.9 3-7.7 3.8-9.1zm-2.1 9.7c-.7 1.4-1.2 3-1.6 4.6-.3 1.6-.5 3.3-.5 4.8.1 1.5.4 3 .6 4.4.3 1.4.6 2.8 1.1 4s1.1 2.3 1.9 2.1c.9-.2 1.9-1 2.8-2 .9-1 1.8-2.1 2.6-3.3.8-1.3 1.5-2.6 2-4.1.1-.4.2-.8.3-1.1l.3-1.2c.2-.8.3-1.6.4-2.4.2-1.6.3-3.3.3-4.9s0-3.2-.2-4.7c-.1-1.5-.3-3.1-.6-4.4-.2-.7-.4-1.3-.6-1.6-.3-.3-.7-.4-1.1-.2-.9.5-1.8 1.6-2.7 2.7-1.7 2.1-3.4 4.7-5 7.3z" fill="#7d4425" stroke-width="none" opacity="1" stroke="none"></path><path id="SvgjsPath32824" d="M146.3 91.4c-1.6 1.3-3.1 3.5-3.8 6.1 0 .2.1.2.2.1 0 0 0-.1.1-.1.5-.5 1-1.1 1.5-1.1.8.1.7 1.6.4 2.7-.4 1.6-1.1 3-1.8 4.4-.1.2 0 .3.1.2 1-1.5 2.7-4.8 2.4-6.9-.2-1.9-1.5-1-2.3-.1.6-1.3 1.3-2.6 2.1-3.6 1.1-1.3 3.4-3.3 3.8-.7 0 .2.2.1.2-.1.2-2.5-1.8-1.7-2.9-.9z" fill="#6d3415" stroke-width="none" opacity="1" stroke="none"></path><path id="SvgjsPath32825" d="M142.2 106.7c-1 2.6.6 3.3 1.7 2.2 1.8-1.7 3.1-5.6 3.4-8.8 0-.2-.2-.2-.2 0-.3 1.8-.7 3.5-1.4 5.1-.4 1-.9 2-1.5 2.7-.4.5-.8.9-1.2 1-.9-.1-1.2-.8-.8-2.2.1 0 0-.1 0 0z" fill="#6d3415" stroke-width="none" opacity="1" stroke="none"></path></g></g><g id="svga-group-faceshape-wrap" transform="matrix(1,0,0,1,0,0)"><g id="svga-group-faceshape-single"><path id="SvgjsPath32900" d="M143.7 94.7c-.4-6.1-.5-11.5-.5-12.7v-.3c-1.3-29.9-20.7-46.4-43.2-46.4S58.1 51.7 56.8 81.7v.3c0 1.2-.1 6.6-.5 12.7-.6 7.8-1.9 11.7-1.6 21.7.3 8.4 3.8 17.8 9.2 21.9 6.3 4.8 12.3 5 17.7 6 7.5 1.4 6.5 7.4 18.4 7.4s11-6 18.4-7.4c5.3-1 11.4-1.3 17.7-6 5.4-4.1 9-13.5 9.2-21.9.3-10-1-13.9-1.6-21.7z" fill="#8c5537" stroke-width="none" opacity="1" stroke="none"></path><path id="SvgjsPath32901" d="M143.7 94.7c-.4-6.1-.5-11.5-.5-12.7v-.3c-1.3-29.9-20.7-46.4-43.2-46.4S58.1 51.7 56.8 81.7v.3c0 1.2-.1 6.6-.5 12.7-.6 7.8-1.9 11.7-1.6 21.7.3 8.4 3.8 17.8 9.2 21.9 6.3 4.8 12.3 5 17.7 6 7.5 1.4 6.5 7.4 18.4 7.4s11-6 18.4-7.4c5.3-1 11.4-1.3 17.7-6 5.4-4.1 9-13.5 9.2-21.9.3-10-1-13.9-1.6-21.7zm.7 20.6c-.1 1.7-.4 5.6-1.9 10.3-1.2 3.2-3 7.1-5.3 9.4-1.1 1.1-2.4 2-3.9 2.8-1.4.8-2.9 1.5-4.5 2-3.1 1-6.4 1.4-10 1.9-.9.1-1.6.3-2.6.6s-1.6.8-2.5 1.3c-1.8 1-2.8 2.1-4.1 2.9s-2.6 1.4-4.1 1.8c-1.5.4-3 .6-4.6.6-3.3.1-6.4-.3-9-1.6-1.3-.7-2.5-1.6-4.1-2.8-1.5-1.1-2.5-2.2-4.6-2.6-1.1-.3-2-.4-2.8-.5l-2.6-.4c-1.7-.3-3.3-.6-4.9-1s-3-1-4.4-1.7l-2.1-1.2-1-.7-.9-.7c-2.3-2-4.1-5.8-5.3-8.8-1.3-3-2.1-6.3-2.4-9.6-.2-1.6-.2-3.4-.2-5.1s.1-3.4.3-5.1c.4-3.4.4-6.3.7-9.9.2-1.8 0-4.2 0-6l.1-5.3c0-1.8 0-3.6.1-5.3L58 78c.1-.9.1-1.7.2-2.6.8-6.9 2.9-13.7 6.5-19.6 1.7-3 4-5.6 6.4-8.1l2-1.7 1-.8c.3-.3.7-.5 1.1-.7l2.1-1.4c.7-.4 1.5-.8 2.2-1.2 6-3.3 12.8-4.6 19.5-4.6 6.7-.1 13.4 1.6 19.4 4.5 5.9 3 11.2 7.5 15.2 13 3.9 5.5 6.7 12.1 8.1 18.9l.5 2.6.3 2.6.3 2.6.1 2.9c.2 3.5.1 6.4.1 9.9.2 3.5.4 7.4 1 10.9s.7 6.6.4 10.1z" fill="#5e2709" stroke-width="none" opacity="1" stroke="none"></path></g></g><g id="svga-group-mouth-single-move" transform="matrix(1,0,0,1,0,0)"><g id="svga-group-mouth-single" transform="matrix(1,0,0,1,0,0)"><path id="SvgjsPath32973" d="M89.73 129.12s.31-3.11 3.02-5.12c2.71-2.01 7.32-2.26 10.43-1.66 3.35.65 6.62 3.92 6.81 7.28 0 0-.32.42-1.08.1-.96-.4-4.39-1.93-6.06-2.1-1.68-.17-5.23-.21-7.9.63-2.67.85-5.22.87-5.22.87z" fill="#e66638" stroke-width="none" opacity="1" transform="translate(0 2)" stroke="none"></path><path id="SvgjsPath32974" d="M91.35 132.82c3.01 2.67 6.83 2.97 8.66 2.95 2.94-.01 6.01-.93 8.12-2.96.48-.51.91-1.24.76-1.05-1.97 2.4-5.55 2.77-9.09 2.76-3.73 0-7.42-.51-9.3-3.04.22.67.85 1.34.85 1.34z" fill="#6d3415" stroke-width="none" opacity="1" transform="translate(0 2)" stroke="none"></path><path id="SvgjsPath32975" d="M114.05 128.69c-.22-.71-.71-1.3-1.48-1.4-.36-.05-.52.41-.38.67.1.19.19.37.28.54-2.36 1.78-5.04.31-7.46-.55-1.89-.67-3.79-.88-5.79-.71-4.3.37-8.38 1.69-12.74 1.31.08-.12.14-.25.24-.35.32-.31-.09-.76-.45-.59-.67.32-1.09.93-1.17 1.67-.06.62.13 1.49.8 1.7.19.06.37-.1.38-.29.01-.33-.1-.64-.13-.96 4.88.55 9.41-1.89 14.29-1.92 2.81-.02 4.99 1.21 7.56 2.1 1.53.53 3.18.78 4.69.23.01.54.27 1.01.9.62.66-.4.67-1.4.46-2.07z" fill="#d74f1f" stroke-width="none" opacity="1" transform="translate(0 2)" stroke="none"></path></g></g><g id="svga-group-eyes-left-move" transform="matrix(1,0,0,1,0,0)"><g id="svga-group-eyes-left" transform="matrix(1,0,0,1,0,0)"><g id="svga-group-eyesback-left"><path id="SvgjsPath32856" d="M90.1 93.1s-1.5-2-3.3-2.8c-1.8-.8-5.5-1.7-8.8.4-3.2 2.1-6 5-6 5s.7 2.5 3.6 3.5c2.9 1 6.4.9 9.9-1.7 3.5-2.7 4.6-4.4 4.6-4.4z" fill="#ffffff" stroke-width="none" opacity="1"></path></g><g id="svga-group-eyesiriswrapper-left" transform="matrix(1,0,0,1,0,0)"><g id="svga-group-eyesiriscontrol-left" transform="matrix(1,0,0,1,0,0)"><g id="svga-group-eyesiris-left" transform="matrix(1,0,0,1,0,0)"><path id="SvgjsPath32915" d="M80.1 88c3 0 5.5 2.5 5.5 5.5S83.1 99 80.1 99s-5.5-2.5-5.5-5.5 2.5-5.5 5.5-5.5z" fill="#bd1c1b" stroke-width="none" opacity="1"></path><path id="SvgjsPath32916" d="M80.1 89.7c2.1 0 3.8 1.7 3.8 3.8s-1.7 3.8-3.8 3.8-3.8-1.7-3.8-3.8 1.7-3.8 3.8-3.8z" fill="#000000" stroke-width="none" opacity="1"></path><path id="SvgjsPath32917" d="m76.1 91 4.3 3-1.7-5c-.4-.4-2.5.8-2.6 2z" fill="#ffffff" stroke-width="none" opacity="1"></path></g></g></g><g id="svga-group-eyesfront-left"><path id="SvgjsPath32864" d="M69.4 94.6c0 6.4 4.7 11.5 10.6 11.5s10.6-5.2 10.6-11.5S85.9 83.1 80 83.1s-10.6 5.1-10.6 11.5zm2.6 1.1s2.8-2.9 6-5 7-1.2 8.8-.4c1.8.8 3.3 2.8 3.3 2.8s-1.1 1.6-4.6 4.3c-3.5 2.7-7.1 2.7-9.9 1.7-2.8-.9-3.6-3.4-3.6-3.4z" fill="#8c5537" stroke-width="none" opacity="1" stroke="none"></path><path id="SvgjsPath32865" d="M91.2 94.9c-2.2-4.4-5.5-8.7-10.8-8.9-6.3-.3-9.3 4.8-9.2 10.6 0 .5-.7.5-.7 0-.1-5.7 2.7-11 8.9-11.3 5.7-.3 10.5 4.3 12.2 9.5 0 .1-.3.3-.4.1z" fill="#7d4425" stroke-width="none" opacity="1" stroke="none"></path><path id="SvgjsPath32866" d="M68.4 99c.6.1 1.3-.6 1.8-1 .4-.4.8-.9 1-1.4h.2c.2-.1.3-.3.5-.5 0 0 0 .1.1.1-.2.6-.5 1.3-.8 1.9-.3.6-.7 1.1-1 1.8-.1.2.2.4.4.3 1.1-.5 1.7-1.8 1.9-3.1 1.7 2.3 4.6 3.5 7.5 3.1 4.1-.5 7.2-3.4 9.8-6.4.3.4.6.8.9 1.3.2.2.5 0 .5-.2 0-4-5.2-6-8.5-5.9-4.6.2-9.3 3.2-11.6 7.2H71c-.5.3-1 .8-1.4 1.2-.3.2-.5.4-.8.6-.3.2-.4.3-.5.6-.2.1 0 .4.1.4zm4-3.4c2.8-2.7 5.3-5.4 9.5-5.7 2.2-.2 4.2.4 5.9 1.7.7.5 1.2 1.1 1.6 1.8-2.2 2.3-4.6 4.5-7.7 5.5-3.5 1.3-7.6.4-9.3-3.3z" fill="#131111" stroke-width="none" opacity="1" stroke="none"></path></g></g></g><g id="svga-group-eyes-right-move" transform="matrix(1,0,0,1,0,0)"><g id="svga-group-eyes-right" transform="matrix(1,0,0,1,0,0)"><g id="svga-group-eyesback-right"><path id="SvgjsPath32857" d="M109.9 93.1s1.5-2 3.3-2.8c1.8-.8 5.5-1.7 8.8.4 3.2 2.1 6 5 6 5s-.7 2.5-3.6 3.5c-2.9 1-6.4.9-9.9-1.7-3.5-2.7-4.6-4.4-4.6-4.4z" fill="#ffffff" stroke-width="none" opacity="1"></path></g><g id="svga-group-eyesiriswrapper-right" transform="matrix(1,0,0,1,0,0)"><g id="svga-group-eyesiriscontrol-right" transform="matrix(1,0,0,1,0,0)"><g id="svga-group-eyesiris-right" transform="matrix(1,0,0,1,0,0)"><path id="SvgjsPath32918" d="M119.9 88c3 0 5.5 2.5 5.5 5.5s-2.5 5.5-5.5 5.5-5.5-2.5-5.5-5.5 2.5-5.5 5.5-5.5z" fill="#bd1c1b" stroke-width="none" opacity="1"></path><path id="SvgjsPath32919" d="M119.9 89.7c2.1 0 3.8 1.7 3.8 3.8s-1.7 3.8-3.8 3.8-3.8-1.7-3.8-3.8 1.7-3.8 3.8-3.8z" fill="#000000" stroke-width="none" opacity="1"></path><path id="SvgjsPath32920" d="m115.9 91 4.3 3-1.7-5c-.3-.4-2.4.8-2.6 2z" fill="#ffffff" stroke-width="none" opacity="1"></path></g></g></g><g id="svga-group-eyesfront-right"><path id="SvgjsPath32867" d="M120 83.1c-5.9 0-10.6 5.2-10.6 11.5s4.7 11.5 10.6 11.5 10.6-5.2 10.6-11.5-4.8-11.5-10.6-11.5zm4.4 16.1c-2.9 1-6.4.9-9.9-1.7-3.5-2.7-4.6-4.3-4.6-4.3s1.5-2 3.3-2.8c1.8-.8 5.5-1.7 8.8.4 3.2 2.1 6 5 6 5s-.8 2.4-3.6 3.4z" fill="#8c5537" stroke-width="none" opacity="1" stroke="none"></path><path id="SvgjsPath32870" d="M108.8 94.9c2.2-4.4 5.5-8.7 10.8-8.9 6.3-.3 9.3 4.8 9.2 10.6 0 .5.7.5.7 0 .1-5.7-2.7-11-8.9-11.3-5.7-.3-10.5 4.3-12.2 9.5 0 .1.3.3.4.1z" fill="#7d4425" stroke-width="none" opacity="1" stroke="none"></path><path id="SvgjsPath32871" d="M131.8 98.6c-.1-.3-.3-.4-.5-.6-.3-.2-.6-.4-.8-.6-.5-.4-.9-.9-1.4-1.2h-.1c-2.2-4-7-7-11.6-7.2-3.3-.1-8.5 1.9-8.5 5.9 0 .3.4.4.5.2.3-.4.6-.8.9-1.3 2.5 3 5.7 5.9 9.8 6.4 2.9.4 5.8-.8 7.5-3.1.2 1.2.8 2.6 1.9 3.1.2.1.5-.1.4-.3-.2-.7-.7-1.2-1-1.8-.3-.6-.5-1.2-.8-1.9 0 0 0-.1.1-.1l.5.5c.1.1.1.1.2 0 .2.5.6 1 1 1.4.4.4 1.1 1.1 1.8 1 0 0 .2-.3.1-.4zm-13.6.3c-3.1-1.1-5.4-3.3-7.7-5.5.5-.6 1-1.3 1.6-1.8 1.7-1.3 3.8-1.9 5.9-1.7 4.2.4 6.7 3.1 9.5 5.7-1.6 3.7-5.7 4.6-9.3 3.3z" fill="#131111" stroke-width="none" opacity="1" stroke="none"></path></g></g></g><g id="svga-group-facehighlight-single"></g><g id="svga-group-eyebrows-left-move" transform="matrix(1,0,0,1,0,0)"><g id="svga-group-eyebrows-left-rotate" transform="matrix(1,0,0,1,0,0)"><g id="svga-group-eyebrows-left" transform="matrix(1,0,0,1,0,0)"><path id="SvgjsPath32775" d="M68.1 81c.2-.2.4-.5.6-.7.1-.2.2-.4.4-.6.3-.4.6-.7 1-1 .2-.2.6-.3.8-.1.3-.3.7-.5 1.1-.7 1.2-.7 2.4-1.3 3.8-1.2 1.2-.3 2.5-.2 3.6-.2 1.7 0 3.4.2 5 .8 1 .3 3 1.3 4 2.5 1.2.6 2.1 1.6 2.3 3.1.2 1.5-1 2.5-2.3 3-1.7.6-3.2-.1-4.6-1-.8-.5-1.6-.9-2.5-1.4-1.5-.4-3-.6-4.6-.8-.6-.1-1.1-.2-1.7-.3h-.1c-.1.1-.2.2-.4.3-.4.2-.9.4-1.5.5-1.2.5-2.4 1-3.5 1.6-.2.1-.3.1-.5.1-.3.4-.7.7-1.3.5-.4-.1-.6-.4-.7-.8-.2-.1-.4-.4-.5-.7 0-1 1-2.1 1.6-2.9z" fill="#4e4341" stroke-width="none" opacity="1"></path><path id="SvgjsPath32776" d="M84 77.8c2.6 1.4 3.5 5 3.5 7.8 0 .2-.4.3-.4.1-.3-1.4-.5-2.8-1-4.1-.5-1.3-1.3-2.4-2.3-3.5-.1-.2 0-.4.2-.3zm4.1 7.9c.4-.8.8-1.5 1-2.4.1-.9.1-1.7-.1-2.6 0-.2.2-.3.3-.2 1 1.6.7 4.3-.9 5.4-.2.2-.4 0-.3-.2zm-11.8-8.6c.3.1.6.2.8.4 0-.1.1-.1.2-.1 3 .2 5.5 4.2 5.7 6.8 0 .3-.4.3-.5.1-.6-1.4-1.2-2.8-2.1-4-.6-.7-1.2-1.2-1.9-1.7 1 1.1 1.6 2.6 1.8 3.9 0 .2-.3.3-.3.1-.4-1.1-.9-2.1-1.6-3-.7-.8-1.5-1.4-2.3-2.2-.2-.1 0-.3.2-.3zm-3.4.8c2.3-.1 4.4 2.5 4.7 4.5.1.3-.3.5-.5.2-.7-.9-1-2-1.8-2.8-.7-.7-1.7-1.1-2.5-1.6-.2 0-.1-.3.1-.3zm-2.5 2c1.9-.2 3.8 1.1 4.7 2.5.1.2-.1.3-.3.2-.6-.6-1.3-1.2-2.1-1.6-.8-.4-1.6-.5-2.5-.8-.1 0 0-.3.2-.3zm-1.2 2.4c1.1-.1 2 .3 2.8 1.1.1.1 0 .2-.1.2-.8-.6-1.7-.9-2.6-.9-.2-.2-.2-.4-.1-.4z" fill="#5d5857" stroke-width="none" opacity="1"></path><path id="SvgjsPath32777" d="M91 84.6c1-1.4.6-3.9-.6-5.1-.2-.2-.5.1-.4.3.1.1.1.2.2.4-.4-.6-.8-1.1-1.3-1.6-3.4-3.2-8.6-3.5-13-2.8-4.2.7-8.1 2.9-9.3 7.2v.2c-.1 0-.2.1-.2.2-.8 1.3.4 2.8 1.8 2.9 1 .1 2-.4 2.8-.9 1.3-.7 2.6-1.3 4-1.6 3-.5 5.5.5 8.1 1.8 1.6.8 3.3 1.5 5.2 1.1 1.5-.4 2.4-1.1 2.7-2.1zm-7.4-7.3c.7 1.5 1.3 3 1.7 4.6.3 1.1.4 2.3.5 3.4-.6-.2-1.2-.4-1.7-.7.3-2.7-.8-5.6-2.5-7.7.7.1 1.4.2 2 .4zm-8.1 5.1c-.3-1.1-.8-2-1.5-2.9-.4-.5-.9-1.1-1.5-1.6.8-.3 1.6-.6 2.5-.7.9.7 1.7 1.3 2.4 2.1.8 1 1.5 2.1 2 3.2-.3-.1-.5-.1-.8-.2-1 0-2.1 0-3.1.1zm-4-4c.6.6 1.3 1 1.9 1.7.6.7 1.1 1.6 1.5 2.4-.5.1-.9.2-1.4.3-.6-.7-1.2-1.4-1.9-1.9-.6-.4-1.3-.9-2-1.2.6-.5 1.2-.9 1.9-1.3zm-4.4 4.8c.4-1.2 1.1-2.2 1.9-3 .7.4 1.5.7 2.1 1.2.7.5 1.3 1.1 1.8 1.7-.8.3-1.5.7-2.3 1.1-.9.5-3.9 1.9-3.6-.6 0-.1 0-.2-.1-.2l.2-.2zm14-6.3c.8 1.2 1.4 2.4 1.8 3.7.4 1.2.5 2.4.6 3.7-1.2-.6-2.3-1.2-3.6-1.5-.6-2.1-2-4.3-3.8-5.7 1-.1 1.9-.2 2.9-.2h2.1zm8.8 7.2c-.6 1.4-2 1.6-3.3 1.4.1-2.7-1-5.8-2.3-8.1.7.2 1.3.4 1.9.7 1.8 1 4.8 3.6 3.7 6z" fill="#3f312e" stroke-width="none" opacity="1"></path></g></g></g><g id="svga-group-eyebrows-right-move" transform="matrix(1,0,0,1,0,0)"><g id="svga-group-eyebrows-right-rotate" transform="matrix(1,0,0,1,0,0)"><g id="svga-group-eyebrows-right" transform="matrix(1,0,0,1,0,0)"><path id="SvgjsPath32778" d="M131.9 81c-.2-.2-.4-.5-.6-.7-.1-.2-.2-.4-.4-.6-.3-.4-.6-.7-1-1-.2-.2-.6-.3-.8-.1-.4-.3-.7-.5-1.1-.7-1.2-.7-2.4-1.3-3.8-1.2-1.2-.3-2.5-.2-3.6-.2-1.7 0-3.4.2-5 .8-1 .3-3 1.3-4 2.5-1.2.6-2.1 1.6-2.3 3.1-.2 1.5 1 2.5 2.3 3 1.7.6 3.2-.1 4.6-1 .8-.5 1.6-.9 2.5-1.4 1.5-.4 3-.6 4.6-.8.6-.1 1.1-.2 1.7-.3h.1c.1.1.2.2.4.3.4.2.9.4 1.5.5 1.2.5 2.4 1 3.5 1.6.2.1.4.1.5.1.3.4.7.7 1.3.5.4-.1.6-.4.7-.8.2-.1.4-.4.5-.7 0-1-1-2.1-1.6-2.9z" fill="#4e4341" stroke-width="none" opacity="1"></path><path id="SvgjsPath32779" d="M116 77.8c-2.6 1.4-3.5 5-3.5 7.8 0 .2.4.3.4.1.3-1.4.5-2.8 1-4.1.5-1.3 1.3-2.4 2.3-3.5.1-.2 0-.4-.2-.3zm-4.1 7.9c-.4-.8-.8-1.5-1-2.4-.1-.9-.1-1.7.1-2.6 0-.2-.2-.3-.3-.2-1 1.6-.7 4.3.9 5.4.2.2.4 0 .3-.2zm11.8-8.6c-.3.1-.6.2-.8.4 0-.1-.1-.1-.2-.1-3 .2-5.5 4.2-5.7 6.8 0 .3.4.3.5.1.6-1.4 1.2-2.8 2.1-4 .6-.7 1.2-1.2 1.9-1.7-1 1.1-1.6 2.6-1.8 3.9 0 .2.3.3.3.1.4-1.1.9-2.1 1.6-3 .7-.8 1.5-1.4 2.3-2.2.2-.1 0-.3-.2-.3zm3.4.8c-2.3-.1-4.4 2.5-4.7 4.5-.1.3.3.5.5.2.7-.9 1-2 1.8-2.8.7-.7 1.7-1.1 2.5-1.6.2 0 .1-.3-.1-.3zm2.5 2c-1.9-.2-3.8 1.1-4.7 2.5-.1.2.1.3.3.2.6-.6 1.3-1.2 2.1-1.6.8-.4 1.6-.5 2.5-.8.1 0 .1-.3-.2-.3zm1.2 2.4c-1.1-.1-2 .3-2.8 1.1-.1.1 0 .2.1.2.8-.6 1.7-.9 2.6-.9.2-.2.2-.4.1-.4z" fill="#5d5857" stroke-width="none" opacity="1"></path><path id="SvgjsPath32780" d="M111.7 86.7c1.8.4 3.5-.3 5.2-1.1 2.6-1.3 5.1-2.3 8.1-1.8 1.5.2 2.7.8 4 1.6.9.5 1.8 1 2.8.9 1.4-.1 2.6-1.6 1.8-2.9l-.2-.2V83c-1.2-4.3-5.1-6.6-9.3-7.2-4.4-.7-9.5-.4-13 2.8-.5.4-.9 1-1.3 1.6.1-.1.1-.2.2-.4.1-.3-.2-.5-.4-.3-1.2 1.1-1.6 3.6-.6 5.1.3 1 1.2 1.7 2.7 2.1zm4.7-9.4c.7-.2 1.3-.3 2-.3-1.7 2.1-2.8 5-2.5 7.7-.5.2-1.1.5-1.7.7.2-1.2.2-2.3.5-3.4.4-1.7 1-3.2 1.7-4.7zm5 5.2c-.3 0-.5.1-.8.2.6-1.2 1.2-2.2 2-3.2.7-.8 1.6-1.5 2.4-2.1.8.2 1.7.4 2.5.7-.6.4-1.1 1-1.5 1.6-.7.9-1.2 1.8-1.5 2.9-1-.3-2.1-.3-3.1-.1zm9-2.8c-.7.3-1.4.8-2 1.2-.7.6-1.4 1.2-1.9 1.9-.5-.1-.9-.2-1.4-.3.4-.8.9-1.7 1.5-2.4s1.2-1.1 1.9-1.7c.7.4 1.3.8 1.9 1.3zm2.5 3.6c-.1.1-.1.1-.1.2.3 2.5-2.6 1.1-3.6.6-.7-.4-1.5-.8-2.3-1.1.6-.6 1.2-1.2 1.8-1.7.6-.5 1.4-.8 2.1-1.2.8.8 1.5 1.8 1.9 3 .2.1.2.1.2.2zm-11.8-6.4c.9 0 1.9.1 2.9.2-1.8 1.3-3.2 3.6-3.8 5.7-1.3.3-2.4.9-3.6 1.5.1-1.2.2-2.5.6-3.7.4-1.3 1.1-2.5 1.8-3.7h2.1zm-7.2 1.3c.6-.3 1.2-.6 1.9-.7-1.4 2.3-2.5 5.3-2.3 8.1-1.4.2-2.7 0-3.3-1.4-1.2-2.5 1.8-5.1 3.7-6z" fill="#3f312e" stroke-width="none" opacity="1"></path></g></g></g><g id="svga-group-beardwrap" transform="matrix(1,0,0,1,0,0)"><g id="svga-group-beard-single-move" transform="matrix(1,0,0,1,0,0)"><g id="svga-group-beard-single" transform="matrix(1,0,0,1,0,0)"></g></g></g><g id="svga-group-mustache-single-move" transform="matrix(1,0,0,1,0,0)"><g id="svga-group-mustache-single" transform="matrix(1,0,0,1,0,0)"><path id="SvgjsPath32990" d="M97.98 118.78c.25 1.39.49 2.78-.57 3.03s-15.15-1.64-16.22-.66-.41 9.75-.82 11.22c-.41 1.47-2.48-6.56-2.81-8.36-.33-1.8-.39-3.84-.39-3.84s-1.21 1.67-.81-.11c.2-.89 2.09-1.4 3.73-1.73s14.61-.37 15.76-.21c1.15.17 2.13.66 2.13.66z" fill="#4e4341" stroke-width="none" opacity="1"></path><path id="SvgjsPath32991" d="M102.93 118.78c-.25 1.39-.49 2.78.57 3.03s15.15-1.64 16.22-.66.41 9.75.82 11.22c.41 1.47 2.48-6.56 2.81-8.36.33-1.8.39-3.84.39-3.84s1.21 1.67.81-.11c-.2-.89-2.09-1.4-3.73-1.73s-14.61-.37-15.76-.21c-1.15.17-2.13.66-2.13.66z" fill="#4e4341" stroke-width="none" opacity="1"></path></g></g><g id="svga-group-nose-single-move" transform="matrix(1,0,0,1,0,0)"><g id="svga-group-nose-single" transform="matrix(1,0,0,1,0,0)"><path id="SvgjsPath32953" d="M105.29 106.89c.58.27 1.23 1.04 1.94 3.17s1.23 3.69 1.37 4.83c.14 1.14-.99 2.32-1.71 2.46s-1.28-.33-1.56-1.09-.38-1.89-1.23-2.42c0 0-.81 2.27-1.52 2.79s-1.94 1.71-3.65.85c-1.71-.85-1.94-2.08-2.08-2.13-.14-.05-1.28 1.52-1.85 1.89-.57.38-2.37.95-3.13 0-.76-.95-.09-4.59.09-5.73.19-1.14.9-3.74 1.61-4.36.71-.62 1.71-.76 2.37-.33 0 0 .14-3.17.52-4.64.38-1.47 2.37-2.08 4.22-1.89s3.17.71 3.5 1.8c.35 1.1.4 4.46 1.11 4.8z" fill="#8c5537" stroke-width="none" opacity="1" transform="translate(0 1)" stroke="none"></path><path id="SvgjsPath32954" d="M96.01 116.09c-.3.22-.45.35-.75.57-.21.16-.43.32-.64.48-.58.5-1.14.44-1.69-.18-1.07-.57-1.09-.69-1.06-1.78.01-.5.08-1.02.14-1.52.17-1.47.94-7.73 3.61-6.8h.02c0 .31 0 .61.01.92.01.27.42.35.48.07.69-2.93.68-6.14.96-9.14.3-3.15.99-6.54.77-9.7-.01-.15-.23-.2-.28-.04-.78 2.89-.76 6.14-1.06 9.11-.28 2.74-.82 5.61-.88 8.4-3.37-1.25-4.22 6.04-4.41 7.99-.13 1.31-.17 3.14 1.35 3.68 1.5.53 2.91-.64 3.66-1.82.1-.14-.09-.34-.23-.24z" fill="#5e2709" stroke-width="none" opacity="1" transform="translate(0 1)" stroke="none"></path><path id="SvgjsPath32955" d="M105.17 115.05c.11.18.15.22.3.33.11.08.26.01.33-.09.03-.04.05-.08.07-.12.07-.16-.01.02.02-.09.03-.15.03-.25-.03-.4-.09-.24-.26-.46-.45-.62-.32-.27-.74-.44-1.16-.4.01-.1.03-.2.03-.29 0-.18-.24-.24-.33-.09-.89 1.4-1.09 3.44-2.94 4.03-2.21.71-3.7-1.7-4.66-3.3.07-.1.08-.25-.02-.33-.86-.72-2.64.33-2.55 1.42.03.3.34.42.57.24.32-.25.51-.6.87-.8.26-.14.54-.23.81-.35.74 2.01 2.24 4.33 4.72 3.96 1.81-.27 3.09-2.13 3.43-3.9.28.08.54.19.75.42.09.11.16.25.24.38z" fill="#5e2709" stroke-width="none" opacity="1" transform="translate(0 1)" stroke="none"></path><path id="SvgjsPath32956" d="M107.09 109.08c-.39-.91-.85-2.69-2.05-2.36.04-1.46-.39-2.97-.53-4.42-.14-1.35-.13-2.72-.32-4.07-.02-.12-.17-.07-.19.03-.22 1.63-.03 3.34.18 4.97.15 1.17.26 2.44.77 3.52-.05.02-.1.03-.15.05-.12.06-.03.22.08.2 1.32-.24 2.37 3.95 2.68 4.9.28.87.64 1.86.66 2.78.03 1.4-1.56 3.39-2.71 1.5-.14-.24-.45-.07-.42.18.14.97 1.15 1.48 2.07 1.24 1.25-.33 1.77-1.73 1.71-2.91-.08-1.88-1.05-3.9-1.78-5.61z" fill="#5e2709" stroke-width="none" opacity="1" transform="translate(0 1)" stroke="none"></path><path id="SvgjsPath32957" d="M103.73 108.8c-.04-1.57-.42-3.09-.82-4.6-.39-1.48-.61-3.13-1.39-4.47-.18-.31-.73-.28-.8.11-.45 2.35.25 5.03.38 7.41.06 1.21.11 2.45-.17 3.63-.26 1.1-.87 2.06-1.2 3.13-.17.55.41 1.19.98.98 2.41-.87 3.07-3.87 3.02-6.19z" fill="#945e41" stroke-width="none" opacity="1" transform="translate(0 1)" stroke="none"></path></g></g><g id="svga-group-hair-front" transform="matrix(1,0,0,1,0,0)"><path id="SvgjsPath33000" d="M66 52.6s1.6-4.2 4.9-7.2 7.6-6.3 16.1-9.6 19.7-3.2 31.1 2.5 13 10.3 13 10.3-3.8-3.1-9.4-2.3-12.1 9.4-16.2 10.1c-4.2.7-10.3-.2-18.9-4.9S70.7 45.8 66 52.6z" fill="#4e4341" stroke-width="none" opacity="1" stroke="none"></path><path id="SvgjsPath33001" d="M111.6 51c-.1.1-.2.2-.3.2 3.6-4 4.5-10.6.2-14.5-.3-.2-.6.1-.4.4 3.8 4.7 2.5 9.8-.6 14.5v.2c-.4.3-.8.5-1.2.8 3.6-5.9 1.1-14.1-4.1-18.7-.3-.3-.7.1-.4.4 5.1 5.9 6.4 12.7 2.6 19.4-1.3.7-2.6 1.3-4 1.7 4.4-6 3.8-15-1-20.6-.2-.3-.6.1-.5.4 3.9 7.3 3.7 13.3.2 20.5-.5.1-1 .1-1.4.2 3.6-6.4 1.3-16.8-2-22.8-.2-.3-.7-.1-.6.2 2.7 6.8 5.3 15.6 1.9 22.6-.9 0-1.9-.1-3-.3-7.5-4.5-7.8-11.8-8-20.1 0-.2-.3-.2-.3 0-.8 5.2-.3 12.4 3 17-1.4-1-2.8-2-4-3.4-2.6-2.8-3.9-6-5.5-9.4-.1-.2-.3 0-.3.1.6 4.2 3.5 8.9 7.2 12.1-2-1.3-3.9-2.6-6.1-3.6 0 0 0-.1-.1-.1-2.4-1.7-4.6-3.4-6.6-5.6-.1-.2-.4 0-.3.2 1.1 1.8 2.7 3.5 4.5 4.7-4.4-1.2-9.4-.4-12.8 2.7-.2.1.1.4.2.2 9.3-7.7 18.3 3.3 26.8 6.3 7.1 2.5 12-.2 17.2-5.1.3-.4 0-.8-.3-.6zm8.1-10.1c0-.2-.3-.2-.3 0-.3 1.5-.4 2.8-1.1 4.2-.7 1.3-1.8 2.3-2.8 3.3-.1.1 0 .3.2.2 2.4-1.5 4.9-4.6 4-7.7zm9.5 6.4c-2.6-1.9-7-2.5-9.9-.9-.1.1 0 .2.1.2 3.4-.8 6.4.2 9.7 1 .2.1.3-.2.1-.3z" fill="#3f312e" stroke-width="none" opacity="1" stroke="none"></path><path id="SvgjsPath33002" d="M92 39.7s-6 .4-8.5-4.5-.8-9.3 4.3-12.1c5.1-2.9 11.2-3.3 16.1-.7s6 6.9 4.6 10.4-4.3 5.8-7.2 6.8c-3 1-9.3.1-9.3.1z" fill="#4e4341" stroke-width="none" opacity="1" stroke="none"></path><path id="SvgjsPath33003" d="M106.8 34.2c-3.4 6-10.7 6.6-16.7 4.6 0-.1 0-.1-.1-.2-3.6-1.6-5.8-4.7-4.3-8.8 1.1-3 3.7-4.6 6.6-5.4l-.9 1.2c-1.9 3.1-1.1 7.4 2.2 9.2 3.6 2 9 1.4 11.9-1.6 2.6-2.7 2.8-7.3-.4-9.6-.3-.2-.6.2-.3.5 6.6 7.4-6.5 14.7-12.1 8.9-2.4-2.5-1.7-6.4.6-8.7.1-.1.3-.2.4-.3h.2c.1 0 .2-.1.2-.3 2.2-1.7 5.1-2.1 7.8-1.9.1 0 .1-.2 0-.2-.6-.1-1.2-.2-1.8-.2l-.1-.1c-4.1-1.4-9.1-.6-12.5 2-.2.1 0 .4.2.3 3.4-1.5 6.4-2.1 9.9-2.1-1.6.3-3.1.9-4.4 1.9-4.3.3-8.3 3-9 7.6-.4 2.7.8 5.6 3.1 7 4.8 4.6 18.8 4 20.1-3.8 0-.1-.4-.3-.6 0zM86.2 38c-4.1-2.7-5-7.6-1.9-11.4.1-.2-.1-.4-.2-.2-3.8 3.6-2.9 9.8 2 11.9.1 0 .3-.2.1-.3zm16.9-10.1c-1.6.6-3.7.9-5-.5-.6-.6-.9-1.5-.7-2.4.3-1 1.6-2.3 2.7-2.2.3 0 .3-.5 0-.5-2.3-.1-4.2 2.6-3.3 4.7 1.2 2.6 4.3 2.5 6.3 1.2.3-.1.2-.4 0-.3z" fill="#3f312e" stroke-width="none" opacity="1" stroke="none"></path><path id="SvgjsPath33004" d="M99 33c-1.9-.5-3.8-1.4-4.5-3.5-.8-2.4.4-4.5 2.3-5.9.2-.2.1-.6-.2-.5-5.5 2-3.6 11.4 2.4 10.2.2 0 .2-.3 0-.3zm-2.9.4c-1.5-.7-2.8-1.6-3.1-3.4-.3-1.4-.3-3.8.7-4.8.1-.1 0-.2-.1-.1-1.3 1.1-1.4 3.2-1.1 4.8.3 2 1.6 3.3 3.5 3.8.2.1.3-.2.1-.3zm7.7-8.9c-.2-.2-.4 0-.3.2.9 1.9 2.4 4.8-.3 6-2.2 1-4.9.4-6.2-1.7-.2-.3-.5 0-.4.2 1.2 2.7 4.8 3.5 7.3 2 2.7-1.5 1.6-4.9-.1-6.7zm-1.5 1.3c-.6-.8-1.7-.9-2.6-.7-.2 0-.2.5.1.4.6 0 1.3.1 1.8.5.4.4.6 1.1.2 1.6-.1.1.1.3.2.2.8-.4.8-1.4.3-2zm5.9 2.8c-.1-.3-.6-.3-.6.1-.1 5.2-4.8 6.7-9.1 7.7-.2 0-.1.3.1.3 3.8-.5 11-2.7 9.6-8.1zm-13.8 8c-2.9-1.4-5.6-3.5-5.3-7.1 0-.2-.4-.3-.4-.1-.6 3.7 2.2 6.6 5.6 7.5.1.1.3-.2.1-.3zm12.5 2.3c-.2-.2-.6-.1-.5.2 1.7 4.7 1.4 8.8-1.2 13.2-.1.2.1.4.3.2 3.3-3.5 4-9.5 1.4-13.6zm2-2.4c-.1-.1-.4 0-.3.2 2.3 3.2 3.2 6.5 3.1 10.4 0 .2.3.3.4 0 .7-3.9-.7-7.8-3.2-10.6zm6.5 3.5c-.1-.2-.4-.1-.4.1.4 1.9.2 3.9-.5 5.7-.1.2.2.3.3.1 1.1-1.8 1.2-3.9.6-5.9zm-11.2 2.4c-.1-.2-.4-.2-.4.1-.1 3.2-.2 6.3-1.2 9.4-.1.2.2.3.3.1 1.4-3 2.2-6.5 1.3-9.6zm-3.8 5.9c0-.2-.3-.1-.3 0 0 1.3-.2 2.6-.4 4 0 .2.2.3.3.1.7-1.2.7-2.7.4-4.1zM98 43c-.1-.2-.4-.1-.3.1.7 3.4.7 6.5.1 9.9 0 .2.2.2.2.1 1.1-3.3 1.1-6.9 0-10.1zm26.2 1.2c-1-.5-2.2-.2-3.1.3-.2.1 0 .5.2.4.9-.4 1.8-.3 2.8-.3.1 0 .2-.3.1-.4zm-44.7-3.9c-3.7 1.5-7.9 3.5-9.6 7.3-.1.1.1.2.2.1 2.4-3.6 5.8-5.3 9.5-7.2.1-.1.1-.3-.1-.2z" fill="#5d5857" stroke-width="none" opacity="1" stroke="none"></path></g><g id="svga-group-glasses-single-move" transform="matrix(1,0,0,1,0,0)"><g id="svga-group-glasses-single" transform="matrix(1,0,0,1,0,0)"></g></g></g></g></g><rect id="svga-credit-rect" width="200" height="15" x="0" y="185" fill="#ecf0f1" opacity="0.5" style="display: none;"></rect><text id="svga-credit-text" font-family="Avenir Next, Roboto, Helvetica, Arial, sans-serif" font-size="10px" text-anchor="start" font-weight="400" size="10px" anchor="start" weight="400" fill="#333333" x="33.40447998046875" y="182.60824704170227" style="display: none;"><tspan id="SvgjsTspan32309" dy="13" x="33.40447998046875">Created on AvatarMaker.com</tspan></text></g></svg>