<svg xmlns="http://www.w3.org/2000/svg" version="1.1" width="600px" height="600px" viewBox="0 0 200 200" style="overflow:hidden!important;"><defs id="SvgjsDefs3323"></defs><g id="svga-group-wrapper"><g id="svga-group-backs-single"><path id="SvgjsPath3797" d="M0 0h200v200H0V0z" fill="#f1d4af" stroke-width="none" opacity="1"></path></g><g id="svga-group-humanwrap-move" transform="matrix(1,0,0,1,0,0)"><g id="svga-group-humanwrap" transform="matrix(1,0,0,1,0,0)"><g id="svga-group-hair-back-move" transform="matrix(1,0,0,1,0,0)"><g id="svga-group-hair-back" transform="matrix(1,0,0,1,0,0)"><path id="SvgjsPath4010" d="M71.8 42.3c.7-.3 1.3-.6 2-.7.3-.3.6-.6 1-.8 2.4-1.1 5.1-.8 6.6 1.6 1.4 2.1.4 4.9-1.6 6.2-1.1.7-2.5.8-3.7.5-.1 0-.3-.1-.4-.1h-.3c-.1 0-.3.1-.4.1-.1 0-.2.1-.3.1-.4.2-.9.3-1.4.3-.8 0-1.7 0-2.4-.5-2.7-1.7-1.6-5.4.9-6.7zm89 94.4v-.1.1zm11.4 2.6c-.3.3-.8 0-.7-.4.4-1.2-.5-2.5-1.6-3.9-.8 2-2.8 3.7-2.8 6 0 .6-.8.7-1 .3-.8-1.2-.6-2-.1-3.3 1.4-3.3 2.8-4-.9-6.1-1.1-.6-1.9-1.3-2.4-2.1.1.5.2 1 .5 1.9.2.6.9 1 1 1.6.3 1.9-.4 3.5-.2 5.4.2 1.8.8 2.3-.6 3.8-.4.4-1.4.1-1.3-.6.2-1.9-1.4-3.4-1.3-5.3.1 0 .4-2.1.6-2.1-.2-.3-1.6-1.4-1.5-1.2-1.1-1.8-.9-2.4-1.1-4.5-.4-3.5-2.5-4.1-3.5-6.9-.1.3-.3.6-.4.9-1.5 3.8 2.5 5.3 3 9 .3 2.9-1.8 4.5-1.5 7.2.2 2 1.1 2.4-.2 4.2-.3.4-1.1.2-.9-.4.7-2.6-1.8-4.1-1.4-6.5.4-3 2.6-1.6.3-5.2-.2.9-.9 1.6-1.3 2.6-1.5 3.2-.8 4.6-.9 7.6-.1 1.5-.4 2.6-1.3 3.8-.8 1-2.4.2-1.7-1 .9-1.7.3-3.6-.2-5.5l-.3.6c-.5 1.8-.3 2.7-.4 4.6 0 1.4.3 1.4-.5 2.6-.3.4-1.1.3-1.1-.3.1-1.2-.3-2.1-.6-3.1-.2.7-.6 1.5-1.4 2.3-.5.5-1.2-.2-1-.8 1.1-2.4-.2-3.9-1.3-5.5.1 2 .1 4-1 6-.3.7-1 .6-1.5.2-.2.3-.6.6-1 .9-.8.5-1.5-.6-.9-1.2 1.3-1.4-1.9-4.7-2.2-6.2-.1-.8 0-1.6.2-2.3-.8 1.8-1.4 2.9-1.2 5.1 0 .7.4 1.3.4 2-.1 1.2-.5 1.8-1.5 2.6-.7.5-1.2-.5-.8-1.1.7-.8.4-1.8 0-2.7-.1 1.1-.6 2.1-1.7 3.3-.6.6-1.6-.2-1.2-.9 1.3-2 .6-3.6-.1-5.3-.7 2-1.6 3.8-1.4 6.2 0 .7-1 .8-1.2.2-.2-.7-.7-1.5-1.1-2.4 0 1.6-.5 2.9-2.3 3.6-.3 1.1-1.8.7-1.9-.3-.1-1-.3-2.2-.3-3.4-.3 1.1-.3 2.2-.5 3.5 0 .4-.6.8-.9.4-.4-.4-.6-.8-.9-1.1-.3-.1-.5-.3-.7-.7-3.1-8.1-4.4-16.3-4.2-24.5-.3-3.7-.5-7.4-.6-10.8-.3-7.3-.1-14.6.9-21.9 1-7.4 3.1-14.5 5.5-21.6 2-6.1 3.7-12.5 6.6-18.2 0-.9.5-1.8 1.2-2.3 1-.8 2.2-.8 3.4-.2 2.9 1.4 4.7 4.5 4.6 7.7 0 .3-.1.6-.1.9 1.1 1.4 2.1 2.8 3 4.3.1 0 .3.1.4.2 1.7 1.3 3.1 1.8 5.2 2.2 1.5.3 2.6.8 3.5 2 1.3 1.8 1.7 4.9 1.2 7.4l.9.6c.4-.7 1.6-.8 1.9.2 1 2.8 1.8 6.1.1 8.8-.1.2-.2.3-.4.3-.2 1-.6 1.9-.9 2.9.2.2.3.5.4.8.3 1 .8 2.5 1.1 4 .2 0 .5.1.7.3 1.8 1.1 2.7 2.8 2.8 4.8.1.2.3.5.4.7.2.1.4.1.6.3 3.3 2.9 7.9 7.4 6.3 12.2-.1.2-.1.4-.2.6.2.4.4.9.5 1.4.3 1.2-.2 3.5-.3 5.3.4.5 1 .6 2.2 1.7.7.6 1.2 1.2 1.5 2 .4.2.8.4 1 .7 1 1.2.8 2.3.7 3.7-.3 3.3.2 2 2.1 4.1 1.8 2.1.3 4 1 6.3.4 2.5 3.4 4.2.7 7zm-26.4-4.6c-.1-.4-.2-.7-.3-1-.2.2-.3.4-.5.6-1.2 2.1-.8 2.4.2 4.7.1.3.2.6.4.9.1-1.8.5-3.4.2-5.2zm3.4-5c-.3.7-.5 1.4-.6 2.1-.1.8 0 1.5.1 2.2.2-.5.3-.9.5-1.5.7-1.7.5-2.2 0-2.8zm8-23.1c-.1-1.3 0-3-.4-4.6-.2.9-.4 1.9-.6 2.9-.3 1.9-.2 3.3.6 4.7.1-.5.2-1 .4-1.4v-1.6zm5.6 13.5c-.2-.2-.4-.3-.6-.5-.7-.5-1.6-.7-2.2-1.4-.2 1-.2 1.9.2 2.9.6 1.4 1.4 2.2 2 3.3l.3-1.2c.1-1.3.4-2.2.3-3.1zm3.5 7.3c-.3-.2-.6-.3-1-.5v.2c.3 1.3 1.5 2 2.6 2.7.1-.4-.1-1-1.6-2.4zm-78.2-9.9c.2 6.6 1.2 16.2-2.9 21.8-.5 2.4-1.9 4.4-2.2 6.9-.1.7-1.2 1-1.7.4-.9-1-1.1-1.8-1.2-2.8-.3.6-.6 1.2-.8 1.9-.2.7-1.2.7-1.4 0-.1-.2-.1-.4-.1-.6-.5.4-1.3.4-1.5-.4v-.1c-.3.3-.5.5-.4.5.5.8-.6 1.4-1.2.9-.8-.7-1.2-1.5-1-2.5.2-.9.7-1.5.9-2.2-.2-.1-.4-.4-.5-.7-1.1 1.3-2.4 2.4-1.4 4.2.4.7-.6 1.5-1.1.9-.7-.7-1.2-1.4-1.4-2.3-.2.8-.8 1.3-1.6 1.8-.5.2-1.1-.4-.6-.8 1.3-1.1-2-6.5-1.6-8.6.2-1 1-1.8 1.2-2.7 1.4-7.2.4-5-.5-4.3.2.8.3 1.6.1 2.6-.3 1.2-1.2 2.1-1.5 3.3-1.2 4.1.8 4.2 1.7 7 .6 1.9.6 3.6-1 4.9-.7.6-1.8-.2-1.3-1 1-1.9-.3-3.9-1.5-5.9 0 .5.1 1 .2 1.4.3 1.9.9 2.5-.4 4.2-.3.4-1 .1-1-.4.3-2.9-2.5-5-2.7-8-.1-.9-.1-1.8-.3-2.7-.7 1.1-1.1 1.5 0 4 .4 1 1.4 1.8 1.7 2.8.7 1.9.6 3.1-.6 4.8-.5.8-1.9.3-1.6-.7.9-3.2-3.1-5.1-4-7.6-.6-1.6-.1-2.6.1-4.2v-.2c-.4 1.2-.7 2.5-.5 3.7.5 2.8 2.1 4.3 1.9 7.4-.1.8-1.2 1.1-1.5.2 0-.2-.1-.3-.2-.4-.1.2-.2.5-.4.7-.6 1-2.3.3-1.9-.8 1.2-3-2.9-6.2-3.2-9.6-.6 1-1 2.1-.6 3.5.7 2.8 3 5.4-.3 7.3-1.1.7-2.2-.6-1.7-1.7.6-1.1-1-3.3-2.1-5.2-.6 1.7-1.3 3.5-.3 5.1.6.8-.7 1.8-1.4 1-2.1-2.4-.7-4-.4-6.8.3-2.4-.9-4.3-1.3-6.4 0 .1-.1.3-.1.4-.7 2.2-1.2 4-.8 6.6.1.6.5 1.1.5 1.7.2 1.6 0 2.1-.8 3.5-.5.8-1.7.3-1.5-.6.5-1.8-.3-3.3-.9-4.8-.8 1.4-2 2.8-1.6 4.2.2.8-1 1.3-1.4.6-.7-1.3-.8-2.1-.4-3.5.5-2.1 1.5-2 .1-4.6-.4-.7-1.3-1.1-1.8-1.9-.8-1.4-.6-2.4-.3-3.8.6-2.8 3.8-.5.5-6.3v-.1c-.7.6-1.3 1.2-1.5 2.2-.4 1.9 1.2 3.5.8 5.5-.5 2.3-4.4 4.5-3.4 7 .2.7-.7 1-1.1.6-1-.9-1.2-1.2-1.1-2.6.1-1.2.5-1.3 1-2.3 1.4-3.3 2.1 2 1.3-6.2-.1-1.4-.8-2.2-.3-3.7.2-.6.6-1 .9-1.4.9-1.8 1.5-2.7 1-4.7-.4-1.7-1.5-2.8-1-4.7.4-1.8 2.2-2.7 2.6-4.4.4-1.5-.6-2.8 0-4.4.5-1.3 1.1-1.2 1.9-2.2.9-1.2 1.4-2.3 2.1-3.6.4-.6 1-.8 1.7-.7 0-.2-.1-.3-.1-.5-.4-1.2.4-2.2 1.5-2.7.6-.8 1.1-1.5 1.7-2.3.2-.4.5-.7.8-.9.3-.9.7-1.8 1.2-2.7-.2-.2-.4-.4-.5-.6-1.3-2.2-.5-4.9.7-7.1.6-1.1 1.5-2 2.6-2.6l.3-.9c.1-.3.3-.6.5-.9-.4-.2-.8-.4-1.1-.7-1.4-1.1-1.6-3.4-1-4.9.6-1.3 1.7-2.3 3.1-2.7 1.2-.3 2.5-.2 3.6.5v-.2c.2-1.4.7-2.5 1.2-3.6-.1-.1-.2-.2-.3-.4-.6-.9-.6-1.9-.4-3 .3-1.9 1.9-3.6 3.7-4.2.6-.2 1.2-.2 1.7 0 1.4-2.9 3.1-4.9 6.5-5.8 1.4-.4 3 0 4 1l.5.5c.6.6 1 1.5.9 2.4 10 9.2 13.9 25.9 16.5 38.5 1.8 7.9 2.7 16.2 3 24.4zm-52.6-6.8c0-.2-.1-.5-.1-.7-.1.2-.2.3-.3.5-1.3 1.8-1.8 2.5-1.5 3.9.8-1.1 1.7-2.2 1.9-3.7zm.7 8.3c.3-.7 1.1-1.6 1.3-2.4v-.3c-.5.4-.9.8-1.1 1.3-.8 1.6-.8 1.4-.3 1.9 0-.1.1-.3.1-.5zm1.7 7.9c-.6 1.7-1.7 3.4-1.1 5.3.1.3.2.6.4.8.3-.9.9-1.6 1.1-2.6.2-1.3 0-2.4-.4-3.5zm3.7-2.7c-.3-1.5-1-2.7-.6-4.3.2-.8.4-1.5.7-2.2h-.2c-.7 1.7-1.7 3.2-1.4 5.3.2 1.3 1 2.4 1.5 3.6.1-.9.1-1.6 0-2.4zm3.9 3c-.3 1.1-.8 2.1-.9 3.3 0 .8.1 1.5.2 2.1 0-.1.1-.2.1-.2.7-1.9 1.6-3.3.6-5.2zm25.4 9.2c-.4-.6-.7-1.2-.9-1.8-.1.2-.1.3-.2.5-.9 2.5.1 4 .5 6.3v.2c.3-.8.9-1.1 1.2-1.8.7-1.6.3-2-.6-3.4zm8.2 3.4c0-.9-.7-1.9-1.4-2.9v.8c.2.9.4 1.8.4 2.8.1.6.2 1.2.1 1.9v.6c.4-1.1 1-2 .9-3.2z" fill="#a83c25" stroke-width="none" opacity="1" stroke="none"></path></g></g><g id="svga-group-humanbody-back"><path id="SvgjsPath3627" d="m168.5 219.5-1.7-21.5s.7-9-8.8-15.3-23.4-10.1-29.5-14.2c-6.1-4.1-9.2-4.5-9-16.9s.9-40.3.9-40.3H79.6s.7 27.9.9 40.3c.2 12.4-2.9 12.8-9 16.9-6.1 4.1-20 7.9-29.5 14.2S33.2 198 33.2 198l-1.6 21.5h136.9z" fill="#f4baa3" stroke-width="none" opacity="1" stroke="none"></path></g><g id="svga-group-chinshadow-single"><path id="SvgjsPath3869" d="M100 163.9c5.96 0 13.3-4.65 19.53-9.3-.03-.92-.04-1.91-.03-3 .2-12.4.9-40.3.9-40.3H79.6s.7 27.9.9 40.3c.02 1.09.01 2.08-.03 3 6.23 4.65 13.57 9.3 19.53 9.3z" fill="#d58464" stroke-width="none" opacity="0.65" stroke="none"></path></g><g id="svga-group-humanbody-front"><path id="SvgjsPath3628" d="M73.8 175.9c5.1 2.9 11.8 5.2 17.6 5.7.4 0 .4-.6.1-.7-2.8-1.1-5.9-1.7-8.8-2.6-2.9-.9-5.8-2-8.8-2.7-.1-.1-.3.2-.1.3zm35.2 6.2c5.3-.6 11.3-3 15.9-5.8.3-.2.1-.6-.2-.5-2.6.9-5.2 2-7.8 2.9-2.6.9-5.4 1.5-8 2.5-.5.1-.5.9.1.9z" fill="#d58464" stroke-width="none" opacity="1" stroke="none"></path><path id="SvgjsPath3629" d="m168.4 219.4-2.1-21.4c0-2.2-.5-4.5-1.5-6.6-.9-2.1-2.3-3.9-3.9-5.5s-3.5-2.8-5.5-4c-2-1.2-4.1-2.2-6.2-3.1-4.2-1.9-8.6-3.6-12.9-5.4-2.2-.9-4.3-1.9-6.4-3-1.1-.6-2.1-1.2-3-1.9-1-.6-2-1.2-3-1.9s-2-1.5-2.8-2.6c-.8-1-1.3-2.2-1.7-3.4-.7-2.4-.8-4.8-.8-7.2 0-4.7.2-9.4.3-14.1.2-9.4.6-18.7.9-28l.6.6-20.4-.2-20.4-.1.3-.3.7 28c.1 4.7.3 9.3.4 14 0 2.4-.1 4.7-.8 7.1-.3 1.2-.9 2.3-1.6 3.3-.8 1-1.7 1.8-2.7 2.5s-2 1.3-2.9 2c-.9.6-1.9 1.3-3 1.9-2.1 1.2-4.2 2.1-6.4 3.1-4.3 1.9-8.6 3.6-12.8 5.6-2.1 1-4.2 2.1-6.1 3.2-2 1.2-3.8 2.4-5.4 4-1.6 1.6-2.9 3.4-3.8 5.4-.4 1-.8 2.1-1 3.1-.2 1.1-.4 2.2-.3 3.2v.2l-1.5 21.5-1-1.1 34 .1c11.3 0 22.7.1 34.1.2l34.2.3 34.4.5zm.2.2-34 .4-34.2.3c-11.4.1-22.9.2-34.4.2l-34.4.1h-1.1l.1-1.1 1.7-21.5v.1c-.1-5.1 2.2-9.8 5.7-13.3 1.7-1.7 3.8-3.1 5.8-4.3 2-1.2 4.2-2.2 6.3-3.2 4.3-2 8.7-3.7 13-5.4 2.1-.9 4.3-1.8 6.3-2.9 1-.5 1.9-1.1 3-1.8 1-.6 2-1.2 2.9-1.9.9-.6 1.8-1.4 2.4-2.2.7-.9 1.2-1.9 1.5-2.9.6-2.1.8-4.5.8-6.8 0-4.6-.1-9.3-.2-14l-.6-28v-.3h.3l20.4-.1 20.4-.2h.6v.6c-.1 9.3-.2 18.7-.4 28-.1 4.7-.2 9.4-.2 14 .1 2.3.2 4.6.8 6.7.3 1.1.8 2 1.4 2.9.6.8 1.4 1.6 2.4 2.2.9.6 1.9 1.3 2.9 1.9 1 .7 1.9 1.3 2.9 1.8 2 1.1 4.1 2.1 6.3 3 4.3 1.8 8.6 3.6 12.9 5.6 2.1 1 4.2 2.1 6.2 3.3 2 1.2 4 2.6 5.7 4.3 3.4 3.4 5.6 8.1 5.4 13v-.1l1.4 21.6zm-112.8-.4 1.9-13.8.1 13.8h-2zm88.6 0-1.9-13.8-.1 13.8h2z" fill="#c66c49" stroke-width="none" opacity="1" stroke="none"></path></g><g id="svga-group-clothes-single"><path id="SvgjsPath3991" d="m50.8 220 8.2-26.1 40.6 18.4 41.4-18.4 8.2 26.1z" fill="#1d282e" stroke-width="none" opacity="1"></path><path id="SvgjsPath3992" d="m150.1 219.7-4.3-13-4.3-13 7.7-16.3-1.8-.8-6.5 16.9c-3.4 1.6-6.9 3.2-10.3 4.7-3.4 1.5-6.9 3.1-10.3 4.6-6.8 3-13.7 5.9-20.6 8.8l-9.8-4.7c-3.4-1.6-6.7-3.1-10.1-4.7-6.8-3.1-13.6-6.1-20.4-9.1h-.2l-5.9-17.3-1.9.7 7.1 16.8c-.1.1-.1.2-.1.3l-4 13.4-3.7 13 24.2.5 24.6.4 12.4.1h12.4l24.8-.1h.3c.6-.2.8-.7.7-1.2zm-37.4-.7-12.2.1-24.6.4-25 .5 4.5-13.1 4.1-11.9 19.5 9c3.4 1.5 6.8 3.1 10.2 4.5l10.2 4.4c.2.1.3.1.5 0 6.8-3.2 13.7-6.4 20.6-9.5 3.4-1.6 6.9-3 10.4-4.6 3.3-1.4 6.6-2.9 9.9-4.3l3.7 12.6 3.6 11.9-23.2-.1-12.2.1z" fill="#070c0f" stroke-width="none" opacity="1"></path></g><g id="svga-group-head" transform="matrix(1,0,0,1,0,0)"><g id="svga-group-ears-left-move" transform="matrix(1,0,0,1,0,0)"><g id="svga-group-ears-left" transform="matrix(1,0,0,1,0,0)"><path id="SvgjsPath3821" d="M63.5 96.9s-3-5.1-4.6-7.4c-1.7-2.3-3.8-4.7-4.6-.7s-.8 11.6.3 16.9c1.1 5.2 5.8 10.5 7.8 10.5s3.4-7.9 3.3-10.6c-.1-2.7-1.1-6.7-2.2-8.7z" fill="#f4baa3" stroke-width="none" opacity="1" stroke="none"></path><path id="SvgjsPath3822" d="M65.1 96.3c.3.7-.2 4.1 0 4.9.4 1.5.7 3.1.8 4.7 0 1.6-.1 3.1-.4 4.5-.2 1.4-.6 2.8-1 4.1-.2.6-.5 1.2-.9 1.7-.2.2-.4.5-.7.6-.1.1-.3.1-.5.1s-.3 0-.5-.1c-.6-.2-1.1-.5-1.6-.9-.3-.2-.5-.4-.7-.6l-.7-.7c-.9-1-1.8-2.2-2.5-3.5s-1.4-2.7-1.8-4.3l-.3-1.2c-.1-.4-.1-.8-.2-1.2-.1-.8-.2-1.6-.3-2.3-.2-1.5-.2-3.1-.3-4.6-.1-3-.1-6.1.3-9 .1-.7.3-1.5.8-2l.2-.2c.1 0 .1-.1.2-.1.1-.1.3-.1.4-.2.1 0 5.3.5 6 1.8.8 1.4 3.5 7.8 3.7 8.5zM58.8 90c-.8-1-1.7-2.1-2.5-2.5-.4-.2-.8-.2-1 .2-.3.3-.5.9-.6 1.5-.3 1.3-.5 2.7-.6 4.1s-.2 2.9-.2 4.4.1 3 .3 4.5c.1.8.2 1.5.4 2.3.1.4.2.7.2 1.1.1.4.2.7.3 1.1.5 1.4 1.1 2.7 1.9 3.9.7 1.2 1.6 2.2 2.4 3.1.8.9 1.8 1.6 2.6 1.8.7.2 1.3-.9 1.7-1.9.4-1.1.8-2.4 1-3.7.3-1.3.5-2.7.6-4.1 0-1.4-.2-3-.5-4.5s-.8-3-1.5-4.3c-1.3-2.5-2.9-4.9-4.5-7z" fill="#e59e82" stroke-width="none" opacity="1" stroke="none"></path><path id="SvgjsPath3823" d="M56.8 93.1c1.5 1.2 2.9 3.3 3.5 5.7 0 .2-.1.2-.2.1 0 0 0-.1-.1-.1-.4-.5-1-1.1-1.4-1-.8.1-.6 1.4-.3 2.5.4 1.5 1 2.8 1.7 4.1.1.1 0 .3-.1.2-1-1.4-2.5-4.4-2.3-6.4.2-1.7 1.4-1 2.2-.1-.6-1.3-1.2-2.4-2-3.4-1-1.2-3.2-3.1-3.5-.6 0 .1-.2.1-.2-.1-.1-2.3 1.7-1.7 2.7-.9z" fill="#d58464" stroke-width="none" opacity="1" stroke="none"></path><path id="SvgjsPath3824" d="M60.7 107.4c.9 2.4-.6 3.1-1.6 2.1-1.6-1.6-2.9-5.2-3.2-8.2 0-.2.1-.2.2 0 .3 1.7.6 3.2 1.3 4.7.4.9.9 1.9 1.4 2.5.3.5.7.8 1.1 1 .8-.1 1.1-.8.7-2.1-.1 0 0-.1.1 0z" fill="#d58464" stroke-width="none" opacity="1" stroke="none"></path></g></g><g id="svga-group-ears-right-move" transform="matrix(1,0,0,1,0,0)"><g id="svga-group-ears-right" transform="matrix(1,0,0,1,0,0)"><path id="SvgjsPath3825" d="M136.5 96.9s3-5.1 4.6-7.4c1.7-2.3 3.8-4.7 4.6-.7s.8 11.6-.3 16.9c-1.1 5.2-5.8 10.5-7.8 10.5s-3.4-7.9-3.3-10.6 1.1-6.7 2.2-8.7z" fill="#f4baa3" stroke-width="none" opacity="1" stroke="none"></path><path id="SvgjsPath3826" d="M138.5 87.9c.7-1.3 5.9-1.8 6-1.8s.3.1.4.2c.1 0 .1.1.2.1l.2.2c.4.5.6 1.3.8 2 .5 2.9.4 6 .3 9-.1 1.5-.1 3.1-.3 4.6-.1.8-.2 1.5-.3 2.3-.1.4-.1.8-.2 1.2l-.3 1.2c-.4 1.6-1.1 3-1.8 4.3s-1.6 2.5-2.5 3.5c-.2.3-.5.5-.7.7s-.5.4-.7.6c-.5.4-1 .7-1.6.9-.2 0-.3.1-.5.1s-.3-.1-.5-.1c-.3-.1-.5-.4-.7-.6-.4-.5-.7-1.1-.9-1.7-.5-1.3-.8-2.6-1-4.1-.2-1.4-.4-2.9-.4-4.5.1-1.6.4-3.2.8-4.7.2-.8-.3-4.2 0-4.9.3-.8 3-7.2 3.7-8.5zm-1.9 9.1c-.7 1.3-1.1 2.8-1.5 4.3-.3 1.5-.5 3-.5 4.5.1 1.4.3 2.8.6 4.1.3 1.3.6 2.6 1 3.7s1 2.2 1.7 1.9c.8-.2 1.8-1 2.6-1.8.9-.9 1.7-1.9 2.4-3.1s1.4-2.4 1.9-3.9c.1-.4.2-.7.3-1.1s.2-.7.2-1.1c.1-.8.3-1.5.4-2.3.2-1.5.3-3 .3-4.5s0-3-.2-4.4c-.1-1.4-.3-2.8-.6-4.1-.1-.6-.3-1.2-.6-1.5s-.6-.4-1-.2c-.8.5-1.7 1.5-2.5 2.5-1.5 2.1-3.1 4.5-4.5 7z" fill="#e59e82" stroke-width="none" opacity="1" stroke="none"></path><path id="SvgjsPath3827" d="M143.2 93.1c-1.5 1.2-2.9 3.3-3.5 5.7 0 .2.1.2.2.1 0 0 0-.1.1-.1.4-.5 1-1.1 1.4-1 .8.1.6 1.4.3 2.5-.4 1.5-1 2.8-1.7 4.1-.1.1 0 .3.1.2 1-1.4 2.5-4.4 2.3-6.4-.2-1.7-1.4-1-2.2-.1.6-1.3 1.2-2.4 2-3.4 1-1.2 3.2-3.1 3.5-.6 0 .1.2.1.2-.1.1-2.3-1.7-1.7-2.7-.9z" fill="#d58464" stroke-width="none" opacity="1" stroke="none"></path><path id="SvgjsPath3828" d="M139.3 107.4c-.9 2.4.6 3.1 1.6 2.1 1.6-1.6 2.9-5.2 3.2-8.2 0-.2-.1-.2-.2 0-.3 1.7-.6 3.2-1.3 4.7-.4.9-.9 1.9-1.4 2.5-.3.5-.7.8-1.1 1-.8-.1-1.1-.8-.7-2.1.1 0 0-.1-.1 0z" fill="#d58464" stroke-width="none" opacity="1" stroke="none"></path></g></g><g id="svga-group-faceshape-wrap" transform="matrix(1,0,0,1,0,0)"><g id="svga-group-faceshape-single"><path id="SvgjsPath3859" d="M100.01 41.36C78.61 41.36 60.2 56.9 59 85.4c0 0 .2 20.8 2.8 34.8 1.5 8 4 11.7 10.5 17 6.5 5.4 18.69 15.64 27.69 15.64s21.21-10.24 27.71-15.64 9-9 10.5-17c2.6-14 2.8-34.8 2.8-34.8-1.2-28.4-19.59-44.04-40.99-44.04z" fill="#f4baa3" stroke-width="none" opacity="1" stroke="none"></path><path id="SvgjsPath3860" d="M100 41.3c-21.4 0-39.8 15.6-41 44.1 0 0 .2 20.8 2.8 34.8 1.5 8 4 11.7 10.5 17C78.8 142.6 91 153 100 153s21.2-10.4 27.7-15.8 9-9 10.5-17c2.6-14 2.8-34.8 2.8-34.8-1.2-28.4-19.6-44.1-41-44.1zm35.5 26.6c.2.7.5 1.5.7 2.2l.3 1.1c.1.4.2.8.3 1.1l.3 1.1.2 1.1.2 1.1.2 1.1.2 1.1.1 1.2.1 1.2c0 .4.1.8.1 1.2.1.8.1 1.6.2 2.3l.1 1.1V86c-.1 3.2-.2 6.4-.4 9.6-.3 6.4-.8 12.8-1.6 19.1l-.3 2.4-.4 2.3c-.3 1.5-.6 3-1 4.4s-.9 2.7-1.6 4c-.7 1.2-1.5 2.4-2.5 3.5s-2.1 2.2-3.3 3.2-2.4 2.1-3.6 3.1c-2.4 2.1-4.9 4.1-7.4 6-1.3 1-2.5 1.9-3.9 2.7-1.3.9-2.6 1.7-4 2.4s-2.8 1.4-4.2 1.9c-1.4.5-2.9.8-4.3.9-1.4 0-2.9-.2-4.4-.6-1.5-.4-2.9-1-4.4-1.7-1.4-.7-2.8-1.4-4.2-2.2-1.4-.8-2.7-1.7-4-2.6-1.3-.9-2.6-1.9-3.9-2.8-1.3-1-2.5-2-3.8-3-2.5-2.1-5-4-7.1-6.4-1-1.2-2-2.4-2.7-3.8-.7-1.4-1.3-2.8-1.7-4.3-.4-1.5-.7-3.1-.9-4.6l-.3-2.4-.2-2.4c-.6-6.4-.8-12.8-1-19.2l-.1-4.8-.1-4.8v-1.2l.1-1.1c0-.8.1-1.5.2-2.3 0-.4.1-.8.1-1.2l.2-1.2.2-1.2.2-1.1.2-1.1.2-1.1.2-1.1.3-1.1c.1-.4.2-.8.3-1.1l.3-1.1c.2-.7.5-1.5.7-2.2 1-2.9 2.3-5.8 3.9-8.4 1.6-2.7 3.5-5.2 5.7-7.4s4.7-4.2 7.5-5.8c1.4-.8 2.8-1.5 4.3-2.1.7-.3 1.5-.6 2.2-.8.4-.1.8-.2 1.1-.3l1.2-.3 1.2-.3.6-.1.6-.1L94 42c.4-.1.8-.1 1.2-.2a38.663 38.663 0 0 1 9.6 0c.4.1.8.1 1.2.2l1.2.2.6.1.6.1 1.2.3 1.2.3c.4.1.8.2 1.1.3.8.3 1.5.5 2.2.8 1.5.6 2.9 1.3 4.3 2.1 2.8 1.6 5.3 3.5 7.5 5.8 2.2 2.2 4.1 4.7 5.7 7.4 1.6 2.8 2.9 5.6 3.9 8.5z" fill="#c66c49" stroke-width="none" opacity="1" stroke="none"></path></g></g><g id="svga-group-mouth-single-move" transform="matrix(1,0,0,1,0,0)"><g id="svga-group-mouth-single" transform="matrix(1,0,0,1,0,0)"><path id="SvgjsPath3802" d="M88.3 128.3s3.8-1.8 4.9-2.7c1.1-.9 3.4-2.7 3.9-2.8.5 0 2.3 1.6 3 1.5.6 0 2.1-1.5 2.7-1.7s3.5 2.2 5.4 3.2c1.8 1 4.9 2 5.4 2.3.6.3-.4 0-.4 0s-4.2 2.9-5.5 4.1-2.2 2-2.9 2.4-8.1-.1-8.9-.4-3.5-2.9-4.7-3.9c-1.7-1.2-2.9-2-2.9-2z" fill="#E2929B" stroke-width="none" opacity="1" transform="translate(0 3)" stroke="none"></path><path id="SvgjsPath3803" d="M95.6 134.1c2.7 1.5 6.7 2.1 9.4.4.2-.1.1-.5-.1-.5-1.4 0-2.8.4-4.3.4-1.6 0-3.2-.4-4.8-.8-.3-.1-.5.3-.2.5z" fill="#d3737e" stroke-width="none" opacity="1" transform="translate(0 3)" stroke="none"></path><path id="SvgjsPath3804" d="M85.9 128c1.7.9 4.1.9 6 .9 2.2 0 4.4-.2 6.6-.8 2.5-.7 5.2.4 7.8.6 2.8.2 5.8.2 8.6-.6.2-.1.2-.5-.1-.5-3 .2-5.8.6-8.8.3-1.3-.1-2.7-.3-4-.6-.8-.2-1.5-.5-2.4-.4-1.1.1-2.1.6-3.2.8-1.1.2-2.3.3-3.4.3-2.4.1-4.7-.1-7.1-.4-.1.1-.1.3 0 .4z" fill="#d3737e" stroke-width="none" opacity="1" transform="translate(0 3)" stroke="none"></path><path id="SvgjsPath3805" d="M99.3 134c3.1 1.2 7.9-.5 8.5-4.1.1-.3-.3-.5-.6-.3-1.1.9-2.1 2-3.4 2.7-1.4.8-2.9 1.2-4.4 1.4-.3-.1-.4.2-.1.3z" fill="#f1b4bb" stroke-width="none" opacity="1" transform="translate(0 3)" stroke="none"></path><path id="SvgjsPath3806" d="M101.5 124.4c1.6-1 3 2.6 4.6 2.4.2 0 .4-.2.4-.4-.1-.6-.5-.9-.9-1.3-.6-.5-1.1-1-1.8-1.4-.9-.5-1.9-.4-2.5.4-.1.2.1.4.2.3z" fill="#f1b4bb" stroke-width="none" opacity="1" transform="translate(0 3)" stroke="none"></path></g></g><g id="svga-group-eyes-left-move" transform="matrix(1,0,0,1,0,0)"><g id="svga-group-eyes-left" transform="matrix(1,0,0,1,0,0)"><g id="svga-group-eyesback-left"><path id="SvgjsPath3901" d="M92.3 99.5s-1.4-2.7-3.1-3.9c-1.7-1.3-4.6-3.1-9.3-2.1-4.7.9-8 4.7-8 4.7s5.9 2.2 11.3 2.2c5.3-.1 9.1-.9 9.1-.9z" fill="#ffffff" stroke-width="none" opacity="1"></path></g><g id="svga-group-eyesiriswrapper-left" transform="matrix(1,0,0,1,0,0)"><g id="svga-group-eyesiriscontrol-left" transform="matrix(1,0,0,1,0,0)"><g id="svga-group-eyesiris-left" transform="matrix(1,0,0,1,0,0)"><path id="SvgjsPath3873" d="M82 91.3c2.8 0 5.2 2.3 5.2 5.2s-2.3 5.2-5.2 5.2-5.2-2.3-5.2-5.2 2.3-5.2 5.2-5.2z" fill="#7b5c33" stroke-width="none" opacity="1"></path><path id="SvgjsPath3874" d="M82 92.9c2 0 3.6 1.6 3.6 3.6S83.9 100 82 100s-3.6-1.6-3.6-3.6 1.6-3.5 3.6-3.5z" fill="#000000" stroke-width="none" opacity="1"></path><path id="SvgjsPath3875" d="m78.2 94 4 2.9-1.6-4.7c-.3-.4-2.3.7-2.4 1.8z" fill="#ffffff" stroke-width="none" opacity="1"></path></g></g></g><g id="svga-group-eyesfront-left"><path id="SvgjsPath3909" d="M70.73 98.03c0 6.9 4.93 12.5 11.02 12.5s11.02-5.6 11.02-12.5-4.93-12.5-11.02-12.5-11.02 5.59-11.02 12.5zm1.2.17s3.31-3.76 8-4.69c4.69-.93 7.55.87 9.25 2.12 1.7 1.25 3.12 3.92 3.12 3.92s-3.76.77-9.09.84c-5.34.06-11.28-2.19-11.28-2.19z" fill="#f4baa3" stroke-width="none" opacity="1" stroke="none"></path><path id="SvgjsPath3910" d="M91.56 97.86s-2.08-4.66-7.97-5.44c-5.89-.79-14.54 3.87-15.21 5.61-.67 1.74 14.43 3.48 18.3 2.53 0 0-11.56-.39-14.54-2.3 0 0 2.3-4.27 8.93-4.83 6.61-.57 10.04 3.7 10.49 4.43z" fill="#f4baa3" stroke-width="none" opacity="1" stroke="none"></path><path id="SvgjsPath3911" d="M92.49 100.56c-2.99 2.4-6.96 3.48-10.76 3.36-.17-.01-.17-.25 0-.26 3.97-.16 7.22-1.31 10.68-3.21.07-.04.15.05.08.11z" fill="#e59e82" stroke-width="none" opacity="1" stroke="none"></path><path id="SvgjsPath3912" d="M71.75 98.72c6.44 2.32 13.78 2.6 20.43.97.13.06.34-.05.27-.21-3.52-8.75-15.59-8.02-20.9-1.51-.22.27-.14.63.2.75zm.88-.65c5.34-6.21 15.21-6.15 19.35 1.37-6.45 1.12-13.13.73-19.35-1.37z" fill="#782c76" stroke-width="none" opacity="1" stroke="none"></path></g></g></g><g id="svga-group-eyes-right-move" transform="matrix(1,0,0,1,0,0)"><g id="svga-group-eyes-right" transform="matrix(1,0,0,1,0,0)"><g id="svga-group-eyesback-right"><path id="SvgjsPath3902" d="M107.7 99.5s1.4-2.7 3.1-3.9c1.7-1.3 4.6-3.1 9.3-2.1 4.7.9 8 4.7 8 4.7s-5.9 2.2-11.3 2.2c-5.3-.1-9.1-.9-9.1-.9z" fill="#ffffff" stroke-width="none" opacity="1"></path></g><g id="svga-group-eyesiriswrapper-right" transform="matrix(1,0,0,1,0,0)"><g id="svga-group-eyesiriscontrol-right" transform="matrix(1,0,0,1,0,0)"><g id="svga-group-eyesiris-right" transform="matrix(1,0,0,1,0,0)"><path id="SvgjsPath3876" d="M118 91.3c2.8 0 5.2 2.3 5.2 5.2s-2.3 5.2-5.2 5.2-5.2-2.3-5.2-5.2 2.4-5.2 5.2-5.2z" fill="#7b5c33" stroke-width="none" opacity="1"></path><path id="SvgjsPath3877" d="M118 92.9c2 0 3.6 1.6 3.6 3.6S120 100 118 100s-3.6-1.6-3.6-3.6 1.7-3.5 3.6-3.5z" fill="#000000" stroke-width="none" opacity="1"></path><path id="SvgjsPath3878" d="m114.2 94 4 2.9-1.6-4.7c-.2-.4-2.2.7-2.4 1.8z" fill="#ffffff" stroke-width="none" opacity="1"></path></g></g></g><g id="svga-group-eyesfront-right"><path id="SvgjsPath3913" d="M118.26 85.53c-6.08 0-11.02 5.6-11.02 12.5s4.93 12.5 11.02 12.5 11.02-5.6 11.02-12.5-4.94-12.5-11.02-12.5zm-1.47 14.85c-5.33-.06-9.09-.84-9.09-.84s1.41-2.67 3.12-3.92c1.7-1.25 4.56-3.05 9.25-2.12 4.69.93 8 4.69 8 4.69s-5.94 2.26-11.28 2.19z" fill="#f4baa3" stroke-width="none" opacity="1" stroke="none"></path><path id="SvgjsPath3916" d="M108.44 97.86s2.08-4.66 7.97-5.44c5.89-.79 14.54 3.87 15.21 5.61.67 1.74-14.43 3.48-18.3 2.53 0 0 11.56-.39 14.54-2.3 0 0-2.3-4.27-8.93-4.83-6.61-.57-10.04 3.7-10.49 4.43z" fill="#ecac92" stroke-width="none" opacity="1" stroke="none"></path><path id="SvgjsPath3917" d="M107.51 100.56c2.99 2.4 6.96 3.48 10.76 3.36.17-.01.17-.25 0-.26-3.97-.16-7.22-1.31-10.68-3.21-.07-.04-.15.05-.08.11z" fill="#e59e82" stroke-width="none" opacity="1" stroke="none"></path><path id="SvgjsPath3918" d="M128.45 97.96c-5.31-6.51-17.38-7.23-20.9 1.51-.07.17.14.28.27.21 6.65 1.63 13.98 1.35 20.43-.97.34-.11.42-.47.2-.75zm-20.43 1.47c4.14-7.52 14.01-7.58 19.35-1.37-6.22 2.11-12.9 2.5-19.35 1.37z" fill="#782c76" stroke-width="none" opacity="1" stroke="none"></path></g></g></g><g id="svga-group-facehighlight-single"></g><g id="svga-group-eyebrows-left-move" transform="matrix(1,0,0,1,0,0)"><g id="svga-group-eyebrows-left-rotate" transform="matrix(1,0,0,1,0,0)"><g id="svga-group-eyebrows-left" transform="matrix(1,0,0,1,0,0)"><path id="SvgjsPath3967" d="m69.1 87.3.2-.2.3-.3v-.1c.1-.2.2-.4.4-.5.3-.4.7-.7 1-.9.7-.6 1.4-1.2 2.3-1.4h.2c1.6-1.3 4-2.5 5.7-1.4 1.7-.2 3.5-.1 5 .4.8-.1 1.5.2 2.3.5 1.3.4 2.6.8 3.7 1.4.1.1.2.2.2.3 1.5.4 3 2.1 1.5 3.5-.8.7-1.8.7-2.7.3-.2-.1-.4-.1-.6-.2-1.7-.1-3.2-1.3-4.8-1.9-1.2-.5-2.5-.7-3.7-1-.9.1-1.7.2-2.6.3-.3 0-.6.1-.9.1-1.1.4-2.1.6-3.2.8-.2.1-.4.2-.7.3-.2.2-.6.3-.8.4-.1.1-.3.1-.4.2l-.9.3c-.3.1-.6.2-.9.2-.1 0-.3 0-.4-.1-.1 0-.1.1-.2.1-.3.1-.6-.1-.6-.4.1-.5.3-.7.6-.7z" fill="#b7513b" stroke-width="none" opacity="1"></path><path id="SvgjsPath3968" d="M88.3 87.9c.6-.2 1.3-.2 1.8-.6.6-.4 1-1 1.1-1.6.1-.2.4-.1.4.1-.2 1.4-1.7 3.2-3.3 2.5-.2 0-.2-.4 0-.4zm.5.9c1.4-.2 2.5-.7 3.3-1.9.1-.2.4-.1.3.2-.6 1.4-2.1 2.6-3.7 2.1-.1-.1-.1-.4.1-.4zm-3.7-6.3c-.1-.2.1-.5.3-.3 1.5 1.1 2.3 3.8.7 5.1-.2.1-.4 0-.3-.2.4-.7.7-1.8.5-2.6-.2-.8-.9-1.3-1.2-2zm-4.9-.2c1.9.1 3.2 2 3.5 3.8 0 .2-.2.3-.3.1-.4-.8-.7-1.7-1.4-2.3-.6-.6-1.3-.9-2-1.2-.1-.2 0-.5.2-.4zM72.4 84c2.6-1.7 6.2-.6 8.4 1.3.1.1 0 .2-.1.1-2.8-1.5-5.1-2.1-8.2-1.1-.2.1-.3-.2-.1-.3zm-3.6 3.7c1.8-2 5.2-2.7 7.8-1.9.1 0 .1.3 0 .2-1.2-.1-2.6 0-3.8.2-1.4.3-2.4 1.2-3.7 1.8-.3.1-.4-.2-.3-.3z" fill="#c66854" stroke-width="none" opacity="1"></path><path id="SvgjsPath3969" d="M92.9 87.5c0-.3 0-.5-.1-.7 0-.5-.2-1-.7-1.3-.6-.8-1.6-1.3-2.5-1.7-2.5-1.2-5.4-2-8.2-2.2-4.8-.4-10 1.2-12.8 5.3-.1 0-.2 0-.3.1-.4.5-.4 1.1.2 1.6.9.8 2.3 0 3.2-.3 3.6-1.4 7.3-2.7 11.2-1.5 1.8.6 3.4 1.6 5.2 2.3 1 .4 2.2.6 3.2.1.6-.3 1-.8 1.2-1.4.3-.1.4-.1.4-.3zm-17-4.6s.1 0 0 0c2.2.5 3.8 1 5.5 2.4.1.1.3 0 .2-.2-1-1.3-2.6-2.3-4.2-2.6.9-.2 1.8-.2 2.7-.2v.1c.6.5 1.1.9 1.6 1.5.4.6.6 1.2.8 1.8-.6-.2-1.1-.3-1.7-.3-1.8-.2-3.7.1-5.4.6-1 .3-2 .7-2.9 1-.4.2-2.9 1.5-3.5.5.1 0 .1 0 .2-.1 1.7-2.2 4.1-3.7 6.7-4.5zm9.5.1c-.1.6.1 1.1.1 1.7 0 .7-.3 1.2-.5 1.8v.2c-.7-.3-1.4-.6-2.1-.8 0-1.3-.9-2.8-2.1-3.5 1.6 0 3.1.2 4.6.6zm6.9 3.6c.2 1-.9 1.9-1.9 2.1-.6.1-1.4-.2-1.9-.4-.3-.1-.6-.3-.9-.4.4-.2.9-.5 1.2-.8.7-.6 1.1-1.3 1.2-2.2 0-.2-.2-.2-.2-.1-.3.7-.7 1.3-1.3 1.8-.5.4-1.1.6-1.6.9-.4-.2-.8-.4-1.3-.6-.1 0-.1 0-.2-.1 0 0 .1 0 .1-.1.8-.6 1.2-2.8.4-3.6.6.2 1.2.3 1.7.5 1.1.4 2.4.8 3.3 1.5-.1.6-.4 1.2-.9 1.7-.5.4-1 .6-1.6.8-.2.1-.2.3 0 .4.7.2 1.6-.2 2.1-.8.5-.5.8-1.2.8-1.9.3.4.7.8 1 1.3z" fill="#a83c25" stroke-width="none" opacity="1"></path></g></g></g><g id="svga-group-eyebrows-right-move" transform="matrix(1,0,0,1,0,0)"><g id="svga-group-eyebrows-right-rotate" transform="matrix(1,0,0,1,0,0)"><g id="svga-group-eyebrows-right" transform="matrix(1,0,0,1,0,0)"><path id="SvgjsPath3970" d="m130.9 87.3-.2-.2-.3-.3v-.1c-.1-.2-.2-.4-.4-.5-.3-.4-.7-.7-1-.9-.7-.6-1.4-1.2-2.3-1.4h-.2c-1.6-1.3-4-2.5-5.7-1.4-1.7-.2-3.5-.1-5 .4-.8-.1-1.5.2-2.3.5-1.3.4-2.6.8-3.7 1.4-.1.1-.2.2-.2.3-1.5.4-3 2.1-1.5 3.5.8.7 1.8.7 2.7.3.2-.1.4-.1.6-.2 1.7-.1 3.2-1.3 4.8-1.9 1.2-.5 2.5-.7 3.7-1 .9.1 1.7.2 2.6.3.3 0 .6.1.9.1 1.1.4 2.1.6 3.2.8.2.1.4.2.7.3.2.2.6.3.8.4.1.1.3.1.4.2l.9.3c.3.1.6.2.9.2.1 0 .3 0 .4-.1.1 0 .1.1.2.1.3.1.6-.1.6-.4-.1-.5-.3-.7-.6-.7z" fill="#b7513b" stroke-width="none" opacity="1"></path><path id="SvgjsPath3971" d="M111.7 87.9c-.6-.2-1.3-.2-1.8-.6-.6-.4-1-1-1.1-1.6-.1-.2-.4-.1-.4.1.2 1.4 1.7 3.2 3.3 2.5.2 0 .2-.4 0-.4zm-.5.9c-1.4-.2-2.5-.7-3.3-1.9-.1-.2-.4-.1-.3.2.6 1.4 2.1 2.6 3.7 2.1.1-.1.1-.4-.1-.4zm3.7-6.3c.1-.2-.1-.5-.3-.3-1.5 1.1-2.3 3.8-.7 5.1.2.1.4 0 .3-.2-.4-.7-.7-1.8-.5-2.6.2-.8.9-1.3 1.2-2zm4.9-.2c-1.9.1-3.2 2-3.5 3.8 0 .2.2.3.3.1.4-.8.7-1.7 1.4-2.3.6-.6 1.3-.9 2-1.2.1-.2 0-.5-.2-.4zm7.8 1.7c-2.6-1.7-6.2-.6-8.4 1.3-.1.1 0 .2.1.1 2.8-1.5 5.1-2.1 8.2-1.1.2.1.3-.2.1-.3zm3.6 3.7c-1.9-2-5.2-2.7-7.8-1.9-.1 0-.1.3 0 .2 1.2-.1 2.6 0 3.8.2 1.4.3 2.5 1.2 3.7 1.8.3.1.4-.2.3-.3z" fill="#c66854" stroke-width="none" opacity="1"></path><path id="SvgjsPath3972" d="M107.3 87.7c.2.6.6 1.1 1.2 1.4 1 .5 2.2.3 3.2-.1 1.8-.7 3.4-1.7 5.2-2.3 3.9-1.2 7.6.1 11.2 1.5.9.4 2.3 1.1 3.2.3.6-.5.6-1.1.2-1.6-.1-.1-.2-.1-.3-.1-2.8-4.1-8.1-5.7-12.8-5.3-2.8.2-5.6 1-8.2 2.2-.9.4-1.8 1-2.5 1.7-.4.3-.7.8-.7 1.3-.1.2-.1.5-.1.7.2.3.3.3.4.3zm23.6-.2c0 .1.1.1.1.1-.5.9-3.1-.4-3.5-.5-1-.4-1.9-.7-2.9-1-1.8-.5-3.6-.8-5.4-.6-.6.1-1.1.2-1.7.3.2-.6.4-1.3.8-1.8.4-.6 1-1.1 1.6-1.5v-.1c.9 0 1.8.1 2.7.2-1.7.2-3.3 1.3-4.2 2.6-.1.1.1.2.2.2 1.6-1.4 3.3-1.9 5.4-2.3 0 0 .1 0 .1-.1 2.6.7 5 2.2 6.8 4.5zm-11.7-5.2c-1.2.7-2.1 2.2-2.1 3.5-.7.2-1.4.5-2.1.8v-.2c-.1-.6-.4-1.2-.5-1.8 0-.5.2-1.1.1-1.6v-.1c1.5-.3 3-.5 4.6-.6zm-10.4 3c0 .7.3 1.4.8 1.9s1.3 1 2.1.8c.2-.1.2-.3 0-.4-.6-.2-1.1-.4-1.6-.8s-.8-1-.9-1.7c1-.7 2.2-1.1 3.3-1.5.6-.2 1.1-.3 1.7-.5-.8.8-.5 3 .4 3.6 0 0 .1 0 .1.1-.1 0-.1 0-.2.1-.4.2-.9.4-1.3.6-.5-.3-1.1-.4-1.6-.9-.6-.5-1-1.1-1.3-1.8-.1-.2-.3-.1-.2.1.1.9.5 1.6 1.2 2.2.3.3.7.6 1.2.8-.3.2-.6.3-.9.4-.5.2-1.3.6-1.9.4-1.1-.2-2.1-1.1-1.9-2.1.2-.5.6-.9 1-1.3z" fill="#a83c25" stroke-width="none" opacity="1"></path></g></g></g><g id="svga-group-nose-single-move" transform="matrix(1,0,0,1,0,0)"><g id="svga-group-nose-single" transform="matrix(1,0,0,1,0,0)"><path id="SvgjsPath3953" d="M97.72 89.37c-.8 3.33-.91 6.89-1.27 10.29-.38 3.64-1.08 7.4-1.03 11.06 0 .29.45.37.52.07.74-3.34.83-6.91 1.18-10.31.37-3.64 1.05-7.41.93-11.06 0-.19-.28-.24-.33-.05z" fill="#c66c49" stroke-width="none" opacity="1" transform="translate(0 2)" stroke="none"></path><path id="SvgjsPath3954" d="M94.71 108.8c-.98 1.31-1.8 2.73-2.52 4.2-.46.95-1.04 2.07-.73 3.16.5 1.8 2.79 2.36 4.28 1.51.44-.26.24-.95-.26-.95-.87-.01-1.89.27-2.58-.47-.84-.89-.01-2.5.36-3.4.55-1.32 1.22-2.59 1.74-3.92.07-.19-.19-.26-.29-.13z" fill="#c66c49" stroke-width="none" opacity="1" transform="translate(0 2)" stroke="none"></path><path id="SvgjsPath3955" d="M94.57 116.21c2.7-.2 3.21 3.2 5.78 3.28 2.2.07 2.37-3.24 4.46-3.14.24.01.32-.33.12-.45-2.37-1.4-2.81 2.72-4.99 2.46-1.29-.15-2.21-2.05-3.37-2.6-.79-.37-1.36-.34-2.13.01-.19.11-.09.46.13.44z" fill="#c66c49" stroke-width="none" opacity="1" transform="translate(0 2)" stroke="none"></path><path id="SvgjsPath3956" d="M104.07 117.75c1.78.4 3.85-.15 4.27-2.13.21-.99-.12-1.97-.64-2.81-.84-1.37-1.93-2.53-2.73-3.95-.13-.24-.47-.12-.48.13-.1 1.59 1.08 2.69 1.92 3.92.78 1.13 1.45 2.69.14 3.81-.6.51-1.74.42-2.48.56-.24.05-.23.42 0 .47z" fill="#c66c49" stroke-width="none" opacity="1" transform="translate(0 2)" stroke="none"></path><path id="SvgjsPath3957" d="M102.32 112.41c-.39-.7-1.4-.81-1.96-.25-.05.05-.23.28-.28.34-.06.08-.19.25-.21.28-.06.1-.12.2-.17.3l-.11.26c0-.01-.01.01-.03.05-.06.06-.12.13-.17.19-.17.18-.34.36-.48.57-.4.63-.08 1.35.46 1.75.83.62 2.03.12 2.61-.58.7-.84.89-1.92.34-2.91z" fill="#fcc9b5" stroke-width="none" opacity="1" transform="translate(0 2)" stroke="none"></path></g></g><g id="svga-group-hair-front" transform="matrix(1,0,0,1,0,0)"><path id="SvgjsPath4008" d="M172.8 133.8c-.3-1.3-1.3-1.6-2-2.6-1.8-2.6-.7-2.9.3-5.1.8-1.7.8-3-.3-4.5s-2.3-1.2-2.3-3.7c0-1.4 1.1-2.8 1.3-4.2.2-1.7 0-3.1-1.1-4.4-1.7-1.9-3-.5-2.6-4.2.1-1.3.9-2.5.9-3.9 0-1.7-.4-3.6-1.8-4.6-1-.8-2.9-.7-3.4-2.2-.2-.7.8-3.5.7-4.8-.2-1.3-.9-2.2-2.2-2.3-.6-.1-1.3-.1-1.9-.2.4-1.4 1.5-2.9 1.3-4.3-.3-1.5-1.2-2.5-2.5-3.1-2.2-1-2.5-.4-2.1-3.1.1-.8.7-1.6.9-2.5.3-1.6.2-3.2-.8-4.5-1.3-1.7-2.7-1.3-4.4-1.9-.7-.3-1.1-.4-1.3-.7-.1-.4-.2-.8-.4-1.1 0-.4 0-.9-.1-1.6-.1-1.4.2-1.9-.4-3.2-1.2-2.8-4.2-3.9-6.8-3.1-.2-1.5.4-4.2-.8-5.4-.8-.8-1.8-1.2-2.8-1.4-.1-.2-.3-.3-.5-.5-.3-.2-.6-.5-.9-.6-.2-3.7-.8-8.2-4.9-7.8-1.1.1-1.9 1.1-2.9.5-.7-.5-1.1-2.8-1.7-3.5-1.1-1.3-2.3-2-4-2-2.7 0-3.8 1.5-5.7 1.7l-.3-.3c-1.3-1.1-2.8-1.5-4.4-1.4-.9-.6-1.8-1.1-3.3-.9-.7.1-1.2.5-1.8.8 0 0-.1 0-.1-.1h-.1c-.9-.7-1.1-1.5-2.5-1.8-1.7-.3-3 .3-3.8 1.4-.1 0-.3 0-.4-.1h-1.1c-.9-1-1.9-1.9-3.3-2.1-.6-.1-1.1 0-1.6.2-2.1-1.2-4.8-1.5-7.1-.9-1.5.5-2.4 1.3-3.3 2.2-.3.2-.7.4-1 .6-.4.3-.8.7-1.1 1.1-1.4.8-2.8.8-4.2.5-.9-.3-1.9-.7-2.6-.8-.6-.1-1.2-.1-1.8-.1-.5-.1-1.1-.1-1.7 0-1.9.2-3.7.9-5 2.4-.2.3-.4.6-.6.8-.5.7-1 1.4-1.3 2.2 0 .1-.1.3-.1.6-.4.4-.9.8-1.9 1.1-2.4.7-4.2 1.2-5.8 3.3-1.6 2.2-1.2 4.4-3.5 6-1.8 1.2-3.5 1.4-4.7 3.6-1 1.8-.6 3.8-.8 5.5-.3.6-.6 1.2-.8 1.8-1.2 1.5-3.5 1.9-4.7 3.7-1.5 2.1-1.1 3.7-1 5.7-.3.2-.6.3-.9.5-1.8 1.4-3.5 3.4-3.5 5.9 0 .3 0 .6.1.9 0 0 0 .1-.1.1-1.1 2.1-.8 4-.5 6.2.3 2.9-1.6 2.7-2.9 5-1.7 2.8.7 6-1.4 8.9-1.3 1.9-3.3 2.3-3.3 5.1 0 2.7 3.3 4.9 1.5 7.5-1.3 1.9-3 2-3.4 4.7-.4 3.2 1.5 6.4.9 9.7-.2.8.7 1.3 1.3.8.6-.5 1-.9 1.2-1.5v.8c.3 2 1.4 2.7.8 4.8-.5 2-2.1 2.6-3 4.3-1.5 2.9 0 6 1.4 8.6 1 1.8 3.6.2 2.7-1.6-1.3-2.8-.7-4.8 1-7.2.5-.7 1.3-1.2 1.7-2 1-2 .2-3.3-.2-5.3-1-4.2.8-5.1 2.8-8.2 1-1.6 1.7-3.2 1.4-5.1-.3-2.3-2.3-3.7-2.9-5.7-.5-1.9.6-2.8 1.8-3.6.5 1.4 1.4 2.6 2.3 4 1.6 2.5 1.3 4.1.3 6.8-.4.9-.6 1.8-.6 2.8 0 3.1 3.6 5.5 2.8 8.6-.6 2.1-2.6 3.3-2.6 5.7 0 1.2.6 2 1 3.1 1 2.4 1.5 4 .5 6.6-.3.7.6 1.2 1.1.9 2-1 3.1-2.7 3-5-.1-3.6-2.7-4.7-.4-8.3 1.4-2.1 2.3-4 1.5-6.6-.4-1.3-1.8-2.2-2.1-3.4-.7-2.4.8-3.2 1.7-4.8l.3-.6c.3.1.7.2 1 .3.3 2.6 1.9 3.4 3.5 5.1-1 .9-2.1 1.6-2.5 3.4-.3 1.4-.1 2.9 1 3.9.1.1.2.2.3.2-.2.2-.4.5-.6.8-.9 1.4-1.3 2.8-1 4.4.8 4 5.3 5.3 1.3 10-.9 1 .5 2.4 1.5 1.5 1.3-1.2 2.6-2.6 3-4.3 1.4 1.4 2.6 3 1.4 3.7-.9.5-.1 1.9.8 1.5 2.4-1.1 2-3.6.6-5.5-1.3-1.8-3.1-1.5-2.1-4.9.2-.6.8-1.2 1.1-1.7.7-1.5 1.1-3.4.4-4.9-.4-.7-1.2-1.3-1.9-1.8.9-1.1 1.7-2.2 1.9-3.6.4.4.9.7 1.2 1.4 2 3.5 1.3 3.6.6 6.3-.5 1.8-1 3.5-.3 5.4.8 2.1 5.7 4.7 3.9 7.3-.4.6.4 1.4 1 1 2.1-1.4 1.6-3.8.2-5.7-1.4-1.9-2.9-3.3-2.7-6 .1-1.1 1.1-2.5 1.3-3.6.4-1.6.6-3.1-.1-4.7-.3-.9-1.3-1.6-1.6-2.4-1.4-3.8-.2-3.2.6-5.6.7-2.2 1.5-4.3.7-6.6-.9-2.6-3-3.4-1.8-6.5.8-2 2.4-3.4 2.7-5.7.3-1.8-.3-3.3-1.2-4.9-1.7-3.2-1.6-4 1-6.4 2.4-2.3 4.3-4.9 2.5-8.1l5.4-1.1c0-5.1 2.1-13.2 2.1-13.2-1.1 6-.4 13.3-.4 13.3l8.5-.3 2.4-11.6c-.8 6-.8 11.9-.8 11.9l5.8.1c0-3.2 2.5-22.5 2.5-22.5-.8 6.6-.8 22.2-.8 22.2 4.3.6 10.4 0 10.4 0 .4-3.2 1-21.3 1-21.3 1.2 8 2.2 21.1 2.2 21.1.7-2 2-8.3 2-8.3.3 2.1-.4 8.6-.4 8.6l4.4.1.5-4.8 1.8 4.6c.7-8.6-.5-21.8-.5-21.8 1.5 7.4 2.1 21.2 2.2 21.3h8.5c.8-3.2-.3-15-.3-15 2.2 5.3 2.1 15.3 2.1 15.3 3.1.3 5.8.8 5.8.8l.5-10.5c.3 2.4.9 10.8.9 10.8s3.1 1 5.2 1.5c-.1.4-.1.7 0 1.1.3 1.4 1.5 2.1 2.4 2.9-.5 1.2-.9 2.3-.9 3.4.1.7.2 1.2.4 1.7-1.4 1.3-3.2 2.1-3.7 4.3-.5 2.2.7 3.3 1.9 5 1.4 1.8 2.3 3.1.4 5.2-.6.7-1.9 1.1-2.6 1.8-1.1 1-2 2.2-2 3.8 0 1.8 1.1 3 2.4 4 2.3 1.9 7 3 2.6 6.3-3.1 2.3-7.8 4-3.8 8.6 1.5 1.8 3.4 3.7 2.6 6.6-.3 1.1-1.8 1.8-2.1 3-.4 1.8 2.1 4.1 1.6 5.3-.5 1.1 1.1 2.1 1.7 1 .8-1.7.4-1.5 0-3.3-.6-2.6-.2-3 .9-4.9.4-.7 1-1.2 1.2-2 .5-1.7-.1-3.3-1.1-4.7-.6-.8-2.1-1.6-2.5-2.4-1-2.5.9-3.8 2.9-4.8 1.2-.6 2.3-1.5 3-2.5.9 2 2.2 2.2 1 4.9-.7 1.6-1.9 2.3-1.5 4.3.5 2.8 3.5 2.4 1.3 5.6-.6.9-1.9 1.3-2.1 2.5-.8 3.4 4 3 1.1 8.2-.3.5.4 1 .8.6 1.3-1.2 1.9-2.6 1.6-4.5-.1-.7-.8-1.5-.9-2.1-.5-4.3.8-2.1 1.9-3.9 1.1-1.8 1.3-1.8 1.1-4-.1-1.5-1.4-2-.6-3.9.4-1 1.8-1.8 2.2-2.9.9-2.2-.1-3.1-.8-5.1-.6-1.9-.8-3.2-.2-5 .3-.9.9-1.7 1.2-2.6.6.8 1.4 1.4 2.3 2 .2.1.5.3.7.4.5 2.5 1.9 4.7 1 7.6-.9 2.9-2.4 5.1-1 8.3.8 1.9 1 1.2.5 2.5-.4 1-1.3 1.5-1.6 2.7-.6 2.8 2 5.2 1.6 7.8-.2 1.6 1.6 2.4 2.5 1.1 1.2-1.7 1-3 .8-5-.2-1.8-.5-2.2.6-4 .5-.8 1.1-1.1 1.4-2.1.4-1.4-.2-2.6-.8-3.8 1.5 1.6 3.5 2.9 3.1 5.5-.4 3-2.7 5.5 1.3 7.2 1.5.6 2.3-1.8 1.1-2.5-.5-.3-.2-1.6.3-3 .8.7 2.2.3 2.3-1 .2-2.8 2.6-5.5 2.1-8.4-.2-1-.8-1.5-1.1-2.3-.9-2-1.1.1-.6-2.8.3-1.5 1-1.9 1.6-2.9 0 .1.1.2.1.3.5 1.1 1.3 1.2 1.9 2.2 1.5.4 1.9 1.6 1.2 3.5-.5.6-.9 1.3-1.1 2.1-.4 1.5 0 2.1.6 3.5.3.4.7.7 1.1 1 1.5 1.6 1.6 2.9.2 3.8 0 .5-.3 1-.3 1.6-.1 1.4 2 1.4 2.1 0-.1-2.5 2.1-2.6 1.6-4.9zM33.5 121.9c-.8 1.1-1.6 2.2-2.1 3.4v-1c-.1-1.3-1-3.1-.8-4.5.6-3.8 2.1-2.2 3.2-4.1.2-.3.4-.7.5-1 1.5 3 1.1 4.6-.8 7.2zm.2-16.3c-.4.3-.7.7-.9 1.1 0-1.9 1.7-2.1 3-3.8.4-.5.7-1 .8-1.5.1.3.2.7.1 1.1-.2 2-1.7 1.8-3 3.1zM133 54.8c-.2 0-.4-.1-.5-.1-.4-.6-.8-1.1-1.2-1.7.4-.1.8-.1 1.2-.2.5.7 1.1 1.4 1.6 2.1-.4 0-.7 0-1.1-.1zm-2-7.7c1.9.1.6-2.7 1.9 1.2.1.3.2.7.2 1-1 .2-1.7.4-2.4-1.3l-.3-.9h.6zm-55.7-4.7c.4 0 .7.1 1.1.2-.3.5-.6 1-.7 1-.4.2.2-.2-1.2-.6-.7-.2-1.3-.3-1.9-.3.7-.3 1.6-.4 2.7-.3zm-8.4 11.5c-.1.9-.5 1.7-1.6 2.1.1-.4 0-.8-.3-1.2.7-.3 1.3-.6 1.9-.9zm-11.6 3.4c-.1.6-.5 1.2-1.4 1.9l-1.2.6c.6-1.3 1.5-2.1 2.6-2.5zm-2.8 11.5c.2-3 1.1-3.7 2.6-4.4.1 1.7.8 2.8-.5 4.2-.7.7-1.3.9-2.1 1.2v-1zm1.4 13.5c-.1-.1-.2-.2-.2-.3-.8-1.1-.7-2.4-.2-3.9v.1c.4 1.9.8 3 .4 4.1zM47 70.6c-.2.6-.6 1.2-1.1 1.7l-.1.1c.2-.8.7-1.3 1.2-1.8zm-5.7 29.9c-.1.2-.3.3-.4.4-1.1-2.7-3.4-5.2-1.4-7.4.2-.2.4-.5.7-.6v.1c.1 3.2 3.2 5 1.1 7.5zm1.5-19.4c1.3-.9 2.7-1.7 3-3.5v-.2s.1 0 .1-.1c.2-.1.4-.1.6-.2-.2 1.5.2 2.8.5 4.5.3 2 .4 2.4-1.4 3.7-.2.2-.5.4-.8.5-.3-.9-.8-1.5-1.2-2.4-.7-1.8-1.3-1-.8-2.3zm2.6 27.5c-.9-1-1.8-2.2-1.4-3.2.2-.5 1.4-1.1 2.3-1.6.1.3.3.6.5.9.4.5.8.9 1.3 1.3-.8.8-1.8 1.6-2.7 2.6zM47.5 91c.3-.3.6-.5 1-.8.4-.3.9-.6 1.3-.8 0 .1.1.2.1.3-.8.4-1.7.8-2.4 1.3zm2.6 2.7c-.2.6-.6 1.2-1 1.8.1-.7.4-1.3 1-1.8zm.7 17.5c-.4.9-.9 1.6-1.3 2.2-.9-.3-1.2-1.1-.5-2.9.4-.9 1.2-1.6 2.1-2.3.2.8.2 1.7-.3 3zm2.2 25.1c-.1.3-.1.5-.2.8-.3-.4-.5-.8-.7-1.2-.8-2 0-3.5 1.2-5 .8.3.9 1.2.1 2.7.3 1.1.2 2-.4 2.7zm.7-11.1s.1 0 0 0c.2.6.1 1.1-.2 1.6 0-.4 0-1 .2-1.6zm.3-5.8c-.3-.6-.5-1.1-.6-1.6.5.3.8.7.6 1.6zm4-3c-.7-1.3-2.1-2.2-3.8-2.5H54c.2-.5.5-.9.7-1.4.5-.9.9-1.7 1.2-2.5.3.6.9 1 1.2 1.7 1.3 2.3 1.4 3.5.9 4.7zm.6-16.8c-.2 1.9-2.2 3.8-2.9 5.6l-.3 1.2c-.4-.6-.9-1-1.4-1.4 1.3-3.2-.5-4.4-2.4-5.9 1.1-1.6 3-3.2 3.6-4.9.6-1.8.2-2.8-.4-3.9.9-1.1 1.6-2.3 1.6-3.8 0 0 0-.1.1-.1.1.1.1.3.2.4.1.5.1 1 .1 1.5-.7 1.1-1 2.3-.9 3.6.2 3 3.1 4.9 2.7 7.7zM61.1 84c-.1.2-.2.5-.4.7v-1.5c0-.8-.3-1.5-.6-2.1.8.9 1.4 1.9 1 2.9zm88.3-9.8c.3-.8.5-1.7.5-2.5.5.1.9.2 1.1.4.9.9-.1 2.6-.7 4-.5-.3-.9-.6-1.2-1.1.1-.3.2-.5.3-.8zm-9.2-12.7c.6.4 1.4.2 1.9-.2 1.8.3 2.9.9 3.2 1.6-.1 0-.2-.1-.3-.1-1.4-.4-4.1-.1-5.2-1l-.1-.1c0-.2-.1-.5-.1-.7.2.2.4.4.6.5zm-.7 31.2c.3.2.5.4.8.7.3.2.7.4 1 .6.2.5.4 1 .7 1.4.1 1.5-.5 2.7-1.7 3.5-.1.1-.2.3-.3.4-.6-.5-1.4-1-1.8-1.6-1.1-2-.3-3.6 1.3-5zm1.9 22c-.2.4-.4.9-.5 1.3-1-1.5-2.8-1.9-4.1-3.1-3.3-2.9-.6-4 1.9-5.9.3-.2.7-.5 1-.8.5.5 1.1.9 1.5 1.5 2.9 3.8 1.4 4.2.2 7zm4.4-9.9c-.1.2-.1.4-.2.7-1-.9-2.5-2-2.3-3.4.1-.9 2.7-3 3.2-4.2.2.1.5.1.7.2.1 1.2.1 2.5.2 3.7-.3 1-1.3 1.9-1.6 3zm2.8-10.3c-.5-.1-1.1-.2-1.5-.4-.1-.1-.2-.2-.4-.2-.2-.5-.4-.9-.7-1.3-.3-.5-.8-.8-1.2-1.1-.2-1.1.4-2.1.8-3.4.4-1.1.8-2.1 1.2-3.2.3.2.5.4.8.7 4 3.2 1.5 5.3 1 8.9zM151 110c-.1-.4-.2-1-.4-1.8-.9-4-.4-3 .8-5.8.2-.4.3-.8.5-1.2.4.4.8.9 1.2 1.5 1.4 2.5-.8 4.9-2.1 7.3zm3.6-13.8c0 .2-.1.5-.1.7-.6-1.2-.6-2.3-.3-3.3.3.5.6 1.2.4 2.6zm7.2 4c-1-.4-1.9-.5-2.5-1 .8.3 1.8.4 2.5 1zm-.7 31.2c-.2-.2-.4-.5-.6-.7-1.8-2.2-4.1-2.2-2.6-6.2.2-.5.5-1 .8-1.5-.4 2.5 1.3 3.1 2.3 5.1.6 1.1.4 2.2.1 3.3zm-.8-11.9c-.1.1-.2.3-.2.4v-.1c.1-3.2-2.3-5.1-4.8-6.5.2-1.3.8-2.5 1.7-3.9 1.1-1.9 2.2-3.8 1.9-6.1.9.4.8-.3 1.2 1.4.3 1.7-.2 1.2-.6 2.4-.4 1-1 1.8-1.1 2.9-.3 2.4.6 3.2 2 4.8.2.2.8.2 1 .3 1.2 1.7-.3 2.9-1.1 4.4zm3.8-8c-1.1-1-.9.5-1.2-1.2.9.8 1.9 1.2 2.4 2.1-.4-.3-.8-.5-1.2-.9z" fill="#b7513b" stroke-width="none" opacity="1" stroke="none"></path><path id="SvgjsPath4009" d="M85.6 49c-4.5 8.4-6.6 17.1-7.1 26.5 0 .1-.2.1-.2 0-.2-9.5 2.5-18.5 7.1-26.7 0-.1.2 0 .2.2zm-.2-6.9c-7 8.3-10.5 20.2-9.2 31 0 .2.4.2.4 0 0-11.5 2.9-21 9.2-30.6.2-.3-.2-.7-.4-.4zm-8.6 8.1c.1-.2-.2-.2-.3-.1-3 7.8-4.5 15.9-3.8 24.2 0 .2.3.2.3 0-.2-8.3.9-16.2 3.8-24.1zm18.6-5.4c0-.1-.2-.1-.2 0 .5 10 .5 20 .7 30 0 .2.4.2.4 0 .7-10 .1-20.1-.9-30zm1.1 1c.7 10.9.8 21.4-.2 32.3 0 .3.4.3.5.1 1.8-10.5 2-21.9.1-32.4-.1-.2-.4-.1-.4 0zm4.8-2.3c2.5 10.4 4.8 20.5 4.4 31.3 0 .3.4.3.4 0 1.1-10.7-1.5-21.2-4.4-31.4-.1-.2-.5-.1-.4.1zm3.8 4.5c1.6 5.9 2.8 11.9 3.8 17.9 0 .2.5.2.5-.1-.5-6.1-1.9-12.2-3.9-18-.1-.1-.5 0-.4.2zm2.4-3.6c4.1 10.3 8 19.7 7.6 31 0 .3.5.3.5 0 1.4-10.7-2.7-21.8-7.8-31.1-.1-.2-.4-.1-.3.1zm10.9 3c6.5 7.5 8.2 16.6 8.9 26.3 0 .2.3.2.3 0-.4-9.5-2.2-19.4-9.1-26.4 0-.1-.1 0-.1.1zm9.2 12.8c-.5-2.9-1.7-5.7-3.2-8.2-.1-.1-.3 0-.2.1 1.4 2.6 2.4 5.3 3.2 8.1 0 .2.3.2.2 0zm6.3 17.9c.1-8.3-1.7-16.6-5.4-24-.1-.2-.3 0-.3.1 2.9 7.9 4.6 15.5 5.2 23.9 0 .4.4.4.5 0zM72.2 54c-1.8 3.2-3.1 6.6-4 10.1 0 .1.2.2.2 0 1.1-3.4 2.4-6.8 4.1-10 .1-.1-.2-.3-.3-.1zm-5.7-6.4c-1.9.3-3.4 1.2-4.2 3-.7 1.5-.8 3.7-1.2 5.3-1 3.4-1.5 2.7-3.7 4.5-1.2 1-2.1 1.9-2.1 3.6 0 .9.5 1.6.7 2.5.5 2.3.3 4.4-1.1 6.1-.6.7-1.6 1-2.3 1.7-1.2 1.2-2.1 2.5-1.6 4.2.6 2.2 2.7 3.6 1.5 6.5-.4.8-1.7 1.5-2.2 2.3-1.5 1.9-1 2.7-.5 4.8.8 4-1.6 6.4-1.1 10.2 0 .2.3.2.3 0-.1-4.2 3-4.5 3-7.7 0-1.1-.7-1.5-1-2.5-.7-2.7-.2-3.8 1.6-5.7.9-1 2.1-2 2.2-3.4.4-3.7-5-3.2-.2-8.6 1.3-1.5 3.4-1.9 3.8-4.2.5-3.4-3.8-5.1.1-9 1.2-1.2 3.1-1.5 4.2-3 2.2-3.1-2-8 4.2-9.8.3-.2.1-.9-.4-.8zM44.9 85.3c.2-.2 0-.6-.2-.4-6.3 3.9 1.5 6.9-2.6 12.5-2.6 3.6-3 3.9-1 8 1.1 2.3 1.1 3.7-.4 5.8-.5.7-1.3 1.2-1.7 2-.8 1.5-.6 2.1-.2 3.6.4 1.5.9 1.6 1.4 3.5.6 2.9-.5 2.7-.5 5.1-.1 2.7 3 4.1 2.4 7 0 .2.3.3.4.1.5-1.7 0-2-.4-3.8-1.1-1.6-1.2-3.4-.3-5.5l.6-1.2c0-.5.3-1.1.2-1.6-.2-1.5-1.5-2-2.1-3.2-2.1-4.6 1.9-4.7 2.8-7.8.3-1.1.1-1.9-.3-3-1.1-2.5-1.8-1.5-1.3-4.9.4-2.9.8-2.5 2.2-4.5.8-1.1 1.3-1.9 1.2-3.3-.2-3-4.5-5.3-.2-8.4zm105.5 25.6c-.6-2.9-.1-5.4 1.2-7.9.3-.5.6-1 .8-1.6.3-1.1.5-1.9.2-3s-.9-1.3-1.5-2.1c-1.4-2.2-2.8-4.5-2.2-7.3.3-1.8 1.4-3.4 1-5.3-.2-1.3-.9-2.2-1.9-3.1-.7-.6-1.7-.9-2.4-1.6-2.4-2.2-2.4-4.8-2.4-7.6.1-4-.6-6.8-4.1-9.1-2.8-1.9-3.4-1.2-4.9-6.2-.3-1.1 0-2.2-.4-3.4-.4-1.2-1.1-2-2.1-2.7-1.7-1.3-3.5-1.3-5.4-1.9-7.7-2.3-3.3-1.8-5.6-5.2-2.2-3.3-8.2-2.9-11.4-1.8-.4.1-.2.7.2.6 4.9-1.1 8.1-.4 11 4 .8 1.2.1 1.4 1.3 2.4.8.7 1.9.7 2.9 1 1.2.3 2.6.2 3.8.6 3.2 1.2 3.8 3.4 4.5 6.5.6 2.9.8 4.3 3.4 6.1 4.2 2.8 6 5 5.3 10.4-.2 1.3-.4 2.5 0 3.8.3 1.1.9 1.8 1.8 2.6 2.1 1.8 2.8 1.4 4.1 4.5 1.6 3.7 0 4.1-.2 7.8 0 1 0 1.8.4 2.7.6 1.3 1.9 1.9 2.7 3 2.4 3.4.2 5.1-1.1 8.2-.4 1-.8 1.8-.8 2.9.1 2.5 3.8 6.3.8 8.5-.2.2 0 .5.2.4 3-1.5 1.3-3.9.8-6.2zm12 15.1c.2-1.8 1-2.4.5-4.2-.8-2.9-3.4-4.4-3.1-7.8.2-2.2 1.6-4.2 1.7-6.5 0-1.4-.3-2.5-1.1-3.7-.4-.5-1-.8-1.3-1.3-2.4-3.2-2.3-4.5-2-7.9.4-4-.3-7.1-3.2-10-.3-.3-.7.1-.5.5 2.9 3.6 2.9 6.7 2.4 11-.2 1.7-.4 3.2.4 4.8.6 1.2 1.8 1.7 2.5 2.8 2.2 3.7.7 5.9-.1 9.4-.7 3.5 1.1 4.5 2.5 7.4 1.3 2.8.3 4-.1 6.7-.4 2.5 1.5 3.9 1.6 6.5 0 .4.5.3.5 0 .4-2.5-1-5-.7-7.7zm-19-18.8c-1.9-3.5-1.5-5.6 0-8.4 2.7-5.2-1.6-5.1-2.1-10.5-.2-1.7.7-2.4-.4-4-.4-.6-1-.9-1.5-1.3-2.8-2.7-3.8-5.5-3.2-9.5 0-.2-.2-.3-.3-.1-1.3 4.4.5 6.7 2.9 10.1 2.2 3 .3 4.8 1.2 7.4.2.5.6.8.8 1.2 1.1.7 1.6 1.8 1.5 3.2.9 1.3.9 2.5-.2 3.5-1.3 3.3-3 4-.7 7.5 2 3 3.9 4.2 2.9 8.4-.3 1.3-1.1 2.4-1.2 3.7-.2 3.1 2.9 5.9.7 9.1-.2.2.2.4.4.2.9-1.1 1.1-2 1-3.5-.4-3.7-1.8-2.5-.6-8 .3-1.2.7-1.5.9-2.7.2-1.5-.1-3.1-.7-4.5-.6-.9-.9-1-1.4-1.8zM88.9 38c-1 .2-1.5.7-2.4 1.2-1.6.9-2.9 2.1-5 2.4-1 .1-2-.2-3 0-1.8.3-2.4.9-3.3 2.4-.6.9-.5 1.5-1.3 2.7-1.2 1.7-1.3 1.2-2.4 2.3-.7.7-1.2.9-1.7 1.8-.1.3.2.5.4.2 1.2-1.8 3.4-2 4.6-3.6 1.6-2.1.9-4.2 4.9-5 1.4-.3 2.9.4 4.3 0 3-1 5.7-4.8 9.2-2.1.3.3.8-.3.5-.6-1.3-1.3-2.9-2-4.8-1.7zm-34.7 93.6c-.6-3.1-3.4-3.3-1.6-7.8.5-1.2 1.6-2.2 1.6-3.6.2-4-5.1-3.8-1.3-9.7.1-.2-.2-.5-.3-.3-1.2 1.6-1.9 3.2-1.4 5.3.3 1 1.2 1.6 1.5 2.5.5 1.6.1 3.4-.5 4.8-.4 1.1-1.3 1.9-1.5 3.1-.1.9.1 1.5.4 2.3.9 2.1 1.8 3.2 1.5 5.8-.2 2.4-.9 3.7 1 5.8.2.2.6-.1.4-.3-2.2-3.8.8-4.8.2-7.9zm99.6-11.9c-.4-1.4-.7-2.8-.9-4.2.2-1.3.5-2.7.8-4 0-1.8.2-1.1-.4-2.8-.1-.4-.8-.2-.6.2.6 2.6-.6 4.2-.6 6.6 0 2.9 1.7 4.6.4 7.9-.8 2.1-1.4 2.3-1.2 4.6.2 2 1.4 3.6.4 5.8-.3.7-1 1.2-1.2 2-1 2.8 1.2 3.3 1.9 6 0 .1.3.1.3 0-.1-3 .1.9-.6-2.1-1.2-1.2-1.3-2.7-.3-4.5.5-.6.9-1.2 1.3-1.9 1-2.1.1-2.6-.4-4.6-.8-3.3 1.4-5.6 1.1-9zm-19.8 4.8c.2-.2-.1-.5-.3-.3-2.4 2.1-.4 4.2 1 6.2 3.1 4.5.4 4.8-.3 8.2-.4 1.9 1.1 3 .9 4.9 0 .4.5.4.6.1.4-1.6 0-.3-.1-2-.1-2.1-.2-3.3.6-5.1.2-.5.5-.9.7-1.4.8-3.5-5.4-8.2-3.1-10.6z" fill="#c66854" stroke-width="none" opacity="1" stroke="none"></path></g><g id="svga-group-glasses-single-move" transform="matrix(1,0,0,1,0,0)"><g id="svga-group-glasses-single" transform="matrix(1,0,0,1,0,0)"></g></g></g></g></g><rect id="svga-credit-rect" width="200" height="15" x="0" y="185" fill="#ecf0f1" opacity="0.5" style="display: none;"></rect><text id="svga-credit-text" font-family="Avenir Next, Roboto, Helvetica, Arial, sans-serif" font-size="10px" text-anchor="start" font-weight="400" size="10px" anchor="start" weight="400" fill="#333333" x="33.40447998046875" y="182.60824704170227" style="display: none;"><tspan id="SvgjsTspan3371" dy="13" x="33.40447998046875">Created on AvatarMaker.com</tspan></text></g></svg>