<svg xmlns="http://www.w3.org/2000/svg" version="1.1" width="600px" height="600px" viewBox="0 0 200 200" style="overflow:hidden!important;"><defs id="SvgjsDefs9745"><linearGradient id="SvgjsLinearGradient10441" x1="118.8" y1="82.84" x2="118.8" y2="112.98" gradientUnits="userSpaceOnUse" class="svga-on-canvas-glasses-gradient-single-0-null"><stop id="SvgjsStop10442" stop-opacity="1" stop-color="#b4c0cf" offset="0" ></stop><stop id="SvgjsStop10443" stop-opacity="0.9374" stop-color="#abbace" offset="0.0626" ></stop><stop id="SvgjsStop10444" stop-opacity="0.679" stop-color="#8aa3ca" offset="0.321" ></stop><stop id="SvgjsStop10445" stop-opacity="0.4305" stop-color="#7393c6" offset="0.5695" ></stop><stop id="SvgjsStop10446" stop-opacity="0.1987" stop-color="#6589c5" offset="0.8013" ></stop><stop id="SvgjsStop10447" stop-opacity="0" stop-color="#6086c4" offset="1" ></stop></linearGradient><linearGradient id="SvgjsLinearGradient10449" x1="81.2" y1="82.84" x2="81.2" y2="112.98" gradientUnits="userSpaceOnUse" class="svga-on-canvas-glasses-gradient-single-1-null"><stop id="SvgjsStop10450" stop-opacity="1" stop-color="#b4c0cf" offset="0" ></stop><stop id="SvgjsStop10451" stop-opacity="0.9374" stop-color="#abbace" offset="0.0626" ></stop><stop id="SvgjsStop10452" stop-opacity="0.679" stop-color="#8aa3ca" offset="0.321" ></stop><stop id="SvgjsStop10453" stop-opacity="0.4305" stop-color="#7393c6" offset="0.5695" ></stop><stop id="SvgjsStop10454" stop-opacity="0.1987" stop-color="#6589c5" offset="0.8013" ></stop><stop id="SvgjsStop10455" stop-opacity="0" stop-color="#6086c4" offset="1" ></stop></linearGradient></defs><g id="svga-group-wrapper"><g id="svga-group-backs-single"></g><g id="svga-group-humanwrap-move" transform="matrix(1,0,0,1,0,0)"><g id="svga-group-humanwrap" transform="matrix(1,0,0,1,0,0)"><g id="svga-group-hair-back-move" transform="matrix(1,0,0,1,0,0)"><g id="svga-group-hair-back" transform="matrix(1,0,0,1,0,0)"><path id="SvgjsPath10526" d="M85.5 39.3s-26 4.5-33.6 29.6-.6 18.1-3.4 35.8.8 26.5 4.8 30.5c0 0-4.2 8.8 1.1 16.4 0 0-5.1 3.7-2.8 11.3 0 0-6.8 3.4-2.8 14.9 4 11.6 15.8 8.5 18.9 4.2 3.1-4.2 45.2-28.2 49.7-29.6s18.6-9.6 22.3-22.9c0 0 9-11.8 5.9-30.2 0 0 5.1-14.7.9-28.5s-13.3-22-21.2-22.3-34.4-6.2-34.4-6.2l-5.4-3z" fill="#d6c4c4" stroke-width="none" opacity="1" stroke="none"></path><path id="SvgjsPath10527" d="M57.7 65.3s-6 10.5-6.2 18.1 0 14.7-1.7 22.9 2 15 8.8 19.8c6.8 4.8 9.7 11.5 11.7 15.2s20.9 10.4 16.7-12.8c-1.5-7.9-24.4-54-25.2-57.1s-4.1-6.1-4.1-6.1zm77.6 21.2s7.1 11 6.2 21-2 20.1-7.6 27.2c-5.7 7.1-16.7 10.8-16.7 10.8l8.5-28.9 9.6-30.1z" fill="#ceb3b3" stroke-width="none" opacity="1" stroke="none"></path></g></g><g id="svga-group-humanbody-back"><path id="SvgjsPath10049" d="m168.5 219.5-1.7-21.5s.7-9-8.8-15.3-23.4-10.1-29.5-14.2c-6.1-4.1-9.2-4.5-9-16.9s.9-40.3.9-40.3H79.6s.7 27.9.9 40.3c.2 12.4-2.9 12.8-9 16.9-6.1 4.1-20 7.9-29.5 14.2S33.2 198 33.2 198l-1.6 21.5h136.9z" fill="#fbd5c0" stroke-width="none" opacity="1" stroke="none"></path></g><g id="svga-group-chinshadow-single"><path id="SvgjsPath10284" d="M95.2 161.7s3.7-.6 4.8-.6c1.1 0 4.8.6 4.8.6 3.61.54 8.61-2.19 14.7-8.46 0-.53-.01-1.07 0-1.64.2-12.4.9-40.3.9-40.3H79.6s.7 27.9.9 40.3c.01.58.01 1.12 0 1.64 6.09 6.27 11.09 9 14.7 8.46z" fill="#dc9f7d" stroke-width="none" opacity="0.65" stroke="none"></path></g><g id="svga-group-humanbody-front"><path id="SvgjsPath10050" d="M73.8 175.9c5.1 2.9 11.8 5.2 17.6 5.7.4 0 .4-.6.1-.7-2.8-1.1-5.9-1.7-8.8-2.6-2.9-.9-5.8-2-8.8-2.7-.1-.1-.3.2-.1.3zm35.2 6.2c5.3-.6 11.3-3 15.9-5.8.3-.2.1-.6-.2-.5-2.6.9-5.2 2-7.8 2.9-2.6.9-5.4 1.5-8 2.5-.5.1-.5.9.1.9z" fill="#dc9f7d" stroke-width="none" opacity="1" stroke="none"></path><path id="SvgjsPath10051" d="m168.4 219.4-2.1-21.4c0-2.2-.5-4.5-1.5-6.6-.9-2.1-2.3-3.9-3.9-5.5s-3.5-2.8-5.5-4c-2-1.2-4.1-2.2-6.2-3.1-4.2-1.9-8.6-3.6-12.9-5.4-2.2-.9-4.3-1.9-6.4-3-1.1-.6-2.1-1.2-3-1.9-1-.6-2-1.2-3-1.9s-2-1.5-2.8-2.6c-.8-1-1.3-2.2-1.7-3.4-.7-2.4-.8-4.8-.8-7.2 0-4.7.2-9.4.3-14.1.2-9.4.6-18.7.9-28l.6.6-20.4-.2-20.4-.1.3-.3.7 28c.1 4.7.3 9.3.4 14 0 2.4-.1 4.7-.8 7.1-.3 1.2-.9 2.3-1.6 3.3-.8 1-1.7 1.8-2.7 2.5s-2 1.3-2.9 2c-.9.6-1.9 1.3-3 1.9-2.1 1.2-4.2 2.1-6.4 3.1-4.3 1.9-8.6 3.6-12.8 5.6-2.1 1-4.2 2.1-6.1 3.2-2 1.2-3.8 2.4-5.4 4-1.6 1.6-2.9 3.4-3.8 5.4-.4 1-.8 2.1-1 3.1-.2 1.1-.4 2.2-.3 3.2v.2l-1.5 21.5-1-1.1 34 .1c11.3 0 22.7.1 34.1.2l34.2.3 34.4.5zm.2.2-34 .4-34.2.3c-11.4.1-22.9.2-34.4.2l-34.4.1h-1.1l.1-1.1 1.7-21.5v.1c-.1-5.1 2.2-9.8 5.7-13.3 1.7-1.7 3.8-3.1 5.8-4.3 2-1.2 4.2-2.2 6.3-3.2 4.3-2 8.7-3.7 13-5.4 2.1-.9 4.3-1.8 6.3-2.9 1-.5 1.9-1.1 3-1.8 1-.6 2-1.2 2.9-1.9.9-.6 1.8-1.4 2.4-2.2.7-.9 1.2-1.9 1.5-2.9.6-2.1.8-4.5.8-6.8 0-4.6-.1-9.3-.2-14l-.6-28v-.3h.3l20.4-.1 20.4-.2h.6v.6c-.1 9.3-.2 18.7-.4 28-.1 4.7-.2 9.4-.2 14 .1 2.3.2 4.6.8 6.7.3 1.1.8 2 1.4 2.9.6.8 1.4 1.6 2.4 2.2.9.6 1.9 1.3 2.9 1.9 1 .7 1.9 1.3 2.9 1.8 2 1.1 4.1 2.1 6.3 3 4.3 1.8 8.6 3.6 12.9 5.6 2.1 1 4.2 2.1 6.2 3.3 2 1.2 4 2.6 5.7 4.3 3.4 3.4 5.6 8.1 5.4 13v-.1l1.4 21.6zm-112.8-.4 1.9-13.8.1 13.8h-2zm88.6 0-1.9-13.8-.1 13.8h2z" fill="#cd865f" stroke-width="none" opacity="1" stroke="none"></path></g><g id="svga-group-clothes-single"><path id="SvgjsPath10419" d="m122.4 220 2.7-26.8s-14.3 16-25 19.1c0 0-16.5-9.3-26.3-19.1l3.9 26.8h44.7z" fill="#efefef" stroke-width="none" opacity="1"></path><path id="SvgjsPath10420" d="M125.3 192.9c-.2-.2-.4-.1-.6 0a147.859 147.859 0 0 1-11.5 10.9c-2 1.7-4.1 3.3-6.3 4.8-2.2 1.4-4.5 2.7-6.9 3.5-2.3-1.3-4.6-2.7-6.9-4.2-2.3-1.5-4.5-3-6.7-4.6-4.4-3.2-8.6-6.6-12.4-10.4-.1-.1-.2-.1-.3-.1-.2 0-.3.2-.3.4.6 4.5 1.2 8.9 1.8 13.4.6 4.5 1.2 8.9 1.9 13.4 0 .2.3.4.5.4h11.3l11.2-.1 11.2-.1 11.1-.2 1.6-13.3 1.5-13.5c0-.1-.1-.2-.2-.3zm-1.9 13.5-1.1 13.5-11.3-.2-11.2-.1-11.2-.1H77.9c-.6-4.3-1.3-8.6-1.9-13-.6-4.1-1.2-8.2-1.9-12.3 3.7 3.5 7.8 6.6 11.9 9.5 2.2 1.6 4.5 3.1 6.8 4.5s4.6 2.9 7 4.3h.1c2.6-.8 4.9-2 7.2-3.4s4.4-3 6.5-4.6c2.1-1.7 4.1-3.4 6-5.3 1.6-1.5 3.2-3.2 4.7-4.8-.2 4-.5 8-.9 12z" fill="#3a0538" stroke-width="none" opacity="1"></path><path id="SvgjsPath10421" d="M75.7 167.9s1.2-3.7 1.7-6.4c.6-2.7.4-9.3.4-9.3s-1.9 4.1-4.6 6.4-13.2 9.1-13.2 9.1l2.3 1.6S37.7 178 36 179.2c-1.7 1.2-1.9 3.7-1.9 3.7l-2.1.6c-4.1 16.8-4.1 36.6-4.1 36.6h54.5s-2.3-16.6-3.3-23c-.9-6.5-3.4-29.2-3.4-29.2zm92.7 15.5-2.1-.6s-.2-2.5-1.9-3.7c-1.7-1.2-26.3-9.9-26.3-9.9l2.3-1.6s-10.4-6.8-13.2-9.1c-2.7-2.3-4.6-6.4-4.6-6.4s-.2 6.6.4 9.3 1.7 6.4 1.7 6.4-2.5 22.6-3.5 29c-1 6.4-3.3 23-3.3 23h54.5c0 .2 0-19.5-4-36.4z" fill="#591956" stroke-width="none" opacity="1"></path><path id="SvgjsPath10422" d="M140.3 179c-1.8-1.9-4.2-3.2-6.2-5-2-1.8-3.6-3.9-5.4-5.9-.2-.2-.6.1-.4.3 1.3 2.5 3.1 4.7 5.1 6.7 1.7 1.7 3.9 3.9 6.3 4.7-5.2 9.5-8.4 21.2-9.6 31.9 0 .2.3.3.4.1 1.2-5.5 2.2-11 3.9-16.4 1.6-5.4 4.1-10.4 6.1-15.7.1-.1 0-.2-.1-.3.1-.1 0-.2-.1-.4zm-2-11.9c-2.1-1.2-4.3-2.2-6.3-3.6-2.2-1.5-4.2-3.3-6.1-5.2-.2-.2-.4.1-.2.2 3.1 3.9 7.5 7.8 12.4 9.1.3.2.5-.3.2-.5zm18.9 10.5c-5.7-2.4-11.6-4.6-17.5-6.4-.2-.1-.3.2-.1.3 3.5 1.7 7.1 3.3 10.7 4.8 4.6 1.9 10.2 3.1 12.7 7.8.2.4.8.1.7-.3-.6-3.5-3.5-5-6.5-6.2zm9.5 8.4c-.1-.4-.7-.3-.7.1.7 5.4 1.9 10.6 2.5 16 .6 5.4.4 10.9 1.1 16.2 0 .4.5.4.6 0 1.2-9.9-.4-22.8-3.5-32.3zm-92.6-16.9c.5-1 .6-2.2.8-3.3.3-1.2.7-2.4 1-3.6.1-.2-.2-.3-.3-.1-.7 1-1.1 2.1-1.6 3.2-.4 1.1-.9 2.4-.8 3.6.1.4.7.7.9.2zm-.3 1.6c0-.1-.2-.1-.2 0-.1 6.5 1.2 13.2 2.2 19.7 1 7.1 2.1 14.3 4 21.3 0 .1.1 0 .1 0-.7-6.6-1.8-13.1-2.8-19.6-1.2-7-1.5-14.4-3.3-21.4zm-5.1 0c-2.8 3.1-5.4 5.9-8.8 8.3-.4.3-.3.9.1 1 1.4 4.4 3.4 8.5 4.8 12.9 1.4 4.5 2.3 9.2 3.5 13.7.1.3.5.2.5-.1-.5-8.7-3.2-19.2-7.9-26.7 3.3-2.3 6.5-5.2 8.4-8.7 0-.4-.4-.7-.6-.4zm-32.6 11.1c1.3 5.7 3.9 11.4 5.9 16.9.1.3.5.2.5-.1-1.1-5.6-2.6-12.2-5.6-17.1-.4-.4-.9-.1-.8.3z" fill="#682865" stroke-width="none" opacity="1"></path><path id="SvgjsPath10423" d="M80.7 200.4c-.3-2.2-.6-4.3-.9-6.5-1.1-8.6-2.2-17.3-3.4-25.9.4-1.2.7-2.5 1-3.7.1-.3.2-.6.2-.9.3-.4.9-1.1 1.3-2 .6-1.4 1.1-3.8 1.2-6.2s0-4.8 0-4.8-2.4 1.1-2.5 1.8c-.9 1.8-1.9 3.4-3.2 4.9-1.2 1.5-2.9 2.6-4.5 3.8-3 2.1-6 4.1-9.2 6-.3.2-.6.3-.9.5l-.1.1c-.2.2-.1.5.1.6.4.3.8.6 1.2.8l.2.2c-4.8 1.6-9.6 3.2-14.4 4.9-2.5.9-5.1 1.8-7.6 2.8l-1.9.8-1 .4c-.3.2-.7.3-1 .6-.7.5-1.2 1.2-1.5 1.9-.2.5-.4 1.1-.5 1.6l-1.6.4c-.3.1-.5.3-.6.6-1.4 6-2.2 12.2-2.8 18.3-.2 3.1-.5 6.1-.5 9.2 0 1.5-.1 3.1-.1 4.6v4.6l27 .6 13.8.2c4.6.1 9.2.1 13.8.1h.2c.6-.1 1-.6.9-1.2l-1.8-13-.9-6.1zM28 219.9c.1-.1 0-.3.1-.5v-.6l.1-1.1.1-2.3c.1-1.5.2-3.1.4-4.6.3-3.1.6-6.1 1-9.1s.9-6.1 1.4-9.1c.5-2.9 1.1-5.7 1.8-8.5l1.6-.4h.1c.5 1.2 1.1 2.4 1.5 3.7l.9 2.2.8 2.3c1 3 1.9 6.1 2.6 9.2.8 3.1 1.4 6.2 2 9.4.3 1.6.5 3.2.7 4.8.2 1.4.4 2.9.5 4.4l-15.6.2zm41-.8-13.5.2-12 .3c0-3.1-.2-6.2-.6-9.2-.4-3.2-1-6.4-1.7-9.5-.8-3.1-1.7-6.2-2.9-9.2-1-2.8-2.3-5.4-3.8-8 .2-.1.4-.4.4-.6.1-1.1.6-2.3 1.4-2.9.2-.2.4-.2.7-.4l.9-.4 1.9-.8 7.5-2.9 15-5.7c1.2.6 2.5 1.1 3.9 1.5-.5.4-1 .9-1.5 1.3-1.2 1-2.5 2-3.7 3-1.3.9-2.6 1.8-3.9 2.6-.4.2-.5.7-.4 1.1 1.3 3.3 2.6 6.6 3.8 9.9 1.2 3.3 2.3 6.7 3.5 10.1 1.1 3.4 2.1 6.8 3.1 10.2.9 3.1 1.6 6.3 2.4 9.5-.2-.1-.3-.1-.5-.1zm.6 0c-.3-3.3-.7-6.5-1.3-9.7-.7-3.5-1.5-7-2.5-10.5s-2.1-6.9-3.3-10.3c-1.2-3.1-2.4-6.2-3.8-9.3 1.2-.8 2.2-1.6 3.3-2.5 1.2-1 2.4-2.1 3.6-3.3 2.3-2.3 4.5-4.6 6.5-7.1-1.9 1.7-3.7 3.3-5.6 4.9-1.2-.9-2.4-1.6-3.7-2.3 0 0 0-.1-.1-.1l-1.1-.7c-.2-.1-.4-.3-.7-.4.1-.1.2-.1.3-.2 3-2 6-4.1 9-6.2 1.6-1.2 3.3-2.3 4.7-3.8 1-1.2 1.9-2.5 2.7-3.8 0 2.2-.1 4.4-.3 6.5-.2 1.3-.5 2.5-.9 3.8-.4 1.3-.8 2.5-1.2 3.8v.2c.8 8.7 1.8 17.4 2.8 26.1.2 2.2.5 4.4.8 6.5l.9 6.5 1.7 11.8c-4 0-7.9 0-11.8.1zm102.9-8.3c-.1-3.1-.3-6.1-.6-9.2-.5-6.1-1.4-12.3-2.8-18.3-.1-.3-.3-.5-.6-.6l-1.6-.4c-.1-.6-.2-1.1-.5-1.6-.3-.7-.8-1.4-1.5-1.9-.3-.3-.7-.4-1.1-.6l-1-.4-1.9-.8c-2.5-1-5.1-1.9-7.6-2.8-4.8-1.7-9.6-3.3-14.4-4.9l.2-.2c.4-.3.8-.5 1.2-.8.2-.1.3-.4.1-.6 0-.1-.1-.1-.1-.1-.3-.2-.6-.4-.9-.5-3.1-1.9-6.2-3.9-9.1-6-1.6-1.2-3.3-2.3-4.5-3.8-1.3-1.5-2.3-3.2-3.2-4.9 0-.1-.1-.1-.1-.1-.5-.6-2.4-1.1-2.4-1.1-.1 2.9-.1 7.4.5 9.7.4 1.7 1.8 3.6 2.4 4.5.3 1 .5 2 .8 2.9-1.2 8.6-2.3 17.2-3.4 25.9-.3 2.2-.6 4.3-.9 6.5l-1 6.5-1.8 13c-.1.6.3 1.1.9 1.2h.2c4.6 0 9.2 0 13.8-.1l13.8-.2 27-.6c.1-.3 0-.5.1-.6v-4c.1-2.1.1-3.6 0-5.1zm-53.4 8.1 1.7-11.8.9-6.5c.3-2.2.6-4.3.8-6.5 1-8.7 1.9-17.4 2.8-26.1v-.2c-.4-1.2-.8-2.5-1.2-3.8-.3-1.3-.7-2.5-.9-3.8-.2-2.1-.3-4.3-.3-6.5.8 1.4 1.7 2.6 2.7 3.8 1.3 1.6 3.1 2.7 4.7 3.8 3 2.1 6 4.1 9 6.2.1.1.2.1.3.2-.2.1-.4.3-.7.4l-1.1.7-.1.1c-1.3.7-2.5 1.4-3.7 2.3-1.9-1.6-3.8-3.2-5.6-4.9 2 2.5 4.2 4.9 6.5 7.1 1.1 1.1 2.3 2.2 3.6 3.3 1.1.9 2.1 1.7 3.3 2.5-1.4 3.1-2.6 6.1-3.8 9.3-1.2 3.4-2.4 6.8-3.3 10.3-1 3.4-1.8 7-2.5 10.5-.6 3.2-1.1 6.5-1.3 9.7-4 0-7.9 0-11.8-.1zm25.8.4-13.5-.2h-.5c.8-3.2 1.5-6.3 2.4-9.5.9-3.4 2-6.9 3.1-10.2 1.1-3.4 2.2-6.8 3.5-10.1 1.2-3.3 2.5-6.7 3.9-9.9.2-.4 0-.9-.4-1.1-1.3-.7-2.6-1.6-3.9-2.6-1.3-.9-2.5-1.9-3.7-3-.5-.4-1-.9-1.5-1.3 1.3-.4 2.6-1 3.9-1.5l15 5.7 7.5 2.9 1.9.8.9.4c.3.1.5.2.7.4.8.6 1.3 1.8 1.4 2.9 0 .3.2.5.4.6-1.4 2.6-2.7 5.2-3.8 8-1.2 3-2.1 6.1-2.9 9.2-.7 3.1-1.4 6.3-1.7 9.5-.4 3.1-.6 6.1-.6 9.2l-12.1-.2zm12 .3c.2-1.5.3-2.9.6-4.4.2-1.6.5-3.2.7-4.8.6-3.2 1.2-6.3 1.9-9.4.7-3.1 1.6-6.2 2.6-9.2l.8-2.3.9-2.2c.4-1.2 1-2.4 1.5-3.7h.1l1.6.4c.6 2.8 1.3 5.6 1.8 8.5.5 3 1 6 1.4 9.1.4 3 .7 6.1.9 9.1.1 1.5.3 3.1.4 4.6l.1 2.3.1 1.1v.6c0 .2 0 .4.1.5l-15.5-.2z" fill="#3a0538" stroke-width="none" opacity="1"></path></g><g id="svga-group-head" transform="matrix(1,0,0,1,0,0)"><g id="svga-group-ears-left-move" transform="matrix(1,0,0,1,0,0)"><g id="svga-group-ears-left" transform="matrix(1,0,0,1,0,0)"><path id="SvgjsPath10237" d="M65.1 101.2s-1.7-4.8-3.2-7.5-3.4-6-6.3-6.8c-2.9-.8-3.8 3.7-2.7 7.8 1.1 4.1 4 13.1 4.7 16.6s1.7 7.7 3.4 7.1 6.8-7.1 4.1-17.2z" fill="#fbd5c0" stroke-width="none" opacity="1" stroke="none"></path><path id="SvgjsPath10238" d="M65.9 105.9c.1 1.6.1 3.2-.1 4.8-.5 3.1-1.8 6-3.8 7.9l-.4.3c-.2.1-.3.2-.5.3-.4.1-.9 0-1.3-.3-.7-.6-1.1-1.4-1.4-2.2-.6-1.6-.9-3.1-1.2-4.7-.3-1.5-.7-3-1.1-4.6l-1.2-4.6c-.4-1.5-.8-3-1.3-4.6l-.5-2.2c-.2-.8-.4-1.5-.6-2.3-.2-.8-.2-1.6-.2-2.4s.1-1.6.3-2.4.6-1.5 1.1-2c.6-.5 1.3-.6 2-.4 1.3.3 2.5 1.1 3.5 2.2s1.8 2.5 2.5 3.8c.7 1.4 1.3 2.8 1.9 4.3.6 1.5 1.1 2.9 1.6 4.4.3 1.6.6 3.1.7 4.7zM61.1 93c-.8-1.3-1.6-2.4-2.5-3.4s-2-1.7-3.1-2c-.5-.2-1-.1-1.5.2-.4.3-.8.8-1 1.5-.4 1.3-.5 2.9-.2 4.5.1.8.3 1.5.5 2.3s.4 1.5.7 2.3c.5 1.5 1 3 1.4 4.5.5 1.5 1 3 1.4 4.5.5 1.5.9 3 1.2 4.6.3 1.5.7 3.1 1.2 4.4.3.7.6 1.3.9 1.5.2.1.3.2.5.1.1 0 .2-.1.3-.2l.3-.3c.9-.8 1.6-1.9 2.3-3.1.6-1.2 1.1-2.5 1.5-3.9.7-2.8.6-6.1-.2-9.2-.9-3-2.1-5.8-3.7-8.3z" fill="#ecb99d" stroke-width="none" opacity="1" stroke="none"></path><path id="SvgjsPath10239" d="M53.8 89.9c1.8-.8 3.4 1.3 4.6 3.1 1.5 2.3 2.5 5.2 2.8 8.2v.2c0 .2 0 .5.1.7 0 .2-.2.2-.2 0-.1-.4-.2-.8-.3-1.3 0-.1-.1-.2-.2-.3-1.2-.6-1.7-.3-1.7.8 0 .7.1 1.4.3 2.1.3 1.1.8 2.2 1.2 3.3.1.2-.2.4-.3.2-.9-1.5-2.4-5-1.4-6.8.5-.9 1.3-.8 1.8-.2-.5-1.9-1.1-4.1-2.1-5.9-2 4.2-.9 8.7.1 13.4 0 .2-.2.3-.2.1-1.3-4.4-2.6-10.1 0-13.7-1.1-2.1-2.6-3.7-4.5-3.6-.1.1-.2-.2 0-.3z" fill="#dc9f7d" stroke-width="none" opacity="1" stroke="none"></path><path id="SvgjsPath10240" d="M61.1 108.8c.1 1.1 0 2.2-.5 3-.1.1-.2 0-.1-.1.3-.9.6-1.8.5-2.9-.1-.1 0-.2.1 0z" fill="#dc9f7d" stroke-width="none" opacity="1" stroke="none"></path></g></g><g id="svga-group-ears-right-move" transform="matrix(1,0,0,1,0,0)"><g id="svga-group-ears-right" transform="matrix(1,0,0,1,0,0)"><path id="SvgjsPath10241" d="M134.9 101.2s1.7-4.8 3.2-7.5 3.4-6 6.3-6.8c2.9-.8 3.8 3.7 2.7 7.8-1.1 4.1-4 13.1-4.7 16.6s-1.7 7.7-3.4 7.1-6.8-7.1-4.1-17.2z" fill="#fbd5c0" stroke-width="none" opacity="1" stroke="none"></path><path id="SvgjsPath10242" d="M134.9 101.2c.5-1.5 1.1-2.9 1.6-4.4s1.2-2.9 1.9-4.3 1.5-2.7 2.5-3.8c1-1.1 2.2-2 3.5-2.2.7-.2 1.4 0 2 .4.6.5.9 1.2 1.1 2 .2.8.3 1.6.3 2.4s-.1 1.6-.2 2.4c-.1.8-.4 1.6-.6 2.3l-.6 2.3c-.4 1.5-.8 3-1.3 4.6l-1.2 4.6c-.4 1.5-.8 3-1.1 4.6s-.6 3.2-1.2 4.7c-.3.8-.6 1.6-1.4 2.2-.4.3-.9.4-1.3.3-.2-.1-.3-.2-.5-.3l-.4-.3c-2-1.9-3.3-4.8-3.8-7.9-.3-1.6-.3-3.2-.1-4.8.1-1.7.4-3.2.8-4.8zm.1.1c-.8 3-.9 6.3-.2 9.2.4 1.4.9 2.7 1.5 3.9.6 1.2 1.4 2.3 2.3 3.1l.3.3c.1 0 .2.1.3.2.2.1.3 0 .5-.1.3-.3.7-.9.9-1.5.5-1.3.9-2.9 1.2-4.4.3-1.6.8-3.1 1.2-4.6.5-1.5 1-3 1.4-4.5.5-1.5 1-3 1.4-4.5.2-.7.5-1.5.7-2.3s.4-1.5.5-2.3c.3-1.5.2-3.1-.2-4.5-.2-.6-.6-1.2-1-1.5s-1-.3-1.5-.2c-1.1.3-2.1 1.1-3.1 2-.9 1-1.7 2.2-2.5 3.4-1.4 2.5-2.6 5.3-3.7 8.3z" fill="#ecb99d" stroke-width="none" opacity="1" stroke="none"></path><path id="SvgjsPath10243" d="M146.2 89.9c-1.8-.8-3.4 1.3-4.6 3.1-1.5 2.3-2.5 5.2-2.8 8.2v.2c0 .2 0 .5-.1.7 0 .2.2.2.2 0 .1-.4.2-.8.3-1.3 0-.1.1-.2.2-.3 1.2-.6 1.7-.3 1.7.8 0 .7-.1 1.4-.3 2.1-.3 1.1-.8 2.2-1.2 3.3-.1.2.2.4.3.2.9-1.5 2.4-5 1.4-6.8-.5-.9-1.3-.8-1.8-.2.5-1.9 1.1-4.1 2.1-5.9 2 4.2.9 8.7-.1 13.4 0 .2.2.3.2.1 1.3-4.4 2.6-10.1 0-13.7 1.1-2.1 2.6-3.7 4.5-3.6.1.1.2-.2 0-.3z" fill="#dc9f7d" stroke-width="none" opacity="1" stroke="none"></path><path id="SvgjsPath10244" d="M138.9 108.8c-.1 1.1 0 2.2.5 3 .1.1.2 0 .1-.1-.3-.9-.6-1.8-.5-2.9.1-.1 0-.2-.1 0z" fill="#dc9f7d" stroke-width="none" opacity="1" stroke="none"></path></g></g><g id="svga-group-faceshape-wrap" transform="matrix(1,0,0,1,0,0)"><g id="svga-group-faceshape-single"><path id="SvgjsPath10273" d="M141 85.4c-1.2-28.5-19.7-44.1-41-44.1-21.4 0-39.8 15.6-41 44.1 0 0-.1 13.5 1.6 24.5 1.7 11.1 7.19 17.02 15.29 26.82s14.87 14.3 19.37 13.7c0 0 3.68-.65 4.78-.65s4.94.41 4.94.41c4.5.6 11.03-3.74 19.13-13.54S137.7 121 139.4 109.9c1.7-11 1.6-24.5 1.6-24.5z" fill="#fbd5c0" stroke-width="none" opacity="1" stroke="none"></path><path id="SvgjsPath10274" d="M76 137.5c8.1 9.8 14.7 14.1 19.2 13.5 0 0 3.7-.6 4.8-.6s4.8.6 4.8.6c4.5.6 11.1-3.7 19.2-13.5s13.7-16.4 15.4-27.5 1.6-24.5 1.6-24.5c-1.2-28.5-19.67-44.46-40.97-44.46S60.2 57 59 85.4c0 0-.1 13.5 1.6 24.5 1.7 11.1 7.3 17.8 15.4 27.6zM59.9 90.19l-.1-2.43v-2.44c.2-6.38 1.4-12.76 3.9-18.53 1.2-2.94 2.8-5.67 4.7-8.2.9-1.22 2-2.43 3-3.54l.8-.81c.3-.3.5-.51.8-.81.6-.51 1.1-1.01 1.8-1.52 2.4-1.92 5-3.54 7.8-4.86 2.8-1.22 5.7-2.23 8.6-2.84 5.9-1.22 12.1-1.11 18 .2 1.5.41 2.9.71 4.3 1.22s2.8 1.11 4.2 1.72c2.7 1.32 5.3 2.94 7.7 4.86 2.4 1.92 4.5 4.25 6.4 6.68.5.61.9 1.32 1.4 1.92.2.3.4.71.6 1.01l.6 1.01c.4.71.8 1.42 1.1 2.13s.7 1.42 1 2.13c2.6 5.77 3.9 12.26 4.1 18.64 0 1.62 0 3.24-.1 4.86s-.1 3.24-.3 4.86l-.2 2.43c-.1.81-.1 1.62-.2 2.43-.2 1.62-.4 3.24-.6 4.76l-.2 1.22-.2 1.22c-.1.81-.3 1.62-.4 2.33-.1.81-.3 1.52-.5 2.33-.1.41-.2.71-.3 1.11l-.3 1.11c-1 2.94-2.3 5.77-4 8.41-1.7 2.63-3.6 5.06-5.6 7.49l-1.5 1.82-1.6 1.82-3.1 3.65c-2 2.33-4.2 4.66-6.4 6.68-.6.51-1.1 1.01-1.7 1.42-.6.51-1.2.91-1.8 1.32-1.2.81-2.4 1.52-3.6 2.03-.6.2-1.2.41-1.7.51-.3.1-1.6.1-1.6.1l-2.4-.3c-.4-.1-2.3-.2-2.4-.2h-.4c-.5 0-2.1.2-2.5.3l-2.3.3c-.9.1-2.1-.1-3.3-.71-1.2-.51-2.5-1.32-3.6-2.13-1.2-.91-2.4-1.82-3.5-2.84-2.2-2.03-4.4-4.36-6.4-6.79-2.1-2.43-4.1-4.86-6.1-7.39-1.68-2.14-3.88-4.98-6.04-8.97-.54-.99-1.79-3.98-2.13-5.05l-1.83-6.44c-.3-1.52-.5-3.14-.7-4.76-.4-3.14-.7-6.38-1-9.52 0-1.71-.1-3.33-.2-4.95z" fill="#cd865f" stroke-width="none" opacity="1" stroke="none"></path></g></g><g id="svga-group-mouth-single-move" transform="matrix(1,0,0,1,0,0)"><g id="svga-group-mouth-single" transform="matrix(1,0,0,1,0,0)"><path id="SvgjsPath10224" d="m88.3 129.4-1.7-.9s1.8 4.2 8.1 5.3c4.1.7 10.8.7 14.6-1.1 3.7-1.8 3.7-4.1 3.7-4.1l-14.6-2-5.8-.2-2.8 1.2-1.5 1.8z" fill="#E2929B" stroke-width="none" opacity="1" transform="translate(0 3)" stroke="none"></path><path id="SvgjsPath10225" d="M86.4 128.2c0 .4 1.6 1.9 3.8 1.4.7-.4 1.9-.8 2.7-1 .8-.2 2.2.3 2.6.4.3.1 2.3.7 4.3.7s4.3-.8 5.1-.9c.8-.2 2.1 0 4 .9 2.8 1.3 4.6-1.5 4.6-1.5s-1.6-.7-2-2.1c-.5-1.7-1.9-3.7-5.6-3-3.8.7-4.2 1.5-8.7.4-4.5-1-7.3-.5-8.2 1.7-1.3 2.9-2.6 2.7-2.6 3z" fill="#d3737e" stroke-width="none" opacity="1" transform="translate(0 3)" stroke="none"></path><path id="SvgjsPath10226" d="M111.3 129.2c-1.5 0-2.4-.7-3.7-1.3-.7-.3-1.3-.5-1.9-.4.4-.3.7-.6 1-1 .2-.2 0-.6-.3-.4-2 1-3.7 2.1-6 2.3-2 .2-4.1-.1-6-.8-.2-.1-.2.2-.1.2 3 1.8 7.8 2.2 10.9.1 2.2-.1 4 2.6 6.2 1.8.2-.2.2-.5-.1-.5zm-6.8-5.4c-1.9.2-3.8.5-5.7.4-1.9-.1-3.8-.8-5.8-.7-2.8.1-4.2 2.4-4.7 5-.1.2.3.4.4.1.5-1.7 1-3.8 3-4.4 1.6-.5 3.6.6 5.2.8 2.5.4 5.3.1 7.7-1 0-.1 0-.2-.1-.2z" fill="#eaa3ab" stroke-width="none" opacity="1" transform="translate(0 3)" stroke="none"></path></g></g><g id="svga-group-eyes-left-move" transform="matrix(1,0,0,1,0,0)"><g id="svga-group-eyes-left" transform="matrix(1,0,0,1,0,0)"><g id="svga-group-eyesback-left"><path id="SvgjsPath10336" d="M92 99.3s-1.6-1.9-4.3-3.5c-2.7-1.6-6.5-2.8-10.1-2.4-3.5.4-6.5 1.3-6.4 1.4s1.1 2.3 3.4 3.6c2.3 1.3 4.9 2.6 8.2 2.7 3.3 0 6-.4 7.5-1s1.7-.8 1.7-.8z" fill="#ffffff" stroke-width="none" opacity="1"></path></g><g id="svga-group-eyesiriswrapper-left" transform="matrix(1,0,0,1,0,0)"><g id="svga-group-eyesiriscontrol-left" transform="matrix(1,0,0,1,0,0)"><g id="svga-group-eyesiris-left" transform="matrix(1,0,0,1,0,0)"><path id="SvgjsPath10288" d="M82 91.3c2.8 0 5.2 2.3 5.2 5.2s-2.3 5.2-5.2 5.2-5.2-2.3-5.2-5.2 2.3-5.2 5.2-5.2z" fill="#4faaab" stroke-width="none" opacity="1"></path><path id="SvgjsPath10289" d="M82 92.2c2.3 0 4.2 1.9 4.2 4.2s-1.9 4.2-4.2 4.2-4.2-1.9-4.2-4.2 1.9-4.2 4.2-4.2z" fill="#000000" stroke-width="none" opacity="1"></path><path id="SvgjsPath10290" d="M76.8 96.4c0 .9.2 1.7.6 2.4.8.5 1.6.7 2.6.7 2.7 0 4.9-2.2 4.9-4.9 0-1.2-.4-2.2-1.1-3-.6-.2-1.2-.3-1.8-.3-2.9 0-5.2 2.3-5.2 5.1z" fill="#69b9ba" stroke-width="none" opacity="1"></path><path id="SvgjsPath10291" d="M77.8 96.4c0 1.2.5 2.3 1.3 3 .3.1.6.1.9.1 2.7 0 4.9-2.2 4.9-4.9 0-.5-.1-1-.2-1.4-.7-.6-1.7-1-2.7-1-2.3 0-4.2 1.9-4.2 4.2z" fill="#1e1e1e" stroke-width="none" opacity="1"></path><path id="SvgjsPath10292" d="M79.7 94.2c.6-.6 1.4-.8 1.9-.4s.4 1.3-.2 1.9-1.4.8-1.9.4-.4-1.3.2-1.9z" fill="#2b2b2b" stroke-width="none" opacity="1"></path></g></g></g><g id="svga-group-eyesfront-left"><path id="SvgjsPath10344" d="M70.73 98.03c0 6.9 4.93 12.5 11.02 12.5s11.02-5.6 11.02-12.5-4.93-12.5-11.02-12.5-11.02 5.59-11.02 12.5zm.42-3.19c-.07-.11 2.9-.93 6.44-1.36 3.54-.43 7.34.79 10.06 2.36 2.72 1.58 4.33 3.48 4.33 3.48s-.35.17-1.78.78c-1.43.61-4.22 1.07-7.48 1.04-3.26-.04-5.83-1.36-8.16-2.68-2.34-1.33-3.34-3.52-3.41-3.62z" fill="#fbd5c0" stroke-width="none" opacity="1" stroke="none"></path><path id="SvgjsPath10345" d="M92.14 98.9c-1.64-4.26-4.72-7.79-9.36-8.78-4.77-1.01-8.68 1.11-12.08 4.21-.06.06-.18-.02-.12-.1 5.62-8.37 19.63-4.78 21.65 4.63.01.07-.07.09-.09.04z" fill="#ecb99d" stroke-width="none" opacity="1" stroke="none"></path><path id="SvgjsPath10346" d="M63.55 95.41c2.13.29 4.01-.12 5.87-.69-1.83-.08-3.62-.65-5.17-1.79-.16-.11-.07-.43.15-.34 2.45 1 4.91 1.54 7.45 1.35.82-.27 1.66-.52 2.53-.72 2.12-.49 4.34-.6 6.48-.26 4.19.66 8.97 2.88 11.37 6.52.04.07-.05.12-.1.08-4.31-3.46-8.42-5.76-14.13-5.63-2.16.05-4.27.7-6.39 1.29 4.59 6 13.2 7.22 19.92 4.28.03-.02.06.03.03.05-6.58 3.27-16.06 2.28-20.4-4.21-2.56.7-5.11 1.26-7.72.5-.28-.09-.16-.47.11-.43z" fill="#000000" stroke-width="none" opacity="1" stroke="none"></path></g></g></g><g id="svga-group-eyes-right-move" transform="matrix(1,0,0,1,0,0)"><g id="svga-group-eyes-right" transform="matrix(1,0,0,1,0,0)"><g id="svga-group-eyesback-right"><path id="SvgjsPath10337" d="M108 99.3s1.6-1.9 4.3-3.5c2.7-1.6 6.5-2.8 10.1-2.4 3.5.4 6.5 1.3 6.4 1.4s-1.1 2.3-3.4 3.6c-2.3 1.3-4.9 2.6-8.2 2.7-3.3 0-6-.4-7.5-1s-1.7-.8-1.7-.8z" fill="#ffffff" stroke-width="none" opacity="1"></path></g><g id="svga-group-eyesiriswrapper-right" transform="matrix(1,0,0,1,0,0)"><g id="svga-group-eyesiriscontrol-right" transform="matrix(1,0,0,1,0,0)"><g id="svga-group-eyesiris-right" transform="matrix(1,0,0,1,0,0)"><path id="SvgjsPath10293" d="M118 91.3c2.8 0 5.2 2.3 5.2 5.2s-2.3 5.2-5.2 5.2-5.2-2.3-5.2-5.2 2.4-5.2 5.2-5.2z" fill="#4faaab" stroke-width="none" opacity="1"></path><path id="SvgjsPath10294" d="M118 92.2c2.3 0 4.2 1.9 4.2 4.2s-1.9 4.2-4.2 4.2-4.2-1.9-4.2-4.2 1.9-4.2 4.2-4.2z" fill="#000000" stroke-width="none" opacity="1"></path><path id="SvgjsPath10295" d="M112.9 96.4c0 .9.2 1.7.6 2.4.8.5 1.6.7 2.6.7 2.7 0 4.9-2.2 4.9-4.9 0-1.2-.4-2.2-1.1-3-.6-.2-1.2-.3-1.8-.3-2.9 0-5.2 2.3-5.2 5.1z" fill="#69b9ba" stroke-width="none" opacity="1"></path><path id="SvgjsPath10296" d="M113.8 96.4c0 1.2.5 2.3 1.3 3 .3.1.6.1.9.1 2.7 0 4.9-2.2 4.9-4.9 0-.5-.1-1-.2-1.4-.7-.6-1.7-1-2.7-1-2.3 0-4.2 1.9-4.2 4.2z" fill="#1e1e1e" stroke-width="none" opacity="1"></path><path id="SvgjsPath10297" d="M115.8 94.2c.6-.6 1.4-.8 1.9-.4s.4 1.3-.2 1.9-1.4.8-1.9.4-.4-1.3.2-1.9z" fill="#2b2b2b" stroke-width="none" opacity="1"></path></g></g></g><g id="svga-group-eyesfront-right"><path id="SvgjsPath10347" d="M118.26 85.53c-6.08 0-11.02 5.6-11.02 12.5s4.93 12.5 11.02 12.5 11.02-5.6 11.02-12.5-4.94-12.5-11.02-12.5zm7.19 12.92c-2.33 1.32-4.9 2.65-8.16 2.68-3.26.04-6.05-.43-7.48-1.04-1.43-.61-1.78-.78-1.78-.78s1.6-1.9 4.33-3.48c2.72-1.58 6.52-2.79 10.06-2.36 3.54.43 6.52 1.25 6.44 1.36-.08.11-1.08 2.3-3.41 3.62z" fill="#fbd5c0" stroke-width="none" opacity="1" stroke="none"></path><path id="SvgjsPath10350" d="M107.86 98.9c1.64-4.26 4.72-7.79 9.36-8.78 4.77-1.01 8.68 1.11 12.08 4.21.06.06.18-.02.12-.1-5.62-8.37-19.63-4.78-21.65 4.63-.01.07.07.09.09.04z" fill="#ecb99d" stroke-width="none" opacity="1" stroke="none"></path><path id="SvgjsPath10351" d="M136.45 95.41c-2.13.29-4.01-.12-5.87-.69 1.83-.08 3.62-.65 5.17-1.79.16-.11.07-.43-.15-.34-2.45 1-4.91 1.54-7.45 1.35-.82-.27-1.66-.52-2.53-.72-2.12-.49-4.34-.6-6.48-.26-4.19.66-8.97 2.88-11.37 6.52-.04.07.05.12.1.08 4.31-3.46 8.42-5.76 14.13-5.63 2.16.05 4.27.7 6.39 1.29-4.59 6-13.2 7.22-19.92 4.28-.03-.02-.06.03-.03.05 6.58 3.27 16.06 2.28 20.4-4.21 2.56.7 5.11 1.26 7.72.5.28-.09.16-.47-.11-.43z" fill="#000000" stroke-width="none" opacity="1" stroke="none"></path></g></g></g><g id="svga-group-facehighlight-single"></g><g id="svga-group-eyebrows-left-move" transform="matrix(1,0,0,1,0,0)"><g id="svga-group-eyebrows-left-rotate" transform="matrix(1,0,0,1,0,0)"><g id="svga-group-eyebrows-left" transform="matrix(1,0,0,1,0,0)"><path id="SvgjsPath10403" d="M73.7 84.16c.04-.37.38-.65.63-.9.33-.33.68-.64 1.01-.95.02-.01.04-.03.05-.03.12-.31.33-.57.56-.81.26-.28.53-.54.85-.75.06-.08.15-.15.23-.22.06-.07.13-.14.19-.19.14-.12.26-.21.42-.28.21-.17.52-.28.75-.34.37-.09.75-.09 1.05.14.25.03.51.09.72.15.36.1.79.24 1.07.5.16.05.32.11.47.17.51.18 1.13.38 1.5.79.63.22 1.21.55 1.81.83.81.38 1.71.72 2.45 1.25.77.28 1.51.71 2.24 1.05.89.41 1.85.76 2.66 1.3.01.01.03.03.04.03.4.03.66.42.75.81.12.48.01 1.06-.29 1.46-.1.14-.28.19-.44.17-.12.1-.27.17-.45.19-.26.03-.56-.02-.81-.16-1.05-.19-2.07-.9-2.93-1.48-.77-.51-1.7-1.08-2.25-1.88-.8-.34-1.55-.92-2.26-1.41-.5-.35-1.03-.7-1.47-1.12-.3-.12-.59-.27-.87-.43-.48-.21-1.05-.41-1.47-.75-.16-.08-.31-.18-.46-.29-.26.01-.51-.01-.78-.03-.21-.02-.44-.01-.65-.06-.15.13-.31.23-.49.32-.24.14-.5.27-.76.21l-.27.36c-.41.53-.88 1.06-1.41 1.39-.01 0-.02 0-.03.01-.1.14-.21.28-.31.41-.22.28-.46.66-.83.74-.12.01-.24-.08-.22-.2z" fill="#d6c4c4" stroke-width="none" opacity="1"></path><path id="SvgjsPath10404" d="M93.61 87.02c.06-.16.29-.08.26.09-.19.83-.63 1.28-1.2 1.48-.02.01-.03.03-.04.04-.04.03-.07.02-.1 0-1.15.28-2.72-.36-3.65-.98-2.79-1.85-5.52-4-8.58-5.41-.78-.35-1.82-1.01-2.63-.68-.87.35-1.72 1.45-2.36 2.09-1.93 1.9-3.65 4.16-5.75 5.87-.22.18-.58-.1-.39-.34.37-.47.77-.94 1.18-1.39 1.03-1.31 2.24-2.58 3.27-3.82 1.21-1.48 2.42-3.25 4.07-4.27 1.42-.87 3.45.42 4.77 1.09 3.45 1.72 6.95 3.36 10.38 5.15.01.01.01.02.03.03.06.01.12.05.14.14.06.22.15.47.09.7-.03.1-.18.13-.25.05-.15-.18-.15-.45-.19-.68v-.03c-2.69-1.25-5.33-2.64-7.99-3.94-1.46-.72-2.9-1.52-4.44-2.05-.59-.21-1.43-.57-2.07-.35-.53.19-1.15.86-1.55 1.25-.81.8-1.52 1.7-2.24 2.61.91-1 2.3-2.76 3.56-2.91 1.44-.17 3.78 1.37 4.96 2.11 1.47.94 2.91 1.95 4.35 2.94 1.17.79 3.8 3.12 5.41 2.43.16-.23.32-.44.41-.73.13-.38.15-.83.13-1.24 0-.06.09-.11.11-.04.15.42.15.96.01 1.44.1-.21.21-.41.3-.65z" fill="#c7a2a2" stroke-width="none" opacity="1"></path></g></g></g><g id="svga-group-eyebrows-right-move" transform="matrix(1,0,0,1,0,0)"><g id="svga-group-eyebrows-right-rotate" transform="matrix(1,0,0,1,0,0)"><g id="svga-group-eyebrows-right" transform="matrix(1,0,0,1,0,0)"><path id="SvgjsPath10405" d="M126.31 84.18c-.04-.37-.38-.65-.63-.91-.33-.33-.68-.64-1.01-.95a.187.187 0 0 1-.04-.03c-.12-.31-.33-.57-.56-.81-.26-.28-.53-.54-.85-.76-.06-.08-.15-.15-.23-.22-.06-.07-.12-.14-.19-.19-.14-.12-.26-.21-.42-.28-.21-.18-.51-.28-.75-.34-.37-.1-.75-.09-1.05.13-.25.03-.51.09-.72.15-.36.1-.79.24-1.07.49-.16.05-.32.11-.47.17-.51.18-1.13.38-1.5.78-.63.22-1.21.55-1.81.82-.81.37-1.71.71-2.45 1.24-.77.28-1.51.71-2.24 1.04-.89.41-1.85.75-2.66 1.29-.01.01-.03.03-.04.03-.4.03-.66.42-.75.81-.12.48-.01 1.06.28 1.46.1.14.28.19.43.17.12.1.27.17.45.19.26.03.56-.02.81-.16 1.05-.18 2.07-.89 2.94-1.47.77-.51 1.7-1.08 2.25-1.88.8-.34 1.56-.92 2.27-1.4.5-.35 1.03-.7 1.47-1.12.3-.12.59-.27.87-.42.48-.21 1.05-.41 1.47-.75.16-.08.31-.18.46-.28.26.01.51-.01.78-.02.21-.02.44-.01.65-.06.15.13.31.23.48.32.24.14.49.28.76.21l.27.36c.41.53.88 1.06 1.41 1.39.01 0 .02 0 .03.01.1.14.21.28.31.41.22.28.46.67.83.74.11.05.23-.04.22-.16z" fill="#d6c4c4" stroke-width="none" opacity="1"></path><path id="SvgjsPath10406" d="M106.39 86.98c-.06-.17-.29-.08-.26.09.19.83.63 1.28 1.2 1.48.02.01.03.03.04.04.04.03.07.02.1 0 1.15.29 2.72-.35 3.65-.97 2.8-1.85 5.53-3.99 8.6-5.38.78-.35 1.82-1 2.63-.68.87.35 1.71 1.45 2.36 2.1 1.93 1.91 3.64 4.17 5.73 5.88.22.18.58-.1.39-.34-.37-.47-.77-.94-1.17-1.39-1.03-1.31-2.24-2.58-3.26-3.83-1.21-1.48-2.41-3.26-4.06-4.28-1.41-.87-3.45.41-4.77 1.07-3.45 1.71-6.96 3.34-10.39 5.12-.01.01-.01.02-.03.03-.06.01-.12.05-.14.13-.06.22-.15.47-.09.7.03.1.18.13.24.05.15-.18.15-.45.19-.68v-.03c2.69-1.24 5.34-2.62 8-3.92 1.46-.72 2.9-1.51 4.45-2.04.59-.2 1.43-.56 2.07-.34.53.19 1.15.86 1.55 1.26.81.8 1.52 1.7 2.23 2.61-.91-1-2.29-2.77-3.55-2.92-1.43-.17-3.78 1.36-4.96 2.1-1.48.93-2.92 1.94-4.36 2.92-1.17.79-3.81 3.11-5.42 2.41-.16-.23-.32-.44-.41-.73-.13-.38-.15-.83-.12-1.24 0-.06-.09-.11-.11-.04-.15.42-.16.96-.01 1.44a2.13 2.13 0 0 1-.32-.62z" fill="#c7a2a2" stroke-width="none" opacity="1"></path></g></g></g><g id="svga-group-nose-single-move" transform="matrix(1,0,0,1,0,0)"><g id="svga-group-nose-single" transform="matrix(1,0,0,1,0,0)"><path id="SvgjsPath10382" d="M94.94 88.27c1.09.9 1.93 1.85 2.34 3.25.46 1.58.01 2.89-.24 4.43-.13.83-.12 1.6.01 2.43.3 1.82.37 3.1-.45 4.84-.89 1.9-1.83 3.6-1.99 5.74-.16 2.17.41 4.19 1.48 6.07.08.15.3.02.23-.13-1.42-3.01-1.47-6.54-.07-9.57.83-1.8 1.93-3.43 1.69-5.5-.18-1.62-.5-2.94-.16-4.61.18-.87.35-1.73.26-2.63-.18-1.86-1.29-3.63-2.92-4.55-.15-.08-.32.12-.18.23z" fill="#cd865f" stroke-width="none" opacity="1" transform="translate(0 2)" stroke="none"></path><path id="SvgjsPath10383" d="M93.24 112.44c-1.27 1.59-2.06 6.22.65 7.01 1.79.52 2.16-2.61 4-1.23.99.74 1.24 2.28 2.78 2.12 1.1-.12 1.64-1.17 2.46-1.75 1.49-1.06 2.77 1.2 4.24.13 2.19-1.59.45-5.37-1.21-6.58-.31-.23-.67.27-.41.53 1.04 1.01 2.38 2.98 1.66 4.56-.88 1.93-2.26.03-3.42.11-1.92.13-2.62 3.5-4.74 1.47-.84-.8-1.73-2.54-3.19-1.71-.17.1-.3.26-.43.4-.16.23-.31.48-.43.73-1.44.21-2.24-.2-2.38-1.24-.48-1.46.09-3.07.65-4.41.07-.13-.14-.25-.23-.14z" fill="#cd865f" stroke-width="none" opacity="1" transform="translate(0 2)" stroke="none"></path><path id="SvgjsPath10384" d="M105.73 88.66c-3.59 2.68-1.04 6.83-1.81 10.38-.03.14.16.23.23.1.63-1.1.51-2.29.3-3.5-.48-2.75-.43-4.56 1.48-6.72.11-.13-.04-.37-.2-.26z" fill="#cd865f" stroke-width="none" opacity="1" transform="translate(0 2)" stroke="none"></path><path id="SvgjsPath10385" d="M103.91 102.3c.7 2.53.9 4.93 1.01 7.53 0 .11.18.15.2.03.41-2.5-.08-5.28-1.03-7.61-.04-.11-.21-.07-.18.05z" fill="#cd865f" stroke-width="none" opacity="1" transform="translate(0 2)" stroke="none"></path><path id="SvgjsPath10386" d="M104.48 108.47c-.12-1.87-.5-4.29-1.95-5.6-.25-.23-.69-.08-.68.28.03 1.79.74 3.49.74 5.31 0 1.52-.87 3.56-.29 4.98.12.3.45.5.76.31 1.55-.93 1.52-3.67 1.42-5.28z" fill="#ffe1d0" stroke-width="none" opacity="1" transform="translate(0 2)" stroke="none"></path></g></g><g id="svga-group-hair-front" transform="matrix(1,0,0,1,0,0)"><path id="SvgjsPath10522" d="M121.5 56s-6.3 13.8-31.2 17-29.8 16-26.9 21.6c2.9 5.6 9.7 9.2 2.4 19.9s-.5 12.6 1.7 16-1.7 5.3-1.9 7.5c-.2 2.2 1.9 4.6 1.9 4.6s-4.8-3.1-3.4-9c1.4-5.8-9-8.7-6.1-16.2 2.9-7.5 5.3-9.4 1-22.3s-5.8-22.5-1.5-34.2c6.1-16.2 41.7-39.7 65.9-13.3 0 0 11.4-1.2 17.4 16 6.1 17.2 1.2 27.4-.7 29.8 0 0-.7.5-2.4-6.1-1.7-6.5-7.5-9.2-11.6-18.4S121.5 56 121.5 56z" fill="#ded6d6" stroke-width="none" opacity="1" stroke="none"></path><path id="SvgjsPath10523" d="M70 170.9c5.4-4.9 4.1-10.9 1.7-15.8 3.3-10.5-3.9-15.3-3.9-15.3S55 144 54.4 151.6c-.3 4.1-.3 7.3.2 9.8-1.1.3-2.2.8-3 1.4-6.4 5.1-3.4 11.7-2.8 14.9s2.4 5.1 2.4 5.1c-1.4 2.3-4.3 7.4-1 16.4s12.9 13.6 12.9 13.6c-4.5-5.6-3.9-14-3.9-14s.6 2.9 2.3 8.6c1.8 5.6 8.2 10.3 8.2 10.3s-1.4-3.1 0-8.8 1.6-8.6 1.6-8.6c-.2 5.3 2.9 10.7 2.9 10.7-1-4.5 1.4-9.7 0-17.7S65 183.1 65 183.1c6.1-6 5-12.2 5-12.2zm53-121.7s.4 2.2-1.5 6.8-7.2 16-32.4 17.7-25.4 19.7-24.3 21.6 6.6 9.3 3.4 14.4c0 0 .8-5.7-3.6-11.6s-5.3-10.4-.4-17.3S77.7 72 92.7 70.5s21.4-5.5 24.3-9.7c3-4.2 4.9-8.9 6-11.6zm-5.1.4s-3.4 7.8-20.5 10.8-33.2 5.9-38.3 21c0 0-.4-6.3 8.5-14.2s32.6-9.3 38.1-10.4c5.4-1.1 10.3-5.1 12.2-7.2zm-9.5-6.4s-29-3.2-43.8 17.4c0 0 4.9-10.8 17.6-16.3s26.2-1.1 26.2-1.1zM125.5 54s1.7 11.2 7.2 18.8c5.5 7.6 8.7 16.1 8.7 16.1s0-8.5-4.9-15.7c-4.9-7.1-8.9-12-11-19.2zm1.3-2.5s11.4 10.8 15.4 27.7c0 0-.6-10.6-5.3-17.6-4.6-6.9-10.1-10.1-10.1-10.1z" fill="#d6c4c4" stroke-width="none" opacity="1" stroke="none"></path><path id="SvgjsPath10524" d="M119.2 54.9s-5.2 11.4-24.9 13c-19.7 1.7-25.4 4.3-29.9 8.5 0 0 6.4-9.7 18.5-11.6s26.3-3 36.3-9.9zm-2.2-8.1s-4.5 7.1-20.2 8.5-27.5 4.5-34.6 13.5c0 0 5.5-16.4 22.8-20.6s16.1.5 32-1.4zM127.9 57s2.4 5.2 5.9 10.2 6.4 10.4 7.4 14.5c0 0-.7-9.5-5.2-16.1s-8.1-8.6-8.1-8.6z" fill="#e5e5e5" stroke-width="none" opacity="1" stroke="none"></path><path id="SvgjsPath10525" d="M57.9 172.9c-2.2 2.4-1.2 6.4-1.2 6.4s.4-4.1 3.7-5.7c3.3-1.6 7.8-2.5 9.6-2.6 0 0 4.2-4.9 2.1-12.9 0 0-1 8.3-5.3 9.4-4.2 1-6.7 3-8.9 5.4zm8.2 18.5c-1-4.1-5.8-6.9-7.6-7.9 1.7 0 3 .1 3 .1s-2.4-.1-6.4-1.9c-4-1.7-5.7-7.8-5.4-11 .2-2.3 2.3-4.8 3.6-5.9 2.4 2.4 5.7 3.6 5.7 3.6-5-6-2.8-11.8-1.6-14.2 4.4 3.6 8 3.6 8 3.6-14.2-8.4-12-22.7-12-22.7-1.5 2.5-4.5 9.9 1.1 16.4-3.2 1.3-4.8 7.4-2.9 11-1.5 1-3.7 3.1-4.6 7.5-1.5 7 2.9 12.2 4.2 12.8 0 0-3.3 4.3-.2 16.2 3 11.9 12.1 13.8 12.1 13.8-6-3.8-9.9-12.9-10.5-18.7-.5-4.7 1.3-9.2 2.1-10.8 1.1.1 2.3.1 3.4.1.9 1 3.5 4.4 4.9 9.3 1.6 6 .5 9.9 1.2 14.2.7 4.2 4.4 9.1 4.4 9.1s-3.1-6.5-2.9-11.5c0-4.9 1.6-8.1.4-13.1zm5.1-.9c-2.2-5.2-6.5-6.1-6.5-6.1 4.5 3.7 5.7 7.8 6 11.9.3 4.1 2 8.4 2 8.4-.3-3.1.8-9.1-1.5-14.2zm-.1-38.1c.8-3.7-.7-9.5-2.6-11.8 0 0 3.5 7.5-.8 17.6 0 0 2.5-2.1 3.4-5.8zm-8.1-8.3s-7.2-7.4-10.6-20.9c0 0-2.1 16.7 10.6 20.9z" fill="#ceb3b3" stroke-width="none" opacity="1" stroke="none"></path></g><g id="svga-group-glasses-single-move" transform="matrix(1,0,0,1,0,0)"><g id="svga-group-glasses-single" transform="matrix(1,0,0,1,0,0)"><path id="SvgjsPath10440" d="M118.8 82.8c8.3 0 15.1 6.8 15.1 15.1s-6.8 15.1-15.1 15.1-15.1-6.8-15.1-15.1 6.8-15.1 15.1-15.1z" fill="url(#SvgjsLinearGradient10441)" opacity="1"></path><path id="SvgjsPath10448" d="M81.2 82.8c8.3 0 15.1 6.8 15.1 15.1S89.5 113 81.2 113s-15.1-6.8-15.1-15.1 6.8-15.1 15.1-15.1z" fill="url(#SvgjsLinearGradient10449)" opacity="1"></path><path id="SvgjsPath10456" d="M137.5 94.5c-2-.1-3.4-1.6-4.1-2.7-2.4-5.7-8-9.7-14.6-9.7-7.1 0-13.1 4.7-15.1 11.1-.2 0-.5 0-.8-.1-1.2-.3-2-1-3-1s-1.8.7-2.9 1c-.3.1-.6.1-.8.1-2-6.4-8-11.1-15.1-11.1-6.6 0-12.2 4-14.6 9.7-.7 1-2.1 2.6-4.1 2.7 0 0-.3 2.3-.1 4.4 0 0 2.4.4 3.4 2.6 1.6 7 7.9 12.2 15.3 12.2 8.4 0 15.3-6.6 15.7-15 .7-2.1 1.8-3 2.4-3.4.4-.2.9-.2 1.3 0 .7.4 1.7 1.3 2.4 3.4.4 8.3 7.3 15 15.7 15 7.5 0 13.7-5.2 15.3-12.2 1-2.2 3.4-2.6 3.4-2.6.6-2 .3-4.4.3-4.4zM83 112.2c-9.4 1.2-17.3-6.7-16.1-16.1.8-6.4 6-11.6 12.4-12.4 9.4-1.2 17.3 6.7 16.1 16.1-.8 6.4-6 11.5-12.4 12.4zm37.7 0c-9.4 1.2-17.3-6.7-16.1-16.1.8-6.4 6-11.6 12.4-12.4 9.4-1.2 17.3 6.7 16.1 16.1-.8 6.4-6 11.5-12.4 12.4z" fill="#9b6db6" stroke-width="none" opacity="1"></path><path id="SvgjsPath10457" d="M137.5 94.6c-.8 0-1.7-.3-2.4-.8s-1.3-1.1-1.8-1.8c-1.3-2.9-3.4-5.5-6.1-7.2s-5.9-2.6-9.1-2.4c-3.2.2-6.3 1.3-8.8 3.3-2.5 1.9-4.4 4.7-5.3 7.7v.1h-.1c-.7 0-1.4-.2-2-.5-.6-.3-1.2-.6-1.8-.6-.6 0-1.2.3-1.8.6-.6.3-1.3.5-2 .5h-.1v-.1c-.9-3.1-2.8-5.8-5.3-7.8s-5.6-3.1-8.8-3.3c-3.2-.2-6.4.7-9.1 2.4-2.7 1.7-4.9 4.3-6.1 7.2-.5.7-1.1 1.4-1.8 1.9s-1.5.8-2.4.8l.1-.1c-.2 1.4-.2 2.9-.1 4.3l-.1-.1c.8.2 1.5.5 2.1.9.6.4 1.1 1.1 1.4 1.8.9 3.6 3.1 6.9 6.1 9.1 3 2.2 6.8 3.2 10.5 2.9 3.7-.3 7.2-2.1 9.8-4.7 2.6-2.7 4.1-6.3 4.3-10 .3-.8.6-1.6 1.2-2.3.3-.3.6-.7.9-.9.3-.2.8-.5 1.3-.5s.9.3 1.3.5c.3.3.7.6.9.9.5.7.9 1.5 1.2 2.3.2 3.7 1.8 7.3 4.3 10s6.1 4.4 9.8 4.8c3.7.4 7.5-.7 10.5-2.9s5.2-5.4 6.1-9.1c.3-.7.8-1.3 1.4-1.7.6-.4 1.3-.8 2.1-.9l-.1.1c.1-.7.1-1.4.1-2.2v-1.1l-.3-1.1zm0-.1c.1.4.1.7.1 1.1 0 .4.1.7.1 1.1 0 .7 0 1.5-.1 2.2-.7.2-1.4.5-2 .9-.6.4-1 1-1.3 1.7-.8 3.7-3.1 7-6.1 9.3-3.1 2.2-6.9 3.4-10.7 3-3.8-.3-7.4-2.1-10.1-4.8-2.7-2.7-4.3-6.4-4.5-10.3v.1c-.3-.8-.6-1.5-1.1-2.1-.2-.3-.5-.6-.8-.8-.3-.2-.6-.4-1-.4-.3 0-.7.2-1 .4-.3.2-.6.5-.8.8-.5.6-.8 1.4-1.1 2.1v-.1c-.2 3.8-1.8 7.5-4.5 10.2-2.6 2.8-6.3 4.5-10.1 4.8-3.8.3-7.7-.8-10.7-3-3.1-2.2-5.3-5.6-6.2-9.3-.3-.7-.8-1.2-1.3-1.7-.6-.4-1.3-.8-2-.9h-.1v-.1c-.1-1.5-.1-2.9.1-4.4v-.1h.1c.8 0 1.6-.3 2.3-.8s1.2-1.1 1.7-1.8c1.3-3 3.4-5.6 6.2-7.3 2.7-1.8 6-2.6 9.2-2.5 3.2.1 6.4 1.3 9 3.3 2.6 2 4.5 4.8 5.5 7.9l-.2-.1c.6 0 1.2-.2 1.8-.4.6-.3 1.2-.6 1.9-.6s1.4.4 1.9.6c.6.3 1.2.5 1.8.4l-.2.2c1-3.1 2.9-5.9 5.5-7.9s5.8-3.2 9-3.3c3.2-.2 6.5.7 9.3 2.5 2.7 1.7 4.9 4.3 6.1 7.3.5.7 1 1.3 1.7 1.8 1 .7 1.7 1 2.6 1zM83 112.2c-3.7.4-7.7-.5-10.7-2.8-3-2.3-5.2-5.8-5.6-9.6-.2-1.9-.1-3.8.4-5.7.5-1.8 1.4-3.6 2.6-5 1.2-1.5 2.6-2.8 4.2-3.7 1.6-1 3.4-1.6 5.3-1.9 3.8-.4 7.8.5 10.8 2.9 3 2.3 5.2 5.8 5.6 9.7.1.5.1.9.1 1.4v1.4c-.1.9-.2 1.9-.5 2.8-.5 1.8-1.4 3.6-2.6 5.1-2.3 2.9-5.8 4.9-9.6 5.4zm0-.1c1.9-.3 3.7-.9 5.3-1.8 1.6-.9 3-2.2 4.1-3.7 2.3-3 3.2-6.8 2.7-10.5s-2.5-7.1-5.4-9.4c-2.9-2.3-6.8-3.3-10.5-2.9-3.7.5-7.2 2.4-9.5 5.4-1.1 1.5-2 3.2-2.4 5-.5 1.8-.5 3.7-.3 5.5.5 3.7 2.5 7.1 5.4 9.4 3 2.5 6.9 3.5 10.6 3zm37.7.1c-3.7.4-7.7-.5-10.7-2.8-3-2.3-5.2-5.8-5.6-9.6-.2-1.9-.1-3.8.4-5.7.5-1.8 1.4-3.6 2.6-5 1.2-1.5 2.6-2.8 4.2-3.7 1.6-1 3.4-1.6 5.3-1.9 3.8-.5 7.7.4 10.8 2.8 3 2.3 5.2 5.8 5.6 9.7.1.5.1.9.1 1.4v1.4c-.1.9-.2 1.9-.5 2.8-.5 1.8-1.4 3.6-2.6 5.1-2.3 3-5.9 5-9.6 5.5zm0-.1c1.9-.3 3.7-.9 5.3-1.8 1.6-.9 3-2.2 4.1-3.7 2.3-3 3.2-6.8 2.7-10.5s-2.5-7.1-5.4-9.4c-2.9-2.3-6.8-3.3-10.5-2.9-3.7.5-7.2 2.4-9.5 5.4-1.1 1.5-2 3.2-2.4 5-.5 1.8-.5 3.7-.3 5.5.5 3.7 2.5 7.1 5.4 9.4 3 2.5 6.9 3.5 10.6 3z" fill="#763c97" stroke-width="none" opacity="1"></path></g></g></g></g></g><rect id="svga-credit-rect" width="200" height="15" x="0" y="185" fill="#ecf0f1" opacity="0.5" style="display: none;"></rect><text id="svga-credit-text" font-family="Avenir Next, Roboto, Helvetica, Arial, sans-serif" font-size="10px" text-anchor="start" font-weight="400" size="10px" anchor="start" weight="400" fill="#333333" x="33.40447998046875" y="182.60824704170227" style="display: none;"><tspan id="SvgjsTspan9793" dy="13" x="33.40447998046875">Created on AvatarMaker.com</tspan></text></g></svg>