<svg xmlns="http://www.w3.org/2000/svg" version="1.1" width="600px" height="600px" viewBox="0 0 200 200" style="overflow:hidden!important;"><defs id="SvgjsDefs12009"><linearGradient id="SvgjsLinearGradient12688" x1="81.6801" y1="85.449" x2="81.6801" y2="113.6917" gradientUnits="userSpaceOnUse" class="svga-on-canvas-glasses-gradient-single-0-null"><stop id="SvgjsStop12689" stop-opacity="1" stop-color="#150000" offset="0.004166667" ></stop><stop id="SvgjsStop12690" stop-opacity="0.8088" stop-color="#190300" offset="0.1945" ></stop><stop id="SvgjsStop12691" stop-opacity="0.6342" stop-color="#240c00" offset="0.3684" ></stop><stop id="SvgjsStop12692" stop-opacity="0.466" stop-color="#361b00" offset="0.5359" ></stop><stop id="SvgjsStop12693" stop-opacity="0.3018" stop-color="#503100" offset="0.6994" ></stop><stop id="SvgjsStop12694" stop-opacity="0.1421" stop-color="#724c00" offset="0.8585" ></stop><stop id="SvgjsStop12695" stop-opacity="0" stop-color="#966a00" offset="1" ></stop></linearGradient><linearGradient id="SvgjsLinearGradient12697" x1="-18.3199" y1="85.449" x2="-18.3199" y2="113.6917" gradientTransform="matrix(-1 0 0 1 100 0)" gradientUnits="userSpaceOnUse" class="svga-on-canvas-glasses-gradient-single-1-null"><stop id="SvgjsStop12698" stop-opacity="1" stop-color="#150000" offset="0.004166667" ></stop><stop id="SvgjsStop12699" stop-opacity="0.8088" stop-color="#190300" offset="0.1945" ></stop><stop id="SvgjsStop12700" stop-opacity="0.6342" stop-color="#240c00" offset="0.3684" ></stop><stop id="SvgjsStop12701" stop-opacity="0.466" stop-color="#361b00" offset="0.5359" ></stop><stop id="SvgjsStop12702" stop-opacity="0.3018" stop-color="#503100" offset="0.6994" ></stop><stop id="SvgjsStop12703" stop-opacity="0.1421" stop-color="#724c00" offset="0.8585" ></stop><stop id="SvgjsStop12704" stop-opacity="0" stop-color="#966a00" offset="1" ></stop></linearGradient></defs><g id="svga-group-wrapper"><g id="svga-group-backs-single"><path id="SvgjsPath12483" d="M0 0h200v200H0V0z" fill="#036564" stroke-width="none" opacity="1"></path><path id="SvgjsPath12484" d="M0 0h18.2v200H0V0zm36.4 0h18.2v200H36.4V0zm36.3 0h18.2v200H72.7V0zm36.4 0h18.2v200h-18.2V0zm36.3 0h18.2v200h-18.2V0zm36.4 0H200v200h-18.2V0z" fill="#005655" stroke-width="none" opacity="1"></path></g><g id="svga-group-humanwrap-move" transform="matrix(1,0,0,1,0,0)"><g id="svga-group-humanwrap" transform="matrix(1,0,0,1,0,0)"><g id="svga-group-hair-back-move" transform="matrix(1,0,0,1,0,0)"><g id="svga-group-hair-back" transform="matrix(1,0,0,1,0,0)"><path id="SvgjsPath12779" d="M134.2 50.7s5.7 1.1 10.5 12 2.8 23.4 2.2 32.1-2 36-10.9 49.8-13.1 14.6-23.4 18.4c-10.3 3.7-36.5 2.6-47.6-7.4-11.1-10.1-6.5-26.9-3.7-33 2.8-6.2 72.9-71.9 72.9-71.9" fill="#6b5850" stroke-width="none" opacity="1" stroke="none"></path><path id="SvgjsPath12780" d="M71.2 121.7s-2.8 7.1-3.4 12c-.6 4.9 2.6 9.5 4.5 12.1 2.1 2.8 6 7.6 6.1 17.2.1 6 41.6-5.5 41.6-5.5 3.7-2.9 11.1-9.6 15.6-20.9 3.8-9.5 3.8-17.8 3.5-22.4-17.2 6.2-34.5 12.5-51.7 18.7l-2.8-4.3-13.4-6.9z" fill="#644e45" stroke-width="none" opacity="1" stroke="none"></path></g></g><g id="svga-group-humanbody-back"><path id="SvgjsPath12313" d="m168.5 219.5-1.7-21.5s.7-9-8.8-15.3-23.4-10.1-29.5-14.2c-6.1-4.1-9.2-4.5-9-16.9s.9-40.3.9-40.3H79.6s.7 27.9.9 40.3c.2 12.4-2.9 12.8-9 16.9-6.1 4.1-20 7.9-29.5 14.2S33.2 198 33.2 198l-1.6 21.5h136.9z" fill="#582812" stroke-width="none" opacity="1" stroke="none"></path></g><g id="svga-group-chinshadow-single"><path id="SvgjsPath12547" d="M82.6 154.1c5 1.3 7.5 8.3 17.4 8.3 10 0 12.5-7 17.4-8.3.74-.15 1.43-.3 2.1-.46-.01-.64-.01-1.32 0-2.04.2-12.4.9-40.3.9-40.3H79.6s.7 27.9.9 40.3c.01.69.01 1.35 0 1.97.67.16 1.36.33 2.1.53z" fill="#391200" stroke-width="none" opacity="0.65" stroke="none"></path></g><g id="svga-group-humanbody-front"><path id="SvgjsPath12314" d="M73.8 175.9c5.1 2.9 11.8 5.2 17.6 5.7.4 0 .4-.6.1-.7-2.8-1.1-5.9-1.7-8.8-2.6-2.9-.9-5.8-2-8.8-2.7-.1-.1-.3.2-.1.3zm35.2 6.2c5.3-.6 11.3-3 15.9-5.8.3-.2.1-.6-.2-.5-2.6.9-5.2 2-7.8 2.9-2.6.9-5.4 1.5-8 2.5-.5.1-.5.9.1.9z" fill="#391200" stroke-width="none" opacity="1" stroke="none"></path><path id="SvgjsPath12315" d="m168.4 219.4-2.1-21.4c0-2.2-.5-4.5-1.5-6.6-.9-2.1-2.3-3.9-3.9-5.5s-3.5-2.8-5.5-4c-2-1.2-4.1-2.2-6.2-3.1-4.2-1.9-8.6-3.6-12.9-5.4-2.2-.9-4.3-1.9-6.4-3-1.1-.6-2.1-1.2-3-1.9-1-.6-2-1.2-3-1.9s-2-1.5-2.8-2.6c-.8-1-1.3-2.2-1.7-3.4-.7-2.4-.8-4.8-.8-7.2 0-4.7.2-9.4.3-14.1.2-9.4.6-18.7.9-28l.6.6-20.4-.2-20.4-.1.3-.3.7 28c.1 4.7.3 9.3.4 14 0 2.4-.1 4.7-.8 7.1-.3 1.2-.9 2.3-1.6 3.3-.8 1-1.7 1.8-2.7 2.5s-2 1.3-2.9 2c-.9.6-1.9 1.3-3 1.9-2.1 1.2-4.2 2.1-6.4 3.1-4.3 1.9-8.6 3.6-12.8 5.6-2.1 1-4.2 2.1-6.1 3.2-2 1.2-3.8 2.4-5.4 4-1.6 1.6-2.9 3.4-3.8 5.4-.4 1-.8 2.1-1 3.1-.2 1.1-.4 2.2-.3 3.2v.2l-1.5 21.5-1-1.1 34 .1c11.3 0 22.7.1 34.1.2l34.2.3 34.4.5zm.2.2-34 .4-34.2.3c-11.4.1-22.9.2-34.4.2l-34.4.1h-1.1l.1-1.1 1.7-21.5v.1c-.1-5.1 2.2-9.8 5.7-13.3 1.7-1.7 3.8-3.1 5.8-4.3 2-1.2 4.2-2.2 6.3-3.2 4.3-2 8.7-3.7 13-5.4 2.1-.9 4.3-1.8 6.3-2.9 1-.5 1.9-1.1 3-1.8 1-.6 2-1.2 2.9-1.9.9-.6 1.8-1.4 2.4-2.2.7-.9 1.2-1.9 1.5-2.9.6-2.1.8-4.5.8-6.8 0-4.6-.1-9.3-.2-14l-.6-28v-.3h.3l20.4-.1 20.4-.2h.6v.6c-.1 9.3-.2 18.7-.4 28-.1 4.7-.2 9.4-.2 14 .1 2.3.2 4.6.8 6.7.3 1.1.8 2 1.4 2.9.6.8 1.4 1.6 2.4 2.2.9.6 1.9 1.3 2.9 1.9 1 .7 1.9 1.3 2.9 1.8 2 1.1 4.1 2.1 6.3 3 4.3 1.8 8.6 3.6 12.9 5.6 2.1 1 4.2 2.1 6.2 3.3 2 1.2 4 2.6 5.7 4.3 3.4 3.4 5.6 8.1 5.4 13v-.1l1.4 21.6zm-112.8-.4 1.9-13.8.1 13.8h-2zm88.6 0-1.9-13.8-.1 13.8h2z" fill="#2a0d00" stroke-width="none" opacity="1" stroke="none"></path></g><g id="svga-group-clothes-single"><path id="SvgjsPath12677" d="m143.2 220 .1-3.6 26.8-2.6s-1.2-16.5-1.9-20-2.3-8.6-12.1-14-27.7-12.4-27.7-12.4c-31.6 30.5-56-.1-56.7 0 0 0-17.9 7-27.7 12.4s-11.4 10.5-12.1 14-1.9 20-1.9 20l26.8 2.6v3.6h86.4z" fill="#638e2f" stroke-width="none" opacity="1"></path><path id="SvgjsPath12678" d="M170.7 213.8c-.4-5.8-.7-11.6-1.3-17.4-.3-2.9-.9-6-2.6-8.6-1.6-2.6-3.9-4.6-6.4-6.3-2.4-1.7-5.1-3.1-7.7-4.4-2.6-1.3-5.3-2.5-7.9-3.7-5.3-2.4-10.7-4.5-16.2-6.6-.2-.1-.5 0-.7.1-3.8 3.8-8 7.1-12.7 9.6-4.7 2.5-9.9 4-15.2 4.1-2.7 0-5.3-.3-7.9-.9-2.6-.7-5.1-1.7-7.4-2.9s-4.6-2.7-6.7-4.3c-1.1-.8-2.1-1.7-3.1-2.6-.5-.4-1-.9-1.4-1.4l-.7-.7-.4-.4-.2-.2-.1-.1-.1-.1s-.2-.1-.3-.1h-.1c-5.4 2.1-10.8 4.2-16.2 6.5-2.7 1.1-5.3 2.3-8 3.6-2.6 1.3-5.2 2.6-7.7 4.3-2.4 1.7-4.8 3.7-6.4 6.3-1.7 2.6-2.4 5.7-2.7 8.6-.7 5.8-1.1 11.6-1.6 17.4 0 .5.4 1 .9 1.1l13.4 1.3 12.5 1.2v2.7c0 .6.5 1 1 1 7.3 0 14.5 0 21.8-.1l21.7-.2 43-.6.2-3.5 13.2-1 13.4-1.1c.4 0 .6-.3.6-.6zm-14.1.8-13.4 1.6c-.1 0-.2.1-.2.2l.1 3.6-43.4-.6-21.5-.2c-6.8-.1-13.6-.1-20.4-.1v-2.6c0-.5-.4-1-.9-1L43.5 214 31 212.9c.4-5.4.8-10.9 1.3-16.3.3-2.9.9-5.6 2.3-7.9 1.5-2.3 3.6-4.2 5.9-5.9 2.3-1.6 4.8-3 7.4-4.3s5.2-2.6 7.8-3.8c5.2-2.4 10.5-4.6 15.8-6.8l.2.1.4.3.7.7c.5.5 1 .9 1.5 1.4 1 .9 2.1 1.8 3.1 2.6 2.2 1.6 4.4 3.1 6.8 4.4 4.8 2.5 10.2 3.9 15.6 3.9s10.8-1.5 15.7-3.9c4.7-2.4 9-5.6 12.8-9.2 5.2 2.1 10.4 4.4 15.6 6.7 2.6 1.2 5.3 2.4 7.8 3.7 2.6 1.3 5.1 2.6 7.4 4.2 2.3 1.6 4.5 3.5 6 5.8s2.2 5 2.4 7.9c.3 2.9.6 5.8.9 8.6l.7 8.1-12.5 1.4zm-100.5-7.3-.3-1.1-.4-1c-.9-2.8-2.3-5.4-3.8-7.9-1.6-2.5-3.4-4.8-5.5-6.8s-4.4-3.9-7-5.1c1.2.8 2.3 1.7 3.4 2.6 1.1.9 2.1 1.9 3.1 3 1.9 2.1 3.7 4.4 5.2 6.8.4.6.7 1.2 1.1 1.8.4.6.7 1.2 1 1.9.3.6.7 1.3 1 1.9.3.7.6 1.3.9 2l.4 1 .4 1 .7 2c.5 1.4.8 2.8 1.3 4.1-.3-1.4-.5-2.9-.9-4.3l-.6-1.9zm92.9-9.9c-1.5 2.5-2.9 5.1-3.8 7.9l-.4 1-.3 1.1-.6 2.1c-.3 1.4-.6 2.8-.9 4.3.5-1.4.8-2.8 1.3-4.1l.7-2 .4-1 .4-1c.3-.6.6-1.3.9-2 .3-.6.6-1.3 1-1.9.3-.6.6-1.3 1-1.9.4-.6.7-1.2 1.1-1.8 1.5-2.4 3.3-4.7 5.2-6.8.9-1.1 2-2.1 3.1-3 1.1-1 2.2-1.9 3.4-2.6-2.6 1.3-4.9 3.1-7 5.1-2.1 1.8-3.9 4.2-5.5 6.6z" fill="#446f0f" stroke-width="none" opacity="1"></path></g><g id="svga-group-head" transform="matrix(1,0,0,1,0,0)"><g id="svga-group-ears-left-move" transform="matrix(1,0,0,1,0,0)"><g id="svga-group-ears-left" transform="matrix(1,0,0,1,0,0)"><path id="SvgjsPath12505" d="M64.2 96.3c-.2-.3-3.1-4-5.5-6.3-2.5-2.3-3.2-2.2-4.4-.8s-2.7 8.5-2.3 11.7 3.3 8.2 4.9 11c1.6 2.8 3.1 6.3 4.8 6 1.8-.3 4.2-4.3 5.3-7.3 1.2-3 .6-10.3-2.8-14.3z" fill="#582812" stroke-width="none" opacity="1" stroke="none"></path><path id="SvgjsPath12506" d="M67.9 104.8c.1.8.2 1.6.2 2.4s0 1.6-.2 2.4l-.3 1.2c-.1.4-.3.7-.4 1-.3.7-.6 1.3-.9 2-.7 1.2-1.4 2.4-2.4 3.4-.5.5-1 1-1.7 1.2-.3.1-.8.1-1.2 0-.4-.2-.7-.4-1-.7-1.2-1.2-1.8-2.6-2.5-4s-1.4-2.7-2.1-4.1c-.7-1.4-1.4-2.8-2-4.2-.3-.7-.6-1.4-.9-2.2-.3-.7-.5-1.5-.6-2.3-.2-1.6 0-3.2.1-4.7.2-1.5.4-3 .8-4.5.2-.7.4-1.5.7-2.2.1-.2.2-.3.3-.5s.2-.4.3-.5c.2-.3.5-.5.8-.7s.7-.3 1.1-.3c.4.1.7.2 1.1.4.6.4 1.1.9 1.7 1.4 2 2.1 3.7 4.5 5.6 6.8 1.8 2.5 2.9 5.6 3.5 8.7zm-9.6-14.6c-1-.8-2.2-1.7-2.9-1.2-.2.1-.4.3-.6.6-.1.1-.2.2-.2.3-.1.1-.1.3-.2.4-.3.6-.5 1.2-.7 1.9-.4 1.3-.8 2.8-1.1 4.2-.3 1.4-.5 3-.4 4.4.1.7.3 1.5.5 2.2l.9 2.1c.6 1.4 1.4 2.7 2.2 4s1.6 2.6 2.3 3.9c.4.7.7 1.3 1.1 1.9.4.6.8 1.2 1.2 1.6s.8.6 1.2.4.9-.5 1.3-1c.8-.9 1.5-2 2.2-3.2l.9-1.8c.1-.3.3-.6.4-.9l.2-.4c0-.2.1-.3.1-.5.3-1.3.3-2.8.3-4.3-.1-1.5-.3-3-.8-4.5s-1.2-2.9-2.1-4c-1.7-2.2-3.7-4.4-5.8-6.1z" fill="#491c08" stroke-width="none" opacity="1" stroke="none"></path><path id="SvgjsPath12507" d="M54.1 102.4c-.2-2.1-.4-7.4.8-9 2-2.7 5.6 6.1 6.5 8.8 0 .1.1.2.1.2.1.3-.1.7-.4.6-.4-.2-.8-.6-1.2-.8-1.1-.5-1.5.4-1.2 1.7.4 1.7 1.3 2.7 2.1 4 .1.2 0 .4-.2.3-1.5-.9-3.3-4.2-2.9-6.2.3-1.8 1.8-1.7 2.9-.8-.7-1.6-1.4-3.1-2.3-4.5-.6-.9-1.1-1.9-2-2-1.1-.2-.9.3-1.1 1.7-.8 4.6-.3 9.7 2.4 13.7.1.1 0 .2-.1.1-2-2.2-3.1-4.7-3.4-7.8z" fill="#391200" stroke-width="none" opacity="1" stroke="none"></path></g></g><g id="svga-group-ears-right-move" transform="matrix(1,0,0,1,0,0)"><g id="svga-group-ears-right" transform="matrix(1,0,0,1,0,0)"><path id="SvgjsPath12508" d="M135.8 96.3c.2-.3 3.1-4 5.5-6.3 2.5-2.3 3.2-2.2 4.4-.8s2.7 8.5 2.3 11.7-3.3 8.2-4.9 11c-1.6 2.8-3.1 6.3-4.8 6-1.8-.3-4.2-4.3-5.3-7.3-1.2-3-.6-10.3 2.8-14.3z" fill="#582812" stroke-width="none" opacity="1" stroke="none"></path><path id="SvgjsPath12509" d="M135.7 96.3c1.8-2.3 3.5-4.7 5.6-6.8.5-.5 1-1 1.7-1.4.3-.2.7-.4 1.1-.4.4-.1.8.1 1.1.3.3.2.6.5.8.7.1.1.2.3.3.5s.2.3.3.5c.3.7.5 1.4.7 2.2.4 1.5.6 3 .8 4.5.1 1.5.3 3.1.1 4.7-.1.8-.3 1.6-.6 2.3-.3.8-.6 1.5-.9 2.2-.6 1.4-1.3 2.8-2 4.2-.7 1.4-1.4 2.7-2.1 4.1-.7 1.4-1.4 2.8-2.5 4-.3.3-.6.6-1 .7s-.9.2-1.2 0c-.7-.2-1.2-.7-1.7-1.2-1-1-1.7-2.2-2.4-3.4-.3-.6-.6-1.3-.9-2-.1-.3-.3-.7-.4-1l-.3-1.2c-.1-.8-.2-1.6-.2-2.4s.1-1.6.2-2.4c.5-3.3 1.6-6.4 3.5-8.7zm.1.1c-.9 1.1-1.6 2.5-2.1 4s-.7 3-.8 4.5 0 3 .3 4.3c0 .2.1.3.1.5l.2.4c.1.3.3.6.4.9l.9 1.8c.6 1.2 1.4 2.3 2.2 3.2.4.4.9.8 1.3 1 .4.2.8 0 1.2-.4s.8-1 1.2-1.6.8-1.3 1.1-1.9c.7-1.3 1.6-2.6 2.3-3.9.8-1.3 1.5-2.6 2.2-4l.9-2.1c.3-.7.5-1.5.5-2.2.1-1.5-.1-3-.4-4.4-.3-1.4-.6-2.9-1.1-4.2-.2-.7-.5-1.3-.7-1.9-.1-.1-.1-.3-.2-.4-.1-.1-.1-.2-.2-.3l-.6-.6c-.7-.6-1.8.4-2.9 1.2-2 1.6-4 3.8-5.8 6.1z" fill="#491c08" stroke-width="none" opacity="1" stroke="none"></path><path id="SvgjsPath12510" d="M145.9 102.4c.2-2.1.4-7.4-.8-9-2-2.7-5.6 6.1-6.5 8.8 0 .1-.1.2-.1.2-.1.3.1.7.4.6.4-.2.8-.6 1.2-.8 1.1-.5 1.5.4 1.2 1.7-.4 1.7-1.3 2.7-2.1 4-.1.2 0 .4.2.3 1.5-.9 3.3-4.2 2.9-6.2-.3-1.8-1.8-1.7-2.9-.8.7-1.6 1.4-3.1 2.3-4.5.6-.9 1.1-1.9 2-2 1.1-.2.9.3 1.1 1.7.8 4.6.3 9.7-2.4 13.7-.1.1 0 .2.1.1 2-2.2 3.1-4.7 3.4-7.8z" fill="#391200" stroke-width="none" opacity="1" stroke="none"></path></g></g><g id="svga-group-faceshape-wrap" transform="matrix(1,0,0,1,0,0)"><g id="svga-group-faceshape-single"><path id="SvgjsPath12537" d="M141 85.4c-1.2-28.5-19.88-43.56-41.18-43.56C78.42 41.84 60.2 56.9 59 85.4c0 0-.2 5.4.2 12.1.3 6.6 1.3 11.3.8 19.3s3.43 16.07 8.63 19.97c6 4.5 8.9 4.41 13.9 5.71s7.63 8.42 17.53 8.42c10 0 12.4-6.88 17.3-8.18 5-1.3 8.28-1.37 14.28-5.87 5.2-3.9 8.86-12.04 8.36-20.04s.5-12.6.8-19.3c.4-6.71.2-12.11.2-12.11z" fill="#582812" stroke-width="none" opacity="1" stroke="none"></path><path id="SvgjsPath12538" d="M68.2 137.2c6 4.5 9.4 4.8 14.4 6.1s7.5 8.3 17.4 8.3 12.5-7 17.4-8.3c5-1.3 8.4-1.6 14.4-6.1 5.2-3.9 8.7-12.5 8.2-20.5s.5-12.6.8-19.3c.3-6.6.2-12.1.2-12.1-1.2-28.5-19.7-44.1-41-44.1S60.2 57 59 85.4c0 0-.2 5.4.2 12.1.3 6.6 1.3 11.3.8 19.3-.5 7.9 3 16.5 8.2 20.4zm-8.3-43.11c-.1-1.62-.1-3.35-.1-4.97v-3.65l.1-1.22c0-.81.1-1.62.2-2.43l.3-2.43c.5-3.24 1.2-6.39 2.3-9.53 2.1-6.18 5.7-11.76 10.3-16.12 2.3-2.13 4.9-4.06 7.7-5.47.7-.3 1.4-.71 2.1-1.01.4-.2.7-.3 1.1-.51l2.2-.81s1.8-.61 2.2-.71.7-.2 1.1-.3c12-3.04 25.4-.81 35.4 7 5 3.85 9 9.12 11.8 15 2.7 5.98 4.1 12.57 4.3 19.16v4.97c0 1.62-.1 3.35-.2 4.97-.2 3.35-.6 6.59-1 9.83-.4 3.35-.8 6.69-.8 10.04v3.66l-.1 1.22c-.2 1.52-.5 3.14-.9 4.56-.4 1.52-1 2.94-1.7 4.36s-1.5 2.74-2.4 3.85c-.9 1.22-1.9 2.23-3 3.04l-.2.2-.2.2-.5.3c-.3.2-.6.41-1 .61-.6.41-1.3.81-2 1.12-1.3.71-2.7 1.22-4.1 1.72-1.4.41-3 .81-4.6 1.12l-1.2.3h-.2l-.2.1-.4.1c-.3.1-.5.2-.8.3-1 .41-1.9 1.01-2.6 1.52-1.5 1.12-2.7 2.23-3.9 3.14-1.2.91-2.4 1.62-3.6 2.13-1.3.51-2.6.81-4 .91-.7.1-3.5-.1-4.2-.2-1.4-.3-2.6-.71-3.9-1.32-1.2-.61-2.4-1.52-3.6-2.53-.6-.51-1.3-1.01-2-1.62-.7-.51-1.5-1.12-2.4-1.62-.5-.2-1-.51-1.5-.61l-1.4-.41-2.4-.61c-1.6-.41-3-.71-4.4-1.32-1.4-.51-2.7-1.22-4-2.03-.3-.2-.6-.41-1-.61-.3-.2-.6-.41-.9-.71l-.8-.71-.2-.2-.6-.61c-1-1.01-1.9-2.23-2.7-3.45-.8-1.32-1.5-2.64-2-4.06s-1-2.94-1.3-4.46-.5-3.04-.5-4.56v-5.07c0-1.72-.1-3.35-.3-5.07-.3-3.35-.8-6.59-1.1-9.94 0-1.31-.1-2.93-.2-4.55z" fill="#2a0d00" stroke-width="none" opacity="1" stroke="none"></path></g></g><g id="svga-group-mouth-single-move" transform="matrix(1,0,0,1,0,0)"><g id="svga-group-mouth-single" transform="matrix(1,0,0,1,0,0)"><path id="SvgjsPath12493" d="M89.1 127.5s.8.5 1.3 1.5c.5.9 1 4.5 2.8 5.2s4.8-.2 6.8-.2 4.1.5 5.1.9 2.9.2 3.7-.7c.8-.9 1.9-3 2-5s1.1-2 1.1-2-11.3 1.2-11.5 1.1c-.1 0-8.2-.8-8.2-.8h-3.1z" fill="#A06B59" stroke-width="none" opacity="1" transform="translate(0 3)" stroke="none"></path><path id="SvgjsPath12494" d="M87.3 126.2c-.1.4.6 1.1 1.7 1.6.8.4 7.2 1.3 8.4 1.5 1.2.2 2.8.7 5 .1s5.7-1.1 7.1-1.3c1.4-.1 3.4-.9 3.6-1.4.2-.4 0-1-.7-.8s-1.3.7-2 .7-2.9-1.2-4.1-2.4c-1.2-1.1-2.9-1-4.5-.3-1.7.7-2.6.2-4.7-.6-1.9-.7-3.8 1.7-5.3 2.4-1.4.7-2.3.8-2.7.5-.5-.3-1.6-1-1.8 0z" fill="#915642" stroke-width="none" opacity="1" transform="translate(0 3)" stroke="none"></path><path id="SvgjsPath12495" d="M98.7 129c1.2.5 2.5.5 3.8-.1 1-.4 2.2-1.2 2.3-2.3 0-.2-.2-.3-.4-.2-.9.4-1.4 1.3-2.4 1.7-1 .5-2.2.7-3.3.7-.1 0-.1.1 0 .2z" fill="#a87666" stroke-width="none" opacity="1" transform="translate(0 3)" stroke="none"></path></g></g><g id="svga-group-eyes-left-move" transform="matrix(1,0,0,1,0,0)"><g id="svga-group-eyes-left" transform="matrix(1,0,0,1,0,0)"><g id="svga-group-eyesback-left"><path id="SvgjsPath12587" d="M91.7 99.7s-3.6 1.3-5.4 1.5-4.8.3-8.2-.1-5.6-1.1-5.6-1.1 1.3-3 4-5c2.8-1.9 6.2-2.4 9-1.6 2.7.8 4.9 3.3 5.3 4.5l.9 1.8z" fill="#ffffff" stroke-width="none" opacity="1"></path></g><g id="svga-group-eyesiriswrapper-left" transform="matrix(1,0,0,1,0,0)"><g id="svga-group-eyesiriscontrol-left" transform="matrix(1,0,0,1,0,0)"><g id="svga-group-eyesiris-left" transform="matrix(1,0,0,1,0,0)"><path id="SvgjsPath12551" d="M82 91.2c2.9 0 5.2 2.3 5.2 5.2s-2.3 5.2-5.2 5.2-5.2-2.3-5.2-5.2 2.3-5.2 5.2-5.2z" fill="#4d3623" stroke-width="none" opacity="1"></path><path id="SvgjsPath12552" d="M82 101.8c-3 0-5.4-2.4-5.4-5.4S79 91 82 91s5.4 2.4 5.4 5.4-2.4 5.4-5.4 5.4zm0-10.3c-2.7 0-4.9 2.2-4.9 4.9s2.2 4.9 4.9 4.9 4.9-2.2 4.9-4.9-2.2-4.9-4.9-4.9z" fill="#2e1b0c" stroke-width="none" opacity="1"></path><path id="SvgjsPath12553" d="M82 93.6c1.5 0 2.8 1.3 2.8 2.8s-1.3 2.8-2.8 2.8-2.8-1.3-2.8-2.8 1.3-2.8 2.8-2.8z" fill="#000000" stroke-width="none" opacity="1"></path><path id="SvgjsPath12554" d="M80.7 93.6c.5 0 1 .4 1 1s-.4 1-1 1-1-.4-1-1 .5-1 1-1zm3.2 4.4c.2 0 .4.2.4.4s-.2.4-.4.4-.4-.2-.4-.4.2-.4.4-.4z" fill="#ffffff" stroke-width="none" opacity="1"></path></g></g></g><g id="svga-group-eyesfront-left"><path id="SvgjsPath12595" d="M70.7 98c0 6.9 4.9 12.5 11 12.5s11-5.6 11-12.5-4.9-12.5-11-12.5-11 5.6-11 12.5zm1.9 1.9s1.3-3 4-5c2.8-1.9 6.2-2.4 9-1.6 2.7.8 4.9 3.3 5.3 4.5.5 1.2.8 1.8.8 1.8s-3.6 1.3-5.4 1.5-4.8.3-8.2-.1c-3.3-.3-5.5-1.1-5.5-1.1z" fill="#582812" stroke-width="none" opacity="1" stroke="none"></path><path id="SvgjsPath12596" d="M92.5 99.2c-1.7-4-4.8-7.2-9.3-7.8-4.8-.6-9.3 2.5-11.2 6.8 0 .1-.2 0-.2-.1 1.8-4.4 6.3-7.3 11.1-7 4.4.3 8.8 3.6 9.6 8.1.1 0 .1 0 0 0z" fill="#491c08" stroke-width="none" opacity="1" stroke="none"></path><path id="SvgjsPath12597" d="M69.6 98.6c.9 0 1.8.1 2.7.2.3-.5.6-.9.9-1.4-.9-.4-1.7-.9-2.4-1.5-.1-.1 0-.3.1-.2.9.3 1.8.8 2.6 1.3.3-.4.6-.8 1-1.1-.7-.5-1.4-1-1.9-1.7-.1-.1 0-.3.2-.2.7.4 1.4 1 2 1.6.5-.4.9-.8 1.5-1.2-.6-.7-1.1-1.4-1.7-2.1-.1-.1.1-.3.2-.2.7.6 1.3 1.3 1.8 2.1.3-.2.7-.4 1.1-.6-.3-.5-.6-1-.9-1.6-.1-.2.1-.3.2-.2.5.4.8 1 1 1.6.5-.2.9-.4 1.4-.5-.2-.6-.4-1.1-.5-1.7 0-.2.1-.4.2-.2.2.6.4 1.2.5 1.9.5-.2 1.1-.3 1.7-.3-.1-.5-.2-1-.2-1.5 0-.2.2-.2.3 0 .2.5.2 1 .2 1.5.4 0 .7-.1 1.1-.1 4.9-.1 8 2.8 9.5 7.3.1.3-.3.3-.4.1-1.7-4.4-5.2-6.9-10-6.3-3.9.4-6.8 2.8-8.5 6.1 5.7 1.3 12.6 1.9 18.2.1.1 0 .1.1 0 .2-3 1.2-5.6 1.8-8.8 1.7H82c0 .2.1.3.1.5 0 .1-.2.1-.3 0-.1-.2-.1-.4-.1-.5-.5 0-.9 0-1.4-.1 0 .2 0 .4-.1.6 0 .1-.2.1-.2 0 0-.2 0-.4.1-.6-.5 0-1-.1-1.5-.1-.1.3-.2.6-.4.9-.1.1-.3.1-.3-.1 0-.3 0-.6.1-.8-.4 0-.8-.1-1.2-.1 0 .1-.1.3-.1.4-.1.2-.2.5-.3.6-.1.1-.3 0-.3-.1 0-.3.1-.5.2-.8 0-.1.1-.2.1-.3-.5-.1-.9-.1-1.4-.2-.1.1-.2.3-.3.4-.2.2-.4.5-.6.7-.1.1-.3 0-.2-.1.1-.3.3-.6.5-.8.1-.1.1-.2.2-.3-.8-.1-1.6-.3-2.3-.5-.4-.1-.5-.5-.3-.8.1-.2.2-.3.3-.5-.9 0-1.8-.1-2.5-.4-.4.2-.4-.1-.2-.1z" fill="#d6f7f4" stroke-width="none" opacity="1" stroke="none"></path></g></g></g><g id="svga-group-eyes-right-move" transform="matrix(1,0,0,1,0,0)"><g id="svga-group-eyes-right" transform="matrix(1,0,0,1,0,0)"><g id="svga-group-eyesback-right"><path id="SvgjsPath12588" d="M108.3 99.7s3.6 1.3 5.4 1.5 4.8.3 8.2-.1 5.6-1.1 5.6-1.1-1.3-3-4-5c-2.8-1.9-6.2-2.4-9-1.6-2.7.8-4.9 3.3-5.3 4.5l-.9 1.8z" fill="#ffffff" stroke-width="none" opacity="1"></path></g><g id="svga-group-eyesiriswrapper-right" transform="matrix(1,0,0,1,0,0)"><g id="svga-group-eyesiriscontrol-right" transform="matrix(1,0,0,1,0,0)"><g id="svga-group-eyesiris-right" transform="matrix(1,0,0,1,0,0)"><path id="SvgjsPath12555" d="M118 91.2c2.9 0 5.2 2.3 5.2 5.2s-2.3 5.2-5.2 5.2-5.2-2.3-5.2-5.2 2.3-5.2 5.2-5.2z" fill="#4d3623" stroke-width="none" opacity="1"></path><path id="SvgjsPath12556" d="M118 101.8c-3 0-5.4-2.4-5.4-5.4S115 91 118 91s5.4 2.4 5.4 5.4-2.4 5.4-5.4 5.4zm0-10.3c-2.7 0-4.9 2.2-4.9 4.9s2.2 4.9 4.9 4.9 4.9-2.2 4.9-4.9-2.2-4.9-4.9-4.9z" fill="#2e1b0c" stroke-width="none" opacity="1"></path><path id="SvgjsPath12557" d="M118 93.6c1.5 0 2.8 1.3 2.8 2.8s-1.3 2.8-2.8 2.8-2.8-1.3-2.8-2.8 1.3-2.8 2.8-2.8z" fill="#000000" stroke-width="none" opacity="1"></path><path id="SvgjsPath12558" d="M116.8 93.6c.5 0 1 .4 1 1s-.4 1-1 1-1-.4-1-1 .4-1 1-1zM120 98c.2 0 .4.2.4.4s-.2.4-.4.4-.4-.2-.4-.4.2-.4.4-.4z" fill="#ffffff" stroke-width="none" opacity="1"></path></g></g></g><g id="svga-group-eyesfront-right"><path id="SvgjsPath12598" d="M118.3 85.5c-6.1 0-11 5.6-11 12.5s4.9 12.5 11 12.5 11-5.6 11-12.5-5-12.5-11-12.5zm3.5 15.6c-3.4.4-6.4.2-8.2.1s-5.4-1.5-5.4-1.5.4-.6.8-1.8c.5-1.2 2.6-3.7 5.3-4.5 2.7-.8 6.2-.4 9 1.6 2.8 1.9 4 5 4 5s-2.1.7-5.5 1.1z" fill="#582812" stroke-width="none" opacity="1" stroke="none"></path><path id="SvgjsPath12601" d="M107.5 99.2c1.7-4 4.8-7.2 9.3-7.8 4.8-.6 9.3 2.5 11.2 6.8 0 .1.2 0 .2-.1-1.8-4.4-6.3-7.3-11.1-7-4.4.3-8.8 3.6-9.6 8.1-.1 0-.1 0 0 0z" fill="#491c08" stroke-width="none" opacity="1" stroke="none"></path><path id="SvgjsPath12602" d="M130.4 98.6c-.9 0-1.8.1-2.7.2-.3-.5-.6-.9-.9-1.4.9-.4 1.7-.9 2.4-1.5.1-.1 0-.3-.1-.2-.9.3-1.8.8-2.6 1.3-.3-.4-.6-.8-1-1.1.7-.5 1.4-1 1.9-1.7.1-.1 0-.3-.2-.2-.7.4-1.4 1-2 1.6-.5-.4-.9-.8-1.5-1.2.6-.7 1.1-1.4 1.7-2.1.1-.1-.1-.3-.2-.2-.7.6-1.3 1.3-1.8 2.1-.3-.2-.7-.4-1.1-.6.3-.5.6-1 .9-1.6.1-.2-.1-.3-.2-.2-.5.4-.8 1-1 1.6-.5-.2-.9-.4-1.4-.5.2-.6.4-1.1.5-1.7 0-.2-.1-.4-.2-.2-.2.6-.4 1.2-.5 1.9-.5-.2-1.1-.3-1.7-.3.1-.5.2-1 .2-1.5 0-.2-.2-.2-.3 0-.2.5-.2 1-.2 1.5-.4 0-.7-.1-1.1-.1-4.9-.1-8 2.8-9.5 7.3-.1.3.3.3.4.1 1.7-4.4 5.2-6.9 10-6.3 3.9.4 6.8 2.8 8.5 6.1-5.7 1.3-12.6 1.9-18.2.1-.1 0-.1.1 0 .2 3 1.2 5.6 1.8 8.8 1.7h.7c0 .2-.1.3-.1.5 0 .1.2.1.3 0 .1-.2.1-.4.1-.5.5 0 .9 0 1.4-.1 0 .2 0 .4.1.6 0 .1.2.1.2 0 0-.2 0-.4-.1-.6.5 0 1-.1 1.5-.1.1.3.2.6.4.9.1.1.3.1.3-.1 0-.3 0-.6-.1-.8.4 0 .8-.1 1.2-.1 0 .1.1.3.1.4.1.2.2.5.3.6.1.1.3 0 .3-.1 0-.3-.1-.5-.2-.8 0-.1-.1-.2-.1-.3.5-.1.9-.1 1.4-.2.1.1.2.3.3.4.2.2.4.5.6.7.1.1.3 0 .2-.1-.1-.3-.3-.6-.5-.8-.1-.1-.1-.2-.2-.3.8-.1 1.6-.3 2.3-.5.4-.1.5-.5.3-.8-.1-.2-.2-.3-.3-.5.9 0 1.8-.1 2.5-.4.4.2.4-.1.2-.1z" fill="#d6f7f4" stroke-width="none" opacity="1" stroke="none"></path></g></g></g><g id="svga-group-facehighlight-single"></g><g id="svga-group-eyebrows-left-move" transform="matrix(1,0,0,1,0,0)"><g id="svga-group-eyebrows-left-rotate" transform="matrix(1,0,0,1,0,0)"><g id="svga-group-eyebrows-left" transform="matrix(1,0,0,1,0,0)"><path id="SvgjsPath12653" d="M69.6 87.3c0-.4.2-.7.5-.9.1-.2.3-.4.4-.6.1-.2.2-.3.4-.4.6-.8 1.8-1.5 2.6-2 1.2-.8 2.6-1.1 4.1-1.3 1.3-.4 2.8-.5 4-.2.1 0 .1.1.2.1 1 0 2 .2 3 .5.5.1 1 .2 1.5.5.1.1.2.2.2.3.6.2 1.1.4 1.6.7.8.4 1.6 1 2 1.6.1-.1.2-.1.4-.1.9.3 1 1 .6 1.6.3.3-.2.8-.7.6-.2 0-.3 0-.4-.1-1.4.7-3.5.3-5.1 0-.1 0-.1.1-.2.1-1.1 0-2.1-.1-3.2-.1-1.9.3-3.7.3-5.6.2-.6-.1-1.3-.1-1.9-.2-.3.1-.6.1-.9.1h-2.4c-.1.1-.3.1-.5 0-.4.1-.6-.1-.6-.4z" fill="#73625b" stroke-width="none" opacity="1"></path><path id="SvgjsPath12654" d="M90.2 86.9c.1-.4.1-.8-.2-1.1-.1-.1.1-.3.3-.2.8.5.8 1.8-.1 2.2-.1 0-.2 0-.2-.1-.1-.2.1-.5.2-.8zm-5.3-4.2c1.2.1 2.1 1.3 2.8 2 .7.8 1.7 1.8 1.6 2.9 0 .1-.2.2-.3.1-.6-.9-1-1.8-1.8-2.6-.7-.8-1.7-1.4-2.4-2.2 0-.1 0-.2.1-.2zm-4.1-.9c1.5 0 2.8 1.1 3.7 2 1.1 1.1 2.1 2.4 2.4 3.9 0 .2-.2.3-.3.1-1.4-2.4-2.5-4.7-5.8-5.7-.2-.1-.2-.3 0-.3zM75 83c4.4-.5 8.6 1.5 10.5 4.7.2.3-.3.5-.5.2-2-3.2-5.6-4.8-9.9-4.7-.2 0-.3-.2-.1-.2zm-3.2 1.1c3.3-.2 7.3 1.4 9.2 3.6.1.1-.1.2-.2.1-1.3-.9-2.6-1.8-4.2-2.4-1.6-.6-3.2-.8-4.9-1-.1-.1-.1-.3.1-.3zm-1.1 1.7c2.4-.3 6.5.2 8.2 1.8.1.1 0 .3-.2.2-2.4-1.4-5.2-1.5-7.9-1.7-.2-.1-.3-.3-.1-.3zm-1 1.8c1.1-.3 2.4-.1 3.5-.1.2 0 .2.3 0 .3-1.2 0-2.4.1-3.5-.1-.1 0 0-.1 0-.1z" fill="#827874" stroke-width="none" opacity="1"></path><path id="SvgjsPath12655" d="M69.8 85.9c-.6.7-1.4 1.8 0 2.2.7.2 1.7 0 2.4 0h16.4c1 0 3.5.2 3.1-1.2 0-.1-.2-.1-.3 0 0 .2-.1.3-.3.4.5-.9-.5-2.2-1.3-2.7-.1-.1-.2 0-.2.1-2.3-2-5.8-3.1-9-3.3-4-.2-8.4 1.6-10.8 4.5zM89 87.8c-.7-1.7-2.1-3.4-3.7-4.8 1.4.5 2.7 1.2 3.9 2.1.3.4.5.9.5 1.4.1.4 0 .8-.1 1.3H89zm1.8-.2c-.2.1-.4.1-.6.1.3-.6.3-1.2.1-1.8.3.2.5.5.8.7-.1.3-.2.6-.3 1 0-.1 0-.1 0 0zm-20.6-1.3c.5-.6 1.1-1.2 1.7-1.7.1-.1.2-.1.2-.2 2.5.9 4.9 1.8 7.2 3 .1.1.3-.1.2-.2-2-1.4-4.4-2.6-7-3.1 3.7-2.5 8.2-2.7 12.1-1.5.8.8 1.6 1.7 2.4 2.6.6.8 1.1 1.6 1.7 2.4-.8 0-1.7 0-2.5-.1-1.2-2.6-3.9-4.8-7.2-5.6-.2 0-.3.2-.1.2 3 1.3 5.3 2.9 7 5.3-.5 0-.9-.1-1.2-.1h-1.5v-.1c-1.8-2-4.4-3.7-7.4-4.3-.2 0-.3.2-.1.2 2.8 1.1 5.1 2.3 7.2 4.2h-11c-.3 0-1.4.2-1.7 0-.6 0-.3-.6 0-1zm1.3.3c.8 0 1.6.4 2.2.8.2.1 0 .3-.2.2-.3-.2-.7-.3-1-.4-.4-.1-.7-.2-1.1-.3-.1-.1-.1-.3.1-.3z" fill="#644e45" stroke-width="none" opacity="1"></path></g></g></g><g id="svga-group-eyebrows-right-move" transform="matrix(1,0,0,1,0,0)"><g id="svga-group-eyebrows-right-rotate" transform="matrix(1,0,0,1,0,0)"><g id="svga-group-eyebrows-right" transform="matrix(1,0,0,1,0,0)"><path id="SvgjsPath12656" d="M130.4 87.3c0-.4-.2-.7-.5-.9-.1-.2-.3-.4-.4-.6-.1-.2-.2-.3-.4-.4-.6-.8-1.8-1.5-2.6-2-1.2-.8-2.6-1.1-4.1-1.3-1.3-.4-2.8-.5-4-.2-.1 0-.1.1-.2.1-1 0-2 .2-3 .5-.5.1-1 .2-1.5.5-.1.1-.2.2-.2.3-.6.2-1.1.4-1.6.7-.8.4-1.6 1-2 1.6-.1-.1-.2-.1-.4-.1-.9.3-1 1-.6 1.6-.3.3.2.8.7.6.2 0 .3 0 .4-.1 1.4.7 3.5.3 5.1 0 .1 0 .1.1.2.1 1.1 0 2.1-.1 3.2-.1 1.9.3 3.7.3 5.6.2.6-.1 1.3-.1 1.9-.2.3.1.6.1.9.1h2.4c.1.1.3.1.5 0 .4.1.6-.1.6-.4z" fill="#73625b" stroke-width="none" opacity="1"></path><path id="SvgjsPath12657" d="M109.8 86.9c-.1-.4-.1-.8.2-1.1.1-.1-.1-.3-.3-.2-.8.5-.8 1.8.1 2.2.1 0 .2 0 .2-.1.1-.2-.1-.5-.2-.8zm5.3-4.2c-1.2.1-2.1 1.3-2.8 2-.7.8-1.7 1.8-1.6 2.9 0 .1.2.2.3.1.6-.9 1-1.8 1.8-2.6.7-.8 1.7-1.4 2.4-2.2 0-.1 0-.2-.1-.2zm4.1-.9c-1.5 0-2.8 1.1-3.7 2-1.1 1.1-2.1 2.4-2.4 3.9 0 .2.2.3.3.1 1.4-2.4 2.5-4.7 5.8-5.7.2-.1.2-.3 0-.3zM125 83c-4.4-.5-8.6 1.5-10.5 4.7-.2.3.3.5.5.2 2-3.2 5.6-4.8 9.9-4.7.2 0 .3-.2.1-.2zm3.2 1.1c-3.3-.2-7.3 1.4-9.2 3.6-.1.1.1.2.2.1 1.3-.9 2.6-1.8 4.2-2.4 1.6-.6 3.2-.8 4.9-1 .1-.1.1-.3-.1-.3zm1.1 1.7c-2.4-.3-6.5.2-8.2 1.8-.1.1 0 .3.2.2 2.4-1.4 5.2-1.5 7.9-1.7.2-.1.3-.3.1-.3zm1 1.8c-1.1-.3-2.4-.1-3.5-.1-.2 0-.2.3 0 .3 1.2 0 2.4.1 3.5-.1.1 0 .1-.1 0-.1z" fill="#827874" stroke-width="none" opacity="1"></path><path id="SvgjsPath12658" d="M119.2 81.4c-3.2.2-6.7 1.3-9 3.3 0-.1-.1-.2-.2-.1-.8.5-1.8 1.8-1.3 2.7-.1-.1-.2-.2-.3-.4 0-.1-.2-.1-.3 0-.4 1.4 2.1 1.2 3.1 1.2h16.4c.7 0 1.8.2 2.5 0 1.4-.4.6-1.5 0-2.2-2.3-2.9-6.7-4.7-10.9-4.5zm-8.9 6.3c0-.4-.1-.8-.1-1.3.1-.5.3-.9.5-1.4 1.2-.9 2.5-1.6 3.9-2.1-1.6 1.3-3 3.1-3.7 4.8-.2.1-.4.1-.6 0zm-1.1-.2c-.2-.3-.3-.6-.3-.9.3-.3.5-.5.8-.7-.2.6-.3 1.3.1 1.8-.2 0-.4-.1-.6-.2zm20.5.2c-.3.2-1.3 0-1.6 0h-11c2.1-1.9 4.4-3.1 7.2-4.2.2-.1.1-.3-.1-.2-3 .6-5.6 2.3-7.4 4.3v.1h-1.5c-.2 0-.7 0-1.2.1 1.7-2.4 4-4 7-5.3.2-.1.1-.3-.1-.2-3.3.8-6 3-7.2 5.6-.8 0-1.6.1-2.5.1.6-.8 1.1-1.7 1.7-2.4.7-.9 1.6-1.7 2.4-2.6 4-1.3 8.5-1 12.1 1.5-2.6.5-5 1.8-7 3.1-.1.1 0 .2.2.2 2.3-1.2 4.7-2.1 7.2-3 .1.1.2.1.2.2.7.5 1.2 1.1 1.7 1.7.3 0 .6.6-.1 1zm-1.2-1.1c-.8 0-1.6.4-2.2.8-.2.1 0 .3.2.2.3-.2.7-.3 1-.4.4-.1.7-.2 1.1-.3.1-.1.1-.3-.1-.3z" fill="#644e45" stroke-width="none" opacity="1"></path></g></g></g><g id="svga-group-nose-single-move" transform="matrix(1,0,0,1,0,0)"><g id="svga-group-nose-single" transform="matrix(1,0,0,1,0,0)"><path id="SvgjsPath12633" d="M95.89 91.8c2.15 3.13 1.05 6.5.25 9.9-.79 3.39-1.6 6.77-2.38 10.17-.45 1.94-1.78 4.98-.43 6.84.77 1.06 2.42 1.38 3.07.05.09-.18-.13-.37-.28-.22-1.36 1.33-2.85-.45-2.82-1.9.02-.76.27-1.59.44-2.34.3-1.31.61-2.63.91-3.94.58-2.52 1.15-5.04 1.72-7.55.75-3.31 2.7-8.38-.33-11.13-.07-.07-.22.03-.15.12z" fill="#2a0d00" stroke-width="none" opacity="1" transform="translate(0 2)" stroke="none"></path><path id="SvgjsPath12634" d="M103.08 89.87c-2.53 3.68-1.56 8.98-.28 12.92.83 2.56 1.92 5.02 2.83 7.55.43 1.21.82 2.44 1.11 3.7.18.77.37 1.58.42 2.37.06.52.04 1.04-.07 1.55-.33 1.36-1.25 1.64-2.75.86-.14-.18-.39.05-.3.23.74 1.5 2.64 1.05 3.33-.26 1.23-2.32-.41-6.05-1.19-8.26-1.18-3.34-2.71-6.56-3.57-10.01-.92-3.72-.62-7 .59-10.59.03-.09-.08-.12-.12-.06z" fill="#2a0d00" stroke-width="none" opacity="1" transform="translate(0 2)" stroke="none"></path><path id="SvgjsPath12635" d="M95.13 117.52c1.73.67 2.82 2.59 4.83 2.64 1.83.04 2.53-1.72 4.03-2.43.14-.07.12-.33-.05-.36-.55-.09-.87.03-1.33.37-1.12.83-1.57 1.93-3.3 1.55-1.54-.34-2.52-2.33-4.18-2.08-.17.03-.12.26 0 .31z" fill="#2a0d00" stroke-width="none" opacity="1" transform="translate(0 2)" stroke="none"></path><path id="SvgjsPath12636" d="M103.76 114.04c-.06-.59-.31-1.64-1.09-1.6-.81.04-.88 1.12-.98 1.71-.14.81-.35 1.74-1.19 2.1-.64.28-1.66.24-2.16-.3-.3-.33-.79.02-.71.41.35 1.57 1.93 2.27 3.45 1.84 1.69-.48 2.85-2.44 2.68-4.16z" fill="#602f18" stroke-width="none" opacity="1" transform="translate(0 2)" stroke="none"></path><path id="SvgjsPath12637" d="M100.84 102.01c-.18-2.08-.11-4.2-.45-6.26-.04-.26-.5-.27-.54 0-.68 4.4.4 9.47 1.42 13.75.08.34.58.19.52-.14-.41-2.44-.73-4.9-.95-7.35z" fill="#602f18" stroke-width="none" opacity="1" transform="translate(0 2)" stroke="none"></path></g></g><g id="svga-group-hair-front" transform="matrix(1,0,0,1,0,0)"><path id="SvgjsPath12774" d="M143.1 79.3c-.9 7.7-2.8 15-4.8 18.6 0 0-.3-14.3-3.7-21.1S121.2 62.2 120 56.5c0 0 1.5 3.3 3.8 4.7s10.3 7.6 12.2 9.7 5 7.3 6.3 8c.1.1.5.2.8.4zm-76.2 56.4c0 .6-.2 2.2-.5 4.5-.7-6.6-2.1-13.9-2.1-13.9s-30.2 44.5-26.2 59.2c4 14.7 12.1 24.9 12.9 25.7.8.8 4 1.9 5.4 4.5.5 1 10.5-8.8 5.6-20.6-4.8-11.8-5.9-19.8-1.9-26 .7-1.1 1.3-2.3 1.9-3.5-.8 4.3-1.5 7.7-1.7 8.7-.9 3.5-.9 8.5 1.5 14s6.1 5.8 6.1 5.8c-1.7-2.7-1.8-7.3-.2-12.1s4.2-9.5 5.6-14.5c1.5-5.2 2.2-11.4-2.7-21.7-2.7-6.1-3.7-10.1-3.7-10.1z" fill="#6b5850" stroke-width="none" opacity="1" stroke="none"></path><path id="SvgjsPath12775" d="M120 56.5s-18.2 6.8-32.8 1.7-24 15.1-22.8 27.1 9.4 27.7 4.6 47.1c-4.8 19.4-18.8 34.2-22.8 42.8s-4 17.4 0 23.7 6 10.8 7.1 17.4c0 0-1.5-3.6-7.4-8-9.3-6.9-13.1-15.1-12.5-27.9s6.2-22.8 11.1-33.1c4.8-10.3 7.3-23.3 3.9-31.9-3.4-8.6-7.3-20.5-5.9-41.7 1.4-21.1 13.1-32.4 27.7-41s35.7-7 49.1 1.3 11.4 15.7 11.4 15.7 4-2 10 7.1 2 33.4-2.3 41.1c0 0-.3-14.3-3.7-21.1S121.2 62.2 120 56.5z" fill="#73625b" stroke-width="none" opacity="1" stroke="none"></path><path id="SvgjsPath12776" d="M127.6 50.2c-2.3 1.5-4.7 1.5-6.1.8-4.1-1.8-7.4-8-10.8-11.7-5.7-6.2-7.2-9.4-20.3-10.1-9.3-.5-16.7 1.9-21 3.8-14.2 8.5-25.5 19.8-26.9 40.6-1.4 21.1 2.4 33.1 5.9 41.7s.9 21.6-3.9 31.9c-4.8 10.3-10.5 20.3-11.1 33.1s3.3 21 12.5 27.9c5.9 4.4 7.4 8 7.4 8-1.6-4.5-4-6.3-8.7-10.6-4.8-4.3-9.4-16.4-8.4-25.6s9.7-25 13.8-31.4c4.1-6.4 7.4-17.4 8.8-23.3 1.4-5.9.2-10.8-3.9-20.9s-6.3-36.5-5.6-41c1.1-8.3 3.1-14 9.4-20.6 9.4-9.8 21.6-11.3 28.9-11.4 11.8-.1 20 7.7 21.5 9.9s10.5 11.9 12.8 12.3c2.3.4 8-3.4 8-3.4l.7-.6s.3-1 0-2.6c-.5.9-1.5 2.2-3 3.2zM102.2 60c.3 0 .7 0 1-.1.2 0 .5 0 .8-.1.4 0 .9-.1 1.3-.1.2 0 .5-.1.8-.1.3 0 .7-.1 1-.1.3 0 .6-.1.9-.1.3 0 .6-.1.9-.1.2 0 .4-.1.6-.1.4-.1.8-.2 1.2-.2.2 0 .4-.1.6-.1.4-.1.8-.2 1.1-.2.2 0 .3-.1.4-.1.3-.1.6-.2.9-.2.1 0 .2 0 .3-.1.4-.1.8-.2 1.1-.3.1 0 .2 0 .3-.1.4-.1.7-.2 1.1-.3 2.2-.6 3.5-1.1 3.5-1.1s-5 .6-10.9-5.5c-2.3-3.7-6.1-10.5-12-12.8-6.8-2.7-29.5-3.9-37.2 12.5s-2.7 30.5.6 37.4c3.3 6.9 8.5 20.1 8.3 28.7-.2 8.7-2.3 21-4.6 26.4-2.3 5.4-17.6 24.4-20.8 33.3-3.3 9.3-4.4 15.6 3.5 28.3 3 4.9 5 6.3 5.8 8.1-1.2-5-3.1-9-6.5-14.2-4-6.3-4-15.1 0-23.7s18-23.4 22.8-42.8-3.4-35.1-4.6-47.1S72.7 52.9 87.2 58c1.9.7 3.9 1.1 5.8 1.4h.1c.2 0 .4.1.7.1.4 0 .8.1 1.2.1.3 0 .6 0 .8.1.4 0 .8.1 1.3.1h4.1c.3.3.7.3 1 .2z" fill="#6b5850" stroke-width="none" opacity="1" stroke="none"></path><path id="SvgjsPath12777" d="M63.3 148.6s-2.6 6.6-9.3 14.7c-8.9 10.7-10.7 17.4-7.4 25.8 3.3 8.4 7.8 12.8 9.3 16.5s1.1 7.6 1.1 7.6 1.9-4.1 1.1-7.2c-.7-3.1-7.4-13.9-8.4-20s.1-12.9 4.2-18.7c3.5-4.9 7.6-11.6 9.4-18.7zm1.9 1.5s-2.5 11.6-6 17.4c-3.5 5.8-4.6 13-2 19.1 2.6 6.1 7.6 14.1 7.2 19.4 0 0 3.4-6.4.2-13s-4.3-16.4-1.7-23.1c2.6-6.6 2.9-15.2 2.3-19.8z" fill="#73625b" stroke-width="none" opacity="1" stroke="none"></path><path id="SvgjsPath12778" d="M93.1 59.7c.3 0 .5.1.7.1.4 0 .8.1 1.2.1.3 0 .6 0 .8.1.4 0 .8.1 1.3.1h1.5c-2.4-1-5.2-2.6-7.6-5.4-4.8-5.9-8.5-8.6-16.2-7.8S59 58.1 59.5 69c.5 10.8 4 17.7 6.2 23.6-.6-2.6-1.1-5-1.3-7.3-1.1-12 8.3-32.2 22.8-27.1 2 .7 3.9 1.1 5.9 1.5z" fill="#644e45" stroke-width="none" opacity="1" stroke="none"></path></g><g id="svga-group-glasses-single-move" transform="matrix(1,0,0,1,0,0)"><g id="svga-group-glasses-single" transform="matrix(1,0,0,1,0,0)"><path id="SvgjsPath12687" d="M87.23 85.48c-6.06-.2-15.02.58-18.29 3.85-3.27 3.27-4.24 7.03-2.6 14.44s7.12 9.72 11.17 9.91c4.04.19 10.68-1.93 17.33-11.17 6.64-9.24 1.25-16.74-7.61-17.03z" fill="url(#SvgjsLinearGradient12688)" opacity="1"></path><path id="SvgjsPath12696" d="M112.77 85.48c6.06-.2 15.02.58 18.29 3.85 3.27 3.27 4.24 7.03 2.6 14.44s-7.12 9.72-11.17 9.91c-4.04.19-10.68-1.93-17.33-11.17-6.64-9.24-1.25-16.74 7.61-17.03z" fill="url(#SvgjsLinearGradient12697)" opacity="1"></path><path id="SvgjsPath12705" d="M136.04 96.99c-.2-.1-1.34-.19-1.56-.21-.06-1.14-.24-2.27-.63-3.36-.69-1.9-1.93-3.59-3.53-4.83-1.67-1.16-3.64-1.76-5.59-2.2-3.93-.85-7.97-1.04-11.97-.92-2 .07-4.01.5-5.8 1.43-1.51.77-2.82 1.97-3.68 3.44-1.15-1.16-2.29-1.63-3.53-1.56-1.69.09-2.78 1.2-3.06 1.53-.86-1.46-2.16-2.64-3.66-3.41-1.79-.93-3.8-1.36-5.8-1.43-4-.11-8.04.07-11.97.92-1.95.44-3.91 1.04-5.59 2.2-1.6 1.24-2.84 2.93-3.53 4.83-.38 1.08-.57 2.22-.63 3.36-.23.02-1.37.12-1.56.21-.22.11-.22 2.28-.08 2.51.13.22 1.56.24 1.75.25.2 1.88.53 3.74 1.1 5.55.64 1.89 1.62 3.72 3.07 5.12 1.42 1.43 3.25 2.42 5.2 2.93 1.95.52 4.02.53 5.98.05 1.96-.48 3.82-1.32 5.51-2.42 3.39-2.19 6.14-5.23 8.49-8.47 1.14-1.65 2.12-3.46 2.6-5.42.49-1.95.41-4.08-.42-5.93.23-.27 1.3-1.41 2.66-1.48.98-.05 2.07.54 3.03 1.52-.82 1.84-.89 3.96-.4 5.9.48 1.97 1.46 3.77 2.6 5.42 2.35 3.24 5.1 6.28 8.49 8.47 1.69 1.1 3.55 1.94 5.51 2.42 1.96.47 4.04.47 5.98-.05 1.94-.51 3.78-1.51 5.2-2.93 1.45-1.4 2.42-3.23 3.07-5.12.56-1.8.89-3.67 1.1-5.55.19 0 1.61-.03 1.75-.25.12-.24.12-2.41-.1-2.52zm-38.68.06c-.5 1.92-1.44 3.71-2.57 5.35-2.34 3.23-5.06 6.25-8.42 8.42-1.67 1.08-3.5 1.93-5.43 2.43-1.93.48-3.98.5-5.91-.01-1.93-.5-3.75-1.47-5.16-2.88-1.45-1.38-2.43-3.19-3.05-5.09-.58-1.91-.91-3.9-1.09-5.89-.17-1.98-.08-4.02.6-5.9.68-1.86 1.94-3.51 3.48-4.74 1.62-1.15 3.57-1.77 5.5-2.23 3.9-.89 7.94-1.11 11.94-1.03 2 .08 4 .54 5.76 1.47 1.77.92 3.24 2.43 4.02 4.26.78 1.84.83 3.92.33 5.84zm36.93 2.33c-.18 1.99-.51 3.98-1.09 5.89-.62 1.89-1.6 3.7-3.05 5.09-1.42 1.41-3.24 2.38-5.16 2.88-1.93.5-3.98.49-5.91.01-1.93-.5-3.76-1.34-5.43-2.43-3.36-2.18-6.09-5.19-8.42-8.42-1.13-1.64-2.07-3.42-2.57-5.35-.5-1.91-.45-4 .34-5.83.78-1.83 2.25-3.33 4.02-4.26 1.77-.94 3.77-1.39 5.76-1.47 4-.08 8.03.14 11.94 1.03 1.94.46 3.88 1.08 5.5 2.23 1.54 1.23 2.8 2.87 3.48 4.74.67 1.87.76 3.91.59 5.89z" fill="#000000" stroke-width="none" opacity="1"></path></g></g></g></g></g><rect id="svga-credit-rect" width="200" height="15" x="0" y="185" fill="#ecf0f1" opacity="0.5" style="display: none;"></rect><text id="svga-credit-text" font-family="Avenir Next, Roboto, Helvetica, Arial, sans-serif" font-size="10px" text-anchor="start" font-weight="400" size="10px" anchor="start" weight="400" fill="#333333" x="33.40447998046875" y="182.60824704170227" style="display: none;"><tspan id="SvgjsTspan12057" dy="13" x="33.40447998046875">Created on AvatarMaker.com</tspan></text></g></svg>