<svg xmlns="http://www.w3.org/2000/svg" version="1.1" width="600px" height="600px" viewBox="0 0 200 200" style="overflow:hidden!important;"><defs id="SvgjsDefs12811"></defs><g id="svga-group-wrapper"><g id="svga-group-backs-single"><path id="SvgjsPath13285" d="M0 0h200v200H0V0z" fill="#5e8c6a" stroke-width="none" opacity="1"></path><path id="SvgjsPath13286" d="M165.5 23.7c11.7 0 21.1 9.5 21.1 21.1S177.2 66 165.5 66s-21.1-9.5-21.1-21.1 9.4-21.2 21.1-21.2zm-77.3 86.5c11.7 0 21.1 9.5 21.1 21.1s-9.5 21.1-21.1 21.1-21.1-9.5-21.1-21.1 9.4-21.1 21.1-21.1zm-37.8 48.9c9.1 0 16.6 7.4 16.6 16.6s-7.4 16.6-16.6 16.6-16.6-7.4-16.6-16.6 7.5-16.6 16.6-16.6zm-.3-132.8c9.1 0 16.6 7.4 16.6 16.6s-7.4 16.6-16.6 16.6S33.5 52 33.5 42.8s7.4-16.5 16.6-16.5zm60.3-7.2c2.7 0 4.8 2.2 4.8 4.8s-2.2 4.8-4.8 4.8-4.8-2.2-4.8-4.8 2.1-4.8 4.8-4.8zm-91.5 97.1c2.7 0 4.8 2.2 4.8 4.8s-2.2 4.8-4.8 4.8-4.8-2.2-4.8-4.8 2.1-4.8 4.8-4.8zm120-5.7c4.8 0 8.8 3.9 8.8 8.8s-3.9 8.8-8.8 8.8-8.8-3.9-8.8-8.8 4-8.8 8.8-8.8z" fill="#477d55" stroke-width="none" opacity="1"></path><path id="SvgjsPath13287" d="M101.8 45.4c14.2 0 25.8 11.5 25.8 25.8S116 97 101.8 97 76 85.4 76 71.2s11.5-25.8 25.8-25.8zm21.6 117.7c7.5 0 13.6 6.1 13.6 13.6s-6.1 13.6-13.6 13.6-13.6-6.1-13.6-13.6 6-13.6 13.6-13.6zm-88.6-35.9c7.2 0 13 5.8 13 12.9S42 153 34.8 153s-13-5.8-13-12.9 5.8-12.9 13-12.9zM55 88.8c2.1 0 3.8 1.7 3.8 3.8s-1.7 3.8-3.8 3.8-3.8-1.7-3.8-3.8 1.7-3.8 3.8-3.8zm44.9 78.4c2.1 0 3.8 1.7 3.8 3.8s-1.7 3.8-3.8 3.8-3.8-1.7-3.8-3.8 1.7-3.8 3.8-3.8zm79.9-82.1c2.1 0 3.8 1.7 3.8 3.8s-1.7 3.8-3.8 3.8-3.8-1.7-3.8-3.8 1.7-3.8 3.8-3.8zM66.7 16.5c2.1 0 3.8 1.7 3.8 3.8s-1.7 3.8-3.8 3.8-3.8-1.7-3.8-3.8 1.7-3.8 3.8-3.8zm-46.8-4.3c2.7 0 4.8 2.2 4.8 4.8s-2.2 4.8-4.8 4.8-4.8-2.2-4.8-4.8 2.1-4.8 4.8-4.8zM15.5 180c2.7 0 4.8 2.2 4.8 4.8s-2.2 4.8-4.8 4.8-4.8-2.2-4.8-4.8 2.2-4.8 4.8-4.8zM149.1 77.2c4.7 0 8.4 3.8 8.4 8.4s-3.8 8.4-8.4 8.4-8.4-3.8-8.4-8.4 3.7-8.4 8.4-8.4zM145.8 5c4.7 0 8.4 3.8 8.4 8.4s-3.8 8.4-8.4 8.4-8.4-3.8-8.4-8.4 3.7-8.4 8.4-8.4zM35.3 70.3c4.8 0 8.8 3.9 8.8 8.8s-3.9 8.8-8.8 8.8-8.8-3.9-8.8-8.8 4-8.8 8.8-8.8zm127.8 58.9c14 0 25.3 11.3 25.3 25.3s-11.3 25.3-25.3 25.3-25.3-11.3-25.3-25.3 11.4-25.3 25.3-25.3z" fill="#346d43" stroke-width="none" opacity="1"></path></g><g id="svga-group-humanwrap-move" transform="matrix(1,0,0,1,0,0)"><g id="svga-group-humanwrap" transform="matrix(1,0,0,1,0,0)"><g id="svga-group-hair-back-move" transform="matrix(1,0,0,1,0,0)"><g id="svga-group-hair-back" transform="matrix(1,0,0,1,0,0)"><path id="SvgjsPath13506" d="M56.4 195.5s-10.4-23.4-6-100.9c3-53.4 32.5-58.7 50.8-58 0 0 12.2-2 23.6 6s19 18.4 22.2 35.5 3.7 68.5 2.6 87.4-5.1 30.4-5.1 30.4l-88.1-.4z" fill="#5c3d2e" stroke-width="none" opacity="1" stroke="none"></path><path id="SvgjsPath13507" d="M75.6 51.2S59.1 76.8 57.2 83.7c-1.9 6.9 5 97 5 97l.5-51.9s3.6 43.2 5.3 49.7c1.7 6.4 1-38.9 1.4-40.9.5-1.9 4.5 35.8 5.3 39.2s49.2 2.4 49.5 1.4c.2-1 2.4-35.4 2.6-38 0 0 2.6 28.4 3.6 37.5 0 0 1-25.1 1.4-40.6 0 0 5.5 35.8 5.5 43.5h3.1s1-17.2.7-28.2c-.2-11 .7-33.7.7-33.7s2.6 51.1 2.1 59c0 0 2.1-14.1 2.1-28.2s-1-46.6-1-48.3-2.4-22-4.8-27.5-37.5-24.1-42.8-24.4-21.8 1.9-21.8 1.9z" fill="#634536" stroke-width="none" opacity="1" stroke="none"></path></g></g><g id="svga-group-humanbody-back"><path id="SvgjsPath13115" d="m168.5 219.5-1.7-21.5s.7-9-8.8-15.3-23.4-10.1-29.5-14.2c-6.1-4.1-9.2-4.5-9-16.9s.9-40.3.9-40.3H79.6s.7 27.9.9 40.3c.2 12.4-2.9 12.8-9 16.9-6.1 4.1-20 7.9-29.5 14.2S33.2 198 33.2 198l-1.6 21.5h136.9z" fill="#f4baa3" stroke-width="none" opacity="1" stroke="none"></path></g><g id="svga-group-chinshadow-single"><path id="SvgjsPath13355" d="M82.6 154.1c5 1.3 7.5 8.3 17.4 8.3 10 0 12.5-7 17.4-8.3.74-.15 1.43-.3 2.1-.46-.01-.64-.01-1.32 0-2.04.2-12.4.9-40.3.9-40.3H79.6s.7 27.9.9 40.3c.01.69.01 1.35 0 1.97.67.16 1.36.33 2.1.53z" fill="#d58464" stroke-width="none" opacity="0.65" stroke="none"></path></g><g id="svga-group-humanbody-front"><path id="SvgjsPath13116" d="M73.8 175.9c5.1 2.9 11.8 5.2 17.6 5.7.4 0 .4-.6.1-.7-2.8-1.1-5.9-1.7-8.8-2.6-2.9-.9-5.8-2-8.8-2.7-.1-.1-.3.2-.1.3zm35.2 6.2c5.3-.6 11.3-3 15.9-5.8.3-.2.1-.6-.2-.5-2.6.9-5.2 2-7.8 2.9-2.6.9-5.4 1.5-8 2.5-.5.1-.5.9.1.9z" fill="#d58464" stroke-width="none" opacity="1" stroke="none"></path><path id="SvgjsPath13117" d="m168.4 219.4-2.1-21.4c0-2.2-.5-4.5-1.5-6.6-.9-2.1-2.3-3.9-3.9-5.5s-3.5-2.8-5.5-4c-2-1.2-4.1-2.2-6.2-3.1-4.2-1.9-8.6-3.6-12.9-5.4-2.2-.9-4.3-1.9-6.4-3-1.1-.6-2.1-1.2-3-1.9-1-.6-2-1.2-3-1.9s-2-1.5-2.8-2.6c-.8-1-1.3-2.2-1.7-3.4-.7-2.4-.8-4.8-.8-7.2 0-4.7.2-9.4.3-14.1.2-9.4.6-18.7.9-28l.6.6-20.4-.2-20.4-.1.3-.3.7 28c.1 4.7.3 9.3.4 14 0 2.4-.1 4.7-.8 7.1-.3 1.2-.9 2.3-1.6 3.3-.8 1-1.7 1.8-2.7 2.5s-2 1.3-2.9 2c-.9.6-1.9 1.3-3 1.9-2.1 1.2-4.2 2.1-6.4 3.1-4.3 1.9-8.6 3.6-12.8 5.6-2.1 1-4.2 2.1-6.1 3.2-2 1.2-3.8 2.4-5.4 4-1.6 1.6-2.9 3.4-3.8 5.4-.4 1-.8 2.1-1 3.1-.2 1.1-.4 2.2-.3 3.2v.2l-1.5 21.5-1-1.1 34 .1c11.3 0 22.7.1 34.1.2l34.2.3 34.4.5zm.2.2-34 .4-34.2.3c-11.4.1-22.9.2-34.4.2l-34.4.1h-1.1l.1-1.1 1.7-21.5v.1c-.1-5.1 2.2-9.8 5.7-13.3 1.7-1.7 3.8-3.1 5.8-4.3 2-1.2 4.2-2.2 6.3-3.2 4.3-2 8.7-3.7 13-5.4 2.1-.9 4.3-1.8 6.3-2.9 1-.5 1.9-1.1 3-1.8 1-.6 2-1.2 2.9-1.9.9-.6 1.8-1.4 2.4-2.2.7-.9 1.2-1.9 1.5-2.9.6-2.1.8-4.5.8-6.8 0-4.6-.1-9.3-.2-14l-.6-28v-.3h.3l20.4-.1 20.4-.2h.6v.6c-.1 9.3-.2 18.7-.4 28-.1 4.7-.2 9.4-.2 14 .1 2.3.2 4.6.8 6.7.3 1.1.8 2 1.4 2.9.6.8 1.4 1.6 2.4 2.2.9.6 1.9 1.3 2.9 1.9 1 .7 1.9 1.3 2.9 1.8 2 1.1 4.1 2.1 6.3 3 4.3 1.8 8.6 3.6 12.9 5.6 2.1 1 4.2 2.1 6.2 3.3 2 1.2 4 2.6 5.7 4.3 3.4 3.4 5.6 8.1 5.4 13v-.1l1.4 21.6zm-112.8-.4 1.9-13.8.1 13.8h-2zm88.6 0-1.9-13.8-.1 13.8h2z" fill="#c66c49" stroke-width="none" opacity="1" stroke="none"></path></g><g id="svga-group-clothes-single"><path id="SvgjsPath13487" d="m50.8 220 8.2-26.1 40.6 18.4 41.4-18.4 8.2 26.1z" fill="#3f82a4" stroke-width="none" opacity="1"></path><path id="SvgjsPath13488" d="m150.1 219.7-4.3-13-4.3-13 7.7-16.3-1.8-.8-6.5 16.9c-3.4 1.6-6.9 3.2-10.3 4.7-3.4 1.5-6.9 3.1-10.3 4.6-6.8 3-13.7 5.9-20.6 8.8l-9.8-4.7c-3.4-1.6-6.7-3.1-10.1-4.7-6.8-3.1-13.6-6.1-20.4-9.1h-.2l-5.9-17.3-1.9.7 7.1 16.8c-.1.1-.1.2-.1.3l-4 13.4-3.7 13 24.2.5 24.6.4 12.4.1h12.4l24.8-.1h.3c.6-.2.8-.7.7-1.2zm-37.4-.7-12.2.1-24.6.4-25 .5 4.5-13.1 4.1-11.9 19.5 9c3.4 1.5 6.8 3.1 10.2 4.5l10.2 4.4c.2.1.3.1.5 0 6.8-3.2 13.7-6.4 20.6-9.5 3.4-1.6 6.9-3 10.4-4.6 3.3-1.4 6.6-2.9 9.9-4.3l3.7 12.6 3.6 11.9-23.2-.1-12.2.1z" fill="#196185" stroke-width="none" opacity="1"></path></g><g id="svga-group-head" transform="matrix(1,0,0,1,0,0)"><g id="svga-group-ears-left-move" transform="matrix(1,0,0,1,0,0)"><g id="svga-group-ears-left" transform="matrix(1,0,0,1,0,0)"><path id="SvgjsPath13313" d="M64 93.7s-2.3-2.2-5-3.3-5.7.7-6.6 3.4 1.2 14 4.7 18.1 5.8 4.4 8.1 2.3c2.3-2 6.4-9.9-1.2-20.5z" fill="#f4baa3" stroke-width="none" opacity="1" stroke="none"></path><path id="SvgjsPath13314" d="M65.2 95.3c.4.6.7 1.2 1.1 1.8.4.6.7 1.3 1 1.9.3.7.6 1.3.8 2 .2.7.5 1.4.6 2.2.1.4.1.8.2 1.1l.1 1.2c0 1.6-.2 3.1-.6 4.6-.5 1.5-1.1 2.8-2.1 3.9-.2.3-.5.5-.7.8-.3.2-.5.4-.8.6-.6.4-1.2.7-1.9.7-.7.1-1.4 0-2-.3s-1.2-.7-1.7-1.1-1-.9-1.5-1.5c-.5-.5-.9-1.1-1.3-1.7-1.5-2.5-2.4-5.3-3.2-8.1-.4-1.4-.7-2.8-1-4.3s-.5-2.9-.4-4.5c0-.4.1-.8.2-1.3.1-.2.1-.4.2-.6l.3-.5c.4-.7.9-1.2 1.4-1.7 1.1-.9 2.4-1.3 3.7-1.1.6.1 1.3.3 1.8.6.6.3 1.1.6 1.7 1 1.1.7 2.1 1.5 3.1 2.4l1 1.9zm-4.4-3.8c-.6-.3-1.1-.5-1.7-.7-.6-.2-1.1-.3-1.7-.3-1.1.1-2.2.5-3.1 1.3-.4.4-.8.8-1.1 1.4-.1.3-.3.5-.4.8-.1.3-.2.5-.2.9-.2 1.3-.1 2.8.1 4.2.2 1.4.4 2.9.7 4.3.7 2.8 1.7 5.6 3.3 7.7.8 1 1.8 1.9 2.7 2.7 1 .7 2.1 1.2 3.1 1 .5-.1 1-.3 1.5-.6s.9-.7 1.3-1.2c.7-1 1.4-2.1 1.7-3.4.4-1.3.6-2.6.7-4 0-1.4-.1-2.8-.4-4.2-.6-2.8-1.8-5.4-3.4-7.6-.9-1-2-1.7-3.1-2.3z" fill="#e59e82" stroke-width="none" opacity="1" stroke="none"></path><path id="SvgjsPath13315" d="M55.9 93.3c3 .5 5 5.7 5.6 9.2.1.1.1.2.2.3.3.5-.4 1.1-.7.6-.4-.7-1-1.5-1.7-1.8-1.3-.5-2 1-1.7 2.5.4 1.7 1.5 2.8 2.5 4.1.1.1 0 .3-.1.2-1.6-1-4-4.5-2.9-6.7.8-1.6 2.1-1.3 3.2-.4-.7-2-1.3-4-2.8-5.5-.5-.5-1.4-1.3-2.1-1.2-1.2.2-1.2 2-1.3 3.1-.1 1.5.1 3.1.3 4.7 0 .2-.2.2-.2.1-.6-2.4-1.8-9.8 1.7-9.2z" fill="#d58464" stroke-width="none" opacity="1" stroke="none"></path></g></g><g id="svga-group-ears-right-move" transform="matrix(1,0,0,1,0,0)"><g id="svga-group-ears-right" transform="matrix(1,0,0,1,0,0)"><path id="SvgjsPath13316" d="M136 93.7s2.3-2.2 5-3.3 5.7.7 6.6 3.4-1.2 14-4.7 18.1-5.8 4.4-8.1 2.3c-2.3-2-6.4-9.9 1.2-20.5z" fill="#f4baa3" stroke-width="none" opacity="1" stroke="none"></path><path id="SvgjsPath13317" d="M136 93.6c1-.9 2-1.7 3.1-2.4.5-.4 1.1-.7 1.7-1 .6-.3 1.2-.5 1.8-.6 1.3-.1 2.6.2 3.7 1.1.5.4 1 1 1.4 1.7l.3.5c.1.2.1.4.2.6.1.4.2.9.2 1.3.1 1.6-.2 3.1-.4 4.5-.3 1.5-.6 2.9-1 4.3-.8 2.8-1.7 5.6-3.2 8.1-.4.6-.8 1.1-1.3 1.7-.4.5-.9 1-1.5 1.5-.5.4-1.1.8-1.7 1.1-.6.3-1.3.4-2 .3s-1.3-.4-1.9-.7c-.3-.2-.6-.4-.8-.6-.3-.2-.5-.5-.7-.8-.9-1.1-1.6-2.5-2.1-3.9-.4-1.5-.7-3-.6-4.6l.1-1.2c0-.4.1-.8.2-1.1.1-.8.4-1.5.6-2.2.3-.7.5-1.4.8-2s.6-1.3 1-1.9.7-1.2 1.1-1.8l1-1.9zm0 .1c-1.6 2.2-2.8 4.9-3.4 7.6-.3 1.4-.4 2.8-.4 4.2 0 1.4.2 2.7.7 4 .4 1.3 1 2.4 1.7 3.4.4.5.8.9 1.3 1.2.5.3.9.6 1.5.6 1 .2 2.1-.3 3.1-1 1-.8 1.9-1.7 2.7-2.7 1.6-2.1 2.6-4.9 3.3-7.7.4-1.4.6-2.8.7-4.3.2-1.4.2-2.9.1-4.2 0-.3-.1-.6-.2-.9-.1-.3-.2-.6-.4-.8-.3-.5-.7-1-1.1-1.4-.9-.7-1.9-1.2-3.1-1.3-.6 0-1.1.1-1.7.3-.6.2-1.1.4-1.7.7-1 .7-2.1 1.4-3.1 2.3z" fill="#e59e82" stroke-width="none" opacity="1" stroke="none"></path><path id="SvgjsPath13318" d="M144.1 93.3c-3 .5-5 5.7-5.6 9.2-.1.1-.1.2-.2.3-.3.5.4 1.1.7.6.4-.7 1-1.5 1.7-1.8 1.3-.5 2 1 1.7 2.5-.4 1.7-1.5 2.8-2.5 4.1-.1.1 0 .3.1.2 1.6-1 4-4.5 2.9-6.7-.8-1.6-2.1-1.3-3.2-.4.7-2 1.3-4 2.8-5.5.5-.5 1.4-1.3 2.1-1.2 1.2.2 1.2 2 1.3 3.1.1 1.5-.1 3.1-.3 4.7 0 .2.2.2.2.1.6-2.4 1.8-9.8-1.7-9.2z" fill="#d58464" stroke-width="none" opacity="1" stroke="none"></path></g></g><g id="svga-group-faceshape-wrap" transform="matrix(1,0,0,1,0,0)"><g id="svga-group-faceshape-single"><path id="SvgjsPath13345" d="M141 85.4c-1.2-28.5-19.88-43.56-41.18-43.56C78.42 41.84 60.2 56.9 59 85.4c0 0-.2 5.4.2 12.1.3 6.6 1.3 11.3.8 19.3s3.43 16.07 8.63 19.97c6 4.5 8.9 4.41 13.9 5.71s7.63 8.42 17.53 8.42c10 0 12.4-6.88 17.3-8.18 5-1.3 8.28-1.37 14.28-5.87 5.2-3.9 8.86-12.04 8.36-20.04s.5-12.6.8-19.3c.4-6.71.2-12.11.2-12.11z" fill="#f4baa3" stroke-width="none" opacity="1" stroke="none"></path><path id="SvgjsPath13346" d="M68.2 137.2c6 4.5 9.4 4.8 14.4 6.1s7.5 8.3 17.4 8.3 12.5-7 17.4-8.3c5-1.3 8.4-1.6 14.4-6.1 5.2-3.9 8.7-12.5 8.2-20.5s.5-12.6.8-19.3c.3-6.6.2-12.1.2-12.1-1.2-28.5-19.7-44.1-41-44.1S60.2 57 59 85.4c0 0-.2 5.4.2 12.1.3 6.6 1.3 11.3.8 19.3-.5 7.9 3 16.5 8.2 20.4zm-8.3-43.11c-.1-1.62-.1-3.35-.1-4.97v-3.65l.1-1.22c0-.81.1-1.62.2-2.43l.3-2.43c.5-3.24 1.2-6.39 2.3-9.53 2.1-6.18 5.7-11.76 10.3-16.12 2.3-2.13 4.9-4.06 7.7-5.47.7-.3 1.4-.71 2.1-1.01.4-.2.7-.3 1.1-.51l2.2-.81s1.8-.61 2.2-.71.7-.2 1.1-.3c12-3.04 25.4-.81 35.4 7 5 3.85 9 9.12 11.8 15 2.7 5.98 4.1 12.57 4.3 19.16v4.97c0 1.62-.1 3.35-.2 4.97-.2 3.35-.6 6.59-1 9.83-.4 3.35-.8 6.69-.8 10.04v3.66l-.1 1.22c-.2 1.52-.5 3.14-.9 4.56-.4 1.52-1 2.94-1.7 4.36s-1.5 2.74-2.4 3.85c-.9 1.22-1.9 2.23-3 3.04l-.2.2-.2.2-.5.3c-.3.2-.6.41-1 .61-.6.41-1.3.81-2 1.12-1.3.71-2.7 1.22-4.1 1.72-1.4.41-3 .81-4.6 1.12l-1.2.3h-.2l-.2.1-.4.1c-.3.1-.5.2-.8.3-1 .41-1.9 1.01-2.6 1.52-1.5 1.12-2.7 2.23-3.9 3.14-1.2.91-2.4 1.62-3.6 2.13-1.3.51-2.6.81-4 .91-.7.1-3.5-.1-4.2-.2-1.4-.3-2.6-.71-3.9-1.32-1.2-.61-2.4-1.52-3.6-2.53-.6-.51-1.3-1.01-2-1.62-.7-.51-1.5-1.12-2.4-1.62-.5-.2-1-.51-1.5-.61l-1.4-.41-2.4-.61c-1.6-.41-3-.71-4.4-1.32-1.4-.51-2.7-1.22-4-2.03-.3-.2-.6-.41-1-.61-.3-.2-.6-.41-.9-.71l-.8-.71-.2-.2-.6-.61c-1-1.01-1.9-2.23-2.7-3.45-.8-1.32-1.5-2.64-2-4.06s-1-2.94-1.3-4.46-.5-3.04-.5-4.56v-5.07c0-1.72-.1-3.35-.3-5.07-.3-3.35-.8-6.59-1.1-9.94 0-1.31-.1-2.93-.2-4.55z" fill="#c66c49" stroke-width="none" opacity="1" stroke="none"></path></g></g><g id="svga-group-mouth-single-move" transform="matrix(1,0,0,1,0,0)"><g id="svga-group-mouth-single" transform="matrix(1,0,0,1,0,0)"><path id="SvgjsPath13300" d="m88.3 129.4-1.7-.9s1.8 4.2 8.1 5.3c4.1.7 10.8.7 14.6-1.1 3.7-1.8 3.7-4.1 3.7-4.1l-14.6-2-5.8-.2-2.8 1.2-1.5 1.8z" fill="#fe856a" stroke-width="none" opacity="1" transform="translate(0 3)" stroke="none"></path><path id="SvgjsPath13301" d="M86.4 128.2c0 .4 1.6 1.9 3.8 1.4.7-.4 1.9-.8 2.7-1 .8-.2 2.2.3 2.6.4.3.1 2.3.7 4.3.7s4.3-.8 5.1-.9c.8-.2 2.1 0 4 .9 2.8 1.3 4.6-1.5 4.6-1.5s-1.6-.7-2-2.1c-.5-1.7-1.9-3.7-5.6-3-3.8.7-4.2 1.5-8.7.4-4.5-1-7.3-.5-8.2 1.7-1.3 2.9-2.6 2.7-2.6 3z" fill="#ef694c" stroke-width="none" opacity="1" transform="translate(0 3)" stroke="none"></path><path id="SvgjsPath13302" d="M111.3 129.2c-1.5 0-2.4-.7-3.7-1.3-.7-.3-1.3-.5-1.9-.4.4-.3.7-.6 1-1 .2-.2 0-.6-.3-.4-2 1-3.7 2.1-6 2.3-2 .2-4.1-.1-6-.8-.2-.1-.2.2-.1.2 3 1.8 7.8 2.2 10.9.1 2.2-.1 4 2.6 6.2 1.8.2-.2.2-.5-.1-.5zm-6.8-5.4c-1.9.2-3.8.5-5.7.4-1.9-.1-3.8-.8-5.8-.7-2.8.1-4.2 2.4-4.7 5-.1.2.3.4.4.1.5-1.7 1-3.8 3-4.4 1.6-.5 3.6.6 5.2.8 2.5.4 5.3.1 7.7-1 0-.1 0-.2-.1-.2z" fill="#ff9077" stroke-width="none" opacity="1" transform="translate(0 3)" stroke="none"></path></g></g><g id="svga-group-eyes-left-move" transform="matrix(1,0,0,1,0,0)"><g id="svga-group-eyes-left" transform="matrix(1,0,0,1,0,0)"><g id="svga-group-eyesback-left"><path id="SvgjsPath13403" d="M91.7 98s-.6-1.7-1.4-2.7c-.7-1-2.9-2.4-4.3-2.7-1.3-.3-3.6-.6-3.6-.6s-4.4 1.5-6.7 4-2.7 4-2.7 4 1.4.9 3.5 1c2.1.2 5.9.2 8.8-.8s3.8-1.9 4.5-1.9 1.9-.3 1.9-.3z" fill="#ffffff" stroke-width="none" opacity="1"></path></g><g id="svga-group-eyesiriswrapper-left" transform="matrix(1,0,0,1,0,0)"><g id="svga-group-eyesiriscontrol-left" transform="matrix(1,0,0,1,0,0)"><g id="svga-group-eyesiris-left" transform="matrix(1,0,0,1,0,0)"><path id="SvgjsPath13359" d="M82 91.5c2.7 0 4.9 2.2 4.9 4.9s-2.2 4.9-4.9 4.9-4.9-2.2-4.9-4.9 2.2-4.9 4.9-4.9z" fill="#4d3623" stroke-width="none" opacity="1"></path><path id="SvgjsPath13360" d="M82 91.8c2.6 0 4.6 2.1 4.6 4.6 0 2.6-2.1 4.6-4.6 4.6-2.6 0-4.6-2.1-4.6-4.6-.1-2.5 2-4.6 4.6-4.6m0-.5c-2.8 0-5.2 2.3-5.2 5.2s2.3 5.2 5.2 5.2 5.2-2.3 5.2-5.2-2.4-5.2-5.2-5.2z" fill="#2e1b0c" stroke-width="none" opacity="1"></path><path id="SvgjsPath13361" d="M84.4 92.1c-.1.3-.3.6-.5.9s-.4.6-.6.8c.1-.3.3-.6.5-.9.2-.2.4-.5.6-.8zm.7.6c-.2.3-.4.6-.6.8-.2.3-.4.5-.7.7.2-.3.4-.6.6-.8.3-.2.5-.5.7-.7zm-.8 1.9.6-.6c.2-.2.4-.4.7-.5l-.6.6c-.2.2-.4.4-.7.5zm.3.6c.3-.2.6-.3.8-.4.3-.1.6-.2.9-.2-.3.2-.6.3-.8.4-.3 0-.6.1-.9.2zm.2.5c.3-.1.6-.2.8-.2.3-.1.6-.1.9-.1-.3.1-.6.2-.8.2-.3.1-.5.1-.9.1zm.1.6c.1 0 .3 0 .4-.1h.4c.3 0 .6.1.8.2h-.9c-.1 0-.3 0-.4-.1 0 .1-.1.1-.3 0zm-.1.6c.3 0 .6.1.9.1s.6.2.8.3c-.3 0-.6-.1-.9-.1-.2-.1-.5-.2-.8-.3zm0 .7c.1 0 .3.1.4.1.1.1.2.1.4.2s.5.3.7.5c-.3-.1-.5-.2-.8-.3-.1-.1-.2-.1-.4-.2-.1-.2-.2-.2-.3-.3zm-.5.7c.3.1.5.2.7.4.2.2.4.3.6.5-.3-.1-.5-.2-.7-.4-.2-.1-.4-.3-.6-.5zm-.9-6.5c0 .3-.1.6-.2.9l-.3.9c0-.3.1-.6.2-.9l.3-.9zm-1.2 1.7c-.1-.3 0-.6 0-.9s.1-.6.2-.9c.1.3 0 .6 0 .9 0 .2-.1.6-.2.9zm-1-1.9c.1.3.2.6.2.9s.1.6.1.9l-.3-.9c0-.2-.1-.3-.1-.5.1-.1.1-.2.1-.4zm-1.1.4c.2.3.3.6.4.9s.2.6.2.9c-.2-.3-.3-.6-.4-.9s-.2-.6-.2-.9zm-.8.5c.2.2.4.5.6.8s.3.6.5.9c-.2-.2-.4-.5-.6-.8-.2-.3-.4-.6-.5-.9zm-1 .8.9.6c.3.2.6.5.8.8l-.9-.6-.8-.8zm-.3.9c.3.1.5.2.7.3.2.1.4.3.6.5-.3-.1-.5-.2-.7-.3-.2-.1-.4-.3-.6-.5zm-.4 1c.2 0 .5 0 .7.1s.4.1.7.3c-.2 0-.5 0-.7-.1s-.5-.1-.7-.3zm-.2 1.1c.3-.1.5-.1.8-.1s.5 0 .8.1c-.3.1-.5.1-.8.1s-.5 0-.8-.1zm.1.9c.2-.1.5-.2.7-.2.2-.1.5-.1.8-.1-.2.1-.5.2-.7.2-.3.1-.5.1-.8.1zm.1.8c.3-.2.5-.2.8-.3s.6-.2.9-.2c-.3.2-.5.2-.8.3-.3.1-.6.2-.9.2zm.4.9c.2-.2.5-.3.7-.4s.5-.2.8-.3c-.2.2-.5.3-.7.4-.2.1-.5.2-.8.3zm.8.8c.1-.2.3-.4.4-.6.2-.2.3-.3.6-.5-.1.2-.3.4-.4.6s-.4.4-.6.5zm.8.8c.1-.3.2-.6.4-.9.2-.3.3-.6.5-.8-.1.3-.2.6-.4.9-.1.3-.3.5-.5.8zm1.1.3c0-.3 0-.5.1-.8s.1-.5.3-.7c0 .3 0 .5-.1.8-.1.3-.1.5-.3.7zm2.5-1.6c.1.2.2.5.3.7s.1.5.2.8c-.1-.2-.2-.5-.3-.7-.1-.3-.2-.6-.2-.8zm.7-.3.5.5c.1.2.3.4.3.6l-.5-.5-.3-.6zm-1.4.5c.1.2.1.5.2.7v.7c-.1-.2-.1-.5-.2-.7v-.7zm-.6.1c.1.2.1.5.1.7s0 .5-.1.7c-.1-.2-.1-.5-.1-.7s0-.5.1-.7z" fill="#2e1b0c" stroke-width="none" opacity="1"></path><path id="SvgjsPath13362" d="M82 93.6c1.5 0 2.8 1.3 2.8 2.8s-1.3 2.8-2.8 2.8-2.8-1.3-2.8-2.8 1.3-2.8 2.8-2.8z" fill="#000000" stroke-width="none" opacity="1"></path><path id="SvgjsPath13363" d="m81.3 94.2-.6-.6c-.2-.2-.4-.3-.7-.3-.2 0-.5.1-.7.3-.2.2-.3.4-.3.7s.1.5.3.7l.6.6c.2.2.4.3.7.3.2 0 .5-.1.7-.3.4-.4.4-1 0-1.4zm2.6 4.7c.9 0 .9-1.4 0-1.4s-.9 1.4 0 1.4z" fill="#ffffff" stroke-width="none" opacity="1"></path></g></g></g><g id="svga-group-eyesfront-left"><path id="SvgjsPath13411" d="M70.73 98.03c0 6.9 4.93 12.5 11.02 12.5s11.02-5.6 11.02-12.5-4.93-12.5-11.02-12.5-11.02 5.59-11.02 12.5zm2.3 1.91s.33-1.48 2.68-3.96c2.34-2.48 6.7-3.96 6.7-3.96s2.3.35 3.63.64c1.33.29 3.54 1.73 4.27 2.68.73.95 1.37 2.7 1.37 2.7s-1.17.13-1.86.2c-.69.07-1.66.88-4.51 1.92-2.85 1.04-6.68.95-8.76.8-2.08-.16-3.52-1.02-3.52-1.02z" fill="#f4baa3" stroke-width="none" opacity="1" stroke="none"></path><path id="SvgjsPath13412" d="M69.06 102.24c.73.04 1.62-.28 2.36-.78-.13.49-.24.99-.3 1.51-.06.48.64.49.78.11.33-.9.71-1.75 1.13-2.56.58.21 1.17.39 1.78.53-.18.17-.34.38-.46.56-.27.4-.41.91-.4 1.39.01.16.2.17.26.03.17-.41.36-.79.6-1.16.17-.27.41-.48.62-.72.28.05.56.1.85.14-.47.34-.78.84-.77 1.45 0 .23.32.27.39.05.17-.53.44-1.09.9-1.44.26.03.52.05.79.07-.12.2-.26.42-.29.64-.02.14.14.27.26.15.2-.19.29-.52.41-.77 1.39.06 2.78-.02 4.09-.21 1.5-.22 2.92-.63 4.32-1.21 1.73-.72 3.43-1.94 5.35-1.85.12.01.13-.14.05-.19.01-.02.03-.05.02-.08-.44-3.51-4.18-5.94-7.65-6.11 1.27-.47 2.55-.91 3.83-1.42.16-.07.16-.36-.05-.34-4.98.59-11.14 3.13-14.48 7.42-.74.18-1.49.2-2.28.16-.17-.01-.24.25-.09.32.61.28 1.27.31 1.89.17-.12.17-.23.35-.34.53-.28.19-.58.36-.87.5-.6.3-1.25.41-1.87.63-.17.06-.21.35 0 .39.78.12 1.54-.1 2.2-.5-.15.31-.29.63-.41.96-.22.2-.44.39-.71.55-.63.36-1.31.53-1.98.77-.15.05-.12.3.07.31zm4.36-2.41a15.81 15.81 0 0 1 4.65-5.09c1.47-1.04 3.04-1.78 4.64-2.42 1.79.12 3.5.46 5.07 1.45 1.71 1.08 2.52 2.6 3.67 4.17-2.68-.09-5.27 1.84-7.9 2.35-3.53.69-6.71.3-10.13-.46z" fill="#09152e" stroke-width="none" opacity="1" stroke="none"></path></g></g></g><g id="svga-group-eyes-right-move" transform="matrix(1,0,0,1,0,0)"><g id="svga-group-eyes-right" transform="matrix(1,0,0,1,0,0)"><g id="svga-group-eyesback-right"><path id="SvgjsPath13404" d="M108.3 98s.6-1.7 1.4-2.7c.7-1 2.9-2.4 4.3-2.7 1.3-.3 3.6-.6 3.6-.6s4.4 1.5 6.7 4 2.7 4 2.7 4-1.4.9-3.5 1c-2.1.2-5.9.2-8.8-.8s-3.8-1.9-4.5-1.9-1.9-.3-1.9-.3z" fill="#ffffff" stroke-width="none" opacity="1"></path></g><g id="svga-group-eyesiriswrapper-right" transform="matrix(1,0,0,1,0,0)"><g id="svga-group-eyesiriscontrol-right" transform="matrix(1,0,0,1,0,0)"><g id="svga-group-eyesiris-right" transform="matrix(1,0,0,1,0,0)"><path id="SvgjsPath13364" d="M118 91.5c2.7 0 4.9 2.2 4.9 4.9s-2.2 4.9-4.9 4.9-4.9-2.2-4.9-4.9 2.2-4.9 4.9-4.9z" fill="#4d3623" stroke-width="none" opacity="1"></path><path id="SvgjsPath13365" d="M118 91.8c2.6 0 4.6 2.1 4.6 4.6 0 2.6-2.1 4.6-4.6 4.6-2.6 0-4.6-2.1-4.6-4.6s2.1-4.6 4.6-4.6m0-.5c-2.8 0-5.2 2.3-5.2 5.2s2.3 5.2 5.2 5.2 5.2-2.3 5.2-5.2-2.3-5.2-5.2-5.2z" fill="#2e1b0c" stroke-width="none" opacity="1"></path><path id="SvgjsPath13366" d="M120.5 92.1c-.1.3-.3.6-.5.9s-.4.6-.6.8c.1-.3.3-.6.5-.9.2-.2.3-.5.6-.8zm.7.6c-.2.3-.4.6-.6.8-.2.3-.4.5-.7.7.2-.3.4-.6.6-.8.2-.2.4-.5.7-.7zm-.9 1.9.6-.6c.2-.2.4-.4.7-.5l-.6.6c-.2.2-.4.4-.7.5zm.3.6c.3-.2.6-.3.8-.4.3-.1.6-.2.9-.2-.3.2-.6.3-.8.4-.3 0-.6.1-.9.2zm.3.5c.3-.1.6-.2.8-.2.3-.1.6-.1.9-.1-.3.1-.6.2-.8.2-.3.1-.6.1-.9.1zm.1.6c.1 0 .3 0 .4-.1h.4c.3 0 .6.1.8.2h-.9c-.1 0-.3 0-.4-.1 0 .1-.2.1-.3 0zm-.2.6c.3 0 .6.1.9.1s.6.2.8.3c-.3 0-.6-.1-.9-.1-.2-.1-.5-.2-.8-.3zm0 .7c.1 0 .3.1.4.1.1.1.2.1.4.2s.5.3.7.5c-.3-.1-.5-.2-.8-.3-.1-.1-.2-.1-.4-.2 0-.2-.2-.2-.3-.3zm-.4.7c.3.1.5.2.7.4.2.2.4.3.6.5-.3-.1-.5-.2-.7-.4-.3-.1-.5-.3-.6-.5zm-.9-6.5c0 .3-.1.6-.2.9l-.3.9c0-.3.1-.6.2-.9 0-.3.1-.6.3-.9zm-1.2 1.7c-.1-.3 0-.6 0-.9s.1-.6.2-.9c.1.3 0 .6 0 .9-.1.2-.1.6-.2.9zm-1.1-1.9c.1.3.2.6.2.9s.1.6.1.9l-.3-.9c0-.2-.1-.3-.1-.5.1-.1.1-.2.1-.4zm-1 .4c.2.3.3.6.4.9s.2.6.2.9c-.2-.3-.3-.6-.4-.9-.1-.3-.2-.6-.2-.9zm-.9.5c.2.2.4.5.6.8s.3.6.5.9c-.2-.2-.4-.5-.6-.8-.2-.3-.4-.6-.5-.9zm-.9.8.9.6c.3.2.6.5.8.8l-.9-.6c-.3-.3-.6-.5-.8-.8zm-.3.9c.3.1.5.2.7.3.2.1.4.3.6.5-.3-.1-.5-.2-.7-.3-.2-.1-.4-.3-.6-.5zm-.4 1c.2 0 .5 0 .7.1s.4.1.7.3c-.2 0-.5 0-.7-.1-.3-.1-.5-.1-.7-.3zm-.2 1.1c.3-.1.5-.1.8-.1s.5 0 .8.1c-.3.1-.5.1-.8.1s-.6 0-.8-.1zm.1.9c.2-.1.5-.2.7-.2.2-.1.5-.1.8-.1-.2.1-.5.2-.7.2-.3.1-.6.1-.8.1zm0 .8c.3-.2.5-.2.8-.3s.6-.2.9-.2c-.3.2-.5.2-.8.3-.3.1-.6.2-.9.2zm.5.9c.2-.2.5-.3.7-.4s.5-.2.8-.3c-.2.2-.5.3-.7.4-.3.1-.5.2-.8.3zm.7.8c.1-.2.3-.4.4-.6.2-.2.3-.3.6-.5-.1.2-.3.4-.4.6-.2.2-.3.4-.6.5zm.9.8c.1-.3.2-.6.4-.9.2-.3.3-.6.5-.8-.1.3-.2.6-.4.9-.1.3-.3.5-.5.8zm1.1.3c0-.3 0-.5.1-.8s.1-.5.3-.7c0 .3 0 .5-.1.8-.1.3-.2.5-.3.7zm2.5-1.6c.1.2.2.5.3.7s.1.5.2.8c-.1-.2-.2-.5-.3-.7-.1-.3-.2-.6-.2-.8zm.7-.3.5.5c.1.2.3.4.3.6l-.5-.5-.3-.6zm-1.4.5c.1.2.1.5.2.7v.7c-.1-.2-.1-.5-.2-.7s-.1-.4 0-.7zm-.7.1c.1.2.1.5.1.7s0 .5-.1.7c-.1-.2-.1-.5-.1-.7s0-.5.1-.7z" fill="#2e1b0c" stroke-width="none" opacity="1"></path><path id="SvgjsPath13367" d="M118 93.6c1.5 0 2.8 1.3 2.8 2.8s-1.3 2.8-2.8 2.8-2.8-1.3-2.8-2.8 1.3-2.8 2.8-2.8z" fill="#000000" stroke-width="none" opacity="1"></path><path id="SvgjsPath13368" d="m117.3 94.2-.6-.6c-.2-.2-.4-.3-.7-.3-.2 0-.5.1-.7.3-.2.2-.3.4-.3.7s.1.5.3.7l.6.6c.2.2.4.3.7.3.2 0 .5-.1.7-.3.4-.4.4-1 0-1.4zm2.6 4.7c.9 0 .9-1.4 0-1.4s-.9 1.4 0 1.4z" fill="#ffffff" stroke-width="none" opacity="1"></path></g></g></g><g id="svga-group-eyesfront-right"><path id="SvgjsPath13413" d="M118.26 85.53c-6.08 0-11.02 5.6-11.02 12.5s4.93 12.5 11.02 12.5 11.02-5.6 11.02-12.5-4.94-12.5-11.02-12.5zm5.19 15.43c-2.08.15-5.91.24-8.76-.8-2.85-1.04-3.83-1.86-4.51-1.92-.69-.07-1.86-.2-1.86-.2s.64-1.75 1.37-2.7c.73-.95 2.94-2.39 4.27-2.68 1.33-.29 3.63-.64 3.63-.64s4.36 1.48 6.7 3.96c2.35 2.48 2.68 3.96 2.68 3.96s-1.44.86-3.52 1.02z" fill="#f4baa3" stroke-width="none" opacity="1" stroke="none"></path><path id="SvgjsPath13416" d="M130.99 101.92c-.67-.24-1.35-.41-1.98-.77-.27-.16-.5-.35-.71-.55-.12-.33-.26-.65-.41-.96.66.4 1.43.62 2.2.5.21-.03.17-.33 0-.39-.63-.22-1.27-.33-1.87-.63-.3-.15-.59-.32-.87-.5-.11-.18-.22-.36-.34-.53.62.14 1.28.11 1.89-.17.16-.07.08-.33-.09-.32-.79.05-1.54.03-2.28-.16-3.33-4.3-9.5-6.83-14.48-7.42-.21-.02-.21.27-.05.34 1.28.51 2.56.95 3.83 1.42-3.47.17-7.21 2.6-7.65 6.11 0 .04.01.06.02.08-.08.06-.07.2.05.19 1.92-.08 3.63 1.14 5.35 1.85 1.4.58 2.82 1 4.32 1.21 1.31.19 2.7.27 4.09.21.12.25.21.58.41.77.12.12.28-.01.26-.15-.03-.21-.17-.43-.29-.64.26-.02.53-.04.79-.07.45.35.72.91.9 1.44.07.21.39.18.39-.05.01-.61-.31-1.11-.77-1.45.28-.04.56-.08.85-.14.2.24.44.46.62.72.24.37.43.75.6 1.16.05.13.25.12.26-.03.02-.48-.13-1-.4-1.39-.12-.18-.28-.39-.46-.56.61-.14 1.21-.32 1.78-.53.42.8.79 1.65 1.13 2.56.14.39.84.37.78-.11-.06-.52-.16-1.02-.3-1.51.74.5 1.64.81 2.36.78.21 0 .24-.25.07-.31zm-14.55-1.63c-2.64-.51-5.22-2.45-7.9-2.35 1.15-1.57 1.96-3.08 3.67-4.17 1.57-.99 3.28-1.33 5.07-1.45 1.61.64 3.17 1.38 4.64 2.42 2.03 1.43 3.5 3.11 4.65 5.09-3.41.76-6.59 1.15-10.13.46z" fill="#09152e" stroke-width="none" opacity="1" stroke="none"></path></g></g></g><g id="svga-group-facehighlight-single"></g><g id="svga-group-eyebrows-left-move" transform="matrix(1,0,0,1,0,0)"><g id="svga-group-eyebrows-left-rotate" transform="matrix(1,0,0,1,0,0)"><g id="svga-group-eyebrows-left" transform="matrix(1,0,0,1,0,0)"><path id="SvgjsPath13463" d="M70.7 85.3c.1 0 .3 0 .4.1.2-.1.6-.1.9 0 .1 0 .3 0 .4-.1.5-.1.9-.1 1.4-.1h.5c.5-.2 1-.3 1.5-.3.8-.1 1.6-.2 2.4-.2.3-.1.5-.1.8-.2.5-.1.9-.3 1.4-.4.4-.1.8-.1 1.3-.2 1.1-.4 2.2-.8 3.4-1.2h.2c.8-.4 1.7-.8 2.7-1h.1c.6-.2 1.2-.3 1.8-.2.3 0 .6 0 .8.2.1 0 .2.1.3.1 1.1.3 1.2 1.8.7 2.6-.3.5-.9 1-1.6 1.4-.5.4-1.1.6-1.8.7 0 0-.1 0-.1.1-1.5.6-3.3.9-5 .8-1 0-2.3 0-3.3-.4-1 .3-2.3.1-3.4-.1-.7-.1-1.4-.1-2.1-.3-.5.1-1.1 0-1.6-.1s-1.3-.1-1.7-.4L71 86c-.2 0-.3-.1-.5-.1-.4-.2-.2-.6.2-.6z" fill="#6b4e40" stroke-width="none" opacity="1"></path><path id="SvgjsPath13464" d="M87.7 81.6c1.9-.1 3.4 1.5 3.6 2.8.2-1.2-.2-2.4-2-2.8-.2 0-.2-.2 0-.3 2.5-.3 3.3 2.6 2 3.8h-.2c-.1 0-.2 0-.2-.1-.2-.7-.4-1.4-1.1-2-.6-.6-1.5-.8-2.3-1.2 0-.1 0-.2.2-.2zm-5.9 1.6c2.8-.8 6.7.4 7.8 2.5 0 .1-.1.2-.1.1-.8-.8-1.7-1.5-2.9-1.9-1.6-.5-3.1-.4-4.7-.4-.3-.1-.3-.2-.1-.3zm-4.5 1.1c1.4.6 2.8 1.2 4.4 1.5 1.5.4 3.1.6 4.7.7.1 0 .1.2 0 .2-3.2.1-6.8-.6-9.3-2.1-.2-.1 0-.4.2-.3zm-6 1c1.6.3 3.1.8 4.6 1 1.6.3 3.2.4 4.7.6.1 0 .1.1 0 .1-3.1.2-6.8-.4-9.5-1.5-.1-.1 0-.3.2-.2z" fill="#7a6155" stroke-width="none" opacity="1"></path><path id="SvgjsPath13465" d="M82.4 87.4c3.5 0 9.3-.1 10.1-3.5.2-1.1-.3-2.2-1.5-2.8-1.6-.8-3.3-.1-4.8.5-5.1 2-10.3 2.9-15.9 3.5-.2 0-.3.2-.3.3-.1-.1-.3-.1-.4-.2-.2-.1-.4.1-.3.2 1.1 1.2 3.4 1.3 5.1 1.5 2.7.4 5.4.6 8 .5zm-12-1.9c2.3 0 4.6-.3 6.9-.8 1.6.9 3.4 1.6 5.4 2.1h-1.5c-3.4 0-7.6-.1-10.8-1.3zm10.7-1.6c.1 0 .1 0 .2-.1l.1.1c2.2.6 4 1.4 5.8 2.7-1.1.2-2.2.2-3.3.3h-.1c-2.1-.6-4.1-1.3-6.1-2.1 1.1-.3 2.3-.6 3.4-.9zm6.4 2.6c-1.4-1.4-3.5-2.4-5.7-2.8.9-.2 1.8-.5 2.7-.8 1.2.3 2.3.5 3.3 1.1.9.5 1.6 1.1 2.2 1.7-.8.4-1.6.6-2.5.8.1 0 0 0 0 0zm3.5-1.6c-.3-1.3-1.8-2.7-3.4-2.9-.2 0-.3.1-.2.2.7.4 1.4.7 2 1.2.6.6.9 1.2 1.2 1.8-.1.1-.2.1-.2.2-1-1.4-3.1-2.6-5.2-2.8.2-.1.3-.1.5-.2 2-.7 5.4-2.1 6.1.5.1.8-.2 1.5-.8 2z" fill="#5c3d2e" stroke-width="none" opacity="1"></path></g></g></g><g id="svga-group-eyebrows-right-move" transform="matrix(1,0,0,1,0,0)"><g id="svga-group-eyebrows-right-rotate" transform="matrix(1,0,0,1,0,0)"><g id="svga-group-eyebrows-right" transform="matrix(1,0,0,1,0,0)"><path id="SvgjsPath13466" d="M129.3 85.3c-.1 0-.3 0-.4.1-.2-.1-.6-.1-.9 0-.1 0-.3 0-.4-.1-.5-.1-.9-.1-1.4-.1h-.5c-.5-.2-1-.3-1.5-.3-.8-.1-1.6-.2-2.4-.2-.3-.1-.5-.1-.8-.2-.5-.1-.9-.3-1.4-.4-.4-.1-.8-.1-1.3-.2-1.1-.4-2.2-.8-3.4-1.2h-.2c-.8-.4-1.7-.8-2.7-1h-.1c-.6-.2-1.2-.3-1.8-.2-.3 0-.6 0-.8.2-.1 0-.2.1-.3.1-1.1.3-1.2 1.8-.7 2.6.3.5.9 1 1.6 1.4.5.4 1.1.6 1.8.7 0 0 .1 0 .1.1 1.5.6 3.3.9 5 .8 1 0 2.3 0 3.3-.4 1 .3 2.3.1 3.4-.1.7-.1 1.4-.1 2.1-.3.5.1 1.1 0 1.6-.1s1.3-.1 1.7-.4c.1 0 .1-.1.2-.1.2 0 .4-.1.5-.1.3-.2.1-.6-.3-.6z" fill="#6b4e40" stroke-width="none" opacity="1"></path><path id="SvgjsPath13467" d="M112.3 81.6c-1.9-.1-3.4 1.5-3.6 2.8-.2-1.2.2-2.4 2-2.8.2 0 .2-.2 0-.3-2.5-.3-3.3 2.6-2 3.8h.2c.1 0 .2 0 .2-.1.2-.7.4-1.4 1.1-2 .6-.6 1.5-.8 2.3-1.2 0-.1 0-.2-.2-.2zm5.9 1.6c-2.8-.8-6.7.4-7.8 2.5 0 .1.1.2.1.1.8-.8 1.7-1.5 2.9-1.9 1.6-.5 3.1-.4 4.7-.4.3-.1.3-.2.1-.3zm4.5 1.1c-1.4.6-2.8 1.2-4.4 1.5-1.5.4-3.1.6-4.7.7-.1 0-.1.2 0 .2 3.2.1 6.8-.6 9.3-2.1.2-.1 0-.4-.2-.3zm6 1c-1.6.3-3.1.8-4.6 1-1.6.3-3.2.4-4.7.6-.1 0-.1.1 0 .1 3.1.2 6.8-.4 9.5-1.5.1-.1 0-.3-.2-.2z" fill="#7a6155" stroke-width="none" opacity="1"></path><path id="SvgjsPath13468" d="M125.5 87c1.7-.2 4-.3 5.1-1.5.1-.1-.1-.3-.3-.2-.1.1-.2.1-.4.2 0-.1-.1-.3-.3-.3-5.7-.5-10.8-1.5-15.9-3.5-1.4-.6-3.2-1.3-4.8-.5-1.2.6-1.8 1.8-1.5 2.8.8 3.4 6.6 3.5 10.1 3.5 2.7 0 5.4-.2 8-.5zm-6.7-.2h-1.5c1.9-.4 3.8-1.2 5.4-2.1 2.3.4 4.6.7 6.9.8-3.2 1.2-7.4 1.3-10.8 1.3zm3.5-2.1c-2 .8-4 1.5-6.1 2.1h-.1c-1.1 0-2.2-.1-3.3-.3 1.7-1.2 3.5-2 5.8-2.7 0 0 .1 0 .1-.1.1 0 .1 0 .2.1 1.1.4 2.3.7 3.4.9zm-9.9 1.8c-.8-.2-1.7-.4-2.4-.8.7-.6 1.3-1.2 2.2-1.7 1-.5 2.2-.8 3.3-1.1.9.3 1.8.6 2.7.8-2.2.4-4.4 1.5-5.8 2.8.1 0 0 0 0 0zm-4.1-3.5c.7-2.6 4.1-1.2 6.1-.5.2.1.3.1.5.2-2.1.2-4.3 1.4-5.2 2.8-.1-.1-.2-.1-.2-.2.3-.7.6-1.3 1.2-1.8s1.3-.8 2-1.2c.2-.1 0-.2-.2-.2-1.6.2-3.1 1.6-3.4 2.9-.7-.6-1-1.3-.8-2z" fill="#5c3d2e" stroke-width="none" opacity="1"></path></g></g></g><g id="svga-group-nose-single-move" transform="matrix(1,0,0,1,0,0)"><g id="svga-group-nose-single" transform="matrix(1,0,0,1,0,0)"><path id="SvgjsPath13445" d="M95.84 101.8c-2.18 3.69-3.44 8.03-4.17 12.23-.17.99-.77 2.77.36 3.43.85.5 1.81-.13 2.46-.67.15-.13-.04-.37-.21-.27-3.09 1.84-2.13-2.1-1.91-3.27.25-1.34.56-2.68.94-3.99.72-2.53 1.76-4.93 2.74-7.37.03-.12-.15-.19-.21-.09z" fill="#c66c49" stroke-width="none" opacity="1" transform="translate(0 2)" stroke="none"></path><path id="SvgjsPath13446" d="M93.42 115.19c1.79.41 3.33 1 4.57 2.42.62.71 1.15 1.66 2.16 1.85 2.86.55 3-4.08 5.63-4.3.3-.03.3-.45 0-.47-2.76-.13-3.78 5.95-6.58 3.35-.86-.8-1.42-1.75-2.46-2.37-1-.6-2.1-.92-3.27-.86-.2.02-.26.33-.05.38z" fill="#c66c49" stroke-width="none" opacity="1" transform="translate(0 2)" stroke="none"></path><path id="SvgjsPath13447" d="M104.61 116.52c1.08-.19 2.8 1.05 3.73.01.73-.81.06-2.55-.14-3.43-.83-3.69-2.15-7.85-4.48-10.89-.16-.21-.46-.04-.36.21 1.3 2.93 2.8 5.64 3.74 8.74.21.69.4 1.39.57 2.09.09.4.18.81.26 1.21.47.83.25 1.3-.66 1.42-1.15.57-.78.15-1.82.15-.55 0-.47 0-.95.25-.12.07-.02.26.11.24z" fill="#c66c49" stroke-width="none" opacity="1" transform="translate(0 2)" stroke="none"></path><path id="SvgjsPath13448" d="M97.78 108.06c2.2-1.29 4.06-.77 5.96.7.17.13.43-.03.31-.24-1.33-2.26-4.64-2.33-6.5-.75-.16.13.05.39.23.29z" fill="#c66c49" stroke-width="none" opacity="1" transform="translate(0 2)" stroke="none"></path><path id="SvgjsPath13449" d="M101.97 109.2c-1.51-.64-3.63-.95-4.85.41-.21.24-.23.71.11.86 1.72.76 3.54.66 5.01 2.01.72.67 2.59 2.31 2.98.36.36-1.72-1.95-3.1-3.25-3.64z" fill="#fcc9b5" stroke-width="none" opacity="1" transform="translate(0 2)" stroke="none"></path></g></g><g id="svga-group-hair-front" transform="matrix(1,0,0,1,0,0)"><path id="SvgjsPath13504" d="M101 38.8S86.2 36.5 72.5 48 57 77 57 88.4s2.8 33.1 7.2 44.8c0 0-4.8-27.8-2.5-41.8 0 0 .8 16.8 2.8 28.3 0 0-1.2-31.1 2.5-47.4 0 0-1.5 12-.8 21.7 0 0 2.8-26.7 10.5-40 0 0-6.2 12.7-5 29 0 0 3.8-15.5 6-19.6 0 0-2 8.7-.8 18.8 0 0 2.5-12.5 4.2-16.3 0 0-.2 12.5 1.8 18.3 0 0 2.8-22.4 7.2-32.1 0 0-3.5 14-3 27l3.2-14.5-.2 20.6 3.2-19.6.8 18.6 1.5-8.2.8 5.6L98.2 64s1 13.2 1 19.3c0 0 4.5-13.5 5-22.9 0 0 .8 12.5 1 21.1 0 0 5.2-12 5.8-26.2 0 0 3.2 14 2.5 26.7 0 0 2-7.1 3-16 0 0 3.5 14.3 3.2 21.1 0 0 4-12 3-28.3 0 0 3.8 19.1 3.5 28.3 0 0 2-7.9 1.2-17.1 0 0 3.2 9.9 3.5 18.8 0 0 2.8-14 1-24.2 0 0 3.2 26.7 1.8 44.3 0 0 2.8-10.7 3-21.7 0 0 .8 29.5-2.8 43.5 0 0 4.5-14.8 6.5-31.6s1.5-23.7-2-35.1S122 38 101 38.8z" fill="#6b4e40" stroke-width="none" opacity="1" stroke="none"></path><path id="SvgjsPath13505" d="M117.1 43.1c.4.2 11.8 6 15.6 15.3 3.8 9.3 3.3 17.3 3.3 17.3s-3.2-13.8-7.3-19.4c0 0 1.5 5.7 1.7 11.3 0 0-2.7-11.8-11-19.6 0 0 2 12.3 1.5 20.6 0 0-2.2-16.3-3.3-18.4 0 0-.2 8.3-.3 10.1-.2 1.8-2.7-12.5-2.7-12.5l-.5 6-2.3-13s2.3.7 5.3 2.3zm-6.7-1.1s-.8 15.6-2 20.1c.1-.1-1.1-12.5 2-20.1zm-14.2-.8s-4.7 11.5-4.6 21.2l3.1-11.2s-.5 11.8.2 17.4c0 0 2.1-14.2 2.6-20.5 0 0 2.4 12.5 2.5 16.4 0 0 1.4-13 1.4-19.9 0 0 1.4 6.3 1.5 10.7l1.5-13.7s.9 6.1 1 5.7c.1-.4 1.7-6.2 1.7-6.2s-5-1.5-10.9.1zm-4.7 2.7s-6.1 11-7.3 17.4c0 0 .2-4.8 1.1-10 0 0-4.2 6.8-5.1 11.4 0 0-.1-9 4.8-16.2l-.3 2.5 6.8-5.1z" fill="#7a6155" stroke-width="none" opacity="1" stroke="none"></path></g><g id="svga-group-glasses-single-move" transform="matrix(1,0,0,1,0,0)"><g id="svga-group-glasses-single" transform="matrix(1,0,0,1,0,0)"></g></g></g></g></g><rect id="svga-credit-rect" width="200" height="15" x="0" y="185" fill="#ecf0f1" opacity="0.5" style="display: none;"></rect><text id="svga-credit-text" font-family="Avenir Next, Roboto, Helvetica, Arial, sans-serif" font-size="10px" text-anchor="start" font-weight="400" size="10px" anchor="start" weight="400" fill="#333333" x="33.40447998046875" y="182.60824704170227" style="display: none;"><tspan id="SvgjsTspan12859" dy="13" x="33.40447998046875">Created on AvatarMaker.com</tspan></text></g></svg>