<?xml version="1.0" standalone="no"?>
<!DOCTYPE svg PUBLIC "-//W3C//DTD SVG 20010904//EN"
 "http://www.w3.org/TR/2001/REC-SVG-20010904/DTD/svg10.dtd">
<svg version="1.0" xmlns="http://www.w3.org/2000/svg"
 width="700.000000pt" height="700.000000pt" viewBox="0 0 700.000000 700.000000"
 preserveAspectRatio="xMidYMid meet">
<metadata>
Created by potrace 1.14, written by Peter Selinger 2001-2017
</metadata>
<g transform="translate(0.000000,700.000000) scale(0.100000,-0.100000)"
fill="#000000" stroke="none">
<path d="M6010 6985 c-30 -9 -78 -30 -107 -48 -30 -18 -209 -188 -425 -403
-205 -204 -407 -399 -448 -433 -41 -35 -85 -72 -98 -83 -168 -140 -450 -316
-683 -427 -266 -126 -612 -239 -854 -280 -33 -6 -69 -12 -80 -14 -11 -3 -45
-8 -76 -11 -31 -4 -66 -9 -78 -11 -12 -2 -60 -7 -109 -10 -48 -4 -105 -9 -127
-11 -22 -2 -510 -4 -1085 -4 -575 -1 -1067 -5 -1095 -10 -112 -20 -141 -29
-233 -71 -234 -108 -399 -298 -479 -556 l-28 -88 0 -790 c0 -434 4 -809 8
-833 11 -58 55 -188 77 -227 39 -70 46 -81 81 -130 79 -109 205 -214 321 -268
56 -26 168 -68 168 -62 0 2 12 0 27 -6 16 -6 62 -13 103 -16 41 -3 77 -7 80
-10 3 -3 5 -406 6 -896 0 -828 3 -955 24 -997 4 -8 19 -37 31 -63 47 -96 157
-181 273 -211 87 -23 1004 -23 1090 -1 149 39 256 139 307 286 l22 64 1 910 1
910 145 -1 c133 0 318 -9 366 -18 10 -2 46 -7 79 -10 140 -17 296 -48 476 -97
109 -29 293 -90 326 -107 10 -6 23 -11 28 -12 68 -16 414 -185 513 -251 24
-16 45 -29 48 -29 7 0 151 -97 219 -148 194 -146 248 -195 489 -437 103 -104
269 -272 368 -372 227 -229 289 -264 453 -264 202 0 396 172 421 371 4 30 7
511 8 1069 l1 1014 36 21 c144 82 267 241 332 426 50 142 57 184 61 350 5 157
-8 247 -50 379 -64 196 -201 379 -338 451 l-43 23 0 1021 c0 562 -3 1043 -7
1070 -20 145 -141 290 -286 341 -65 24 -193 28 -260 10z m-322 -3257 c0 -981
-2 -1787 -5 -1791 -3 -5 -8 -5 -12 0 -10 16 -191 165 -296 244 -346 261 -732
470 -1150 623 -77 28 -248 84 -280 91 -11 3 -74 18 -140 35 -144 37 -144 36
-270 60 -27 5 -59 11 -70 13 -11 3 -45 8 -75 12 -30 4 -62 9 -70 10 -8 1 -49
6 -90 10 -41 4 -82 9 -90 10 -36 6 -285 17 -392 17 -65 0 -119 3 -119 6 -1 4
-2 298 -3 655 -1 427 2 647 9 648 5 1 71 2 145 4 123 2 299 11 375 19 17 2 59
7 95 10 121 13 364 57 510 92 132 31 376 102 425 123 11 5 49 19 85 32 441
154 1017 498 1352 806 32 29 60 53 62 53 2 0 4 -802 4 -1782z"/>
</g>
</svg>
